<?xml version="1.0" standalone="no"?>
<!DOCTYPE svg PUBLIC "-//W3C//DTD SVG 1.1//EN" "http://www.w3.org/Graphics/SVG/1.1/DTD/svg11.dtd" >
<svg>
<metadata>
Created by FontForge 20110222 at Tue Feb 10 10:07:23 2015
 By deploy user
Developer: Al Mamun Sumon
Developed under "Ekushey Font Development Project."
http://www.ekushey.org

This Font Software is licensed under the SIL Open Font License, Version 1.0.
No modification of the license is permitted, only verbatim copy is allowed.
This license and a FAQ is also available at: http://scripts.sil.org/OFLved.ed.
</metadata>
<defs>
<font id="EkusheySumon" horiz-adv-x="469" >
  <font-face 
    font-family="Ekushey Sumon"
    font-weight="400"
    font-stretch="normal"
    units-per-em="1000"
    panose-1="2 0 5 3 0 0 0 2 0 4"
    ascent="800"
    descent="-200"
    x-height="409"
    cap-height="527"
    bbox="-517.875 -426 1114 866"
    underline-thickness="20"
    underline-position="-297"
    unicode-range="U+0020-25CC"
  />
<missing-glyph horiz-adv-x="413" 
d="M339 484h-275v-543h275v543zM381 527v-628h-359v627z" />
    <glyph glyph-name=".notdef" horiz-adv-x="413" 
d="M339 484h-275v-543h275v543zM381 527v-628h-359v627z" />
    <glyph glyph-name="NULL" horiz-adv-x="0" 
 />
    <glyph glyph-name="nonmarkingreturn" horiz-adv-x="0" 
 />
    <glyph glyph-name="space" unicode=" " horiz-adv-x="364" 
 />
    <glyph glyph-name="exclam" unicode="!" horiz-adv-x="300" 
d="M200 485q0 -88 -16 -215l-26 -214h-16q-13 109 -26 217q-16 129 -16 217q0 26 12 45q14 23 38 23q50 0 50 -73zM198 -52q0 -22 -14 -38.5t-35 -16.5q-20 0 -34 16.5t-14 38.5q0 21 14 37t34 16q21 0 35 -16t14 -37z" />
    <glyph glyph-name="quotedbl" unicode="&#x22;" horiz-adv-x="367" 
d="M308 571q0 -50 -12 -117l-22 -116h-21q-11 56 -22 113q-12 66 -12 113q0 59 45 59q20 0 32 -15.5t12 -36.5zM146 571q0 -49 -12 -117q-12 -58 -23 -116h-19q-11 56 -21 112q-13 67 -13 114q0 59 44 59q20 0 32 -15.5t12 -36.5z" />
    <glyph glyph-name="numbersign" unicode="#" horiz-adv-x="450" 
d="M434 150h-120l-41 -222h-35l40 222h-149l-42 -222h-36l40 222h-75v41h82l31 167h-113v39h121l40 222h37l-40 -222h148l42 222h37l-42 -222h75v-39h-82l-30 -167h112v-41zM316 358h-150l-31 -167h149z" />
    <glyph glyph-name="dollar" unicode="$" horiz-adv-x="424" 
d="M237 -71q-8 -8 -12.5 -9.5t-15.5 -4.5l-12 10v674q6 3 9 5l4.5 3t5 2t9.5 3l12 -10v-673zM389 161q0 -30 -11.5 -60.5t-36 -55.5t-62.5 -41t-91 -16q-31 0 -64 11t-75 37q-2 2 -4 14.5t-2 29.5t1.5 34.5t4.5 30.5l20 -2q24 -53 64.5 -77t88.5 -24q21 0 39.5 7t33.5 19.5
t24.5 30t9.5 38.5q0 37 -21 59.5t-52.5 37.5t-67.5 27t-67.5 29t-52 42.5t-20.5 67.5q0 21 9 45t30.5 44t56.5 33.5t88 13.5q43 0 79.5 -11t54.5 -30q3 -2 -0.5 -11t-9.5 -18.5t-14 -18.5t-13 -15l-18 4q-25 29 -52 42.5t-54 13.5q-28 0 -47.5 -6.5t-31.5 -16.5t-17 -22.5
t-5 -25.5q0 -29 21 -47.5t53 -32t69 -26.5t68.5 -32t52.5 -48t21 -74z" />
    <glyph glyph-name="percent" unicode="%" horiz-adv-x="587" 
d="M218 425q0 27 -10 47q-13 26 -37 26q-35 0 -61 -56q-21 -47 -21 -87q0 -47 37 -47t66 40q26 38 26 77zM520 132q0 26 -10 47q-12 26 -37 26q-37 0 -62 -53q-21 -42 -21 -84q0 -48 37 -48t66 38q27 34 27 74zM492 551l-331 -582h-51l286 501q-35 -26 -79 -26q-35 0 -78 17
q6 -10 6 -38q0 -59 -37 -106q-38 -49 -96 -49q-35 0 -57 41q-20 36 -20 74q0 59 34 104q37 49 96 49q6 0 62 -28q56 -26 94 -26q34 0 73 21q38 20 59 48h39zM547 130q0 -58 -34 -100q-36 -46 -92 -46q-39 0 -63 34q-21 31 -21 71q0 60 35 104q37 49 95 49q39 0 61 -39
q19 -30 19 -73z" />
    <glyph glyph-name="quotesingle" unicode="'" horiz-adv-x="162" 
d="M125 570q0 -48 -13 -117l-22 -116h-20q-10 56 -21 112q-12 67 -12 114q0 59 42 59q21 0 33.5 -15.5t12.5 -36.5z" />
    <glyph glyph-name="parenleft" unicode="(" horiz-adv-x="300" 
d="M279 -214q-116 65 -181 193q-61 120 -61 261q0 142 59 262q66 134 183 192v-20q-157 -98 -157 -422q0 -150 26 -245q37 -130 131 -203v-18z" />
    <glyph glyph-name="parenright" unicode=")" horiz-adv-x="300" 
d="M263 241q0 -142 -59 -263q-66 -133 -184 -192v18q158 99 158 422q0 151 -26 245q-37 131 -132 203v20q117 -64 182 -193q61 -119 61 -260z" />
    <glyph glyph-name="asterisk" unicode="*" horiz-adv-x="450" 
d="M387 431q0 -33 -58 -53l-86 -26q43 -14 86 -27q56 -19 56 -55q0 -14 -9.5 -25t-23.5 -11q-24 0 -62 41q-27 30 -55 60q1 -23 13.5 -69t12.5 -71q0 -16 -9 -31t-24 -15q-39 0 -39 47q0 26 13 70q13 48 15 69q-3 -3 -56 -59q-40 -42 -61 -42q-15 0 -25.5 10.5t-10.5 25.5
q0 35 57 55q43 14 86 27q-43 13 -86 27q-57 19 -57 55q0 14 9.5 24.5t23.5 10.5q26 0 64 -40q50 -55 56 -59q-1 21 -14 65t-13 68q0 51 37 51q34 0 34 -50q0 -25 -12 -68q-12 -46 -14 -66q5 3 55 58q37 40 62 40q15 0 25 -11t10 -26z" />
    <glyph glyph-name="plus" unicode="+" horiz-adv-x="508" 
d="M490 338h-220v-244h-35v244h-219v40h219v242h35v-242h220v-40z" />
    <glyph glyph-name="comma" unicode="," horiz-adv-x="225" 
d="M179 10q0 -114 -131 -162v22q41 15 68 49t27 76q0 5 -4 16l-6 4q-9 -4 -19 -9t-19 -5q-47 0 -47 54q0 23 17 40.5t40 17.5q36 0 56 -35q18 -30 18 -68z" />
    <glyph glyph-name="hyphen" unicode="-" horiz-adv-x="300" 
d="M264 243h-228v73h228v-73z" />
    <glyph glyph-name="period" unicode="." horiz-adv-x="225" 
d="M161 41q0 -22 -14 -38.5t-35 -16.5q-20 0 -34 16.5t-14 38.5q0 21 14 37.5t34 16.5q21 0 35 -16.5t14 -37.5z" />
    <glyph glyph-name="slash" unicode="/" horiz-adv-x="250" 
d="M252 694l-216 -708h-35l216 708h35z" />
    <glyph glyph-name="colon" unicode=":" horiz-adv-x="250" 
d="M190 434q0 -21 -14 -37.5t-35 -16.5t-35 16.5t-14 37.5t14 37.5t35 16.5t35 -16.5t14 -37.5zM189 68q0 -22 -14 -38.5t-35 -16.5t-35 16.5t-14 38.5q0 21 14 37.5t35 16.5t35 -16.5t14 -37.5z" />
    <glyph glyph-name="semicolon" unicode=";" horiz-adv-x="250" 
d="M173 439q0 -21 -14 -37.5t-35 -16.5t-35 16.5t-14 37.5t14 37t35 16t35 -16t14 -37zM193 26q0 -114 -131 -162v22q42 15 68.5 49t26.5 76q0 5 -4 16l-6 4q-9 -4 -19 -9t-19 -5q-47 0 -47 54q0 23 17 40.5t40 17.5q36 0 57 -35q17 -30 17 -68z" />
    <glyph glyph-name="less" unicode="&#x3c;" horiz-adv-x="542" 
d="M489 47l-473 230v24l473 227v-42l-407 -197l407 -198v-44z" />
    <glyph glyph-name="equal" unicode="=" horiz-adv-x="508" 
d="M490 367h-474v40h474v-40zM490 208h-474v40h474v-40z" />
    <glyph glyph-name="greater" unicode="&#x3e;" horiz-adv-x="544" 
d="M512 278l-473 -228v42l408 197l-408 198v44l473 -229v-24z" />
    <glyph glyph-name="question" unicode="?" horiz-adv-x="399" 
d="M203 45q0 18 12 31t29 13t29.5 -13t12.5 -31t-12.5 -31t-29.5 -13t-29 13t-12 31zM233 105q6 23 14.5 50t17.5 52.5t16 46t9 31.5t7.5 32.5t10 47.5t5.5 53t-5.5 49.5t-22.5 37.5t-46 17q-23 3 -41 -5t-29.5 -18.5t-16.5 -20.5t-3 -11q16 -10 24 -29.5t8 -40t-8.5 -37
t-24.5 -19.5q-17 -3 -27 2t-16 16t-8.5 25t-4.5 29q-2 50 13 79t39 43.5t53.5 18.5t58.5 4q42 -8 66 -26.5t35 -43.5t12 -54t-4.5 -58t-14 -55.5t-15.5 -45.5q-14 -41 -34.5 -85.5t-37.5 -84.5h-30z" />
    <glyph glyph-name="bracketleft" unicode="[" horiz-adv-x="300" 
d="M267 -198h-193v875h193v-38h-127v-799h127v-38z" />
    <glyph glyph-name="backslash" unicode="\" 
d="M16 782h78l359 -940h-78z" />
    <glyph glyph-name="bracketright" unicode="]" horiz-adv-x="300" 
d="M226 -199h-193v39h127v799h-127v38h193v-876z" />
    <glyph glyph-name="asciicircum" unicode="^" horiz-adv-x="414" 
d="M369 154h-44l-114 312l-113 -312h-44l135 373h45z" />
    <glyph glyph-name="underscore" unicode="_" 
d="M39 16h388v-61h-388v61z" />
    <glyph glyph-name="grave" unicode="`" horiz-adv-x="319" 
d="M214 526q-11 -9 -27 -15l-172 184l10 20q5 1 14.5 3t20.5 4t21 3.5t16 1.5z" />
    <glyph glyph-name="braceleft" unicode="{" horiz-adv-x="408" 
d="M207 -159q-38 38 -49 68q-7 20 -7 67q0 123 -8 157q-20 78 -103 109l-2 29q114 51 114 168q0 144 25 197q39 85 173 92l-14 -24q-72 -10 -100.5 -45.5t-28.5 -109.5q0 -138 -12 -176q-22 -75 -110 -119q71 -37 100.5 -84t29.5 -125q0 -13 -1 -39.5t-1 -39.5
q0 -77 24 -111q28 -40 102 -45l11 -24q-87 0 -143 55z" />
    <glyph glyph-name="bar" unicode="|" horiz-adv-x="229" 
d="M96 -164v945l52 -1l-2 -946z" />
    <glyph glyph-name="braceright" unicode="}" horiz-adv-x="350" 
d="M313 243q-81 -34 -101 -101q-10 -35 -10 -148q0 -94 -52.5 -151t-146.5 -57l11 24q73 5 101 44q25 33 25 109q0 13 -1 40.5t-1 41.5q0 146 129 209q-71 36 -98 90q-24 48 -24 133q0 18 1 53.5t1 53.5q0 101 -131 120l-12 24q139 -7 176 -101q21 -51 21 -207
q0 -99 114 -149z" />
    <glyph glyph-name="asciitilde" unicode="~" horiz-adv-x="488" 
d="M464 378q-10 -24 -25.5 -49.5t-35 -47t-42 -35t-45.5 -13.5q-21 0 -44 12t-46.5 27t-46.5 27t-44 12q-46 0 -85 -79l-26 13q10 24 26 49.5t35.5 47t41.5 35t45 13.5q22 0 46 -12t47 -27t45 -27t42 -12q46 0 86 78z" />
    <glyph glyph-name="cent" unicode="&#xa2;" horiz-adv-x="556" 
d="M312 53q96 11 114 127h84q-7 -124 -100 -176q-44 -24 -98 -27v-97h-42v98q-130 11 -185 123q-33 64 -33 152q0 162 98 239q50 38 120 46v90h42v-89q136 -9 178 -118q13 -35 14 -73h-84q-9 84 -77 108q-13 4 -31 6v-409zM270 461q-130 -24 -131 -208q0 -138 85 -183
q21 -11 46 -15v406z" />
    <glyph glyph-name="multiply" unicode="&#xd7;" horiz-adv-x="646" 
d="M589 72l-53 -53l-202 204l-203 -204l-52 53l204 202l-204 202l52 53l203 -204l202 204l53 -53l-204 -202z" />
    <glyph glyph-name="divide" unicode="&#xf7;" horiz-adv-x="612" 
d="M364 417h-97v111h97v-111zM554 238h-478v65h478v-65zM364 13h-97v112h97v-112z" />
    <glyph glyph-name="u0981" unicode="&#x981;" horiz-adv-x="0" 
d="M67 645q-101 -77 -193 -77q-62 0 -116.5 27t-82.5 71l62 49q85 -109 180 -109q78 0 147 59q5 -7 3 -20zM-153 696q0 17 15 29.5t36 12.5t35.5 -12.5t14.5 -29.5t-14.5 -29.5t-35.5 -12.5t-36 12.5t-15 29.5z" />
    <glyph glyph-name="u0982" unicode="&#x982;" horiz-adv-x="311" 
d="M211 -3q21 35 17.5 88t-74.5 59h-92v60h115q45 -3 67.5 -34.5t22.5 -71.5t-56 -101zM155 309q-47 3 -75 48q-15 24 -20 47q-3 57 13 82q28 42 70 48q33 3 70 -24q39 -29 39 -69q0 -44 -22 -85q-27 -51 -75 -47zM154 497q-54 -16 -54 -85q0 -25 14 -43q18 -24 51 -24
q50 0 50 83q0 20 -17 42q-20 27 -44 27z" />
    <glyph glyph-name="u0983" unicode="&#x983;" horiz-adv-x="353" 
d="M171 323q-54 4 -87 56q-17 27 -22 54q-4 66 15 94q32 49 80 55q38 4 81 -27q45 -34 45 -80q0 -50 -25 -97q-32 -59 -87 -55zM181 24q-52 0 -83 46q-25 38 -25 81q0 28 4 40l14 36q18 27 45 34q11 3 56 6q35 2 62.5 -30t27.5 -85q0 -36 -27 -78q-32 -50 -74 -50zM170 540
q-62 -18 -62 -98q0 -29 16 -50q20 -27 59 -27q57 0 57 95q0 23 -19 49q-23 31 -51 31zM178 230q-6 1 -11 1q-54 0 -54 -93q0 -80 61 -80q60 0 60 78q0 42 -8 60q-12 28 -48 34z" />
    <glyph glyph-name="u0985" unicode="&#x985;" horiz-adv-x="737" 
d="M653 508v-493h48v-15h-159v15h38v116l-60 48v-2q-11 -39 -28.5 -65t-38 -42.5t-42 -24.5t-40 -11t-31.5 -3h-16h-21.5t-44 7.5t-55 26t-56.5 54.5q-29 40 -59 106t-50 165q7 1 16 3q7 2 16 3.5t19 3.5q22 4 51 10q2 -100 21 -177q8 -33 21 -65t32.5 -56.5t46 -40
t62.5 -15.5q11 0 35.5 8.5t48 35.5t39.5 77t11 134q-4 59 -14.5 94.5t-24.5 52.5t-30.5 18.5t-32 -7t-29 -24.5t-20.5 -35q-10 -26 -12 -55t0 -55t7.5 -47.5t10.5 -31.5q3 -6 -4 -4t-18.5 11.5t-25.5 25.5t-25 38t-16.5 49t-0.5 58q7 35 32 64t51 45h-316v50h763v-50h-99z
M580 508h-137q16 -12 34 -35t31.5 -59.5t19.5 -87.5t-1 -118l53 -48v348z" />
    <glyph glyph-name="u0986" unicode="&#x986;" horiz-adv-x="914" 
d="M653 508v-493h48v-15h-159v15h38v116l-60 48v-2q-11 -39 -28.5 -65t-38 -42.5t-42 -24.5t-40 -11t-31.5 -3h-16h-21.5t-44 7.5t-55 26t-56.5 54.5q-29 40 -59 106t-50 165q7 1 16 3q7 2 16 3.5t19 3.5q22 4 51 10q2 -100 21 -177q8 -33 21 -65t32.5 -56.5t46 -40
t62.5 -15.5q11 0 35.5 8.5t48 35.5t39.5 77t11 134q-4 59 -14.5 94.5t-24.5 52.5t-30.5 18.5t-32 -7t-29 -24.5t-20.5 -35q-10 -26 -12 -55t0 -55t7.5 -47.5t10.5 -31.5q3 -6 -4 -4t-18.5 11.5t-25.5 25.5t-25 38t-16.5 49t-0.5 58q7 35 32 64t51 45h-316v50h763v-50h-99z
M580 508h-137q16 -12 34 -35t31.5 -59.5t19.5 -87.5t-1 -118l53 -48v348zM776 508h-71v50h242v-50h-98v-493h48v-15h-159v15h38v493z" />
    <glyph glyph-name="u0987" unicode="&#x987;" horiz-adv-x="425" 
d="M-11 558h244v37q-13 19 -30.5 29.5t-37 14.5t-41 2t-42.5 -8q-29 -8 -61.5 -16.5t-59.5 -15.5q-33 -9 -63 -16q16 8 42 19q22 10 57 24t86 34q65 21 108 16.5t69 -18.5q31 -17 48 -44v-1v-57h129v-50h-134q11 -6 21.5 -12.5t20.5 -16t18 -23.5t14 -35q1 -7 2 -22.5
t-3 -36t-17 -45.5t-40.5 -51t-72 -51.5t-112.5 -48.5q5 -14 15.5 -41t39.5 -63t84.5 -79t150.5 -89q-13 1 -42 12.5t-66 29.5t-78.5 43t-79 54t-67 60.5t-43.5 64.5q25 9 66 23.5t80 39t67 62t27 92.5q0 22 -7 41.5t-18.5 34.5t-26 24t-30.5 8t-34 -12t-32.5 -31.5
t-23.5 -48.5t-6 -63q1 -7 4 -17t6.5 -20.5t9 -20t11.5 -15.5q4 -4 -3.5 -1t-20.5 11.5t-29 22.5t-28 32.5t-17.5 41.5t2.5 50q11 32 31.5 56.5t43.5 39.5h-131v50z" />
    <glyph glyph-name="u0988" unicode="&#x988;" horiz-adv-x="390" 
d="M-11 558h269v37q-26 39 -67 46.5t-84 -3.5q-29 -8 -61.5 -16.5t-59.5 -15.5q-33 -9 -63 -16q16 8 42 19q22 10 57 24t86 34q65 21 108 16t69 -20q31 -18 48 -47v-58h70v-50h-103q7 -8 13.5 -13.5t11.5 -9.5l10 -8q3 -1 -2 -22t-12 -57t-12.5 -85t-3.5 -107t15 -122.5
t43 -130.5q-2 3 -12 17t-24 35t-29.5 46.5t-29 51t-22.5 48.5t-9 40q-21 -30 -44 -61.5t-48 -58t-50.5 -46t-52.5 -25.5q15 18 39.5 48.5t49.5 70.5t46 88t27 99q3 28 0 60.5t-9.5 60t-16 46t-19.5 17.5t-26 -18.5t-29.5 -41.5t-21.5 -48.5t-3 -38.5q10 -28 18.5 -49
t7.5 -19l-12.5 9.5t-27.5 26t-27.5 38.5t-12.5 48t16.5 54t59.5 57h-112v50zM223 308q0 -1 3 10t8.5 29.5t12 41l13 45t12.5 42.5t11 32h-101q6 -8 14 -23.5t15 -39.5t11 -58t1 -79z" />
    <glyph glyph-name="u0989" unicode="&#x989;" horiz-adv-x="510" 
d="M-11 558h395v37q-5 23 -25.5 35t-46.5 16.5t-54.5 2.5t-49.5 -8q-28 -8 -59.5 -16t-58.5 -15t-45.5 -12t-20.5 -5l187 72q40 13 71.5 17.5t56 3.5t42.5 -6.5t31 -13.5q30 -18 42 -50v-58h70v-50h-225v-179q0 -13 4 -24q4 -9 14 -17t31 -7q14 0 22 11t13 24q5 15 8 35
q1 0 13 -2.5t26 -4.5q17 -4 38 -7q-9 -99 -35 -174q-11 -32 -26 -61.5t-36 -51t-47.5 -32t-60.5 -4.5q-48 9 -83 36.5t-59.5 65.5t-39.5 81.5t-22.5 83.5t-9 71.5t1.5 46.5q14 6 27 10t24 7q12 3 25 5q-6 -103 6 -186q5 -35 14.5 -69.5t25.5 -62t39 -46t55 -21.5
q20 0 42.5 20t41 54t30.5 79t11 95q-10 -6 -26 -13t-34.5 -10.5t-37.5 -0.5t-36 18q-12 11 -19.5 18.5t-11.5 17.5t-5.5 25.5t-1.5 42.5v126h-231v50z" />
    <glyph glyph-name="u098A" unicode="&#x98a;" horiz-adv-x="594" 
d="M294 41q-22 14 -43.5 39t-41.5 68t-37.5 107.5t-31.5 158.5l87 26q-4 -112 10 -201q6 -38 16.5 -74.5t28 -65t42 -46t58.5 -18.5q34 0 57.5 21.5t37.5 57t20 82t5 96.5q-10 -6 -26.5 -19t-38.5 -21.5t-48 -7.5t-54 24q-13 10 -20.5 19t-11.5 21.5t-5.5 29.5t-1.5 44v126
h-310v50h497v37q-5 23 -25.5 35t-46.5 16.5t-54.5 2.5t-49.5 -8q-27 -7 -58 -13t-59.5 -11t-49 -8t-26.5 -4l189 69q40 13 71.5 17t56.5 2.5t43.5 -8t32.5 -15.5q32 -20 46 -54v-58h70v-50h-250v-179q0 -18 8 -30q6 -11 20.5 -18t42.5 -2q22 4 33 19t16 32q5 19 4 43
q1 0 11.5 -1t22.5 -3l32 -4q5 -65 -1 -125q-3 -26 -8.5 -53t-15.5 -53t-24.5 -49t-34.5 -40q-22 -19 -52 -31t-69 -7q-69 7 -121.5 37t-92.5 74.5t-70 98t-55 109.5q0 -1 12.5 4l27.5 11q18 7 39 17q8 -69 33 -131q10 -26 24.5 -53.5t34.5 -52t46 -45.5t58 -35z" />
    <glyph glyph-name="u098B" unicode="&#x98b;" horiz-adv-x="625" 
d="M208 127q13 -7 31.5 -17.5t35.5 -20t29 -16.5l12 -7v229q-11 1 -38.5 1t-57 -6t-52 -21.5t-23.5 -46.5q0 -20 4.5 -35t13.5 -26t20.5 -19t24.5 -15zM475 558h172v-50h-99v-493h48v-15h-159v15h38v125q-10 19 -29 39.5t-52 40.5v-204q-4 4 -26 14t-47 19.5t-45.5 16.5
l-20.5 7q-81 25 -120.5 52.5t-54.5 51.5t-13.5 41.5t1.5 22.5q4 30 25.5 45.5t45.5 21.5q28 7 63 7h45h69v2q-6 8 -17.5 23t-24 31.5t-23.5 31t-16 22.5q0 -30 -10 -45.5t-24.5 -22t-30 -6.5h-27.5q-38 2 -56.5 17t-26.5 33q-9 21 -8 47h1v110h76v-100v-44.5t5 -24.5
q8 -14 21 -16t20 -2q22 1 31.5 16.5t12 35t1 38t-2.5 25.5q6 0 19 -11.5t28 -27t29 -32t23 -26.5v169h78v-298q14 -13 38 -37t43 -47v382z" />
    <glyph glyph-name="u098C" unicode="&#x98c;" horiz-adv-x="438" 
d="M309 -80q27 32 27 65q0 47 -77 94q3 -19 3 -32q0 -33 -27 -73q-32 -47 -76 -47q-45 0 -77 44.5t-32 75.5q0 50 41.5 92.5t118.5 42.5q75 0 119 -44q37 -36 37 -84q0 -38 -20 -78q85 79 85 179q0 86 -61 152q-30 33 -147 116q-99 71 -110 135h109q-3 -18 -3 -33
q0 -44 52 -86q15 -12 102 -66q71 -45 105 -82q47 -54 47 -120q0 -138 -216 -251z" />
    <glyph glyph-name="u098F" unicode="&#x98f;" horiz-adv-x="560" 
d="M124 433q-14 -31 -11.5 -69.5t12.5 -78.5q21 -66 46.5 -98t51 -44t48.5 -10.5t39 1.5q15 1 29 -3.5t27 -11.5t24.5 -15.5t19.5 -15.5v385q-5 24 -12 34.5t-13.5 13.5t-11 2t-4.5 0q-43 -17 -66.5 -38.5t-33 -44.5t-8.5 -46t7.5 -44.5t15.5 -39.5t14 -30q-69 65 -87.5 115
t-7 85t42 54.5t60.5 23.5q47 -9 80 -21.5t55 -24.5q26 -14 42 -29v-468h48v-15h-159v15h38v39q-17 22 -38 32.5t-41.5 14.5t-40 4t-33.5 1q-51 7 -88 29t-62.5 52.5t-41 65.5t-24 66.5t-12 56.5t-3.5 35q10 7 27 12t33 8t27.5 3.5t10.5 -1.5z" />
    <glyph glyph-name="u0990" unicode="&#x990;" horiz-adv-x="646" 
d="M124 433q-14 -31 -11.5 -69.5t12.5 -78.5q21 -66 46.5 -98t51 -44t48.5 -10.5t39 1.5q15 1 29 -3.5t27 -11.5t24.5 -15.5t19.5 -15.5v385q-5 24 -12 34.5t-13.5 13.5t-11 2t-4.5 0q-43 -17 -66.5 -38.5t-33 -44.5t-8.5 -46t7.5 -44.5t15.5 -39.5t14 -30q-69 65 -87.5 115
t-7 85t42 54.5t60.5 23.5q47 -9 80 -21.5t55 -24.5q26 -14 42 -29v-116q11 -2 20.5 -3t13.5 1q3 2 5.5 4.5l4.5 4.5l5 5l1 1v211q-12 22 -38.5 30.5t-59.5 8.5t-68 -6t-64 -13.5t-47.5 -13.5l-18.5 -6q55 30 99.5 46.5t80.5 23.5t63.5 6t48.5 -7q48 -13 73 -49v-1l1 1v-220
h-1l1 -1q-18 -9 -37 -17q-17 -8 -38.5 -15.5t-44.5 -13.5v-329h48v-15h-159v15h38v39q-17 22 -38 32.5t-41.5 14.5t-40 4t-33.5 1q-51 7 -88 29t-62.5 52.5t-41 65.5t-24 66.5t-12 56.5t-3.5 35q10 7 27 12t33 8t27.5 3.5t10.5 -1.5z" />
    <glyph glyph-name="u0993" unicode="&#x993;" horiz-adv-x="584" 
d="M289 304l-12 8.5t-27 23.5t-28 36t-16 45t9 51t47 54q46 36 86 38t70.5 -11.5t50 -33.5t25.5 -29t10.5 -32t-2.5 -55t-31.5 -69t-76.5 -73q21 6 42.5 12.5t41.5 7.5t36.5 -7.5t27.5 -32.5q10 -24 4.5 -60t-29.5 -71t-68 -62t-111 -33q-33 -2 -72 13t-77.5 56.5t-75 114.5
t-65.5 186q-1 0 14.5 3t34.5 6q22 4 49 9q7 -102 30 -182q10 -34 24 -67t33 -59t44.5 -42t57.5 -17q25 0 50.5 15t45 39t30 55t6.5 63q-5 32 -23.5 37t-39.5 -1q-25 -7 -54 -27q39 68 58 125q8 24 12.5 49t2 46.5t-13.5 39t-33 26.5q-28 11 -50.5 -3.5t-37 -40.5t-20 -55
t0.5 -46q19 -50 20 -50z" />
    <glyph glyph-name="u0994" unicode="&#x994;" horiz-adv-x="654" 
d="M267 304l-12 8.5t-27 23.5t-28 36t-16 45t9 51t47 54q46 36 86 38t70.5 -11.5t50 -33.5t25.5 -29q5 -7 9 -24.5t2 -41.5t-14 -53.5t-39 -59.5q13 2 29.5 5.5t31.5 8t26.5 9.5t16.5 11v211q-12 22 -38.5 30.5t-59.5 8.5t-68 -6t-64 -13.5t-47.5 -13.5l-18.5 -6
q73 39 128.5 56t96 19.5t68 -6t43.5 -19.5t23 -20.5l7 -9.5v-221q-43 -18 -83 -35q-35 -14 -72.5 -28t-63.5 -22l-13 -9q21 6 42.5 12.5t41.5 7.5t36.5 -7.5t27.5 -32.5q10 -24 4.5 -60t-29.5 -71t-68 -62t-111 -33q-33 -2 -72 13t-77.5 56.5t-75 114.5t-65.5 186
q-1 0 14.5 3t34.5 6q22 4 49 9q7 -102 30 -182q10 -34 24 -67t33 -59t44.5 -42t57.5 -17q25 0 50.5 15t45 39t30 55t6.5 63q-5 32 -23.5 37t-39.5 -1q-25 -7 -54 -27q39 68 58 125q8 24 12.5 49t2 46.5t-13.5 39t-33 26.5q-28 11 -50.5 -3.5t-37 -40.5t-20 -55t0.5 -46
q19 -50 20 -50z" />
    <glyph glyph-name="u0995" unicode="&#x995;" horiz-adv-x="545" 
d="M342 18l1 -1q-88 34 -157 83q-29 21 -56.5 47.5t-48.5 58.5t-33 69.5t-9 80.5q3 25 13 42t35.5 26.5t69.5 12.5t115 0v71h-287v50h583v-50h-225v-69h40q40 3 72 -5q13 -3 25.5 -9t22 -15.5t14.5 -22.5t4 -31q-1 -8 -6 -27t-19.5 -45.5t-39.5 -58t-66 -65.5q11 21 23 48
t21.5 56.5t14.5 58t2.5 50.5t-14.5 36t-36 14h-58v-405h-1zM200 418q-26 0 -41 -12.5t-22.5 -28.5t-9.5 -29.5t-2 -14.5q-4 -29 0 -55.5t14 -49t23.5 -42t28.5 -35.5q34 -37 81 -64v331h-72z" />
    <glyph glyph-name="u0996" unicode="&#x996;" horiz-adv-x="529" 
d="M135 558q-27 -41 -41 -75q-6 -15 -10.5 -29.5t-4.5 -27.5t5 -22.5t17 -14.5q9 0 22.5 1t31.5 16t42 50t54 102h39l14 -18.5t26.5 -47t17.5 -63t-11 -66.5q-5 -9 -12.5 -21.5t-26.5 -25.5t-52 -25.5t-87 -22.5q-13 -4 -28 -12t-18 -22t11.5 -35t60.5 -52
q32 -16 68.5 -31.5t68.5 -28.5q37 -15 73 -28v499h156v-50h-79v-493l-19 3.5t-55 14.5t-89 31t-121 54q-28 14 -57.5 30t-52 35t-33.5 42t-1 51q5 15 21.5 22t35.5 8t36.5 -1t26.5 -5q3 -1 19 -3t36.5 2.5t41.5 18t34 42.5q2 5 2.5 17.5t-2.5 27t-11.5 28t-23.5 19.5
q-13 -12 -31.5 -28t-42 -29.5t-50.5 -21t-57 -1.5q-20 4 -30 19t-13.5 36t-2 44t5 42.5t7 32t4.5 12.5h85z" />
    <glyph glyph-name="u0997" unicode="&#x997;" horiz-adv-x="540" 
d="M390 406q-14 30 -40.5 64t-70.5 52q-31 12 -61.5 10t-55.5 -12.5t-43 -27.5t-24 -35q-10 -28 -8 -43.5t9 -23.5t14 -9.5l7 -1.5q59 29 96 33t57.5 -3.5t28 -18t8.5 -9.5q26 -31 22.5 -65t-23.5 -67t-51 -63t-59.5 -52.5t-49.5 -36.5l-21 -14q80 82 109.5 138t26.5 87.5
t-28 39.5t-54 -7t-49.5 -21.5t-36 -5.5t-27 10t-23.5 25t-8.5 50t23 69.5t54.5 64t87 33.5q38 4 68.5 -6.5t54.5 -27t41 -36t27 -34.5v96h179v-50h-106v-493h48v-15h-159v15h38v391z" />
    <glyph glyph-name="u0998" unicode="&#x998;" horiz-adv-x="487" 
d="M-19 558h541v-50h-99v-495q-77 32 -142.5 78t-113.5 88q-56 49 -103 102q10 9 27 24q14 13 38 34t59 53q-34 -21 -56.5 -25.5t-36.5 -0.5t-22 12.5t-12 13.5q-12 16 -11 33t8 33t17.5 29t18.5 21h-113v50zM148 273q4 -15 15 -31t25.5 -31.5t32 -31t35.5 -29.5
q41 -33 90 -64v422h-153q-13 -8 -29 -19.5t-29 -24t-21 -26.5t-5 -27q7 -13 17 -18t21 -3.5t23 7.5t23 14q26 19 54 53q3 -5 7 -15q4 -8 9.5 -21.5t14.5 -33.5q-32 -24 -48 -38t-27 -25.5t-22.5 -24t-32.5 -33.5z" />
    <glyph glyph-name="u0999" unicode="&#x999;" horiz-adv-x="627" 
d="M251 467q9 25 25.5 44.5t38.5 30.5t47 14t51 -5q25 -9 42.5 -25.5t27 -38t11 -47t-6.5 -50.5q-8 -21 -25.5 -39.5t-40 -32t-46.5 -21t-44 -7.5q45 -39 92 -39q87 0 104 80h73q-1 -106 -64 -204q-77 -119 -197 -119q-220 0 -304 322l89 14q6 -99 54 -195q63 -126 161 -126
q74 0 131 100q48 84 48 154q-40 -44 -103 -44q-32 0 -61 16q-15 8 -51 37q-13 10 -19 10q-73 -1 -114 50q-34 43 -34 107q0 23 4 51l57 -14q-18 -38 -18 -63q0 -38 26 -75q30 -42 78 -47q-17 12 -26.5 30.5t-13.5 40.5t-1.5 45.5t9.5 45.5zM306 441q-4 -21 -4.5 -45.5
t2.5 -45.5t8.5 -35.5t13.5 -15.5q19 -3 36.5 7.5t32.5 28t25.5 39.5t15.5 43q4 21 1.5 41.5t-9 36.5t-17 26.5t-22.5 12.5q-14 3 -27 -3.5t-24 -19.5t-19.5 -31t-12.5 -39z" />
    <glyph glyph-name="u099A" unicode="&#x99a;" horiz-adv-x="464" 
d="M-10 558h490v-50h-338v-85q7 -1 15 -4q7 -2 14 -5.5t15 -9.5q7 -6 22 -11.5t36.5 -5.5t49 8.5t59.5 30.5q39 -20 55 -28.5t17 -7.5l2.5 -18t1 -48.5t-11 -70t-33 -81t-65 -83t-106.5 -75.5q-29 9 -56 19.5t-48 19.5q-25 11 -46 22v433h-73v50zM142 95q15 -27 34 -39
q8 -5 18 -8t21.5 -0.5t24.5 10t28 23.5q30 33 46 66.5t23 66t8 64t1 61.5v25q-1 5 -5 8q-4 2 -10.5 2t-17.5 -6q-19 -11 -40 -19.5t-43.5 -12.5t-44.5 -2.5t-43 11.5v-250z" />
    <glyph glyph-name="u099B" unicode="&#x99b;" horiz-adv-x="509" 
d="M67 239v269h-88v50h551v-50h-385l1 -52q47 -39 80 -40t71 27l76 -45l-24 -30q44 -8 83 -27q41 -24 41 -57q0 -51 -116 -101q-27 -7 -143 -48q27 -66 128 -125t148 -91q-173 25 -389 208q270 79 279 165q0 15 -10 30t-31 28q-10 -17 -21 -35q-10 -16 -23.5 -34.5
t-30.5 -36.5q-7 -8 -21 -19t-28.5 -21t-25 -16.5t-11.5 -6.5zM280 398q-1 -1 -4 -3q-2 -2 -5 -4.5t-8 -6.5q-26 -16 -47 -20t-37 -2q-18 2 -34 9v-134q22 -3 39.5 1t31.5 14.5t26 25.5t23 35q8 14 16 30t14 33q2 6 -4 12t-11 10z" />
    <glyph glyph-name="u099C" unicode="&#x99c;" horiz-adv-x="745" 
d="M142 382q-2 -26 0 -61.5t9.5 -73t20 -74.5t31.5 -67t45 -50t60 -23q36 3 63.5 22t44.5 49.5t23 70t-1 82.5q-30 -28 -56 -40.5t-47.5 -13t-40.5 9t-36 24.5q-12 11 -19.5 19.5t-11.5 19.5t-5.5 27.5t-1.5 43.5v161h-235v50h781v-50h-467v-27q18 -9 61.5 -27.5t97 -34
t110 -20.5t100.5 14q15 -26 23 -39.5t12 -19.5l5 -8q-52 -26 -85 -74q-14 -20 -24.5 -47t-14 -61.5t2 -76.5t23.5 -93l-8.5 14t-19 39.5t-19.5 60.5t-9.5 75.5t10.5 84.5t42 88q-20 4 -47 7t-64.5 12t-86 28t-109.5 55v-151q0 -18 12.5 -33.5t30 -24t36.5 -8.5t33 14
q4 4 9 10.5t9.5 13.5t8 12.5t3.5 7.5q0 6 -0.5 14.5t-0.5 16.5v20q1 0 11.5 -1t24.5 -3q15 -2 35 -3q6 -109 -17 -187q-10 -34 -26.5 -64.5t-43 -51t-64 -28.5t-88.5 4q-31 7 -59.5 29t-53 53t-45 68t-35 73.5t-22.5 70t-8 57.5z" />
    <glyph glyph-name="u099D" unicode="&#x99d;" horiz-adv-x="609" 
d="M210 422q-26 0 -42 -12t-25 -27t-12 -28t-3 -14q-2 -24 4.5 -46t18 -41.5t27 -36t32.5 -29.5q39 -32 88 -57v291h-88zM451 558h174v-50h-101v-493h48v-15h-159v15h38v129l-82 89v-213q-13 10 -30 21q-14 10 -34 23t-43 28q-42 27 -83.5 57.5t-73 65t-47 71t-6.5 75.5
q6 35 22 52.5t45 24.5t72.5 7h106.5v63h-309v50h380v-292l82 -78v370z" />
    <glyph glyph-name="u099E" unicode="&#x99e;" horiz-adv-x="695" 
d="M123 433q-14 -31 -11.5 -69.5t12.5 -78.5q21 -66 46.5 -101t50.5 -50t48 -16.5t39 -1.5q29 2 56.5 -6t44.5 -22v385q-5 24 -12 34.5t-13.5 13.5t-11 2t-4.5 0q-43 -17 -66 -43.5t-32.5 -57.5t-8 -63.5t8.5 -61.5t16 -52.5t14 -35.5q-46 43 -69 85.5t-29 80t2 70t24 57
t36.5 39t40.5 17.5q47 -9 80 -21.5t55 -24.5q26 -14 42 -29v-209q10 23 28.5 56.5t41.5 60t48.5 37t49.5 -12.5q20 -19 21 -38t-9 -36.5t-28.5 -32.5t-37.5 -26.5t-35 -18.5t-22 -8h-1q9 -3 25.5 -10.5t35 -19t35 -26.5t25.5 -32t7 -35t-21 -36q-16 -15 -32 -15.5t-31.5 8.5
t-30 25.5t-27.5 36t-24 39.5t-18 36v-211h48v-15h-159v15h38v39q-17 22 -38 29.5t-42 8t-40.5 -2t-33.5 -1.5q-51 7 -87.5 30.5t-62 56t-41 69.5t-24 71t-12 60t-3.5 36q10 7 27 12t33 8t27.5 3.5t10.5 -1.5zM605 140q15 11 8 31t-25 38.5t-42 30t-42 5.5q2 -2 12 -23.5
t24.5 -43.5t31.5 -36t33 -2zM610 371q-16 12 -33 -2t-31.5 -36.5t-24.5 -43.5t-12 -23q18 -6 42 5.5t42 30t25 38.5t-8 31z" />
    <glyph glyph-name="u099F" unicode="&#x99f;" horiz-adv-x="421" 
d="M-16 558h305v52q0 25 -19.5 37.5t-47 16.5t-58 1t-51.5 -9q-56 -15 -96 -20.5t-44 -6.5l143 51q89 25 138.5 21t72.5 -20q27 -18 32 -50v-73h93v-50h-320v-397q0 -23 4 -31.5t11 -15.5q1 -2 4 -3.5t5 -3.5q3 -3 6 -5q38 19 61 53.5t36 71.5t18.5 70.5t8.5 50.5
q4 25 3 40.5t-6 23.5t-12.5 9.5t-16.5 -0.5q-20 -5 -48 -30l-11 7l98 61q2 -1 9 -5l18 -9t33 -17q1 -60 -13 -111t-35.5 -91.5t-47 -71.5t-48.5 -51.5t-40 -30.5t-20 -10q-5 0 -20.5 11t-32.5 24q-19 15 -43 35v426h-69v50z" />
    <glyph glyph-name="u09A0" unicode="&#x9a0;" horiz-adv-x="442" 
d="M133 704q3 -21 10.5 -43t16.5 -42t17.5 -36t13.5 -25h273v-50h-222q11 -11 29 -28.5t37 -40.5t38 -50t33.5 -57t22 -61t3.5 -62q0 -10 -4.5 -32t-14.5 -47.5t-26 -51t-39 -43.5t-54 -25.5t-70 4.5q-23 10 -51 21.5t-54 36.5t-46.5 68.5t-27.5 117.5q-2 27 1.5 55t18 45.5
t40.5 17.5t69 -28l11 -7.5t28.5 -12.5t37 -2t36.5 24q3 6 5.5 18.5t-5.5 31.5t-31.5 45.5t-71.5 62.5h-176v50h156q-8 10 -21.5 28.5t-27.5 36.5q-16 21 -33 45q21 10 39 18q7 3 14.5 6.5t12.5 5.5zM234 470q0 -1 9.5 -13.5t21 -29.5t21 -36t10.5 -32q3 -36 -10.5 -57
t-37 -29.5t-52.5 -6t-56 13.5q-28 17 -44.5 15.5t-24.5 -14.5t-8 -34.5t5 -44.5t12.5 -44t16.5 -34q39 -48 72 -68.5t60 -21.5t48 12.5t36.5 32.5t25.5 39.5t16 33.5q13 42 9 82.5t-17.5 76t-32.5 65t-37 51t-30.5 33t-12.5 10.5z" />
    <glyph glyph-name="u09A1" unicode="&#x9a1;" horiz-adv-x="507" 
d="M-15 558h543v-50h-229v-179q0 -13 4 -24q4 -9 14 -17t31 -7q14 0 22 11t13 24q5 15 8 35q1 0 13 -2.5t26 -4.5q17 -4 38 -7q-9 -99 -35 -174q-11 -32 -26 -61.5t-36 -51t-47.5 -32t-60.5 -4.5q-48 9 -83 36.5t-59.5 65.5t-39.5 81.5t-22.5 83.5t-9 71.5t1.5 46.5
q14 6 27 10t24 7q12 3 25 5q-6 -103 6 -186q5 -35 14.5 -69.5t25.5 -62t39 -46t55 -21.5q20 0 42.5 20t41 54t30.5 79t11 95q-10 -6 -26 -13t-34.5 -10.5t-37.5 -0.5t-36 18q-12 11 -19.5 18.5t-11.5 17.5t-5.5 25.5t-1.5 42.5v126h-235v50z" />
    <glyph glyph-name="u09A2" unicode="&#x9a2;" horiz-adv-x="431" 
d="M-11 558h463v-50h-311v-397q0 -9 3 -19t8.5 -17t14 -10t19.5 0q38 19 60.5 51.5t35 67t17 66t7.5 48.5q4 25 3 40.5t-6 23.5t-12.5 9.5t-16.5 -0.5q-20 -5 -48 -30l-11 7l98 61q2 -1 9 -5l18 -9t33 -17q1 -60 -12.5 -111t-35.5 -91.5t-47.5 -71.5t-48.5 -51.5t-40 -30.5
t-20 -10q-5 0 -22.5 11t-36.5 24q-22 15 -48 35v1v425h-73v50z" />
    <glyph glyph-name="u09A3" unicode="&#x9a3;" horiz-adv-x="453" 
d="M294 422q-18 14 -44.5 30t-58.5 29q-58 -56 -76.5 -106t-13 -94t25.5 -82.5t40 -70.5q-65 40 -98 80.5t-42 78t1 72t30 62.5q16 23 36 41t38 31t32 20.5t17 10.5q7 0 22 -8t32 -19t33 -23t26 -20v104h181v-50h-108v-493h48v-15h-159v15h38v407z" />
    <glyph glyph-name="u09A4" unicode="&#x9a4;" horiz-adv-x="546" 
d="M565 508h-142q16 -12 34 -35t31.5 -59.5t19.5 -87.5t-1 -118q-7 -46 -23.5 -78t-37.5 -54t-43.5 -34.5t-42 -19t-34.5 -8.5t-20 -2q-3 0 -22 1t-45 11t-56 31.5t-56 63.5q-13 21 -28 51.5t-30 69t-28 83t-23 93.5q7 1 16 2q8 1 17 1.5t20 1.5l54 4q-5 -110 12 -196
q7 -37 19.5 -72t32.5 -62.5t48.5 -44t67.5 -16.5q11 0 35 12t47.5 43t39 84.5t10.5 137.5q-6 88 -25.5 131.5t-43.5 51t-47 -15.5t-35 -68q-7 -27 -9 -56t0 -55t6 -47t9 -31q3 -6 -4 -4t-18.5 11.5t-25.5 25.5t-25 38t-16.5 49t-0.5 58q7 35 32 64t51 45h-296v50h576v-50z
" />
    <glyph glyph-name="u09A5" unicode="&#x9a5;" horiz-adv-x="464" 
d="M95 302q0 -1 -17 12t-35 37t-27.5 58t6.5 75q8 13 20.5 30t32.5 29t49.5 15.5t71.5 -11.5q13 -7 28 -18.5t27.5 -26.5t20.5 -34t7 -42q0 -7 -4 -27t-22.5 -48t-58 -62t-109.5 -69q0 -3 6 -20t30.5 -41t73.5 -51.5t136 -52.5v1v502h162v-50h-91v-495q-96 20 -175 51
q-34 13 -67 29t-61 36t-48.5 44t-27.5 51q18 8 46.5 22t57.5 35t51.5 48.5t28.5 63.5q5 35 -0.5 61t-15.5 42.5t-22 24.5t-19 7q-30 -5 -46 -33.5t-21.5 -65t-1.5 -72.5t14 -55z" />
    <glyph glyph-name="u09A6" unicode="&#x9a6;" horiz-adv-x="488" 
d="M-22 558h533v-50h-383v-321q7 13 20 29.5t28.5 34.5t33.5 36l35 35q40 40 86 81l61 -49v-339h48v-15h-159v15h38v337q-48 -47 -83.5 -93t-58.5 -84q-27 -44 -47 -84l-71 45l1 2v370h-82v50z" />
    <glyph glyph-name="u09A7" unicode="&#x9a7;" horiz-adv-x="438" 
d="M223 502l-4 2l-9 4.5t-9.5 4.5t-5.5 3t-4 2.5t-8.5 1t-12 -4.5t-13.5 -13q-13 -15 -7.5 -32t19.5 -33t31.5 -29t28.5 -20h35.5t38.5 -1v171h176v-50h-105v-493q-22 11 -48 23l-51 25.5t-60 31.5q-36 20 -71 43t-61.5 50t-41 57.5t-8.5 65.5q4 40 43.5 57.5t126.5 19.5
q-54 20 -80.5 39.5t-35.5 37t-6.5 31.5t5.5 24q20 34 45 38.5t48 -2.5q26 -9 53 -31q-3 -7 -5 -12zM211 368q-26 0 -44 -12t-28.5 -26t-15.5 -27t-5 -14q-8 -25 -4.5 -47t15 -41.5t28.5 -36.5t37 -31q46 -33 109 -58v293h-92z" />
    <glyph glyph-name="u09A8" unicode="&#x9a8;" horiz-adv-x="449" 
d="M-14 558h500v-50h-123v-493h48v-15h-159v15h38v321q-14 13 -35.5 28.5t-47.5 31.5q-60 -11 -83.5 -40t-22.5 -70.5t19.5 -92.5t44.5 -105q-44 35 -70 68.5t-38.5 63.5t-15 56t2 47t12.5 35.5t15 22.5q36 39 70.5 48t63.5 2.5t51 -22.5t34 -28v127h-304v50z" />
    <glyph glyph-name="u09AA" unicode="&#x9aa;" horiz-adv-x="552" 
d="M578 508h-111v-495h35v-10h-142v8h33v309l-32 16l-179 -141l-76 49l8 9l33 -13l61 51q3 11 3 22q-1 9 -5 18t-16 15q-24 11 -49 3.5t-45 -16.5q-10 -5 -25.5 -6.5t-27.5 7.5t-15.5 32t10.5 68q8 28 43 57.5t85 43t109.5 1.5t117.5 -67v89h185v-50zM333 384q10 -6 21 -11
q9 -5 19.5 -10.5t19.5 -9.5v76q-12 11 -29 25t-39.5 26t-49 20t-56.5 7q-66 -8 -97.5 -25t-42.5 -34q-13 -20 -8 -43q4 -7 11 -11q6 -4 16.5 -4.5t26.5 5.5q25 10 43 9t29.5 -8.5t17.5 -19t9 -23.5q1 -15 5.5 -22.5t9.5 -10.5q6 -4 14 -3q22 18 40 33z" />
    <glyph glyph-name="u09AB" unicode="&#x9ab;" horiz-adv-x="632" 
d="M200 508q35 -39 53.5 -64t33.5 -57q-50 -29 -154 -83q11 -66 45.5 -108t74.5 -65.5t108 -60.5l1 401q110 8 173.5 -33t63.5 -133.5t-86 -201.5q35 119 35 170t-20 80q-24 35 -93 54l1 -392q-106 29 -220 111q-118 85 -153 162q3 2 169 99q-41 65 -128 121q1 0 -118 0v50
h662v-50q10 0 -448 0z" />
    <glyph glyph-name="u09AC" unicode="&#x9ac;" horiz-adv-x="436" 
d="M365 20q-13 10 -30 21q-14 10 -34 23t-43 28q-42 27 -83.5 57.5t-73 65t-47 71t-6.5 75.5q6 35 22 52.5t45 24.5t72.5 7h106.5v63h-309v50h481v-50h-101v-490v2zM206 422q-26 0 -42 -12t-25 -27t-12 -28t-3 -14q-2 -24 4.5 -46t18 -41.5t27 -36t32.5 -29.5q39 -32 88 -57
v291h-88z" />
    <glyph glyph-name="u09AD" unicode="&#x9ad;" horiz-adv-x="523" 
d="M-22 558h558v-50h-253l4 -2q9 -6 25 -14.5t33.5 -20t33.5 -25.5t25 -32q-5 -2 -8 -3t-5 -2q-3 -1 -4 -2l-36 24q-14 9 -25.5 16t-11.5 8q-1 1 -9 4t-17 3.5t-16.5 -4t-8.5 -17.5v-134q0 -18 12.5 -33.5t30 -24t36.5 -8.5t33 14q4 4 9 10.5t9.5 13.5t8 12.5t3.5 7.5
q0 6 -0.5 14.5t-0.5 16.5v20q1 0 11.5 -1t24.5 -3q15 -2 35 -3q6 -109 -17 -187q-10 -34 -26.5 -64.5t-43 -51t-64 -28.5t-88.5 4q-31 7 -58.5 27t-50.5 48t-42 62t-33 69.5t-22.5 70t-11.5 64.5l88 25q-2 -26 0 -61.5t9.5 -73t20 -74.5t31.5 -67t45 -50t60 -23
q36 3 63.5 22t44.5 49.5t23 70t-1 82.5q-27 -22 -52.5 -31t-48 -9.5t-41.5 6t-32 14.5q-14 9 -21.5 17t-11.5 20t-4.5 29t-0.5 44v124l1 2l14 14q6 5 12 11t11 10h-250v50z" />
    <glyph glyph-name="u09AE" unicode="&#x9ae;" horiz-adv-x="484" 
d="M-14 558h515v-50h-104v-493h48v-15h-159v15h38v214q-3 9 -11 23.5t-20.5 27t-30 20.5t-40.5 4q-60 -11 -84 -35.5t-24.5 -60.5t17.5 -82.5t44 -100.5q-66 53 -92 96.5t-29 77t9 56t23 34.5q18 19 37 31q-9 6 -23.5 17.5t-28.5 26.5t-23.5 32.5t-8.5 36.5t16.5 38t51.5 37
h-121v50zM182 508q-17 -6 -37 -19t-31 -34t-7 -52t35 -73q30 13 58.5 11.5t53 -11t43 -22.5t27.5 -22v222h-142z" />
    <glyph glyph-name="u09AF" unicode="&#x9af;" horiz-adv-x="472" 
d="M406 508v-491q-54 20 -109 41q-65 25 -107 50q-103 61 -155 180q35 18 82 48q63 40 82 51q-45 70 -123 121h-88v50h508l1 -50h-91zM333 508h-160q34 -40 47 -57q24 -32 39 -64q-47 -34 -148 -92q10 -65 45.5 -105.5t75 -62t101.5 -51.5v432z" />
    <glyph glyph-name="u09B0" unicode="&#x9b0;" horiz-adv-x="417" 
d="M365 20q-13 10 -30 21q-14 10 -34 23t-43 28q-42 27 -83.5 57.5t-73 65t-47 71t-6.5 75.5q6 35 22 52.5t45 24.5t72.5 7h106.5v63h-309v50h448v-50h-68v-490v2zM206 422q-26 0 -42 -12t-25 -27t-12 -28t-3 -14q-2 -24 4.5 -46t18 -41.5t27 -36t32.5 -29.5q39 -32 88 -57
v291h-88zM58 81q0 18 16 31t39 13t39 -13t16 -31t-16 -30.5t-39 -12.5t-39 12.5t-16 30.5z" />
    <glyph glyph-name="u09B2" unicode="&#x9b2;" horiz-adv-x="550" 
d="M243 358q11 35 36 49.5t46 12.5q10 -1 19.5 -7.5t18.5 -16t16 -20.5t13 -21v153h-414v50h593v-50h-106v-493h48v-15h-159v15h38v301q-8 14 -21.5 26t-37.5 19q-6 1 -15 3t-20 -2t-23 -16t-22 -39l-6.5 11.5t-18 23t-28 19t-36.5 0.5t-36 -34t-20 -63t7 -76t45 -74
q23 -21 36 -33t19 -18q7 -7 9 -8q-58 21 -101 56q-18 15 -35 34.5t-29 44.5t-17 55t0 66q6 45 31 74.5t56 40t61 0.5t47 -44q2 -5 5 -13t1 -11z" />
    <glyph glyph-name="u09B6" unicode="&#x9b6;" horiz-adv-x="551" 
d="M140 517l7.5 -6.5t17.5 -17.5t21 -27.5t19 -36.5q10 21 24.5 38t27 29t21.5 18.5l9 6.5l12.5 -2t30 -11t37.5 -28.5t37 -55.5v134h171v-50h-98v-493h48v-15h-159v15h38v352q-7 14 -17 32t-21 33t-21.5 24.5t-18.5 6.5q-27 -8 -42.5 -30.5t-20.5 -52.5t-1 -65.5t15.5 -70
t28.5 -66t39 -52.5q-16 13 -37.5 36t-42.5 48.5t-38.5 52t-26.5 47.5q-7 -18 -25 -44.5t-39.5 -53t-43.5 -50t-37 -36.5q16 16 33.5 46.5t31.5 68.5t20.5 79.5t0 79.5t-30 69t-69.5 48h99z" />
    <glyph glyph-name="u09B7" unicode="&#x9b7;" horiz-adv-x="524" 
d="M-14 558h559v-50h-100l-2 -492q-99 44 -199 88q-110 57 -161 140q-24 39 -37 71l192 91q-16 21 -48 53t-82 49h-122v50zM369 508h-168q96 -92 122 -104q8 -3 46 -19v123zM369 347l-105 40l-148 -80q29 -78 106 -129q74 -44 147 -88v257z" />
    <glyph glyph-name="u09B8" unicode="&#x9b8;" horiz-adv-x="566" 
d="M419 285l-57 45q-17 -17 -38 -39q-18 -19 -42.5 -44.5t-54.5 -56.5q-30 -32 -60.5 -35.5t-56.5 4.5q-30 10 -58 32l3 35q22 -23 44.5 -26.5t43.5 6.5t38.5 29.5t29 41.5t15.5 42.5t-2 33.5q-9 19 -28 20t-38 -6q-23 -8 -48 -24l-5 1q-4 1 -11 3t-19 5q-22 11 -24 32.5
t6.5 45t21.5 45t21 33.5h-114v50h600v-50h-94v-490h35v-15h-143v15h35v267zM145 508q-34 -42 -40 -63t5 -28.5t33 -4t44 10.5q19 7 33 5.5t23 -8t13.5 -17.5t6.5 -23q4 -29 -3 -70l92 73l67 -50v175h-274z" />
    <glyph glyph-name="u09B9" unicode="&#x9b9;" horiz-adv-x="457" 
d="M-11 558h485v-50h-171q11 -6 21.5 -12.5t20.5 -16t18 -23.5t14 -35q1 -7 2.5 -21t-2 -32.5t-15.5 -41t-38.5 -46.5t-70.5 -48.5t-112 -47.5q2 -7 8.5 -29.5t33.5 -59.5t83 -87.5t158 -113.5q-14 2 -43 16t-66 36t-77.5 51t-77.5 61t-66.5 66t-43.5 67q16 6 41.5 14
t53.5 19t56 25.5t50.5 33.5t36.5 42t14 52q0 22 -9 41.5t-23 34t-31 23t-33 7.5t-32 -4t-29 -13.5t-20 -30.5t-4 -55q1 -7 4.5 -17t8 -21t10 -21t11.5 -16l-17 5.5t-37 20.5t-34.5 41.5t-9.5 68.5q6 23 23 37.5t40 29.5h-131v50z" />
    <glyph glyph-name="u09BC" unicode="&#x9bc;" horiz-adv-x="201" 
d="M51 24q0 24 17 41t41 17t41 -17t17 -41t-17 -41t-41 -17t-41 17t-17 41z" />
    <glyph glyph-name="u09BD" unicode="&#x9bd;" horiz-adv-x="498" 
d="M311 452l17.5 -10t21 -16t20 -25t15.5 -36q1 -7 2.5 -21t-2 -32.5t-15.5 -41t-38.5 -46.5t-70.5 -48.5t-112 -47.5q2 -7 8.5 -29.5t33.5 -59.5t83 -87.5t158 -113.5q-14 2 -43 16t-66 36t-77.5 51t-77.5 61t-66.5 66t-43.5 67q16 6 41.5 14t53.5 19t56 25.5t50.5 33.5
t36.5 42t14 52q0 22 -9 41.5t-23 34t-31 23t-33 7.5t-32 -4t-29 -13.5t-20 -30.5t-4 -55q1 -7 4.5 -17t8 -21t10 -21t11.5 -16l-17 5.5t-37 20.5t-34.5 41.5t-9.5 68.5q6 23 23 37.5t40 29.5l18.5 5.5t46.5 9t60 2t58 -16.5z" />
    <glyph glyph-name="u09BE" unicode="&#x9be;" horiz-adv-x="212" 
d="M57 508h-71v50h242v-50h-98v-493h48v-15h-159v15h38v493z" />
    <glyph glyph-name="u09BF" unicode="&#x9bf;" horiz-adv-x="242" 
d="M145 558h110v-50h-100v-493h48v-15h-159v15h38v493h-97v50h97q-1 10 -0.5 29t6 40.5t19.5 41.5t40 31.5t67 10.5t102 -22q18 -6 45.5 -15.5t56.5 -20.5t55 -23t40 -23q-17 7 -51 17.5t-75 19.5t-84 15t-78.5 3t-57.5 -17.5t-22 -44.5v-42z" />
    <glyph glyph-name="u09C0" unicode="&#x9c0;" horiz-adv-x="250" 
d="M90 600q0 30 -22 44.5t-57.5 17.5t-78.5 -3t-84 -15t-75 -19.5t-51 -17.5q14 11 40 23t55 23t56.5 20.5t45.5 15.5q60 21 101.5 22t67.5 -10.5t40 -31.5t19.5 -41.5t6 -41t-0.5 -28.5h106v-50h-106v-493h38v-15h-159v15h48v493h-92v50h102v42v0z" />
    <glyph glyph-name="u09C1" unicode="&#x9c1;" horiz-adv-x="1" 
d="M-96 -103q-78 -89 -174 -89q-49 0 -84 17q-42 20 -42 56q0 48 59 71q46 19 113 19q32 0 71 -9v108h68q-1 -77 0 -130q125 -29 319 -200q-203 117 -330 157zM-220 -82q-125 0 -125 -48q0 -27 56 -27q59 0 136 72q-40 3 -67 3z" />
    <glyph glyph-name="u09C2" unicode="&#x9c2;" horiz-adv-x="1" 
d="M-48 -104q-80 -43 -159 -43q-121 0 -121 84q0 53 86 86q70 26 144 26h12v-56q-54 -1 -122 -21q-85 -25 -85 -59q0 -26 46 -26q65 0 176 62q120 -57 250 -156q-62 37 -227 103z" />
    <glyph glyph-name="u09C3" unicode="&#x9c3;" horiz-adv-x="1" 
d="M-30 -246q-70 12 -236 47q-185 46 -185 84q0 14 10 31l160 150l84 -38q-36 -29 -71 -58q-50 -45 -50 -68q0 -44 290 -141z" />
    <glyph glyph-name="u09C4" unicode="&#x9c4;" horiz-adv-x="1" 
d="M-20 -426q-70 12 -236 47q-185 46 -185 84q0 14 10 31l91 85q-111 35 -111 64q0 14 10 31l160 150l84 -38q-36 -29 -71 -58q-50 -45 -50 -68q0 -13 30 -32q36 -18 64 -29q17 -7 17 -8t-2 -3q78 -34 181 -69l-2 -7q-64 11 -220 43q-58 -50 -58 -75q0 -44 290 -141z" />
    <glyph glyph-name="u09C7" unicode="&#x9c7;" horiz-adv-x="250" 
d="M-21 558h292v-50h-49q-14 -9 -36.5 -28.5t-43.5 -49t-37 -70.5t-17 -94t17.5 -117.5t65.5 -142.5q-47 44 -80 92t-51 96.5t-20 95t12 88.5q17 48 45.5 80.5t50.5 49.5h-149v50z" />
    <glyph glyph-name="u09C8" unicode="&#x9c8;" horiz-adv-x="251" 
d="M-21 558h180v37q3 31 -12 42.5t-38.5 11.5t-51 -6t-49.5 -10q-28 -5 -50 -11t-37 -11q-18 -6 -32 -12q11 9 28 20q14 9 37 20.5t55 22.5q41 18 72 25t53 7t37 -5.5t24 -14.5q21 -20 22 -58v-58h54v-50h-49q-14 -9 -36.5 -28.5t-43.5 -49t-37 -70.5t-17 -94t17.5 -117.5
t65.5 -142.5q-47 44 -80 92t-51 96.5t-20 95t12 88.5q17 48 45.5 80.5t50.5 49.5h-149v50z" />
    <glyph glyph-name="u09CB" unicode="&#x9cb;" horiz-adv-x="818" 
d="M748 508v-494h39v-19h-139v19h36v494h-463q-71 -59 -99 -107q-34 -59 -34 -143q0 -129 81 -249q-79 81 -109 136q-38 70 -38 163q0 54 16 91q23 53 91 109h-150v50h862v-50h-93zM591 401q0 -26 -25 -26q-27 0 -27 26q0 27 27 27q25 0 25 -27zM520 449q0 -26 -26 -26
q-27 0 -27 26t27 26q26 0 26 -26zM639 330q0 -27 -26 -27t-26 27q0 25 27 25q25 0 25 -25zM657 245q0 -25 -25 -25q-28 0 -28 25q0 26 28 26q25 0 25 -26zM436 466q0 -26 -27 -26q-26 0 -26 26t26 26q27 0 27 -26zM351 449q0 -26 -26 -26q-25 0 -25 26t25 26q26 0 26 -26z
M639 161q0 -26 -26 -26t-26 26q0 27 26 27t26 -27zM280 401q0 -26 -26 -26q-27 0 -27 25q0 28 27 28q26 0 26 -27zM591 89q0 -26 -25 -26q-27 0 -27 26q0 27 27 27q25 0 25 -27zM520 41q0 -25 -26 -25q-27 0 -27 25q0 27 27 27q26 0 26 -27zM232 330q0 -27 -25 -27
q-27 0 -27 27q0 25 26 25t26 -25zM215 245q0 -25 -25 -25q-28 0 -28 25q0 26 28 26q25 0 25 -26zM436 25q0 -26 -27 -26q-26 0 -26 26t26 26q27 0 27 -26zM232 161q0 -26 -26 -26t-26 26q0 27 26 27t26 -27zM351 43q0 -27 -26 -27q-25 0 -25 25q0 27 25 27q26 0 26 -25z
M280 89q0 -26 -26 -26q-27 0 -27 26q0 27 27 27q26 0 26 -27z" />
    <glyph glyph-name="u09CC" unicode="&#x9cc;" horiz-adv-x="818" 
d="M761 508v-486h26v-22h-137v22h33l-1 486h-465q-68 -60 -96 -109q-33 -58 -33 -141q0 -129 81 -249q-79 81 -109 136q-38 70 -38 163q0 54 16 91q23 53 91 109h-150v50h703v71q0 29 -42 29q-40 0 -132 -30.5t-99 -30.5q-31 0 -56 17l-1 61q40 -43 84 -43q45 0 118 31
t108 31q38 0 59 -16q16 -12 34 -44v-76h110v-50h-104zM591 401q0 -26 -25 -26q-27 0 -27 26q0 27 27 27q25 0 25 -27zM520 449q0 -26 -26 -26q-27 0 -27 26t27 26q26 0 26 -26zM639 330q0 -27 -26 -27t-26 27q0 25 27 25q25 0 25 -25zM657 245q0 -25 -25 -25q-28 0 -28 25
q0 26 28 26q25 0 25 -26zM436 466q0 -26 -27 -26q-26 0 -26 26t26 26q27 0 27 -26zM351 449q0 -26 -26 -26q-25 0 -25 26t25 26q26 0 26 -26zM639 161q0 -26 -26 -26t-26 26q0 27 26 27t26 -27zM280 401q0 -26 -26 -26q-27 0 -27 25q0 28 27 28q26 0 26 -27zM591 89
q0 -26 -25 -26q-27 0 -27 26q0 27 27 27q25 0 25 -27zM520 41q0 -25 -26 -25q-27 0 -27 25q0 27 27 27q26 0 26 -27zM232 330q0 -27 -25 -27q-27 0 -27 27q0 25 26 25t26 -25zM215 245q0 -25 -25 -25q-28 0 -28 25q0 26 28 26q25 0 25 -26zM436 25q0 -26 -27 -26
q-26 0 -26 26t26 26q27 0 27 -26zM232 161q0 -26 -26 -26t-26 26q0 27 26 27t26 -27zM351 43q0 -27 -26 -27q-25 0 -25 25q0 27 25 27q26 0 26 -25zM280 89q0 -26 -26 -26q-27 0 -27 26q0 27 27 27q26 0 26 -27z" />
    <glyph glyph-name="u09CD" unicode="&#x9cd;" horiz-adv-x="1" 
d="M-248 -70q30 -25 56 -51q22 -23 42.5 -52t26.5 -61q-18 20 -49.5 44.5t-68 47.5t-73 42.5t-64.5 30.5z" />
    <glyph glyph-name="u09D7" unicode="&#x9d7;" horiz-adv-x="245" 
d="M74 508h-92v50h96q1 9 2 21.5t0.5 25t-3 24t-8.5 17.5q-16 17 -67.5 9.5t-126.5 -36.5q-40 -15 -65.5 -18t-39.5 0q-17 3 -25 12q-1 17 -1 31v32q22 -30 49 -38.5t58 -4t64 17.5t67 26q54 20 86 16.5t50 -17.5q21 -16 30 -43l-1 -75h113v-50h-113v-493h48v-15h-159v15h38
v493z" />
    <glyph glyph-name="u09DC" unicode="&#x9dc;" horiz-adv-x="501" 
d="M-15 558h543v-50h-229v-179q0 -13 4 -24q4 -9 14 -17t31 -7q14 0 22 11t13 24q5 15 8 35q1 0 13 -2.5t26 -4.5q17 -4 38 -7q-9 -99 -35 -174q-11 -32 -26 -61.5t-36 -51t-47.5 -32t-60.5 -4.5q-48 9 -83 36.5t-59.5 65.5t-39.5 81.5t-22.5 83.5t-9 71.5t1.5 46.5
q14 6 27 10t24 7q12 3 25 5q-6 -103 6 -186q5 -35 14.5 -69.5t25.5 -62t39 -46t55 -21.5q20 0 42.5 20t41 54t30.5 79t11 95q-10 -6 -26 -13t-34.5 -10.5t-37.5 -0.5t-36 18q-12 11 -19.5 18.5t-11.5 17.5t-5.5 25.5t-1.5 42.5v126h-235v50zM199 -75q0 19 15 32.5t38 13.5
t38.5 -13.5t15.5 -32.5t-15.5 -32.5t-38.5 -13.5t-38 13.5t-15 32.5z" />
    <glyph glyph-name="u09DD" unicode="&#x9dd;" horiz-adv-x="412" 
d="M-11 558h463v-50h-311v-397q0 -23 9.5 -36t16.5 -20q1 -2 4 -3.5t5 -3.5q3 -3 6 -5q38 19 60.5 49t35 61.5t17 60.5t7.5 46q4 25 3 40.5t-6 23.5t-12.5 9.5t-16.5 -0.5q-20 -5 -48 -30l-11 7l98 61q2 -1 9 -5l18 -9t33 -17q1 -60 -12.5 -108t-34.5 -84.5t-46 -62.5
t-48 -42t-39.5 -23.5t-19.5 -7.5q-5 0 -22.5 11t-36.5 24q-22 15 -48 35v426h-73v50zM108 -82q0 18 15 31t38 13t38.5 -13t15.5 -31t-15.5 -31t-38.5 -13t-38 13t-15 31z" />
    <glyph glyph-name="u09DF" unicode="&#x9df;" horiz-adv-x="535" 
d="M445 508v-496q-213 107 -255 132q-103 61 -140 165l137 102q-33 46 -96 97h-103v50h565l1 -50h-109zM371 508h-169l64 -107l-136 -94q71 -147 241 -196v397zM132 52q0 20 16.5 33.5t41.5 13.5t42 -13.5t17 -33.5t-17 -33.5t-42 -13.5t-41.5 13.5t-16.5 33.5z" />
    <glyph glyph-name="u09E0" unicode="&#x9e0;" horiz-adv-x="619" 
d="M208 127q13 -7 31.5 -17.5t35.5 -20t29 -16.5l12 -7v229q-11 1 -38.5 1t-57 -6t-52 -21.5t-23.5 -46.5q0 -20 4.5 -35t13.5 -26t20.5 -19t24.5 -15zM475 558h172v-50h-99v-493h48v-15h-159v15h38v125q-10 19 -29 39.5t-52 40.5v-204q-4 4 -26 14t-47 19.5t-45.5 16.5
l-20.5 7q-81 25 -120.5 52.5t-54.5 51.5t-13.5 41.5t1.5 22.5q4 30 25.5 45.5t45.5 21.5q28 7 63 7h45h69v2q-6 8 -17.5 23t-24 31.5t-23.5 31t-16 22.5q0 -30 -10 -45.5t-24.5 -22t-30 -6.5h-27.5q-38 2 -56.5 17t-26.5 33q-9 21 -8 47h1v110h76v-100v-44.5t5 -24.5
q8 -14 21 -16t20 -2q22 1 31.5 16.5t12 35t1 38t-2.5 25.5q6 0 19 -11.5t28 -27t29 -32t23 -26.5v169h78v-298q14 -13 38 -37t43 -47v382zM562 -254q-70 12 -236 47q-185 46 -185 84q0 14 10 31l160 150l84 -38q-36 -29 -71 -58q-50 -45 -50 -68q0 -44 290 -141z" />
    <glyph glyph-name="u09E1" unicode="&#x9e1;" horiz-adv-x="534" 
d="M356 -185q26 27 26 51q0 34 -50 61q5 -26 -11 -48q-18 -27 -55 -27q-30 0 -52 22q-20 19 -20 35q0 28 26 50q30 27 80 27q43 0 78.5 -32t35.5 -66q0 -13 -6 -23q43 34 43 75q0 26 -27 41q-39 21 -116 64q-90 56 -90 96q0 32 54 56l3 -1v1q0 46 -60 80q1 -7 1 -14
q0 -37 -20 -62q-25 -31 -69 -31q-38 0 -68 31q-25 26 -25 50q0 41 32 72q40 39 106 39q57 0 103 -46.5t46 -95.5q0 -17 -7 -32q56 50 56 108q0 37 -34 59q-52 30 -152 93q-120 81 -120 140q0 46 73 80l89 -35q-59 -42 -59 -76q0 -24 31 -50q17 -15 66 -44q59 -30 117 -58
q64 -35 64 -84q0 -73 -109 -148l5 -1q-45 -27 -45 -52q0 -24 74 -65l89 -40q48 -24 48 -58q0 -74 -151 -142z" />
    <glyph glyph-name="u09E2" unicode="&#x9e2;" horiz-adv-x="438" 
d="M201 128q24 30 24 58q0 38 -45 69q5 -30 -9 -55q-16 -29 -48 -29q-25 0 -43.5 22t-18.5 41q0 32 22 57q25 30 69 30q38 0 69 -36.5t31 -74.5q0 -14 -6 -25q38 39 38 84q0 29 -23 46q-34 23 -101 73q-79 63 -79 108q0 37 48 63l59 -27q-39 -32 -39 -59q0 -29 65 -74
q38 -23 77 -45q42 -28 42 -66q0 -83 -132 -160z" />
    <glyph glyph-name="u09E3" unicode="&#x9e3;" horiz-adv-x="332" 
d="M213 -202q16 25 16 48q0 32 -30 57q3 -25 -7 -45q-11 -24 -33 -24q-18 0 -30.5 18t-12.5 34q0 26 15 46q18 25 48 25q26 0 47.5 -29.5t21.5 -61.5q0 -11 -3 -21q26 32 26 69q0 25 -16 38q-24 20 -71 60q-54 52 -54 89q0 31 33 52l6 -3q-2 30 -34 56q3 -26 -7 -47
q-12 -26 -36 -26q-19 0 -34 21q-13 18 -13 34q0 27 16 49q20 25 53 25q28 0 51.5 -31t23.5 -64q0 -12 -4 -22q28 34 28 73q0 25 -17 39q-26 20 -76 63q-60 54 -60 93q0 31 36 54l45 -24q-29 -27 -29 -50q0 -24 48 -64l58 -38q32 -24 32 -56q0 -52 -52 -101l6 -3
q-27 -26 -27 -49t45 -61q26 -18 53 -36q30 -23 30 -54q0 -69 -92 -133z" />
    <glyph glyph-name="u09E6" unicode="&#x9e6;" horiz-adv-x="444" 
d="M95 228q0 66 12.5 126t33.5 105.5t50 72t62 26.5t62.5 -26.5t51 -72t34.5 -105.5t13 -126t-12.5 -126.5t-34.5 -106.5t-51 -73.5t-62 -27.5t-62 27.5t-50.5 73.5t-34 106.5t-12.5 126.5zM119 225q0 -51 10.5 -98.5t28.5 -83.5t42 -57.5t51 -21.5t51 21.5t42 57.5
t28.5 83.5t10.5 98.5t-10.5 98t-28.5 82t-42.5 56t-51.5 21t-51 -21t-42 -56t-28 -82t-10 -98z" />
    <glyph glyph-name="u09E7" unicode="&#x9e7;" horiz-adv-x="394" 
d="M151 558q0 -6 3 -25t11 -41.5t22.5 -44.5t37.5 -34q24 -18 51.5 -42t50.5 -57t36.5 -76.5t9.5 -101.5q-3 -21 -11.5 -50t-22.5 -59.5t-35 -58t-49.5 -46t-64.5 -24t-81 9.5q0 -1 -8.5 3.5t-19 15t-21 26.5t-15.5 38.5t-1.5 51.5t20.5 65q21 44 43 54.5t40 2t30.5 -28
t14.5 -34.5q3 0 5 -15.5t-3.5 -40t-23.5 -53.5t-56 -54q12 -8 22.5 -16t24 -9t31 8.5t42.5 36.5t41 70.5t18.5 95.5t-10.5 108t-46 107q-26 27 -53 53.5t-49.5 53.5t-38 54.5t-19.5 56.5h74z" />
    <glyph glyph-name="u09E8" unicode="&#x9e8;" horiz-adv-x="487" 
d="M129 558h76q27 -51 84 -82.5t112 -58.5q63 -33 63 -75q0 -76 -90.5 -109.5t-146.5 -29.5q33 -83 77.5 -148.5t122.5 -139.5q-182 75 -294 307q89 13 154 40q94 39 94 94q0 26 -34 51q-22 17 -79 38t-81 35q-42 25 -58 78z" />
    <glyph glyph-name="u09E9" unicode="&#x9e9;" horiz-adv-x="535" 
d="M227 398q17 77 44 111.5t56 43t55.5 -1t42.5 -21.5t34.5 -39t32.5 -68.5t21 -96t0 -121.5q-8 -53 -20 -102t-32.5 -89t-51.5 -67t-76 -36q-3 -1 -19 1.5t-39 13.5t-50.5 34t-54.5 64q-27 42 -45 90t-31 98t-22 101.5t-19 100.5q7 1 14 3q6 2 14 3t16 3l44 8
q-2 -26 -2 -57q0 -26 2 -60.5t7 -72.5q7 -53 21.5 -108.5t37 -100t53.5 -72.5t72 -27q19 2 39.5 30t37 77.5t25 118t3.5 152.5q-3 43 -12 75.5t-20.5 56t-22 39t-16.5 26.5q-9 -7 -19 -20q-8 -11 -18 -30.5t-18 -49.5q-11 -38 -11.5 -73.5t3.5 -66t11 -53t12 -32.5
q3 -7 -5.5 -3.5t-22 15.5t-29.5 31.5t-28 45.5t-17 58t3 68z" />
    <glyph glyph-name="u09EA" unicode="&#x9ea;" horiz-adv-x="355" 
d="M46 71q0 28 12 54.5t30.5 47.5t40.5 36.5t42 22.5q-23 6 -45 21t-40 37t-29 48.5t-11 56.5q0 34 12 63.5t32 51.5t47.5 35t59.5 13q31 0 59 -13t48.5 -35t32.5 -51.5t12 -63.5q0 -29 -12 -55.5t-30.5 -48t-40.5 -36.5t-43 -22q20 -6 42 -21.5t41 -37.5t31 -48.5t12 -54.5
q0 -34 -12 -63.5t-32.5 -51.5t-48.5 -34.5t-59 -12.5q-32 0 -59.5 12.5t-47.5 34.5t-32 51.5t-12 63.5zM117 390q0 -61 24 -99.5t54 -49.5q8 -3 21 8.5t25.5 32.5t21.5 49.5t9 58.5t-6 57t-16.5 47t-25 31.5t-30.5 11.5t-30 -11.5t-24.5 -31.5t-16.5 -47t-6 -57zM117 67
q0 -61 22.5 -97t52.5 -47q8 -3 21.5 7.5t26.5 31t22.5 48t9.5 57.5t-6 57t-16.5 47t-25 31.5t-30.5 11.5t-30 -11.5t-24.5 -31.5t-16.5 -47t-6 -57z" />
    <glyph glyph-name="u09EB" unicode="&#x9eb;" horiz-adv-x="449" 
d="M223 541l-16 -33q42 -13 66 -13q27 0 69 18l36 41l55 -32q-49 -53 -90 -117q-55 -82 -55 -125q0 -15 13.5 -26t32.5 -11q39 0 70 35q28 -28 28 -85q0 -82 -67 -173q-76 -102 -169 -102q-94 0 -140 95q-33 69 -33 162q0 157 129 383zM338 188q-27 -5 -49 -5q-52 0 -75 51
q3 71 28 127q23 53 77 119q-41 -10 -65 -10q-26 0 -62 16q-133 -221 -133 -322.5t38.5 -167t103 -65.5t105.5 99q33 78 32 141v17z" />
    <glyph glyph-name="u09EC" unicode="&#x9ec;" horiz-adv-x="495" 
d="M408 -11q-28 -35 -41 -46q-27 -24 -58 -24q-118 0 -195 201q-47 125 -69 288l92 23l-1 -64q-1 -74 16 -171q20 -111 51 -163q4 -8 15 -26q42 -69 79 -69q115 0 113 310q-52 -52 -96 -52q-39 0 -72 23t-33 53v286h77v-265q0 -21 18.5 -39t43.5 -18q53 0 54 89v29l81 -14
q0 -119 -10 -182q-16 -107 -65 -169z" />
    <glyph glyph-name="u09ED" unicode="&#x9ed;" horiz-adv-x="382" 
d="M257 -106v346q-97 0 -153 37q-61 40 -61 115q0 62 41 110q45 56 117 56q59 0 97 -49q32 -43 32 -94v-521h-73zM255 464q0 21 -16 40.5t-56.5 21.5t-70 -32t-29.5 -75q0 -66 43 -94q38 -26 121 -25h8v164z" />
    <glyph glyph-name="u09EE" unicode="&#x9ee;" horiz-adv-x="448" 
d="M358 323q-19 -239 -114 -347q-61 -68 -79 -68t-60 30q-37 27 -53 46l-2 574l81 -1v-217q48 -16 83 -16t95 17l66 51l68 -25zM276 289q-37 -5 -66 -5q-27 0 -79 7v-332l42 -28q41 32 78 140q33 98 33 156q0 22 -8 62z" />
    <glyph glyph-name="u09EF" unicode="&#x9ef;" horiz-adv-x="467" 
d="M257 -83q30 44 30 85q0 55 -57 100q1 -9 1 -18q0 -41 -17 -70q-21 -35 -58 -35q-33 0 -58 35q-22 31 -22 58q0 46 28 82q33 44 90 44q49 0 88.5 -52.5t39.5 -108.5q0 -20 -7 -37q49 57 49 122q0 43 -30 68q-44 34 -130 106q-102 92 -102 157q0 54 62 92l76 -40
q-50 -46 -50 -86q0 -28 26 -57q15 -16 57 -50q50 -33 99 -65q55 -41 55 -96q0 -122 -170 -234z" />
    <glyph glyph-name="u09F0" unicode="&#x9f0;" horiz-adv-x="449" 
d="M464 558v-50h-101l-1 -487q-36 28 -101 68q-37 23 -62 39.5t-39 27.5q-118 85 -118 176q0 74 92 115h153v61h-299v50h476zM183 422q-26 -17 -41 -36l145 -68v104h-104zM120 318q0 -71 167 -187v126q-12 6 -33.5 16.5t-45.5 22.5l-47 23.5l-39 19.5q-1 -5 -1.5 -10.5
t-0.5 -10.5z" />
    <glyph glyph-name="u09F1" unicode="&#x9f1;" horiz-adv-x="440" 
d="M259 -4q-135 34 -206 185v34q140 -170 217 -170q10 0 19 1zM466 508h-101l-1 -487q-35 27 -101 68q-73 46 -101 67q-118 86 -118 176q0 74 92 115h153v61h-299v50h476v-50zM289 422h-104q-63 -39 -63 -104q0 -72 167 -187v291z" />
    <glyph glyph-name="u09F2" unicode="&#x9f2;" horiz-adv-x="407" 
d="M392 -20h-33q-5 132 -89 230q-87 104 -216 112l31 66q145 -6 230 -139q73 -114 77 -269z" />
    <glyph glyph-name="u09F3" unicode="&#x9f3;" horiz-adv-x="403" 
d="M249 5q-20 -23 -30 -32q-23 -23 -33 -25l-9 -4q-37 17 -109 56v293h-68v42h68q0 30 4 212q0 20 -22 34t-46 14q-90 0 -249 -43q158 77 281 77q78 0 94 -55q9 -30 4 -239h51v-42h-51l-1 -275q0 -24 44 -59q61 30 97 133q29 82 29 158q0 39 -24 39q-17 0 -57 -30l-13 6
l98 61l58 -31v-35q2 -74 -29 -136q-25 -51 -87 -119z" />
    <glyph glyph-name="u09F4" unicode="&#x9f4;" horiz-adv-x="414" 
d="M400 337q-86 -301 -340 -351l-26 87q258 53 322 277z" />
    <glyph glyph-name="u09F5" unicode="&#x9f5;" horiz-adv-x="518" 
d="M498 337q-4 -144 -96 -245q-90 -97 -233 -126l-20 65q62 20 62 77q0 24 -11.5 42.5t-33.5 18.5q-25 0 -46 -17t-18 -41l-47 -3q4 48 38 87.5t80 39.5q42 0 68.5 -26.5t26.5 -68.5q0 -45 -32 -86q160 94 217 296z" />
    <glyph glyph-name="u09F6" unicode="&#x9f6;" horiz-adv-x="612" 
d="M595 415q-66 -27 -86 -146q-26 -153 -55 -197q-65 -98 -248 -98q-117 0 -117 69q0 34 39 50q25 9 74 27q40 16 40 45q0 20 -15.5 37t-35.5 17q-18 0 -34.5 -37t-36.5 -37q-38 0 -38 39q0 37 53 63q44 22 86 22q36 0 62 -27t26 -63q0 -41 -45 -71q-21 -14 -85 -40
q-47 -19 -49 -33q10 -14 38 -14q169 0 236 90q38 51 62 188q22 126 70 167z" />
    <glyph glyph-name="u09F7" unicode="&#x9f7;" horiz-adv-x="245" 
d="M215 0h-50v471h50v-471z" />
    <glyph glyph-name="u09F8" unicode="&#x9f8;" horiz-adv-x="385" 
d="M366 17l-6 -19l-16 -3q-49 0 -49 22v193q0 101 -24 101q-17 0 -50 -47q-29 -42 -63 -88q-39 -48 -69 -48q-38 0 -38 74v286l23 23h5q38 0 38 -162q0 -23 -4 -131q38 69 65 99q47 52 100 52q84 0 84 -154q0 -17 -2 -51.5t-2 -51.5q0 -16 4 -47.5t4 -47.5z" />
    <glyph glyph-name="u09F9" unicode="&#x9f9;" horiz-adv-x="288" 
d="M267 190q0 -45 -27 -72.5t-72 -27.5t-71.5 27.5t-26.5 72.5q0 44 27 72t71 28t71.5 -28t27.5 -72zM222 190q0 55 -55 55q-54 0 -54 -55q0 -56 54 -56q55 0 55 56z" />
    <glyph glyph-name="u09FA" unicode="&#x9fa;" horiz-adv-x="418" 
d="M409 484q-75 -201 -106 -257q-73 -133 -158 -133q-48 0 -82.5 35t-34.5 83q0 15 5 30q30 88 85 185l17 -42q-16 -36 -48 -126q-5 -14 -5 -28q0 -32 19.5 -52t51.5 -20q66 0 136 120q40 70 97 213zM242 276q0 -19 -14.5 -34t-33.5 -15q-20 0 -34.5 14.5t-14.5 34.5
q0 19 15 34t34 15t33.5 -15t14.5 -34z" />
    <glyph glyph-name="afii61664" unicode="&#x200c;" horiz-adv-x="0" 
d="M1 865h62v-1147h-62v1147z" />
    <glyph glyph-name="afii301" unicode="&#x200d;" horiz-adv-x="0" 
d="M1 865h240v-61h-178v-1086h-62v1147z" />
    <glyph glyph-name="endash" unicode="&#x2013;" 
d="M44 279h381v-57h-381v57z" />
    <glyph glyph-name="emdash" unicode="&#x2014;" horiz-adv-x="766" 
d="M41 278h685v-57h-685v57z" />
    <glyph glyph-name="quoteleft" unicode="&#x2018;" horiz-adv-x="155" 
d="M94 403q-33 0 -53 27t-20 62q0 90 99 121l26 -26q-28 -6 -39 -15q-21 -19 -35 -34q-9 -13 -9 -41q0 -5 7 -10q3 4 9 10l18 3q20 0 33 -14.5t13 -34.5q0 -18 -15.5 -33t-33.5 -15z" />
    <glyph glyph-name="quoteright" unicode="&#x2019;" horiz-adv-x="186" 
d="M61 393l-25 28q23 3 41 16q3 2 33 30q10 14 10 41q0 7 -8 11q-3 -4 -8 -11l-19 -2q-20 0 -33 14t-13 34q0 19 15 34t34 15q33 0 53 -26.5t20 -61.5q0 -92 -100 -122z" />
    <glyph glyph-name="quotedblleft" unicode="&#x201c;" horiz-adv-x="343" 
d="M260 412q-34 0 -54 29q-18 25 -18 60q0 91 98 121l25 -26q-27 -5 -37 -15q-28 -25 -33 -31q-12 -17 -12 -43q0 -6 7 -11q3 4 10 11l18 2q19 0 32 -14t13 -34q0 -19 -15 -34t-34 -15zM117 412q-33 0 -54 29q-19 25 -19 60q0 91 98 121l26 -26q-28 -5 -38 -15
q-21 -19 -36 -33q-9 -13 -9 -41q0 -6 8 -11q2 4 9 11l18 2q19 0 32 -14t13 -34q0 -18 -15 -33.5t-33 -15.5z" />
    <glyph glyph-name="quotedblright" unicode="&#x201d;" horiz-adv-x="336" 
d="M183 421q26 3 38 14l35 32q9 14 9 41q0 6 -7 11q-3 -4 -8 -11l-19 -2q-19 0 -32 14.5t-13 33.5t15 34t34 15q34 0 53 -26.5t19 -61.5q0 -92 -100 -122zM40 421q23 3 41 16q3 2 33 30q9 14 9 41q0 7 -7 11q-3 -4 -9 -11l-18 -2q-20 0 -33 14t-13 34q0 19 15 34t34 15
q33 0 54 -28q18 -25 18 -60q0 -92 -100 -122z" />
    <glyph glyph-name="ellipsis" unicode="&#x2026;" horiz-adv-x="669" 
d="M180 60q0 -34 -19 -57t-48 -23q-26 0 -37.5 14.5t-11.5 40.5q0 33 20 56.5t48 23.5q48 0 48 -55zM400 60q0 -34 -19 -57t-48 -23q-26 0 -37.5 14.5t-11.5 40.5q0 33 20 56.5t48 23.5q48 0 48 -55zM620 60q0 -34 -19.5 -57t-48.5 -23q-49 0 -49 55q0 33 20 56.5t48 23.5
q49 0 49 -55z" />
    <glyph glyph-name="minus" unicode="&#x2212;" horiz-adv-x="410" 
d="M380 290q-2 -10 -6.5 -22.5t-8.5 -20.5h-323l-12 12q5 21 15 43h323z" />
    <glyph glyph-name="uni25CC" unicode="&#x25cc;" horiz-adv-x="560" 
d="M461 422q0 -26 -25 -26q-27 0 -27 26q0 27 27 27q25 0 25 -27zM390 470q0 -26 -26 -26q-27 0 -27 26t27 26q26 0 26 -26zM509 351q0 -27 -26 -27t-26 27q0 25 27 25q25 0 25 -25zM527 266q0 -25 -25 -25q-28 0 -28 25q0 26 28 26q25 0 25 -26zM306 487q0 -26 -27 -26
q-26 0 -26 26t26 26q27 0 27 -26zM221 470q0 -26 -26 -26q-25 0 -25 26t25 26q26 0 26 -26zM509 182q0 -26 -26 -26t-26 26q0 27 26 27t26 -27zM150 422q0 -26 -26 -26q-27 0 -27 25q0 28 27 28q26 0 26 -27zM461 110q0 -26 -25 -26q-27 0 -27 26q0 27 27 27q25 0 25 -27z
M390 62q0 -25 -26 -25q-27 0 -27 25q0 27 27 27q26 0 26 -27zM102 351q0 -27 -25 -27q-27 0 -27 27q0 25 26 25t26 -25zM85 266q0 -25 -25 -25q-28 0 -28 25q0 26 28 26q25 0 25 -26zM306 46q0 -26 -27 -26q-26 0 -26 26t26 26q27 0 27 -26zM102 182q0 -26 -26 -26t-26 26
q0 27 26 27t26 -27zM221 64q0 -27 -26 -27q-25 0 -25 25q0 27 25 27q26 0 26 -25zM150 110q0 -26 -26 -26q-27 0 -27 26q0 27 27 27q26 0 26 -27z" />
    <glyph glyph-name="u09CD_u09F1" horiz-adv-x="242" 
d="M137 508q-25 -23 -28 -43t7 -39t27.5 -37.5t34.5 -38.5q24 -34 24.5 -74t-12.5 -80t-36 -77.5t-46 -68t-42 -51t-24 -26.5q43 64 66.5 115t32 90.5t6 69.5t-11 52.5t-20 38t-20.5 27.5q-17 20 -21.5 40.5t-1.5 39t11.5 34.5t16.5 28h-113l-1 50h269l1 -50h-119z" />
    <glyph glyph-name="u09A4_u09CD" unicode="&#x9ce;" horiz-adv-x="475" 
d="M214 -55l15.5 11.5t35 31.5t36.5 47.5t20 59.5t-12.5 61.5t-44.5 57.5t-68 56.5t-83 59.5q-41 36 -50 67.5t2 57t36 45t51.5 33t49.5 21t29 7.5t22 1t36 0t43 -5t43 -14.5t36 -29t22 -46.5q8 -37 -0.5 -59.5t-25.5 -37t-40 -22.5t-44 -15q24 16 35.5 35.5t14.5 39
t-1 36.5t-10 29t-22 28t-39.5 27t-53 11.5t-62.5 -20.5q-34 -21 -45 -49.5t-7 -56.5t19.5 -53t36.5 -39q42 -30 74.5 -51t57 -39.5t42 -37.5t28.5 -45q11 -43 2 -75t-28.5 -54.5t-45.5 -37t-49.5 -22.5t-39.5 -11z" />
    <glyph glyph-name="u0995_u09CD_u0995" horiz-adv-x="648" 
d="M364 508v-37q151 -2 199 -46q40 -37 40 -66q0 -25 -23 -63q14 -35 14 -57q0 -48 -96 -125l-54 -43q8 21 43 71q27 40 27 81q0 28 -6 53q-10 40 -31 40q-35 0 -113 -5v-302q-57 21 -113 42q-65 25 -109 50q-114 63 -114 150q0 22 20 42q-24 26 -24 58q0 107 179 118
q29 2 87 2v37h-302v50h671v-50h-295zM364 437v-93h149q3 14 3 25q0 40 -54 68h-98zM290 435h-84q-40 0 -66.5 -22.5t-25.5 -55.5l1 -13h175v91zM290 311h-80q-64 0 -79 -15.5t-13 -62.5q1 -45 35 -74q10 -9 72 -44q36 -21 65 -45v241z" />
    <glyph glyph-name="u0995_u09CD_u099F" horiz-adv-x="602" 
d="M-15 558h496v52q0 25 -19.5 37.5t-47 16.5t-58 1t-51.5 -9q-56 -15 -96 -20.5t-44 -6.5l143 51q89 25 138.5 21t72.5 -20q27 -18 32 -50v-73h93v-50h-314v-48h40q50 0 85 -11q15 -5 28 -12.5t21.5 -18.5t10 -26.5t-6.5 -35.5q-6 -14 -17 -24.5t-23 -18t-23.5 -12.5
t-17.5 -9q34 62 24.5 96.5t-63.5 34.5h-58v-315q2 -24 24 -39t44 -21q48 28 70 56t25 62q4 51 -4.5 63t-20.5 5q-14 -8 -34 -34l-18 15l84 62q2 -1 9 -5l18 -9t33 -17q-5 -67 -30.5 -113.5t-54.5 -75t-54 -41t-30 -10.5q-41 13 -67.5 25.5t-42.5 21.5q-18 11 -29 20l-1 10
v43q-33 15 -70.5 37t-70.5 51t-55.5 64.5t-23.5 78.5q3 25 12 45.5t32.5 34t65.5 20t110 4.5v47h-266v50zM112 333q-2 -35 15.5 -63t41 -48.5t47.5 -34t35 -18.5v249h-64q-26 0 -41 -12.5t-22.5 -28.5t-9.5 -29.5t-2 -14.5z" />
    <glyph glyph-name="u0995_u09CD_u09A4" horiz-adv-x="734" 
d="M-15 558h773v-50h-308q15 -14 24.5 -28.5t14.5 -21.5q6 -8 11 -21.5t6.5 -31.5t-2.5 -39.5t-17 -45.5q33 26 63 41.5t55.5 17t46 -12t34.5 -45.5q10 -25 8 -49t-11 -44.5t-23 -37.5t-27 -29.5t-22.5 -19l-9.5 -6.5q40 74 39.5 113.5t-40.5 57.5q-19 8 -39 8t-39 -5
t-36 -13.5t-30 -17.5q-11 -12 -25 -24.5t-32 -24.5q21 6 38.5 12.5t33 8t30 -4t29.5 -23.5q19 -24 16.5 -59.5t-26.5 -70t-69.5 -61t-112.5 -32.5q-56 -4 -100.5 10.5t-79.5 56.5t-62 115.5t-48 187.5q-1 0 14.5 3t34.5 6q22 4 49 9q2 -96 22 -173q9 -33 22 -64.5t33 -57
t46.5 -42t62.5 -18.5q25 0 53 13.5t49.5 36t32 51t0.5 59.5q-6 20 -24.5 21t-38.5 -6t-37 -17t-20 -13q2 3 12.5 22.5t23 47.5t23.5 61.5t13.5 65t-7 57.5t-38.5 39q-16 7 -31.5 3t-29 -15t-24.5 -27t-18 -33t-9 -33.5t2 -27.5q10 -26 17 -44.5t6 -18.5l-12.5 9.5
t-27.5 26.5t-27.5 39.5t-13.5 48.5t15 54t58 56h-294v50z" />
    <glyph glyph-name="u0995_u09CD_u09A4_u09F0_u09CD" horiz-adv-x="735" 
d="M-15 558h773v-50h-308q15 -14 24.5 -28.5t14.5 -21.5q6 -8 11 -21.5t6.5 -31.5t-2.5 -39.5t-17 -45.5q33 26 63 41.5t55.5 17t46 -12t34.5 -45.5q10 -25 8 -49t-11 -44.5t-23 -37.5t-27 -29.5t-22.5 -19l-9.5 -6.5q40 74 39.5 113.5t-40.5 57.5q-19 8 -39 8t-39 -5
t-36 -13.5t-30 -17.5q-11 -12 -25 -24.5t-32 -24.5q21 6 38.5 12.5t33 8t30 -4t29.5 -23.5q19 -24 16.5 -59.5t-26.5 -70t-69.5 -61t-112.5 -32.5q-56 -4 -100.5 10.5t-79.5 56.5t-62 115.5t-48 187.5q-1 0 14.5 3t34.5 6q22 4 49 9q2 -96 22 -173q9 -33 22 -64.5t33 -57
t46.5 -42t62.5 -18.5q25 0 53 13.5t49.5 36t32 51t0.5 59.5q-6 20 -24.5 21t-38.5 -6t-37 -17t-20 -13q2 3 12.5 22.5t23 47.5t23.5 61.5t13.5 65t-7 57.5t-38.5 39q-16 7 -31.5 3t-29 -15t-24.5 -27t-18 -33t-9 -33.5t2 -27.5q10 -26 17 -44.5t6 -18.5l-12.5 9.5
t-27.5 26.5t-27.5 39.5t-13.5 48.5t15 54t58 56h-294v50zM347 -69q-18 14 -33 19.5t-27 5.5t-20.5 -3t-14.5 -7t-23.5 -13.5t-42.5 -15t-54.5 -2t-59.5 26.5q-30 22 -44 51.5t-18.5 56t-3 44.5l1.5 18q31 -77 63 -109.5t60 -39.5t50 1.5t33 12.5q25 11 45.5 11.5t37.5 -5
t29.5 -15t20.5 -18.5v72h73v-128h48v-15h-159v15h38v37z" />
    <glyph glyph-name="u0995_u09CD_u09A4_u09AC_u09CD" horiz-adv-x="730" 
d="M-15 558h773v-50h-308q15 -14 24.5 -28.5t14.5 -21.5q6 -8 11 -21.5t6.5 -31.5t-2.5 -39.5t-17 -45.5q33 26 63 41.5t55.5 17t46 -12t34.5 -45.5q10 -25 8 -49t-11 -44.5t-23 -37.5t-27 -29.5t-22.5 -19l-9.5 -6.5q40 74 39.5 113.5t-40.5 57.5q-19 8 -39 8t-39 -5
t-36 -13.5t-30 -17.5q-11 -12 -25 -24.5t-32 -24.5q21 6 38.5 12.5t33 8t30 -4t29.5 -23.5q19 -24 16.5 -59.5t-26.5 -70t-69.5 -61t-112.5 -32.5q-56 -4 -100.5 10.5t-79.5 56.5t-62 115.5t-48 187.5q-1 0 14.5 3t34.5 6q22 4 49 9q2 -96 22 -173q9 -33 22 -64.5t33 -57
t46.5 -42t62.5 -18.5q25 0 53 13.5t49.5 36t32 51t0.5 59.5q-6 20 -24.5 21t-38.5 -6t-37 -17t-20 -13q2 3 12.5 22.5t23 47.5t23.5 61.5t13.5 65t-7 57.5t-38.5 39q-16 7 -31.5 3t-29 -15t-24.5 -27t-18 -33t-9 -33.5t2 -27.5q10 -26 17 -44.5t6 -18.5l-12.5 9.5
t-27.5 26.5t-27.5 39.5t-13.5 48.5t15 54t58 56h-294v50zM449 -247q-19 7 -39 15q-17 7 -39 16t-42 19q-22 11 -44.5 26.5t-39.5 35t-26 42t-4 47.5q5 28 31 42t57 19t59.5 4.5t37.5 -0.5v36l24 -2q5 -1 9 -1t8 -1t8 -1v-297zM303 -9q-24 -11 -32.5 -24.5t-6.5 -27.5
t13 -28.5t26 -27.5q35 -31 97 -63v171h-97z" />
    <glyph glyph-name="u0995_u09CD_u09A8" horiz-adv-x="557" 
d="M354 161q-7 -1 -33 0.5t-60 8t-72.5 19t-69.5 34t-51 52t-18 73.5q3 25 13 45.5t35.5 34t70 20t115.5 3.5v57h-314v50h610v-50h-225v-52h40q40 -3 72 -14q13 -5 25.5 -12t22 -17.5t14.5 -24.5t4 -32q-1 -8 -6 -27t-19.5 -45.5t-39.5 -58t-66 -65.5q15 16 28.5 41.5
t23 54.5t14 59t0.5 54t-17 39t-38 15h-58zM284 418q-53 0 -82.5 -12.5t-44 -28.5t-17.5 -29.5t-3 -14.5q-4 -23 0.5 -41.5t14 -32t23 -23.5t28.5 -17q34 -16 81 -21v220zM184 -32q0 -1 -12.5 2t-30.5 10.5t-36.5 19t-31.5 27.5t-15.5 37t12.5 47q10 16 34 25.5t54.5 9.5
t64 -10.5t61.5 -33.5v161h70v-309h48v-15h-156v15h38v103q-10 13 -22 25.5t-26 20t-29.5 10t-31.5 -3.5q-30 -11 -41 -26t-10 -30t10.5 -30t20.5 -27t20 -19.5t9 -8.5z" />
    <glyph glyph-name="u0995_u09CD_u09AE" horiz-adv-x="730" 
d="M337 179q-20 5 -47.5 13t-57.5 20.5t-58.5 30t-51.5 40t-37 51.5t-14 65q3 25 13 42t35.5 26.5t69.5 12.5t115 0v28h-331v50h627v-50h-225v-26h40q40 3 72 -5q13 -3 25.5 -9t22 -15.5t14.5 -22.5t4 -31q-1 -8 -4 -18t-13.5 -22t-31 -28t-55.5 -36q17 31 30 61.5t15 55
t-11.5 39.5t-49.5 15h-58v-249zM232 461q-26 0 -41 -12.5t-22.5 -28.5t-9.5 -29.5t-2 -14.5q-2 -20 3.5 -36t15.5 -29t23.5 -23t27.5 -18q33 -18 77 -28v219h-72zM349 352q0 1 1.5 -4.5t3.5 -15t4.5 -21.5t4.5 -25q5 -30 12 -69q7 -6 16 -11q8 -5 16.5 -11t18.5 -14
q15 3 33 3t36.5 -4t36 -12t31.5 -21v361h-338v50h527v-50h-116v-493h48v-15h-159v15h38v56q-3 8 -10.5 21t-19 25t-26.5 20.5t-32 8.5q-31 -1 -48.5 -11t-25 -24.5t-8 -32t2.5 -33t8 -28t8 -17.5q-31 22 -43.5 43.5t-13 41t8.5 36t20 28.5q-6 6 -19.5 13t-26.5 16t-21 20.5
t-4 27.5q5 19 11 40t11 39.5t9 31.5t5 15z" />
    <glyph glyph-name="u0995_u09F0_u09CD" horiz-adv-x="742" 
d="M-25 558h786v-50h-367q42 -12 64 -26.5t33 -27.5q12 -15 15 -30v-138q40 54 71 75.5t54 23.5t37.5 -8t21.5 -18q18 -31 19 -59t-10 -54t-31 -51.5t-43 -50.5q20 37 25.5 66t4 49t-6.5 30l-5 10q-21 21 -41.5 20t-38.5 -14t-33 -33t-24 -36v-221h48v-15h-159v15h38v39
q-17 22 -38 32.5t-41.5 14.5t-40 4t-33.5 1q-51 7 -88 29t-62.5 52.5t-41 65.5t-24 66.5t-12 56.5t-3.5 35q10 7 27 12t33 8t27.5 3.5t10.5 -1.5q-14 -31 -13.5 -72t10.5 -81q21 -57 47 -86t51.5 -41.5t49 -13.5t39.5 -1q15 1 29.5 -4t28 -13t25 -17t19.5 -16v326
q-5 24 -12 34.5t-13.5 13.5t-11 2t-4.5 0q-43 -17 -66.5 -38.5t-33 -44.5t-8.5 -46t7.5 -44.5t15.5 -39.5t14 -30q-60 56 -78.5 103.5t-11.5 84t32 62t54 37.5h-342v50z" />
    <glyph glyph-name="u0995_u09CD_u09B2" horiz-adv-x="559" 
d="M284 -13q-18 45 -33 62t-27.5 16t-22.5 -15t-16.5 -30.5t-10 -30l-3.5 -13.5q-4 13 -15 28.5t-24.5 27t-27.5 15.5t-23 -6q-9 -11 -7.5 -23t8.5 -24.5t19 -26.5t24 -27q-29 3 -52.5 23.5t-35 45.5t-7.5 49.5t31 36.5q26 11 45.5 0t32.5 -29q15 -21 26 -53q-3 17 0 33
q2 14 8.5 28.5t22.5 24.5q12 7 25 2t25 -16t22 -25t16 -24v90q-35 10 -76.5 28.5t-77.5 46t-59 64t-21 83.5q3 25 13 45.5t35.5 34t70 20t115.5 3.5v57h-314v50h615v-50h-230v-52h40q40 -3 72 -14q13 -5 25.5 -12t22 -17.5t14.5 -24.5t4 -32q-1 -8 -6 -27t-19.5 -45.5
t-39.5 -58t-66 -65.5q15 16 28.5 41.5t23 54.5t14 59t0.5 54t-17 39t-38 15h-58l-1 -480h48v-15h-156v15h38v44zM284 418q-53 0 -82.5 -12.5t-44 -28.5t-17.5 -29.5t-3 -14.5q-4 -23 0.5 -43.5t14 -37.5t23 -31.5t28.5 -25.5q34 -26 81 -45v268z" />
    <glyph glyph-name="u0995_u09AC_u09CD" horiz-adv-x="591" 
d="M342 18l1 -1q-88 34 -157 83q-29 21 -56.5 47.5t-48.5 58.5t-33 69.5t-9 80.5q3 25 13 42t35.5 26.5t69.5 12.5t115 0v71h-287v50h583v-50h-225v-69h40q40 3 72 -5q13 -3 25.5 -9t22 -15.5t14.5 -22.5t4 -31q-1 -8 -6 -27t-19.5 -45.5t-39.5 -58t-66 -65.5q11 21 23 48
t21.5 56.5t14.5 58t2.5 50.5t-14.5 36t-36 14h-58v-405h-1zM200 418q-26 0 -41 -12.5t-22.5 -28.5t-9.5 -29.5t-2 -14.5q-4 -29 0 -55.5t14 -49t23.5 -42t28.5 -35.5q34 -37 81 -64v331h-72zM343 -198q-19 7 -39 15q-17 7 -39 16t-42 19q-22 11 -44.5 26.5t-39.5 35t-26 42
t-4 47.5q5 28 31 42t57 19t59.5 4.5t37.5 -0.5v36l24 -2q5 -1 9 -1t8 -1t8 -1v-297zM197 40q-24 -11 -32.5 -24.5t-6.5 -27.5t13 -28.5t26 -27.5q35 -31 97 -63v171h-97z" />
    <glyph glyph-name="u0995_u09CD_u09B7" horiz-adv-x="586" 
d="M-15 558h627v-50h-197v-197q65 -16 96.5 -36.5t42.5 -40t8 -35.5t-6 -22q-11 -20 -25.5 -33t-28.5 -21.5t-25 -13t-15 -5.5q27 27 30 53t-8 49t-31 41t-38 30v-274q-93 23 -157 51.5t-106 58.5t-65 60t-33.5 54.5t-13 41.5t-2.5 23q63 18 99.5 39t53.5 42.5t18.5 42
t-5.5 38.5t-18.5 32t-20.5 22h-4q-48 -22 -65 -50t-19 -53q-2 -30 11 -60q-2 0 -8.5 8.5t-23.5 29.5q-20 33 -23.5 55t3 36.5t18.5 22.5t23 11h-92v50zM347 308q-33 15 -53 28.5t-31 24.5t-15 19t-5 12q-1 -4 -4.5 -13.5t-9.5 -21t-15 -24t-21 -22.5q-19 -15 -39.5 -32
t-34.5 -25q7 -22 18 -43q10 -18 24.5 -39.5t35.5 -38.5q23 -20 49 -35.5t49 -26.5q26 -13 52 -23v260zM347 506q-36 -30 -49.5 -54.5t-10.5 -45t19.5 -37t40.5 -30.5v167zM209 484q9 -9 17.5 -17t12.5 -10q5 9 11.5 17.5t11.5 16.5q6 9 13 17h-90z" />
    <glyph glyph-name="u0995_u09CD_u09B7_u09CD_u09A3" horiz-adv-x="585" 
d="M-17 558h625v-50h-196v-197q65 -16 96.5 -36.5t42.5 -40t8 -35.5t-6 -22q-11 -20 -25.5 -33t-28.5 -21.5t-25 -13t-15 -5.5q27 27 30 53t-8 49t-31 41t-38 30v-216q-83 11 -143.5 31t-102.5 44t-67.5 49t-39.5 47t-19 38t-5 22q63 18 99.5 39t53.5 42.5t18.5 42
t-5.5 38.5t-18.5 32t-20.5 22h-4q-48 -22 -65 -50t-19 -53q-2 -30 11 -60q-2 0 -8.5 8.5t-23.5 29.5q-20 33 -23.5 55t3 36.5t18.5 22.5t23 11h-91v50zM344 308q-33 15 -53 28.5t-31 24.5t-15 19t-5 12q-1 -4 -4.5 -13.5t-9.5 -21t-15 -24t-21 -22.5q-19 -15 -39.5 -32
t-34.5 -25q5 -10 15 -21q8 -10 22 -24.5t35 -31.5q23 -20 50.5 -33.5t50.5 -21.5q27 -10 55 -16v202zM344 506q-36 -30 -49.5 -54.5t-10.5 -45t19.5 -37t40.5 -30.5v167zM206 484q9 -9 17.5 -17t12.5 -10q5 9 11.5 17.5t11.5 16.5q6 9 13 17h-90zM243 -112q0 -1 -12.5 2
t-30.5 10.5t-36.5 19t-31.5 27.5t-15.5 37t12.5 47q10 16 34 25.5t54.5 9.5t64 -10.5t61.5 -33.5v161h70v-309h48v-15h-156v15h38v103q-10 13 -22 25.5t-26 20t-29.5 10t-31.5 -3.5q-30 -12 -41 -26.5t-10 -29.5t10.5 -30t20.5 -27t20 -19.5t9 -8.5z" />
    <glyph glyph-name="u0995_u09CD_u09B7_u09CD_u09AE" horiz-adv-x="726" 
d="M-17 558h625v-50h-195v-179q65 -15 96 -33.5t42 -36.5t8 -32.5t-6 -19.5q-11 -18 -25.5 -30t-28 -20t-24.5 -12t-15 -5q27 25 29.5 48.5t-8 44.5t-30.5 37.5t-38 27.5v-217q-83 10 -143 29.5t-101.5 43.5t-66.5 49.5t-39 47.5t-19 38.5t-5 21.5q62 17 98.5 36t53 38.5
t18 38.5t-5 35t-18 29t-20.5 20h-4q-47 -20 -65 -46t-19 -48q-3 -26 11 -54q-2 0 -8 7.5t-23 26.5q-20 30 -23.5 50t3 33.5t18.5 20.5t22 10h-94v50zM346 326q-33 13 -53 25.5t-31 22.5t-15 17.5t-5 10.5q-1 -3 -4.5 -12t-9.5 -19.5t-14.5 -21.5t-20.5 -20
q-19 -14 -39.5 -29.5t-34.5 -22.5q5 -8 15 -19q8 -9 22 -22t35 -29q23 -19 50 -31t50 -20q27 -9 55 -14v184zM346 506q-36 -27 -49.5 -49.5t-10.5 -41t19.5 -33.5t40.5 -28v152zM185 508q12 -12 23 -22q9 -8 17.5 -15t12.5 -9q5 8 11.5 16t11.5 15q6 8 13 15h-89zM247 508
v50h527v-50h-116v-631h48v-15h-159v15h38v104q-3 9 -13.5 24.5t-26 30t-35 25t-41.5 9.5q-40 -1 -63 -13t-33 -29t-10.5 -37.5t4 -39.5t10.5 -34t10 -21q-39 23 -54 49.5t-15.5 51.5t9 45.5t20.5 32.5q25 27 54.5 39t61 10.5t63 -15t59.5 -37.5v436h-338z" />
    <glyph glyph-name="u0995_u09CD_u09B7_u09F0_u09CD" horiz-adv-x="590" 
d="M344 -53q-18 14 -33 19.5t-27 5.5t-20.5 -3t-14.5 -7t-23.5 -13.5t-42.5 -15t-54.5 -2t-59.5 26.5q-30 22 -44 51.5t-18.5 56t-3 44.5l1.5 18q31 -77 63 -109.5t60 -39.5t50 1.5t33 12.5q25 11 45.5 11.5t37.5 -5t29.5 -15t20.5 -18.5v56q-76 23 -128.5 51t-87 56t-53 55
t-27.5 49t-11 37.5t-2 21.5q63 18 99.5 39t53.5 42.5t18.5 42t-5.5 38.5t-18.5 32t-20.5 22h-4q-48 -22 -65 -50t-19 -53q-2 -30 11 -60q-2 0 -8.5 8.5t-23.5 29.5q-20 33 -23.5 55t3 36.5t18.5 22.5t23 11h-86v50h615v-50h-191v-197q65 -16 96.5 -36.5t42.5 -40t8 -35.5
t-6 -22q-11 -20 -25.5 -33t-28.5 -21.5t-25 -13t-15 -5.5q27 27 30 53t-8 49t-31 41t-38 30v-367h48v-15h-154v15h38v37zM344 308q-32 15 -52 28t-31 24t-15.5 19t-5.5 12q-2 -5 -5.5 -14.5t-9.5 -21t-14.5 -23.5t-20.5 -21q-19 -15 -39.5 -32t-34.5 -25q7 -22 18 -43
q10 -18 24.5 -39.5t35.5 -38.5q23 -20 49 -35.5t49 -26.5q26 -13 52 -23v260zM344 506q-36 -30 -49.5 -54.5t-10.5 -45t19.5 -37t40.5 -30.5v167zM206 484q9 -9 17.5 -17t12.5 -10q5 9 11.5 17.5t11.5 16.5q6 9 13 17h-90z" />
    <glyph glyph-name="u0995_u09CD_u09B7_u09AC_u09CD" horiz-adv-x="587" 
d="M-15 558h627v-50h-197v-197q65 -16 96.5 -36.5t42.5 -40t8 -35.5t-6 -22q-11 -20 -25.5 -33t-28.5 -21.5t-25 -13t-15 -5.5q27 27 30 53t-8 49t-31 41t-38 30v-274q-93 23 -157 51.5t-106 58.5t-65 60t-33.5 54.5t-13 41.5t-2.5 23q63 18 99.5 39t53.5 42.5t18.5 42
t-5.5 38.5t-18.5 32t-20.5 22h-4q-48 -22 -65 -50t-19 -53q-2 -30 11 -60q-2 0 -8.5 8.5t-23.5 29.5q-20 33 -23.5 55t3 36.5t18.5 22.5t23 11h-92v50zM347 308q-33 15 -53 28.5t-31 24.5t-15 19t-5 12q-1 -4 -4.5 -13.5t-9.5 -21t-15 -24t-21 -22.5q-19 -15 -39.5 -32
t-34.5 -25q7 -22 18 -43q10 -18 24.5 -39.5t35.5 -38.5q23 -20 49 -35.5t49 -26.5q26 -13 52 -23v260zM347 506q-36 -30 -49.5 -54.5t-10.5 -45t19.5 -37t40.5 -30.5v167zM209 484q9 -9 17.5 -17t12.5 -10q5 9 11.5 17.5t11.5 16.5q6 9 13 17h-90zM414.868 -217.317
q-22.4678 6.97656 -46.1182 14.9502q-20.1016 6.97656 -46.1172 15.9473q-26.0146 8.9707 -49.6641 18.9375q-26.0156 10.9639 -52.6211 26.4121q-26.6064 15.4492 -46.709 34.8848t-30.7451 41.8623q-10.6416 22.4258 -4.72949 47.3428q5.91211 27.9082 36.6572 41.8613
q30.7451 13.9541 67.4023 18.9375q36.6572 4.98438 70.3584 4.48535q33.7012 -0.498047 44.3438 -0.498047v35.8809l28.3799 -1.99316q5.91211 -0.996094 10.6426 -0.996094q4.72949 0 9.45996 -0.99707q4.72949 -0.99707 9.45996 -0.99707v-296.021zM242.224 19.8975
q-28.3799 -10.9639 -38.4316 -24.4189q-10.0508 -13.4551 -7.68555 -27.4092q2.36426 -13.9541 15.3721 -28.4062t30.7451 -27.4092q41.3877 -30.8984 114.702 -62.793v170.437h-114.702z" />
    <glyph glyph-name="u0995_u09CD_u09B8" horiz-adv-x="722" 
d="M354 113q-7 -1 -33 4t-60 17t-72.5 30.5t-69.5 45t-51 61t-18 77.5q3 25 13 48.5t35.5 40.5t70 26t115.5 6v39h-314v50h615v-50h-230v-34h40q41 0 74 -11q27 -9 49 -28.5t19 -55.5q-1 -8 -4.5 -19.5t-15 -26t-33 -32.5t-58.5 -40q22 23 37 54t16.5 59t-13.5 47.5
t-53 19.5h-58zM284 436q-53 0 -82.5 -15.5t-44 -34.5t-17.5 -35.5t-3 -17.5q-4 -23 0.5 -43.5t14 -37.5t23 -31.5t28.5 -25.5q34 -26 81 -45v286zM573 223l-3 285h-54v50h221v-50h-94v-490h35v-15h-143v15h37v155l-60 46q-48 -53 -96 -105q-74 -77 -103 -77q-53 0 -110 43
l2 34q33 -30 57 -30q34 0 77 49q1 1 10.5 14t25 30.5t35.5 36.5t40.5 32.5t39.5 18.5t34 -6z" />
    <glyph glyph-name="u0996_u09F0_u09CD" horiz-adv-x="536" 
d="M135 558q-27 -41 -41 -75q-6 -15 -10.5 -29.5t-4.5 -27.5t5 -22.5t17 -14.5q9 0 22.5 1t31.5 16t42 50t54 102h39l14 -18.5t26.5 -47t17.5 -63t-11 -66.5q-5 -9 -12.5 -21.5t-26.5 -25.5t-52 -25.5t-87 -22.5q-13 -4 -28 -12t-18 -22t11.5 -35t60.5 -52
q32 -16 68.5 -31.5t68.5 -28.5q37 -15 73 -28v499h156v-50h-79v-493l-19 3.5t-55 14.5t-89 31t-121 54q-28 14 -57.5 30t-52 35t-33.5 42t-1 51q5 15 21.5 22t35.5 8t36.5 -1t26.5 -5q3 -1 19 -3t36.5 2.5t41.5 18t34 42.5q2 5 2.5 17.5t-2.5 27t-11.5 28t-23.5 19.5
q-13 -12 -31.5 -28t-42 -29.5t-50.5 -21t-57 -1.5q-20 4 -30 19t-13.5 36t-2 44t5 42.5t7 32t4.5 12.5h85zM399 -47q-18 14 -33 19.5t-27 5.5t-20.5 -3t-14.5 -7t-23.5 -13.5t-42.5 -15t-54.5 -2t-59.5 26.5q-30 22 -44 51.5t-18.5 56t-3 44.5l1.5 18q31 -77 63 -109.5
t60 -39.5t50 1.5t33 12.5q25 11 45.5 11.5t37.5 -5t29.5 -15t20.5 -18.5v72h73v-128h48v-15h-159v15h38v37z" />
    <glyph glyph-name="u0996_u09AC_u09CD" horiz-adv-x="521" 
d="M135 558q-27 -41 -41 -75q-6 -15 -10.5 -29.5t-4.5 -27.5t5 -22.5t17 -14.5q9 0 22.5 1t31.5 16t42 50t54 102h39l14 -18.5t26.5 -47t17.5 -63t-11 -66.5q-5 -9 -12.5 -21.5t-26.5 -25.5t-52 -25.5t-87 -22.5q-13 -4 -28 -12t-18 -22t11.5 -35t60.5 -52
q32 -16 68.5 -31.5t68.5 -28.5q37 -15 73 -28v499h156v-50h-79v-493l-19 3.5t-55 14.5t-89 31t-121 54q-28 14 -57.5 30t-52 35t-33.5 42t-1 51q5 15 21.5 22t35.5 8t36.5 -1t26.5 -5q3 -1 19 -3t36.5 2.5t41.5 18t34 42.5q2 5 2.5 17.5t-2.5 27t-11.5 28t-23.5 19.5
q-13 -12 -31.5 -28t-42 -29.5t-50.5 -21t-57 -1.5q-20 4 -30 19t-13.5 36t-2 44t5 42.5t7 32t4.5 12.5h85zM473 -211q-19 7 -39 15q-17 7 -39 16t-42 19q-22 11 -44.5 26.5t-39.5 35t-26 42t-4 47.5q5 28 31 42t57 19t59.5 4.5t37.5 -0.5v36l24 -2q5 -1 9 -1t8 -1t8 -1v-297
zM327 27q-24 -11 -32.5 -24.5t-6.5 -27.5t13 -28.5t26 -27.5q35 -31 97 -63v171h-97z" />
    <glyph glyph-name="u0997_afii61664_u09C1" horiz-adv-x="561" 
d="M414 474q-3 -5 -6 -9.5l-7 -10.5q-7 25 -21 44q-12 17 -33.5 29.5t-55.5 10.5t-50.5 -17t-18 -30.5t10.5 -27t36 -6.5q24 4 39.5 3.5t25.5 -4t16.5 -10t13.5 -12.5q10 -9 9.5 -32t-18 -50t-54 -53.5t-99.5 -42.5q4 4 18 16t29.5 28t30 34.5t21 34.5t1.5 28t-29 15
q-14 -5 -37.5 -8t-41.5 4.5t-22 30t21 69.5q24 33 56 44t63.5 7t58 -18t38.5 -32q10 32 26 41t27 9q14 0 24.5 -9t17.5 -19.5t11 -19l4 -8.5q5 -17 5 -38t-12.5 -47t-41 -57t-80.5 -67q21 6 38.5 10.5t32.5 2t27.5 -13t23.5 -34.5q7 -16 9 -39.5t-2.5 -50t-16.5 -53
t-33.5 -48.5t-54 -37.5t-76.5 -19.5q-33 -2 -74 14t-81 62.5t-75.5 128.5t-57.5 212q-1 0 12 1.5t28 3.5l40 4q6 -116 31 -206q10 -38 25 -74.5t36.5 -65t49 -45t63.5 -14.5q19 6 39 22.5t35.5 41t25.5 55t10 62.5q0 22 -5.5 35t-14 19.5t-19.5 7.5t-23 -2q-27 -6 -61 -28
q56 60 92 109q15 21 28 42t19 39t3.5 31.5t-17.5 19.5q-16 6 -22.5 0t-10.5 -12z" />
    <glyph glyph-name="u0997_u09CD_u0997" horiz-adv-x="554" 
d="M461 16h49v-13h-164v13h39v210q-7 11 -19 23q-18 18 -25 23q-19 14 -60 24.5t-76 10.5q-55 0 -94.5 -23.5t-39.5 -50.5q0 -18 32 -24q68 24 120 24q45 0 71.5 -17.5t26.5 -39.5q0 -63 -208 -150q44 30 89 62q51 39 51 73q0 11 -8 21q-13 13 -34 13q-18 0 -61.5 -12.5
t-66.5 -12.5q-31 0 -49 14q-18 12 -18 28q0 39 55 75q61 41 132 40q26 0 49 -3q1 8 1 15q0 15 -8 29q-12 17 -33 17q-18 0 -61.5 -17t-66.5 -17q-31 0 -49 19q-18 17 -18 38q0 54 55 103q61 56 131.5 55t115 -28t66.5 -63v83h200v-50h-124v-492zM321 359q0 -23 -15 -47
q7 -3 12 -5q45 -20 67 -46v167q-7 14 -19 31q-18 25 -25 32q-19 19 -60 33t-75 14q-55 0 -94.5 -32t-39.5 -69q0 -25 32 -32q68 32 120 32q44 0 70.5 -24t26.5 -54z" />
    <glyph glyph-name="u0997_u09CD_u09A6" horiz-adv-x="779" 
d="M357 405q-7 16 -19 36q-17 29 -24 37q-18 22 -58 38.5t-73 16.5q-53 0 -91.5 -37.5t-38.5 -80.5q0 -29 31 -37q66 37 117 37q42 0 68 -28t26 -63q0 -101 -201 -240q43 49 86 99q49 63 49 118q0 17 -8 33q-12 20 -32 20q-17 0 -59.5 -19.5t-64.5 -19.5q-30 0 -48 22
q-17 19 -17 44q0 63 53 121q59 65 127.5 64t111.5 -33t65 -73v98h456v-50h-383v-321q7 13 20 29.5t28.5 34.5t33.5 36l35 35q40 40 86 81l61 -49v-339h48v-15h-159v15h38v337q-48 -47 -83.5 -93t-58.5 -84q-27 -44 -47 -84l-75 45v269z" />
    <glyph glyph-name="u0997_u09CD_u09A7" horiz-adv-x="617" 
d="M430 3q-11 6 -23 12q-11 5 -25.5 12.5t-32.5 15.5q-32 15 -65 35t-59.5 42t-42.5 44.5t-13 41.5q18 73 188 77v145q-7 13 -18 29q-16 23 -23 29q-17 18 -54.5 31t-69.5 13q-50 0 -86.5 -30t-36.5 -64q0 -23 30 -30q62 30 110 30q40 0 64.5 -22.5t24.5 -50.5
q-4 -51 -194 -162q73 61 97.5 90t29.5 48.5t-3 31.5q-11 16 -30 16q-16 0 -56.5 -15.5t-60.5 -15.5q-29 0 -46 18q-16 15 -16 35q0 50 50 96q56 52 121 51t105.5 -26.5t61.5 -57.5v86h293v-50h-220v-226q14 -3 39.5 -12.5t73.5 -35.5l-0.5 -8.5t-0.5 -22v-31v-35.5v-96
l36 -26l-7 -13l-92 49l2 190l-51 12v-250zM239 186q-2 -20 11 -38.5t32 -33.5t40 -26t35 -17v177h-47q-24 0 -38 -9.5t-21.5 -20.5t-9.5 -21t-2 -11z" />
    <glyph glyph-name="u0997_u09CD_u09A7_u09AC_u09CD" horiz-adv-x="616" 
d="M430 -206q-19 7 -39 15q-17 7 -39 16t-42 19q-22 11 -44.5 26.5t-39.5 35t-26 42t-4 47.5q5 28 31 42t57 19t59.5 4.5t37.5 -0.5v36l24 -2q5 -1 9 -1t8 -1t8 -1v-297zM284 32q-24 -11 -32.5 -24.5t-6.5 -27.5t13 -28.5t26 -27.5q35 -31 97 -63v171h-97zM430 3
q-11 6 -23 12q-11 5 -25.5 12.5t-32.5 15.5q-32 15 -65 35t-59.5 42t-42.5 44.5t-13 41.5q18 73 188 77v145q-7 13 -18 29q-16 23 -23 29q-17 18 -54.5 31t-69.5 13q-50 0 -86.5 -30t-36.5 -64q0 -23 30 -30q62 30 110 30q40 0 64.5 -22.5t24.5 -50.5q-4 -51 -194 -162
q73 61 97.5 90t29.5 48.5t-3 31.5q-11 16 -30 16q-16 0 -56.5 -15.5t-60.5 -15.5q-29 0 -46 18q-16 15 -16 35q0 50 50 96q56 52 121 51t105.5 -26.5t61.5 -57.5v86h293v-50h-220v-226q14 -3 39.5 -12.5t73.5 -35.5l-0.5 -8.5t-0.5 -22v-31v-35.5v-96l36 -26l-7 -13l-92 49
l2 190l-51 12v-250zM239 186q-2 -20 11 -38.5t32 -33.5t40 -26t35 -17v177h-47q-24 0 -38 -9.5t-21.5 -20.5t-9.5 -21t-2 -11z" />
    <glyph glyph-name="u0997_u09CD_u09A7_u09F0_u09CD" horiz-adv-x="614" 
d="M430 3q-11 6 -23 12q-11 5 -25.5 12.5t-32.5 15.5q-32 15 -65 35t-59.5 42t-42.5 44.5t-13 41.5q18 73 188 77v145q-7 13 -18 29q-16 23 -23 29q-17 18 -54.5 31t-69.5 13q-50 0 -86.5 -30t-36.5 -64q0 -23 30 -30q62 30 110 30q40 0 64.5 -22.5t24.5 -50.5
q-4 -51 -194 -162q73 61 97.5 90t29.5 48.5t-3 31.5q-11 16 -30 16q-16 0 -56.5 -15.5t-60.5 -15.5q-29 0 -46 18q-16 15 -16 35q0 50 50 96q56 52 121 51t105.5 -26.5t61.5 -57.5v86h293v-50h-220v-226q14 -3 39.5 -12.5t73.5 -35.5l-0.5 -8.5t-0.5 -22v-31v-35.5v-96
l36 -26l-7 -13l-92 49l2 190l-51 12v-250zM239 186q-2 -20 11 -38.5t32 -33.5t40 -26t35 -17v177h-47q-24 0 -38 -9.5t-21.5 -20.5t-9.5 -21t-2 -11zM357 -14q-18 14 -33 19.5t-27 5.5t-20.5 -3t-14.5 -7t-23.5 -13.5t-42.5 -15t-54.5 -2t-59.5 26.5q-30 22 -44 51.5
t-18.5 56t-3 44.5l1.5 18q31 -77 63 -109.5t60 -39.5t50 1.5t33 12.5q25 11 45.5 11.5t37.5 -5t29.5 -15t20.5 -18.5v72h73v-128h48v-15h-159v15h38v37z" />
    <glyph glyph-name="u0997_u09CD_u09A8" horiz-adv-x="538" 
d="M381 405q-7 16 -19 36q-17 29 -24 37q-18 22 -58 38.5t-73 16.5q-53 0 -91.5 -37.5t-38.5 -80.5q0 -29 31 -37q66 37 117 37q42 0 68 -28t26 -63q4 -81 -211 -190q47 42 92.5 85t52.5 82q0 17 -8 33q-12 20 -32 20q-17 0 -59.5 -19.5t-64.5 -19.5q-30 0 -48 22
q-17 19 -17 44q0 63 53 121q59 65 127.5 64t111.5 -33t65 -73v98h182v-50h-109v-493h-73v390zM284 -26q0 -1 -12.5 2t-30.5 10.5t-36.5 19t-31.5 27.5t-15.5 37t12.5 47q10 16 33.5 25.5t53.5 9.5t63 -10.5t61 -33.5v161h73v-309h48v-15h-159v15h38v103q-10 13 -21.5 25.5
t-25 20t-28.5 10t-31 -3.5q-30 -11 -41 -26t-10 -30t10.5 -30t20.5 -27t20 -19.5t9 -8.5z" />
    <glyph glyph-name="u0997_u09CD_u09AE" horiz-adv-x="756" 
d="M381 189v216q-7 16 -19 36q-17 29 -24 37q-18 22 -58 38.5t-73 16.5q-53 0 -91.5 -37.5t-38.5 -80.5q0 -29 31 -37q66 37 117 37q42 0 68 -28t26 -63q4 -81 -211 -190q47 42 92.5 85t52.5 82q0 17 -8 33q-12 20 -32 20q-17 0 -59.5 -19.5t-64.5 -19.5q-30 0 -48 22
q-17 19 -17 44q0 63 53 121q59 65 127.5 64t111.5 -33t65 -73v98h182v-50h-109v-275l-37 -6zM447 508v50h337v-50h-116v-512h48v-15h-159v15h38v104q-3 9 -13.5 24.5t-26 30t-35 25t-41.5 9.5q-40 -1 -63 -13t-33 -29t-10.5 -37.5t4 -39.5t10.5 -34t10 -21q-39 23 -54 49.5
t-15.5 51.5t9 45.5t20.5 32.5q25 27 54.5 39t61 10.5t63 -15t59.5 -37.5v317h-148z" />
    <glyph glyph-name="u0997_u09F0_u09CD" horiz-adv-x="512" 
d="M357 -27q-18 14 -33 19.5t-27 5.5t-20.5 -3t-14.5 -7t-23.5 -13.5t-42.5 -15t-54.5 -2t-59.5 26.5q-30 22 -44 51.5t-18.5 56t-3 44.5l1.5 18q31 -77 63 -109.5t60 -39.5t50 1.5t33 12.5q25 11 45.5 11.5t37.5 -5t29.5 -15t20.5 -18.5v413q-7 16 -19 36q-17 29 -24 37
q-18 22 -58 38.5t-73 16.5q-53 0 -91.5 -37.5t-38.5 -80.5q0 -29 31 -37q66 37 117 37q42 0 68 -28t26 -63q0 -101 -201 -240q43 49 86 99q49 63 49 118q0 17 -8 33q-12 20 -32 20q-17 0 -59.5 -19.5t-64.5 -19.5q-30 0 -48 22q-17 19 -17 44q0 63 53 121q59 65 127.5 64
t111.5 -33t65 -73v98h181v-50h-108v-572h48v-15h-159v15h38v37z" />
    <glyph glyph-name="u0997_u09F0_u09CD_u09C1" horiz-adv-x="664" 
d="M379 -27q-18 14 -33 19.5t-27 5.5t-20.5 -3t-14.5 -7t-23.5 -13.5t-42.5 -15t-54.5 -2t-59.5 26.5q-30 22 -44 51.5t-18.5 56t-3 44.5l1.5 18q31 -77 63 -109.5t60 -39.5t50 1.5t33 12.5q25 11 45.5 11.5t37.5 -5t29.5 -15t20.5 -18.5v413q-7 16 -19 36q-17 29 -24 37
q-18 22 -58 38.5t-73 16.5q-53 0 -91.5 -37.5t-38.5 -80.5q0 -29 31 -37q66 37 117 37q42 0 68 -28t26 -63q0 -101 -201 -240q43 49 86 99q49 63 49 118q0 17 -8 33q-12 20 -32 20q-17 0 -59.5 -19.5t-64.5 -19.5q-30 0 -48 22q-17 19 -17 44q0 63 53 121q59 65 127.5 64
t111.5 -33t65 -73v98h181v-50h-108v-572h48v-15h-159v15h38v37zM454 558h230v-50h-230v50zM451 281q49 -7 72 -7q45 0 45 59q0 40 -14 85q76 -75 76 -131q0 -24 -22 -49t-51 -25q-36 0 -106 28v40z" />
    <glyph glyph-name="u0997_u09F0_u09CD_u09C2" horiz-adv-x="670" 
d="M375 -27q-18 14 -33 19.5t-27 5.5t-20.5 -3t-14.5 -7t-23.5 -13.5t-42.5 -15t-54.5 -2t-59.5 26.5q-30 22 -44 51.5t-18.5 56t-3 44.5l1.5 18q31 -77 63 -109.5t60 -39.5t50 1.5t33 12.5q25 11 45.5 11.5t37.5 -5t29.5 -15t20.5 -18.5v413q-7 16 -19 36q-17 29 -24 37
q-18 22 -58 38.5t-73 16.5q-53 0 -91.5 -37.5t-38.5 -80.5q0 -29 31 -37q66 37 117 37q42 0 68 -28t26 -63q0 -101 -201 -240q43 49 86 99q49 63 49 118q0 17 -8 33q-12 20 -32 20q-17 0 -59.5 -19.5t-64.5 -19.5q-30 0 -48 22q-17 19 -17 44q0 63 53 121q59 65 127.5 64
t111.5 -33t65 -73v98h181v-50h-108v-572h48v-15h-159v15h38v37zM449 558h242v-50h-242v50zM445 387h91l69 -28v-303l36 -27l-8 -14l-106 59v282h-82v31z" />
    <glyph glyph-name="u0997_u09CD_u09B2" horiz-adv-x="539" 
d="M381 405q-7 16 -19 36q-17 29 -24 37q-18 22 -58 38.5t-73 16.5q-53 0 -91.5 -37.5t-38.5 -80.5q0 -29 31 -37q66 37 117 37q42 0 68 -28t26 -63q4 -81 -211 -190q47 42 92.5 85t52.5 82q0 17 -8 33q-12 20 -32 20q-17 0 -59.5 -19.5t-64.5 -19.5q-30 0 -48 22
q-17 19 -17 44q0 63 53 121q59 65 127.5 64t111.5 -33t65 -73v98h182v-50h-109v-493h-73v390zM381 -9q-20 51 -37.5 70t-32 17.5t-25.5 -17t-18.5 -34t-11.5 -33.5l-4 -15q-5 14 -17.5 31.5t-28.5 30t-31.5 17.5t-25.5 -6q-10 -12 -9 -25.5t9.5 -28t22 -29.5t28.5 -30
q-33 4 -60.5 26.5t-40.5 50.5t-8 55t35 40t52 0.5t37 -32.5q18 -24 30 -58q-3 19 0 37q2 15 9.5 31t25.5 27q14 9 29 3t28.5 -18.5t25 -28t18.5 -26.5v231h73v-309h48v-15h-159v15h38v23z" />
    <glyph glyph-name="u0997_u09AC_u09CD" horiz-adv-x="484" 
d="M430 -54q-11 6 -23 12q-11 5 -25.5 12.5t-32.5 15.5q-32 15 -65 35t-59.5 42t-42.5 44.5t-13 41.5q18 73 188 77v202q-7 13 -18 29q-16 23 -23 29q-17 18 -54.5 31t-69.5 13q-50 0 -86.5 -30t-36.5 -64q0 -23 30 -30q62 30 110 30q40 0 64.5 -22.5t24.5 -50.5
q-4 -51 -194 -162q73 61 97.5 90t29.5 48.5t-3 31.5q-11 16 -30 16q-16 0 -56.5 -15.5t-60.5 -15.5q-29 0 -46 18q-16 15 -16 35q0 50 50 96q56 52 121 51t105.5 -26.5t61.5 -57.5v86h157v-50h-84v-562zM239 129q-2 -20 11 -38.5t32 -33.5t40 -26t35 -17v177h-47
q-24 0 -38 -9.5t-21.5 -20.5t-9.5 -21t-2 -11z" />
    <glyph glyph-name="u0998_u09CD_u09A8" horiz-adv-x="504" 
d="M-19 558h541v-50h-99v-403q-82 14 -148 44t-113 59q-55 34 -98 73q10 9 27 24q14 13 38 34t59 53q-34 -21 -56.5 -25.5t-36.5 -0.5t-22 12.5t-12 13.5q-12 16 -11 33t8 33t17.5 29t18.5 21h-113v50zM148 273q15 -25 47.5 -42.5t66.5 -29.5q39 -14 84 -24v331h-153
q-13 -8 -29 -19.5t-29 -24t-21 -26.5t-5 -27q7 -13 17 -18t21 -3.5t23 7.5t23 14q26 19 54 53q3 -5 7 -15q4 -8 9.5 -21.5t14.5 -33.5q-32 -24 -48 -38t-27 -25.5t-22.5 -24t-32.5 -33.5zM249 -55q0 -1 -12.5 2t-30.5 10.5t-36.5 19t-31.5 27.5t-15.5 37t12.5 47
q10 16 33.5 25.5t53.5 9.5t63 -10.5t61 -33.5v161h77v-309h48v-15h-163v15h38v103q-10 13 -21.5 25.5t-25 20t-28.5 10t-31 -3.5q-30 -11 -41 -26t-10 -30t10.5 -30t20.5 -27t20 -19.5t9 -8.5z" />
    <glyph glyph-name="u0998_u09F0_u09CD" horiz-adv-x="496" 
d="M-19 558h541v-50h-99v-495q-77 32 -142.5 78t-113.5 88q-56 49 -103 102q10 9 27 24q14 13 38 34t59 53q-34 -21 -56.5 -25.5t-36.5 -0.5t-22 12.5t-12 13.5q-12 16 -11 33t8 33t17.5 29t18.5 21h-113v50zM148 273q4 -15 15 -31t25.5 -31.5t32 -31t35.5 -29.5
q41 -33 90 -64v422h-153q-13 -8 -29 -19.5t-29 -24t-21 -26.5t-5 -27q7 -13 17 -18t21 -3.5t23 7.5t23 14q26 19 54 53q3 -5 7 -15q4 -8 9.5 -21.5t14.5 -33.5q-32 -24 -48 -38t-27 -25.5t-22.5 -24t-32.5 -33.5zM350 -15q-18 14 -33 19.5t-27 5.5t-20.5 -3t-14.5 -7
t-23.5 -13.5t-42.5 -15t-54.5 -2t-59.5 26.5q-30 22 -44 51.5t-18.5 56t-3 44.5l1.5 18q31 -77 63 -109.5t60 -39.5t50 1.5t33 12.5q25 11 45.5 11.5t37.5 -5t29.5 -15t20.5 -18.5v72h73v-128h48v-15h-159v15h38v37z" />
    <glyph glyph-name="u0998_u09AC_u09CD" horiz-adv-x="485" 
d="M-19 558h541v-50h-99v-403q-82 14 -148 44t-113 59q-55 34 -98 73q10 9 27 24q14 13 38 34t59 53q-34 -21 -56.5 -25.5t-36.5 -0.5t-22 12.5t-12 13.5q-12 16 -11 33t8 33t17.5 29t18.5 21h-113v50zM148 273q15 -25 47.5 -42.5t66.5 -29.5q39 -14 84 -24v331h-153
q-13 -8 -29 -19.5t-29 -24t-21 -26.5t-5 -27q7 -13 17 -18t21 -3.5t23 7.5t23 14q26 19 54 53q3 -5 7 -15q4 -8 9.5 -21.5t14.5 -33.5q-32 -24 -48 -38t-27 -25.5t-22.5 -24t-32.5 -33.5zM423 223v-344q-12 6 -25 12q-11 5 -26.5 12.5t-33.5 15.5q-32 15 -65 35t-59.5 42
t-42.5 44.5t-13 41.5q18 73 188 77v64h77zM228 62q-2 -20 11 -38.5t32 -33.5t40 -26t35 -17v177h-47q-24 0 -38 -9.5t-21.5 -20.5t-9.5 -21t-2 -11z" />
    <glyph glyph-name="u0999_u09CD_u0995" horiz-adv-x="589" 
d="M257 368q-1 28 -11 48q-8 17 -25.5 30.5t-49.5 9.5t-56 -18t-40 -29q-18 -18 -32 -40q6 34 21 62q13 24 36.5 46.5t61.5 30.5h-192v50h641v-50h-50q-6 -32 -16 -60.5t-23 -50.5t-30 -34.5t-38 -12.5q-39 -7 -63 12t-38 46.5t-19.5 56.5t-6.5 43h-108q43 -8 65.5 -31
t32.5 -49q11 -30 11 -65v-42h40q40 -3 72 -14q13 -5 25.5 -12t22 -17.5t14.5 -24.5t4 -32q-1 -8 -6 -27t-19.5 -45.5t-39.5 -58t-66 -65.5q15 16 28.5 41.5t23 54.5t14 59t0.5 54t-17 39t-38 15h-58l-1 -262q-7 -1 -32 2.5t-58 13t-70 24t-68.5 36t-52.5 49t-23 62.5
q3 25 13 45.5t35.5 34t70 20t115.5 3.5v52zM257 283q-53 0 -82.5 -12.5t-44 -28.5t-17.5 -29.5t-3 -14.5q-3 -17 1.5 -31.5t14 -27t23 -23t28.5 -19.5q34 -20 80 -34v220zM454 402q15 0 28 9.5t23 24.5t15 34t2 38h-131q1 -9 4 -27.5t9.5 -37t18.5 -31.5t31 -10z" />
    <glyph glyph-name="u0999_u09CD_u0995_u09F0_u09CD" horiz-adv-x="650" 
d="M318 -32q-18 14 -29.5 20.5t-20 8t-14 -1t-11.5 -6.5t-21 -13.5t-36 -14.5t-48 -1.5t-57 26.5q-30 22 -44 51.5t-18.5 56t-3 44.5l1.5 18q21 -51 41 -82t38.5 -47t35 -20t30 -2t24.5 7t19 8q25 11 42.5 10.5t30.5 -7t22.5 -17t17.5 -19.5v50q-33 8 -73 22.5t-74.5 36.5
t-58 51t-25.5 66q3 25 13 45.5t35.5 34t70 20t115.5 3.5v52q-1 28 -11 48q-8 17 -25.5 30.5t-49.5 9.5t-56 -18t-40 -29q-18 -18 -32 -40q6 34 21 62q13 24 36.5 46.5t61.5 30.5h-256v50h705v-50h-50q-6 -32 -16 -60.5t-23 -50.5t-30 -34.5t-38 -12.5q-39 -7 -63 12
t-38 46.5t-19.5 56.5t-6.5 43h-108q43 -8 65.5 -31t32.5 -49q11 -30 11 -65v-42h40q40 -3 72 -14q13 -5 25.5 -12t22 -17.5t14.5 -24.5t4 -32q-1 -8 -6 -27t-19.5 -45.5t-39.5 -58t-66 -65.5q15 16 28.5 41.5t23 54.5t14 59t0.5 54t-17 39t-38 15h-58l-1 -262v-95h48v-15
h-159v15h38v37zM321 283q-53 0 -82.5 -12.5t-44 -28.5t-17.5 -29.5t-3 -14.5q-3 -17 1.5 -31.5t14 -27t23 -23t28.5 -19.5q34 -20 80 -34v220zM518 402q15 0 28 9.5t23 24.5t15 34t2 38h-131q1 -9 4 -27.5t9.5 -37t18.5 -31.5t31 -10z" />
    <glyph glyph-name="u0999_u09CD_u0995_u09CD_u09B7" horiz-adv-x="948" 
d="M175 434q6 21 20 38.5t34 28.5t45 13.5t54 -4.5q19 -7 33 -22t22.5 -34t10 -41t-4.5 -43q-6 -18 -23 -36t-38.5 -31.5t-43.5 -22t-37 -8.5q23 -21 60 -21q67 0 80 68h56q-1 -90 -50 -173q-59 -101 -151 -101q-169 0 -234 273l68 12q5 -84 30 -144q66 -129 138.5 -110.5
t104 78.5t31.5 119q-31 -37 -80 -37q-24 0 -47 13q-11 7 -39 32q-9 8 -15 8q-55 -1 -87 42q-26 37 -26 91q0 20 3 43l44 -11q-14 -33 -14 -54q0 -32 20 -63q23 -36 60 -40q-13 10 -20.5 26t-10.5 34.5t-1 38.5t8 38zM217 412q-3 -18 -3.5 -38.5t2 -38.5t6.5 -30t10 -13
q14 -2 28 6.5t25 23.5t19.5 33.5t12.5 36.5q3 18 1 35t-7 30.5t-13 22.5t-17 11q-11 2 -21 -3.5t-18.5 -16.5t-15 -26t-9.5 -33zM-20 558h998v-50h-212v-197q65 -16 96.5 -36.5t42.5 -40t8 -35.5t-6 -22q-11 -20 -25.5 -33t-28.5 -21.5t-25 -13t-15 -5.5q27 27 30 53t-8 49
t-31 41t-38 30v-274q-93 23 -157 51.5t-106 58.5t-65 60t-33.5 54.5t-13 41.5t-2.5 23q63 18 99.5 39t53.5 42.5t18.5 42t-5.5 38.5t-18.5 32t-20.5 22h-4q-48 -22 -65 -50t-19 -53q-2 -30 11 -60q-2 0 -8.5 8.5t-23.5 29.5q-20 33 -23.5 55t3 36.5t18.5 22.5t23 11h-448v50
zM698 308q-33 15 -53 28.5t-31 24.5t-15 19t-5 12q-1 -4 -4.5 -13.5t-9.5 -21t-15 -24t-21 -22.5q-19 -15 -39.5 -32t-34.5 -25q7 -22 18 -43q10 -18 24.5 -39.5t35.5 -38.5q23 -20 49 -35.5t49 -26.5q26 -13 52 -23v260zM698 506q-36 -30 -49.5 -54.5t-10.5 -45t19.5 -37
t40.5 -30.5v167zM560 484q9 -9 17.5 -17t12.5 -10q5 9 11.5 17.5t11.5 16.5q6 9 13 17h-90z" />
    <glyph glyph-name="bn_uo_k_shh_ra" horiz-adv-x="946" 
d="M178 434q6 21 20 38.5t34 28.5t45 13.5t54 -4.5q19 -7 33 -22t22.5 -34t10 -41t-4.5 -43q-6 -18 -23 -36t-38.5 -31.5t-43.5 -22t-37 -8.5q23 -21 60 -21q67 0 80 68h56q-1 -90 -50 -173q-59 -101 -151 -101q-169 0 -234 273l68 12q5 -84 30 -144q66 -129 138.5 -110.5
t104 78.5t31.5 119q-31 -37 -80 -37q-24 0 -47 13q-11 7 -39 32q-9 8 -15 8q-55 -1 -87 42q-26 37 -26 91q0 20 3 43l44 -11q-14 -33 -14 -54q0 -32 20 -63q23 -36 60 -40q-13 10 -20.5 26t-10.5 34.5t-1 38.5t8 38zM220 412q-3 -18 -3.5 -38.5t2 -38.5t6.5 -30t10 -13
q14 -2 28 6.5t25 23.5t19.5 33.5t12.5 36.5q3 18 1 35t-7 30.5t-13 22.5t-17 11q-11 2 -21 -3.5t-18.5 -16.5t-15 -26t-9.5 -33zM-17 558h998v-50h-212v-197q65 -16 96.5 -36.5t42.5 -40t8 -35.5t-6 -22q-11 -20 -25.5 -33t-28.5 -21.5t-25 -13t-15 -5.5q27 27 30 53t-8 49
t-31 41t-38 30v-274q-93 23 -157 51.5t-106 58.5t-65 60t-33.5 54.5t-13 41.5t-2.5 23q63 18 99.5 39t53.5 42.5t18.5 42t-5.5 38.5t-18.5 32t-20.5 22h-4q-48 -22 -65 -50t-19 -53q-2 -30 11 -60q-2 0 -8.5 8.5t-23.5 29.5q-20 33 -23.5 55t3 36.5t18.5 22.5t23 11h-448v50
zM701 308q-33 15 -53 28.5t-31 24.5t-15 19t-5 12q-1 -4 -4.5 -13.5t-9.5 -21t-15 -24t-21 -22.5q-19 -15 -39.5 -32t-34.5 -25q7 -22 18 -43q10 -18 24.5 -39.5t35.5 -38.5q23 -20 49 -35.5t49 -26.5q26 -13 52 -23v260zM701 506q-36 -30 -49.5 -54.5t-10.5 -45t19.5 -37
t40.5 -30.5v167zM563 484q9 -9 17.5 -17t12.5 -10q5 9 11.5 17.5t11.5 16.5q6 9 13 17h-90zM696 -44q-18 14 -33 19.5t-27 5.5t-20.5 -3t-14.5 -7t-23.5 -13.5t-42.5 -15t-54.5 -2t-59.5 26.5q-30 22 -44 51.5t-18.5 56t-3 44.5l1.5 18q31 -77 63 -109.5t60 -39.5t50 1.5
t33 12.5q25 11 45.5 11.5t37.5 -5t29.5 -15t20.5 -18.5v72h73v-128h48v-15h-159v15h38v37z" />
    <glyph glyph-name="u0999_u09CD_u0996" horiz-adv-x="1009" 
d="M251 467q9 25 25.5 44.5t38.5 30.5t47 14t51 -5q25 -9 42.5 -25.5t27 -38t11 -47t-6.5 -50.5q-8 -21 -25.5 -39.5t-40 -32t-46.5 -21t-44 -7.5q45 -39 92 -39q87 0 104 80h73q-1 -106 -64 -204q-77 -119 -197 -119q-220 0 -304 322l89 14q6 -99 54 -195q63 -126 161 -126
q74 0 131 100q48 84 48 154q-40 -44 -103 -44q-32 0 -61 16q-15 8 -51 37q-13 10 -19 10q-73 -1 -114 50q-34 43 -34 107q0 23 4 51l57 -14q-18 -38 -18 -63q0 -38 26 -75q30 -42 78 -47q-17 12 -26.5 30.5t-13.5 40.5t-1.5 45.5t9.5 45.5zM306 441q-4 -21 -4.5 -45.5
t2.5 -45.5t8.5 -35.5t13.5 -15.5q19 -3 36.5 7.5t32.5 28t25.5 39.5t15.5 43q4 21 1.5 41.5t-9 36.5t-17 26.5t-22.5 12.5q-14 3 -27 -3.5t-24 -19.5t-19.5 -31t-12.5 -39zM616 558q-27 -41 -41 -75q-6 -15 -10.5 -29.5t-4.5 -27.5t5 -22.5t17 -14.5q9 0 22.5 1t31.5 16
t42 50t54 102h39l14 -18.5t26.5 -47t17.5 -63t-11 -66.5q-5 -9 -12.5 -21.5t-26.5 -25.5t-52 -25.5t-87 -22.5q-13 -4 -28 -12t-18 -22t11.5 -35t60.5 -52q32 -16 68.5 -31.5t68.5 -28.5q37 -15 73 -28v499h156v-50h-79v-493l-19 3.5t-55 14.5t-89 31t-121 54
q-28 14 -57.5 30t-52 35t-33.5 42t-1 51q5 15 21.5 22t35.5 8t36.5 -1t26.5 -5q3 -1 19 -3t36.5 2.5t41.5 18t34 42.5q2 5 2.5 17.5t-2.5 27t-11.5 28t-23.5 19.5q-13 -12 -31.5 -28t-42 -29.5t-50.5 -21t-57 -1.5q-20 4 -30 19t-13.5 36t-2 44t5 42.5t7 32t4.5 12.5h85z
" />
    <glyph glyph-name="u0999_u09CD_u0997" horiz-adv-x="506" 
d="M135 268l-9.5 5t-23 14t-28 22t-24.5 30t-13.5 37.5t6.5 45.5q10 32 26.5 53t33.5 33h-124v50h546v-50h-52q-6 -32 -17.5 -55t-26 -39t-31.5 -25.5t-33 -14.5q-39 -7 -63 8t-37.5 38.5t-19 48.5t-6.5 39h-72q12 -12 25.5 -32t24 -45t16.5 -53.5t3 -57.5q-2 -18 -11 -41.5
t-28.5 -46.5t-52.5 -44.5t-83 -34.5l73 -58q41 44 77 86q31 35 60 74t43 65q5 9 13.5 18t22.5 4q4 -2 13 -6t18 -9q11 -5 23 -11q-34 -31 -45 -84q-5 -23 -4.5 -52.5t9 -67t27 -83t50.5 -99.5q1 0 -11.5 6t-30.5 20.5t-38.5 38.5t-36.5 59t-24.5 82t-2.5 109
q-7 -17 -20.5 -51.5t-32.5 -71.5t-42.5 -68.5t-48.5 -42.5t-51 6t-50 77q-11 31 -17.5 51.5t-9.5 32.5q-4 14 -5 21q43 -7 80 4q16 4 31.5 13t29.5 23.5t25 35.5t17 50l-2.5 45t-7.5 51t-19.5 38.5t-38.5 6.5t-34.5 -29.5t-9 -48t8.5 -52.5t18 -42q5 -11 11.5 -19t5.5 -7z
M365 426q9 1 22 7t24 16t18.5 25t4.5 34h-131q1 -9 3.5 -24t9.5 -29t18.5 -23t30.5 -6z" />
    <glyph glyph-name="u0999_u09CD_u0998" horiz-adv-x="813" 
d="M-14 558h861v-50h-99v-495q-50 21 -96 48.5t-85.5 57t-72 58t-55.5 51.5q-12 -42 -36 -82q-59 -101 -151 -101q-169 0 -234 273l68 12q5 -84 30 -144q66 -129 138.5 -110.5t104 78.5t31.5 119q-31 -37 -80 -37q-24 0 -47 13q-11 7 -39 32q-9 8 -15 8q-55 -1 -87 42
q-26 37 -26 91q0 20 3 43l44 -11q-14 -33 -14 -54q0 -32 20 -63q23 -36 60 -40q-13 10 -20.5 26t-10.5 34.5t-1 38.5t8 38q8 25 25.5 44.5t43.5 29.5h-268v50zM473 273q4 -15 15 -31t25.5 -31.5t32 -31t35.5 -29.5q41 -33 90 -64v422h-153q-13 -8 -29 -19.5t-29 -24
t-21 -26.5t-5 -27q7 -13 17 -18t21 -3.5t23 7.5t23 14q26 19 54 53q3 -5 7 -15q4 -8 9.5 -21.5t14.5 -33.5q-32 -24 -48 -38t-27 -25.5t-22.5 -24t-32.5 -33.5zM227 412q-3 -18 -3.5 -38.5t2 -38.5t6.5 -30t10 -13q14 -2 28 6.5t25 23.5t19.5 33.5t12.5 36.5q3 18 1 35
t-7 30.5t-13 22.5t-17 11q-11 2 -21 -3.5t-18.5 -16.5t-15 -26t-9.5 -33zM317 251q67 0 80 68h33q15 13 34.5 30t48.5 43q-24 -15 -42.5 -21.5t-32 -7t-23 3.5t-15.5 9q0 -2 -0.5 -3t-0.5 -3q-6 -18 -23 -36t-38.5 -31.5t-43.5 -22t-37 -8.5q23 -21 60 -21zM343 508
q27 -13 44 -41q7 13 15.5 23t16.5 18h-76z" />
    <glyph glyph-name="u0999_u09CD_u0998_u09F0_u09CD" horiz-adv-x="814" 
d="M-14 558h861v-50h-99v-495q-50 21 -96 48.5t-85.5 57t-72 58t-55.5 51.5q-12 -42 -36 -82q-59 -101 -151 -101q-169 0 -234 273l68 12q5 -84 30 -144q66 -129 138.5 -110.5t104 78.5t31.5 119q-31 -37 -80 -37q-24 0 -47 13q-11 7 -39 32q-9 8 -15 8q-55 -1 -87 42
q-26 37 -26 91q0 20 3 43l44 -11q-14 -33 -14 -54q0 -32 20 -63q23 -36 60 -40q-13 10 -20.5 26t-10.5 34.5t-1 38.5t8 38q8 25 25.5 44.5t43.5 29.5h-268v50zM473 273q4 -15 15 -31t25.5 -31.5t32 -31t35.5 -29.5q41 -33 90 -64v422h-153q-13 -8 -29 -19.5t-29 -24
t-21 -26.5t-5 -27q7 -13 17 -18t21 -3.5t23 7.5t23 14q26 19 54 53q3 -5 7 -15q4 -8 9.5 -21.5t14.5 -33.5q-32 -24 -48 -38t-27 -25.5t-22.5 -24t-32.5 -33.5zM227 412q-3 -18 -3.5 -38.5t2 -38.5t6.5 -30t10 -13q14 -2 28 6.5t25 23.5t19.5 33.5t12.5 36.5q3 18 1 35
t-7 30.5t-13 22.5t-17 11q-11 2 -21 -3.5t-18.5 -16.5t-15 -26t-9.5 -33zM317 251q67 0 80 68h33q15 13 34.5 30t48.5 43q-24 -15 -42.5 -21.5t-32 -7t-23 3.5t-15.5 9q0 -2 -0.5 -3t-0.5 -3q-6 -18 -23 -36t-38.5 -31.5t-43.5 -22t-37 -8.5q23 -21 60 -21zM343 508
q27 -13 44 -41q7 13 15.5 23t16.5 18h-76zM675 -38q-18 14 -33 19.5t-27 5.5t-20.5 -3t-14.5 -7t-23.5 -13.5t-42.5 -15t-54.5 -2t-59.5 26.5q-30 22 -44 51.5t-18.5 56t-3 44.5l1.5 18q31 -77 63 -109.5t60 -39.5t50 1.5t33 12.5q25 11 45.5 11.5t37.5 -5t29.5 -15
t20.5 -18.5v72h73v-128h48v-15h-159v15h38v37z" />
    <glyph glyph-name="u0999_u09CD_u09AE" horiz-adv-x="847" 
d="M-4 558h875v-50h-104v-493h48v-15h-159v15h38v214q-3 9 -11 23.5t-20.5 27t-30 20.5t-40.5 4q-60 -11 -84 -35.5t-24.5 -60.5t17.5 -82.5t44 -100.5q-54 43 -80.5 80t-35.5 67q-6 -12 -13 -24q-59 -101 -151 -101q-169 0 -234 273l68 12q5 -84 30 -144
q66 -129 138.5 -110.5t104 78.5t31.5 119q-31 -37 -80 -37q-24 0 -47 13q-11 7 -39 32q-9 8 -15 8q-55 -1 -87 42q-26 37 -26 91q0 20 3 43l44 -11q-14 -33 -14 -54q0 -32 20 -63q23 -36 60 -40q-13 10 -20.5 26t-10.5 34.5t-1 38.5t8 38q14 50 64 72h-266v50zM552 508
q-17 -6 -37 -19t-31 -34t-7 -52t35 -73q30 13 58.5 11.5t53 -11t43 -22.5t27.5 -22v222h-142zM240 414q-3 -18 -3.5 -38.5t2 -38.5t6.5 -30t10 -13q14 -2 28 6.5t25 23.5t19.5 33.5t12.5 36.5q3 18 1 35t-7 30.5t-13 22.5t-17 11q-11 2 -21 -3.5t-18.5 -16.5t-15 -26
t-9.5 -33zM330 253q67 0 84 88h50q-14 11 -27 25.5t-21 31.5q0 -7 -1 -13.5t-3 -12.5q-6 -18 -23 -36t-38.5 -31.5t-43.5 -22t-37 -8.5q23 -21 60 -21zM360 508q37 -20 51 -64q5 17 20 33t46 31h-117zM470 337q-1 -19 -4 -37q7 6 13.5 10.5t13.5 9.5z" />
    <glyph glyph-name="u0999_u09F0_u09CD" horiz-adv-x="620" 
d="M428 -116q-18 14 -33 19.5t-27 5.5t-20.5 -3t-14.5 -7t-29.5 -13t-54.5 -13.5t-66.5 0t-65.5 27.5q-30 22 -44 51.5t-18.5 56t-3 44.5l1.5 18q31 -77 63 -109.5t60 -39.5t50 1.5t33 12.5q25 11 51.5 10.5t49.5 -7t41.5 -16.5t26.5 -19v125q-46 -24 -100 -24
q-220 0 -304 322l89 14q6 -99 54 -195q63 -126 161 -126q74 0 131 100q48 84 48 154q-40 -44 -103 -44q-32 0 -61 16q-15 8 -51 37q-13 10 -19 10q-73 -1 -114 50q-34 43 -34 107q0 23 4 51l57 -14q-18 -38 -18 -63q0 -38 26 -75q30 -42 78 -47q-17 12 -26.5 30.5
t-13.5 40.5t-1.5 45.5t9.5 45.5q9 25 25.5 44.5t38.5 30.5t47 14t51 -5q25 -9 42.5 -25.5t27 -38t11 -47t-6.5 -50.5q-8 -21 -25.5 -39.5t-40 -32t-46.5 -21t-44 -7.5q45 -39 92 -39q87 0 104 80h73q-1 -106 -64 -204q-12 -18 -24 -33v-243h48v-15h-159v15h38v37zM295 437
q-4 -21 -4.5 -45.5t2.5 -45.5t8.5 -35.5t13.5 -15.5q19 -3 36.5 7.5t32.5 28t25.5 39.5t15.5 43q4 21 1.5 41.5t-9 36.5t-17 26.5t-22.5 12.5q-14 3 -27 -3.5t-24 -19.5t-19.5 -31t-12.5 -39z" />
    <glyph glyph-name="u099A_u09CD_u099A" horiz-adv-x="687" 
d="M-22 558h343v-50h-179v-111q7 1 15 0q7 -1 14 -3t15 -8q7 -6 15 -10t21 -3t32 7t48 21q19 -10 30.5 -16.5t17 -10t7 -5l1.5 -1.5l0.5 -13.5t-2.5 -36.5t-11.5 -52.5t-26.5 -61t-47.5 -62.5t-73.5 -57q-29 9 -51 16.5t-36 12.5q-17 6 -28 11v383h-104v50zM142 157
q11 -16 23 -23q11 -7 25.5 -6t31.5 18q30 31 45 50t21.5 35.5t6.5 34.5v48v25q0 6 -3 10q-3 3 -9 5t-18 -3q-11 -4 -22 -8.5t-25 -7t-32.5 -0.5t-43.5 10v-188zM222 558h490v-50h-338v-85q7 -1 15 -4q7 -2 14 -5.5t15 -9.5q7 -6 22 -11.5t36.5 -5.5t49 8.5t59.5 30.5
q39 -20 55 -28.5t17 -7.5l2.5 -18t1 -48.5t-11 -70t-33 -81t-65 -83t-106.5 -75.5q-29 9 -56 19.5t-48 19.5q-25 11 -46 22v433h-73v50zM374 95q15 -27 34 -39q8 -5 18 -8t21.5 -0.5t24.5 10t28 23.5q30 33 46 66.5t23 66t8 64t1 61.5v25q-1 5 -5 8q-4 2 -10.5 2t-17.5 -6
q-19 -11 -40 -19.5t-43.5 -12.5t-44.5 -2.5t-43 11.5v-250z" />
    <glyph glyph-name="u099A_u09CD_u099B" horiz-adv-x="726" 
d="M60 239v269h-88v50h778v-50h-385l1 -52q47 -39 80 -40t71 27l76 -45l-24 -30q44 -8 83 -27q41 -24 41 -57q0 -51 -116 -101q-27 -7 -143 -48q27 -66 125.5 -127t150.5 -89q-173 25 -389 208q270 79 279 165q0 15 -10 30t-31 28q-10 -17 -21 -35q-10 -16 -23.5 -34.5
t-30.5 -36.5q-7 -8 -21 -19t-28.5 -21t-25 -16.5t-11.5 -6.5l-111 58v32q-14 -14 -30 -27q-8 -7 -22.5 -17.5t-28 -21t-24 -17.5t-11.5 -7zM500 398q-1 -1 -4 -3q-2 -2 -5 -4.5t-8 -6.5q-26 -16 -47 -20t-37 -2q-18 2 -34 9v-134q22 -3 39.5 1t31.5 14.5t26 25.5t23 35
q8 14 16 30t14 33q2 6 -4 12t-11 10zM273 398q-1 -1 -4 -3q-2 -2 -5 -4.5t-8 -6.5q-26 -16 -47 -20t-37 -2q-18 2 -34 9v-134q22 -3 39.5 1t31.5 14.5t26 25.5t23 35q8 14 15.5 28.5t13.5 30.5v12q-2 4 -6.5 7.5t-7.5 6.5zM138 508l1 -52q47 -39 80 -40q31 -1 68 24v68h-149
z" />
    <glyph glyph-name="u099A_u09CD_u099B_u09F0_u09CD" horiz-adv-x="695" 
d="M60 239v269h-88v50h778v-50h-385l1 -52q47 -39 80 -40t71 27l76 -45l-24 -30q44 -8 83 -27q41 -24 41 -57q0 -51 -116 -101q-27 -7 -143 -48q27 -66 125.5 -127t150.5 -89q-173 25 -389 208q270 79 279 165q0 15 -10 30t-31 28q-10 -17 -21 -35q-10 -16 -23.5 -34.5
t-30.5 -36.5q-7 -8 -21 -19t-28.5 -21t-25 -16.5t-11.5 -6.5l-111 58v32q-14 -14 -30 -27q-8 -7 -22.5 -17.5t-28 -21t-24 -17.5t-11.5 -7zM500 398q-1 -1 -4 -3q-2 -2 -5 -4.5t-8 -6.5q-26 -16 -47 -20t-37 -2q-18 2 -34 9v-134q22 -3 39.5 1t31.5 14.5t26 25.5t23 35
q8 14 16 30t14 33q2 6 -4 12t-11 10zM273 398q-1 -1 -4 -3q-2 -2 -5 -4.5t-8 -6.5q-26 -16 -47 -20t-37 -2q-18 2 -34 9v-134q22 -3 39.5 1t31.5 14.5t26 25.5t23 35q8 14 15.5 28.5t13.5 30.5v12q-2 4 -6.5 7.5t-7.5 6.5zM138 508l1 -52q47 -39 80 -40q31 -1 68 24v68h-149
zM428 -46q-18 14 -33 19.5t-27 5.5t-20.5 -3t-14.5 -7t-23.5 -13.5t-42.5 -15t-54.5 -2t-59.5 26.5q-30 22 -44 51.5t-18.5 56t-3 44.5l1.5 18q31 -77 63 -109.5t60 -39.5t50 1.5t33 12.5q25 11 45.5 11.5t37.5 -5t29.5 -15t20.5 -18.5v72h73v-128h48v-15h-159v15h38v37z
" />
    <glyph glyph-name="u099A_u09CD_u099B_u09AC_u09CD" horiz-adv-x="727" 
d="M60 239v269h-88v50h778v-50h-385l1 -52q47 -39 80 -40t71 27l76 -45l-24 -30q44 -8 83 -27q41 -24 41 -57q0 -51 -116 -101q-27 -7 -143 -48q27 -66 125.5 -127t150.5 -89q-173 25 -389 208q270 79 279 165q0 15 -10 30t-31 28q-10 -17 -21 -35q-10 -16 -23.5 -34.5
t-30.5 -36.5q-7 -8 -21 -19t-28.5 -21t-25 -16.5t-11.5 -6.5l-111 58v32q-14 -14 -30 -27q-8 -7 -22.5 -17.5t-28 -21t-24 -17.5t-11.5 -7zM500 398q-1 -1 -4 -3q-2 -2 -5 -4.5t-8 -6.5q-26 -16 -47 -20t-37 -2q-18 2 -34 9v-134q22 -3 39.5 1t31.5 14.5t26 25.5t23 35
q8 14 16 30t14 33q2 6 -4 12t-11 10zM273 398q-1 -1 -4 -3q-2 -2 -5 -4.5t-8 -6.5q-26 -16 -47 -20t-37 -2q-18 2 -34 9v-134q22 -3 39.5 1t31.5 14.5t26 25.5t23 35q8 14 15.5 28.5t13.5 30.5v12q-2 4 -6.5 7.5t-7.5 6.5zM138 508l1 -52q47 -39 80 -40q31 -1 68 24v68h-149
zM514 -256q-19 7 -39 15q-17 7 -39 16t-42 19q-22 11 -44.5 26.5t-39.5 35t-26 42t-4 47.5q5 28 31 42t57 19t59.5 4.5t37.5 -0.5v36l24 -2q5 -1 9 -1t8 -1t8 -1v-297zM368 -18q-24 -11 -32.5 -24.5t-6.5 -27.5t13 -28.5t26 -27.5q35 -31 97 -63v171h-97z" />
    <glyph glyph-name="u099A_u09CD_u099E" horiz-adv-x="943" 
d="M-20 558h382v-50h-230v-85q7 -1 15 -4q7 -2 14 -5.5t15 -9.5q7 -6 22 -11.5t36.5 -5.5t49 8.5t59.5 30.5q39 -20 55 -28.5t17 -7.5q4 -23 4 -50q0 -23 -4.5 -54t-17.5 -66q20 -41 42 -62.5t43 -30.5t40 -10t33 -1q29 2 56.5 -6t44.5 -22v385q-5 24 -12 34.5t-13.5 13.5
t-11 2t-4.5 0q-43 -17 -66 -43.5t-32.5 -57.5t-8 -63.5t8.5 -61.5t16 -52.5t14 -35.5q-46 43 -69 85.5t-29 80t2 70t24 57t36.5 39t40.5 17.5q47 -9 80 -21.5t55 -24.5q26 -14 42 -29v-209q10 23 28.5 56.5t41.5 60t48.5 37t49.5 -12.5q20 -19 21 -38t-9 -36.5t-28.5 -32.5
t-37.5 -26.5t-35 -18.5t-22 -8h-1q9 -3 25.5 -10.5t35 -19t35 -26.5t25.5 -32t7 -35t-21 -36q-16 -15 -32 -15.5t-31.5 8.5t-30 25.5t-27.5 36t-24 39.5t-18 36v-211h48v-15h-159v15h38v39q-17 22 -38 29.5t-42 8t-40.5 -2t-33.5 -1.5q-45 5 -78.5 24t-58.5 46
q-24 -38 -63 -75.5t-99 -68.5q-29 9 -56 19.5t-48 19.5q-25 11 -46 22v433h-73v50zM132 95q15 -27 34 -39q8 -5 18 -8t21.5 -0.5t24.5 10t28 23.5q30 33 46 66.5t23 66t8 64t1 61.5v25q-1 5 -5 8q-4 2 -10.5 2t-17.5 -6q-19 -11 -40 -19.5t-43.5 -12.5t-44.5 -2.5t-43 11.5
v-250zM857 371q-16 12 -33 -2t-31.5 -36.5t-24.5 -43.5t-12 -23q18 -6 42 5.5t42 30t25 38.5t-8 31zM852 140q15 11 8 31t-25 38.5t-42 30t-42 5.5q2 -2 12 -23.5t24.5 -43.5t31.5 -36t33 -2z" />
    <glyph glyph-name="u099A_u09CD_u09A8" horiz-adv-x="413" 
d="M164 -122q0 -1 -12.5 2t-30.5 10.5t-36.5 19t-31.5 27.5t-15.5 37t12.5 47q10 16 34 25.5t54.5 9.5t64 -10.5t61.5 -33.5v123q-14 -14 -30.5 -26.5t-36.5 -23.5q-29 9 -51 16.5t-36 12.5q-17 6 -28 11v383h-104v50h461v-50h-297v-111q7 1 15 0q7 -1 14 -3t15 -8
q7 -6 15 -10t21 -3t32 7t48 21q19 -10 30.5 -16.5t17 -10t7 -5l1.5 -1.5q1 -18 -1 -39q-2 -18 -7 -42t-16 -51v-372h48v-15h-156v15h38v103q-10 13 -22 25.5t-26 20t-29.5 10t-31.5 -3.5q-30 -11 -41 -26t-10 -30t10.5 -30t20.5 -27t20 -19.5t9 -8.5zM142 157q11 -16 23 -23
q11 -7 25.5 -6t31.5 18q30 31 45 50t21.5 35.5t6.5 34.5v48v25q0 6 -3 10q-3 3 -9 5t-18 -3q-11 -4 -22 -8.5t-25 -7t-32.5 -0.5t-43.5 10v-188z" />
    <glyph glyph-name="u099A_u09F0_u09CD" horiz-adv-x="464" 
d="M342 -108q-18 14 -33 19.5t-27 5.5t-20.5 -3t-14.5 -7t-23.5 -13.5t-42.5 -15t-54.5 -2t-59.5 26.5q-30 22 -44 51.5t-18.5 56t-3 44.5l1.5 18q31 -77 63 -109.5t60 -39.5t50 1.5t33 12.5q25 11 45.5 11.5t37.5 -5t29.5 -15t20.5 -18.5v216q-24 -31 -58.5 -59.5
t-82.5 -53.5q-29 9 -56 19.5t-48 19.5q-25 11 -46 22v433h-73v50h507v-50h-355v-85q7 -1 15 -4q7 -2 14 -5.5t15 -9.5q7 -6 22 -11.5t36.5 -5.5t49 8.5t59.5 30.5q39 -20 55 -28.5t17 -7.5q2 -12 3 -25q1 -12 1 -27.5t-2 -35.5v-447h48v-15h-159v15h38v37zM130 95
q15 -27 34 -39q8 -5 18 -8t21.5 -0.5t24.5 10t28 23.5q30 33 46 66.5t23 66t8 64t1 61.5v25q-1 5 -5 8q-4 2 -10.5 2t-17.5 -6q-19 -11 -40 -19.5t-43.5 -12.5t-44.5 -2.5t-43 11.5v-250z" />
    <glyph glyph-name="u099A_u09AC_u09CD" horiz-adv-x="443" 
d="M-28 558h496v-50h-344v-85q7 -1 15 -4q7 -2 14 -5.5t15 -9.5q7 -6 22 -11.5t36.5 -5.5t49 8.5t59.5 30.5q39 -20 55 -28.5t17 -7.5l2 -13t2 -35t-4 -52t-16 -63.5t-34 -69t-57 -69.5v-339q-19 7 -39 15q-17 7 -39 16t-42 19q-22 11 -44.5 26.5t-39.5 35t-26 42t-4 47.5
q3 19 16 31t31 19t38.5 10.5t39.5 4.5q-29 9 -55.5 19.5t-46.5 19.5q-24 11 -44 21v433h-73v50zM124 95q15 -27 34 -39q8 -5 18 -8t21.5 -0.5t24.5 10t28 23.5q30 33 46 66.5t23 66t8 64t1 61.5v25q-1 5 -5 8q-4 2 -10.5 2t-17.5 -6q-19 -11 -40 -19.5t-43.5 -12.5
t-44.5 -2.5t-43 11.5v-250zM154 -13q-24 -11 -32.5 -24.5t-6.5 -27.5t13 -28.5t26 -27.5q35 -31 97 -63v171h-97zM251 48q-12 -9 -25.5 -17t-28.5 -16q19 1 33.5 0.5t20.5 -0.5v33z" />
    <glyph glyph-name="u099B_u09F0_u09CD" horiz-adv-x="508" 
d="M67 239v269h-88v50h551v-50h-385l1 -52q47 -39 80 -40t71 27l76 -45l-24 -30q44 -8 83 -27q41 -24 41 -57q0 -51 -116 -101q-27 -7 -143 -48q27 -66 128 -125t148 -91q-173 25 -389 208q270 79 279 165q0 15 -10 30t-31 28q-10 -17 -21 -35q-10 -16 -23.5 -34.5
t-30.5 -36.5q-7 -8 -21 -19t-28.5 -21t-25 -16.5t-11.5 -6.5zM280 398q-1 -1 -4 -3q-2 -2 -5 -4.5t-8 -6.5q-26 -16 -47 -20t-37 -2q-18 2 -34 9v-134q22 -3 39.5 1t31.5 14.5t26 25.5t23 35q8 14 16 30t14 33q2 6 -4 12t-11 10zM348 -126q-18 14 -33 19.5t-27 5.5t-20.5 -3
t-14.5 -7t-23.5 -13.5t-42.5 -15t-54.5 -2t-59.5 26.5q-30 22 -44 51.5t-18.5 56t-3 44.5l1.5 18q31 -77 63 -109.5t60 -39.5t50 1.5t33 12.5q25 11 45.5 11.5t37.5 -5t29.5 -15t20.5 -18.5v72h73v-128h48v-15h-159v15h38v37z" />
    <glyph glyph-name="u099B_u09AC_u09CD" horiz-adv-x="508" 
d="M67 239v269h-88v50h551v-50h-385l1 -52q47 -39 80 -40t71 27l76 -45l-24 -30q44 -8 83 -27q41 -24 41 -57q0 -51 -116 -101q-27 -7 -143 -48q27 -66 128 -125t148 -91q-173 25 -389 208q270 79 279 165q0 15 -10 30t-31 28q-10 -17 -21 -35q-10 -16 -23.5 -34.5
t-30.5 -36.5q-7 -8 -21 -19t-28.5 -21t-25 -16.5t-11.5 -6.5zM280 398q-1 -1 -4 -3q-2 -2 -5 -4.5t-8 -6.5q-26 -16 -47 -20t-37 -2q-18 2 -34 9v-134q22 -3 39.5 1t31.5 14.5t26 25.5t23 35q8 14 16 30t14 33q2 6 -4 12t-11 10zM344 -289q-19 7 -39 15q-17 7 -39 16t-42 19
q-22 11 -44.5 26.5t-39.5 35t-26 42t-4 47.5q5 28 31 42t57 19t59.5 4.5t37.5 -0.5v36l24 -2q5 -1 9 -1t8 -1t8 -1v-297zM198 -51q-24 -11 -32.5 -24.5t-6.5 -27.5t13 -28.5t26 -27.5q35 -31 97 -63v171h-97z" />
    <glyph glyph-name="u099C_u09CD_u099C" horiz-adv-x="1024" 
d="M-22 558h1070v-50h-477v-27q18 -9 61.5 -27.5t97 -34t110 -20.5t100.5 14q15 -26 23 -39.5t12 -19.5l5 -8q-52 -26 -85 -74q-14 -20 -24.5 -47t-14 -61.5t2 -76.5t23.5 -93q1 0 -8 14t-19.5 39.5t-19.5 60.5t-9.5 75.5t10.5 84.5t42 88q-20 4 -47 7t-64.5 12t-86 28
t-109.5 55v-151q0 -18 12.5 -33.5t30 -24t36.5 -8.5t33 14q4 4 9 10.5t9.5 13.5t8 12.5t3.5 7.5q0 6 -0.5 14.5t-0.5 16.5v20q1 0 11.5 -1t24.5 -3q15 -2 35 -3q6 -109 -17 -187q-10 -34 -26.5 -64.5t-43 -51t-64 -28.5t-88.5 4q-43 9 -80.5 46.5t-66.5 86.5
q-11 -20 -27 -36t-37.5 -26t-49 -12t-61.5 6q-27 6 -52.5 25t-47.5 46t-40 59t-30.5 64t-20 61t-7.5 50l82 12q-2 -34 4 -84t23 -97t46.5 -82t74.5 -40q32 3 56.5 19.5t39.5 43t20.5 60.5t-0.5 72q-27 -24 -50 -35t-42.5 -11t-36 8t-31.5 21q-11 9 -18 16.5t-10.5 17.5
t-4.5 24t-1 37v140h-198v50zM434 365q1 -19 1 -41q0 -19 -2 -42.5t-7 -49.5q8 -36 21 -70t32 -62t44 -46t57 -21q36 3 63.5 22t44.5 49.5t23 70t-1 82.5q-30 -28 -56 -40.5t-47.5 -13t-40.5 9t-36 24.5q-12 11 -19.5 19.5t-11.5 19.5t-5.5 27.5t-1.5 43.5v33l-42 7
t-54.5 12.5t-67.5 24t-82 41.5v-132q0 -16 11 -29t27 -20.5t32.5 -7t28.5 12.5q3 3 8 8.5t9 11.5l7 10.5t3 6.5q0 5 -0.5 12.5t-0.5 15.5v17q1 0 10.5 -1t21.5 -2q13 -2 31 -3zM246 484q12 -6 38 -17t60 -22.5t72.5 -21t75.5 -10.5v95h-246v-24z" />
    <glyph glyph-name="u099C_u09CD_u099C_u09AC_u09CD" horiz-adv-x="1031" 
d="M-22 558h1070v-50h-477v-27q18 -9 61.5 -27.5t97 -34t110 -20.5t100.5 14q15 -26 23 -39.5t12 -19.5l5 -8q-36 -32 -55 -62.5t-26 -58t-5 -50.5t7 -40.5t10.5 -28t5.5 -11.5l-1 -344q-12 6 -25 12q-11 5 -26.5 12.5t-33.5 15.5q-32 15 -65 35t-59.5 42t-42.5 44.5
t-13 41.5q18 73 188 77v62q-8 26 -12.5 57t-1.5 64.5t15 69.5t38 72q-20 4 -47 7t-64.5 12t-86 28t-109.5 55v-151q0 -18 12.5 -33.5t30 -24t36.5 -8.5t33 14q4 4 9 10.5t9.5 13.5t8 12.5t3.5 7.5q0 6 -0.5 14.5t-0.5 16.5v20q1 0 11.5 -1t24.5 -3q15 -2 35 -3
q6 -109 -17 -187q-10 -34 -26.5 -64.5t-43 -51t-64 -28.5t-88.5 4q-43 9 -80.5 46.5t-66.5 86.5q-11 -20 -27 -36t-37.5 -26t-49 -12t-61.5 6q-27 6 -52.5 25t-47.5 46t-40 59t-30.5 64t-20 61t-7.5 50l82 12q-2 -34 4 -84t23 -97t46.5 -82t74.5 -40q32 3 56.5 19.5t39.5 43
t20.5 60.5t-0.5 72q-27 -24 -50 -35t-42.5 -11t-36 8t-31.5 21q-11 9 -18 16.5t-10.5 17.5t-4.5 24t-1 37v140h-198v50zM434 365q1 -19 1 -41q0 -19 -2 -42.5t-7 -49.5q8 -36 21 -70t32 -62t44 -46t57 -21q36 3 63.5 22t44.5 49.5t23 70t-1 82.5q-30 -28 -56 -40.5
t-47.5 -13t-40.5 9t-36 24.5q-12 11 -19.5 19.5t-11.5 19.5t-5.5 27.5t-1.5 43.5v33l-42 7t-54.5 12.5t-67.5 24t-82 41.5v-132q0 -16 11 -29t27 -20.5t32.5 -7t28.5 12.5q3 3 8 8.5t9 11.5l7 10.5t3 6.5q0 5 -0.5 12.5t-0.5 15.5v17q1 0 10.5 -1t21.5 -2q13 -2 31 -3z
M246 484q12 -6 38 -17t60 -22.5t72.5 -21t75.5 -10.5v95h-246v-24zM721 -66q-2 -20 11 -38.5t32 -33.5t40 -26t35 -17v177h-47q-24 0 -38 -9.5t-21.5 -20.5t-9.5 -21t-2 -11z" />
    <glyph glyph-name="u099C_u09CD_u099D" horiz-adv-x="618" 
d="M430 68l-68 48v-161q-29 17 -82 43q-60 28 -83 41q-97 54 -97 110q0 45 81 72q-31 13 -60.5 34.5t-53 46t-38 50t-14.5 48.5l63 28q-2 -29 10 -64t35 -65.5t55 -52.5t70 -26q27 2 49 6t36 15t20 30t1 51q-45 -42 -86 -45.5t-66 18.5q-18 16 -22.5 35.5t-4.5 58.5v119
h-190v50h654v-50h-406v-20q9 -4 28.5 -11t45.5 -14.5t56.5 -14t60.5 -9.5t58 -1t50 11q8 -18 13 -29.5t8 -19.5q4 -9 6 -13q-9 -3 -18 -8q-18 -10 -38 -27v-384h48v-15h-159v15h38v100zM419 370q-1 -26 -7 -52q-5 -22 -16.5 -46.5t-32.5 -42.5l-1 -81l68 -50v155
q-2 33 7.5 69t36.5 74q-14 3 -36.5 5t-53 9t-68.5 20.5t-83 40.5v-111q0 -14 9.5 -25t22.5 -17.5t27 -6.5t24 10q5 6 13.5 18t8.5 15v37q6 -2 13 -4q6 -2 13 -3.5t15 -3.5zM289 181h-87q-54 -19 -54 -50q0 -34 141 -91v141z" />
    <glyph glyph-name="u099C_u09CD_u099E" horiz-adv-x="751" 
d="M299 477q14 -7 41 -29t58.5 -50t63.5 -55.5t55 -45.5q12 26 31.5 59.5t42.5 59t48.5 34.5t50.5 -14q21 -20 22 -40t-9.5 -38.5t-30 -34.5t-39.5 -28t-37.5 -19.5t-23.5 -8.5h-1q9 -3 27 -11t37 -20t37 -27.5t27.5 -33.5t7 -37.5t-22.5 -38.5q-23 -22 -46 -16t-45 27.5
t-40.5 51.5t-31.5 57q-7 -41 -22.5 -83t-45 -73.5t-73.5 -46.5t-108 0q-31 7 -59.5 30.5t-53 57t-44.5 72.5t-34.5 78t-22.5 74t-8 59l93 15q-2 -26 0 -63t9 -77t19.5 -79.5t31.5 -71.5t45 -53.5t60 -24.5q36 3 63.5 20.5t46 44.5t27.5 62t9 73q-30 -28 -58.5 -36.5
t-53 -4.5t-46 17t-38.5 28q-12 11 -19.5 19.5t-11.5 19.5t-5.5 27.5t-1.5 43.5v161h-235v50h781v-50h-467v-31zM411 255q3 3 8 9t9.5 12.5t8 12t4.5 8.5q-18 23 -50.5 53t-91.5 73v-116q0 -18 12.5 -33.5t30 -24t36.5 -8.5t33 14zM647 390q-11 8 -23 3.5t-23 -16t-21.5 -28
t-18.5 -32t-13.5 -26.5t-6.5 -12q19 -6 44 6t44 31.5t26.5 40.5t-8.5 33zM642 146q16 12 8.5 33t-26.5 40.5t-44.5 31.5t-44.5 6q3 -2 13.5 -24.5t25.5 -46t33 -38.5t35 -2z" />
    <glyph glyph-name="u099C_u09F0_u09CD" horiz-adv-x="745" 
d="M490 -111q-18 14 -33 19.5t-27 5.5t-20.5 -3t-14.5 -7t-31 -15t-58.5 -18t-70.5 -5t-67 25q-30 22 -45 52t-20.5 57t-5 46l0.5 19q21 -51 46.5 -81.5t51.5 -46t51.5 -19t47.5 -0.5t38 8.5t24 8.5q25 11 45.5 11.5t37.5 -5t29.5 -15t20.5 -18.5v72q-2 33 7 83t25.5 104
t38.5 105t45 84q-20 4 -47 7t-64.5 12t-86 28t-109.5 55v-151q0 -18 12.5 -33.5t30 -24t36.5 -8.5t33 14q4 4 9 10.5t9.5 13.5t8 12.5t3.5 7.5q0 6 -0.5 14.5t-0.5 16.5v20q1 0 11.5 -1t24.5 -3q15 -2 35 -3q6 -109 -17 -187q-10 -34 -26.5 -64.5t-43 -51t-64 -28.5t-88.5 4
q-31 7 -59.5 29t-53 53t-45 68t-35 73.5t-22.5 70t-8 57.5l93 15q-2 -26 0 -61.5t9.5 -73t20 -74.5t31.5 -67t45 -50t60 -23q36 3 63.5 22t44.5 49.5t23 70t-1 82.5q-30 -28 -56 -40.5t-47.5 -13t-40.5 9t-36 24.5q-12 11 -19.5 19.5t-11.5 19.5t-5.5 27.5t-1.5 43.5v161
h-235v50h781v-50h-467v-27q18 -9 61.5 -27.5t97 -34t110 -20.5t100.5 14q15 -26 23 -39.5t12 -19.5l5 -8q-39 -46 -71 -103q-27 -49 -49.5 -115.5t-24.5 -147.5v-128h48v-15h-159v15h38v37z" />
    <glyph glyph-name="u099C_u09AC_u09CD" horiz-adv-x="746" 
d="M563 106q-35 133 43 250q-20 4 -47 7t-64.5 12t-86 28t-109.5 55v-151q0 -18 12.5 -33.5t30 -24t36.5 -8.5t33 14q4 4 9 10.5t9.5 13.5t8 12.5t3.5 7.5q0 6 -0.5 14.5t-0.5 16.5v20q1 0 11.5 -1t24.5 -3q15 -2 35 -3q6 -109 -17 -187q-10 -34 -26.5 -64.5t-43 -51
t-64 -28.5t-88.5 4q-31 7 -59.5 29t-53 53t-45 68t-35 73.5t-22.5 70t-8 57.5l93 15q-2 -26 0 -61.5t9.5 -73t20 -74.5t31.5 -67t45 -50t60 -23q36 3 63.5 22t44.5 49.5t23 70t-1 82.5q-30 -28 -56 -40.5t-47.5 -13t-40.5 9t-36 24.5q-12 11 -19.5 19.5t-11.5 19.5
t-5.5 27.5t-1.5 43.5v161h-235v50h781v-50h-467v-27q18 -9 61.5 -27.5t97 -34t110 -20.5t100.5 14q15 -26 23 -39.5t12 -19.5l5 -8q-9 -14 -31 -36.5t-44 -57.5q-12 -32 -12 -59t5 -47t11.5 -32.5t6.5 -13.5v-344q-12 6 -25 12q-12 5 -27.5 12.5t-33.5 15.5q-32 15 -65 35
t-59.5 42t-42.5 44.5t-13 41.5q18 73 188 77v60zM448 -61q-2 -20 11 -38.5t32 -33.5t40 -26t35 -17v177h-47q-24 0 -38 -9.5t-21.5 -20.5t-9.5 -21t-2 -11z" />
    <glyph glyph-name="u099D_u09F0_u09CD" horiz-adv-x="667" 
d="M362 6q-18 14 -33 19.5t-27 5.5t-20.5 -3t-14.5 -7t-23.5 -13.5t-42.5 -15t-54.5 -2t-59.5 26.5q-30 22 -44 51.5t-18.5 56t-3 44.5l1.5 18q31 -77 63 -109.5t60 -39.5t50 1.5t33 12.5q25 11 45.5 11.5t37.5 -5t29.5 -15t20.5 -18.5v45l-34 22q-42 27 -83.5 57.5t-73 65
t-47 71t-6.5 75.5q6 35 22 52.5t45 24.5t72.5 7h106.5v63h-383v50h710v-50h-101v-493h48v-15h-159v15h38v129l-82 89v-264h48v-15h-159v15h38v37zM276 422q-26 0 -42 -12t-25 -27t-12 -28t-3 -14q-2 -24 4.5 -46t18 -41.5t27 -36t32.5 -29.5q39 -32 88 -57v291h-88zM435 266
l82 -78v320h-82v-242z" />
    <glyph glyph-name="u099E_u09CD_u099A" horiz-adv-x="537" 
d="M85 320l-8 7t-18.5 18.5t-20.5 26t-13.5 30t2 31t26.5 27.5q28 16 53.5 17t50 -8.5t49 -27t51.5 -37.5v104h-268v50h561v-50h-222l-1 -207q11 23 29.5 56.5t41 59.5t48 36.5t49.5 -12.5q20 -19 21 -38t-9 -36.5t-28.5 -32.5t-37.5 -26.5t-35 -18.5t-22 -8h-1
q9 -3 25.5 -10.5t35 -19t35 -26.5t25.5 -32t7 -35t-21 -36q-23 -23 -47.5 -14.5t-46 32t-40 55.5t-29.5 56v-225q-7 -1 -32 2.5t-58 13t-70 24t-68.5 36t-52.5 49t-23 62.5q3 25 13 45.5t35.5 34t70 20t115.5 3.5v53q-16 15 -39.5 34t-48.5 31.5t-48.5 12.5t-39.5 -22
q-11 -14 -11.5 -32.5t3 -34.5t8 -27zM257 283q-53 0 -82.5 -12.5t-44 -28.5t-17.5 -29.5t-3 -14.5q-3 -17 1.5 -31.5t14 -27t23 -23t28.5 -19.5q34 -20 80 -34v220zM455 397q-16 12 -33 -2t-31.5 -36.5t-24.5 -43.5t-12 -23q18 -6 42 5.5t42 30t25 38.5t-8 31zM450 166
q15 11 8 31t-25 38.5t-42 30t-42 5.5q2 -2 12 -23.5t24.5 -43.5t31.5 -36t33 -2z" />
    <glyph glyph-name="u099E_u09CD_u099A_u09AC_u09CD" horiz-adv-x="547" 
d="M85 320l-8 7t-18.5 18.5t-20.5 26t-13.5 30t2 31t26.5 27.5q28 16 53.5 17t50 -8.5t49 -27t51.5 -37.5v104h-268v50h577v-50h-238l-1 -207q11 23 29.5 56.5t41 59.5t48 36.5t49.5 -12.5q20 -19 21 -38t-9 -36.5t-28.5 -32.5t-37.5 -26.5t-35 -18.5t-22 -8h-1
q9 -3 25.5 -10.5t35 -19t35 -26.5t25.5 -32t7 -35t-21 -36q-23 -23 -47.5 -14.5t-46 32t-40 55.5t-29.5 56v-381q-19 7 -39 15q-17 7 -39 16t-42 19q-22 11 -44.5 19.5t-39.5 19.5t-26 26.5t-4 40.5q3 15 12.5 26t23 18.5t30 11.5t33.5 6q-30 11 -59.5 21t-53.5 23.5
t-39.5 32.5t-16.5 48q3 25 13 45.5t35.5 34t70 20t115.5 3.5v53q-16 15 -39.5 34t-48.5 31.5t-48.5 12.5t-39.5 -22q-11 -14 -11.5 -32.5t3 -34.5t8 -27zM257 283q-53 0 -82.5 -12.5t-44 -28.5t-17.5 -29.5t-3 -14.5q-3 -17 1.5 -30t14 -23.5t23 -18t28.5 -12.5
q34 -12 80 -18v187zM181 63q-24 -11 -32.5 -22.5t-6.5 -22.5t13 -21.5t26 -19.5q35 -21 97 -40v126h-97zM455 397q-16 12 -33 -2t-31.5 -36.5t-24.5 -43.5t-12 -23q18 -6 42 5.5t42 30t25 38.5t-8 31zM450 166q15 11 8 31t-25 38.5t-42 30t-42 5.5q2 -2 12 -23.5t24.5 -43.5
t31.5 -36t33 -2z" />
    <glyph glyph-name="u099E_u09CD_u099B" horiz-adv-x="644" 
d="M489 427q30 16 30 37q0 29 -30 29q-64 0 -142 -63q76 -65 134 -65q41 0 41 31q0 17 -33 31zM296 448q0 -1 -1 -1q78 58 132 81.5t89 25.5t53.5 -10t26.5 -25q10 -24 0.5 -41.5t-26.5 -28.5t-34 -17t-21 -6q11 -1 28.5 -4.5t32 -13.5t22 -26.5t-2.5 -43.5q-9 -23 -32 -29
t-53 -1t-63 18t-61 26t-47.5 24t-22.5 13q1 -1 15 -13.5t34.5 -29.5t44 -34.5t44.5 -26.5l33 -16.5t36 -21.5t29 -26.5t12 -30t-15 -32.5t-52 -34q-28 -11 -64.5 -21.5t-68.5 -20.5q-38 -11 -77 -22q8 -32 36 -67q23 -30 69.5 -69.5t126.5 -81.5q-41 18 -88 38t-91.5 46.5
t-81 61.5t-56.5 83q34 9 72.5 20.5t74 25t64 29.5t44 33.5t13 36.5t-29.5 40q-17 -23 -42.5 -52.5t-58.5 -52t-74 -30t-89 14.5q-78 47 -8 184q12 25 24.5 54.5t18.5 54.5t2.5 42.5t-23.5 20.5t-42.5 -1.5t-39 -20.5t-22.5 -46.5t7 -81.5q2 -3 2.5 -6t1.5 -5q1 -3 1 -4
q-26 15 -44 35q-15 17 -23.5 42t3.5 58t34 52.5t48.5 30t54 12.5t50.5 -1t40 -15t26.5 -28t12 -33.5t-3.5 -31.5zM278 375q-5 -10 -7 -14.5t-4.5 -9t-6 -12t-12.5 -23.5q-16 -29 -26.5 -61t-8.5 -55.5t21.5 -33t64.5 6.5q12 7 26.5 20t27 27t21.5 26t10 17q1 6 -13 21
t-32.5 32t-36 33.5t-24.5 25.5z" />
    <glyph glyph-name="u099E_u09CD_u099C" horiz-adv-x="687" 
d="M319 405q-5 -13 -8.5 -21t-6.5 -13q27 -12 65.5 -32t82.5 -36t89 -22t84 11q15 -26 23 -39.5t12 -19.5l5 -8q-55 -31 -93 -75q-16 -19 -30.5 -42.5t-23 -52t-10 -62t8.5 -71.5q0 -1 -4.5 10t-9.5 31t-8 48.5t2 63.5t20 75.5t46 84.5q-19 4 -41.5 10t-53.5 18.5
t-73.5 33.5t-100.5 54q-4 -5 -9.5 -12.5t-13.5 -20.5q-17 -26 -16.5 -39.5t4.5 -27.5q5 -14 23 -23t41.5 -8.5t48.5 12t43 38.5q6 -4 17 -9q9 -5 24.5 -11t38.5 -14q-12 -70 -40 -123q-12 -23 -29 -43.5t-39.5 -35.5t-51.5 -21.5t-65 -1.5q-47 7 -92.5 36t-81.5 69t-58.5 84
t-22.5 80l93 15q-3 -40 8 -82.5t35 -79t61.5 -62t88.5 -30.5q36 3 55.5 19.5t29 41.5t12.5 56t7 62q-14 -13 -35 -21.5t-44 -12t-45 -3t-38 4.5q-17 7 -34 17.5t-27 26t-9 39t20 57.5q12 25 25.5 53t21 52t4.5 40t-23 19t-42.5 -1.5t-39 -20.5t-22.5 -46.5t7 -81.5
q2 -3 2.5 -6t1.5 -5q1 -3 1 -4q-26 15 -44 35q-15 17 -23.5 42t3.5 58t34 52.5t48.5 30t54 12.5t50.5 -1t40 -15t26.5 -28t12 -33.5t-3.5 -31.5v-1q78 58 131.5 81.5t88.5 25.5t53.5 -10t26.5 -25q10 -23 1.5 -40t-24 -28.5t-32.5 -17.5t-24 -7q11 -1 28 -5.5t31 -14t21 -26
t-2 -42.5q-9 -23 -34 -27.5t-58.5 2t-70 21.5t-67.5 30t-52.5 27t-24.5 14zM520 427q30 16 30 37q0 29 -30 29q-64 0 -142 -63q76 -65 134 -65q41 0 41 31q0 17 -33 31z" />
    <glyph glyph-name="u099E_u09CD_u099D" horiz-adv-x="663" 
d="M525 89l-69 47v-110q-7 -1 -32 2.5t-58 11.5t-70 21t-69 32t-53 43t-23 55q2 21 11.5 38t32 29t61 18t99.5 6q-15 6 -30.5 7.5t-30.5 0.5t-28.5 -2t-23.5 0q-72 8 -114.5 27.5t-65 43t-29.5 45.5t-8 34q9 6 28 13.5t38 14t32.5 10.5t12.5 2q-13 -25 -1 -53t37 -52
t58 -41.5t62 -20.5q27 1 52.5 -5.5t41.5 -17.5v16h1v185q-5 19 -11.5 28t-12.5 11.5t-10 1.5l-4 -1q-41 -14 -61.5 -31t-27.5 -34.5t-3.5 -34.5t10 -32.5t14 -27.5t8.5 -19q-45 33 -61.5 68t-12 65t25 51t48.5 24q44 -8 75.5 -18t51.5 -20q24 -11 40 -23v-171q10 19 27 46.5
t39 49t46 30t47 -10.5q19 -15 20 -30.5t-9 -30t-27 -26.5t-35 -21.5t-33.5 -15t-20.5 -6.5h-1q9 -2 24.5 -8.5t33 -16t33 -21.5t24 -25.5t6.5 -28.5t-20 -30q-8 -6 -12 -8v-158h48v-15h-159v15h38v74zM386 253q-54 0 -83.5 -11t-44 -25t-17.5 -26t-3 -13q-3 -15 1.5 -27.5
t14.5 -24t23.5 -21t28.5 -16.5q34 -18 80 -30v194zM525 193q-22 20 -40 47t-29 47v-112l69 -47v65zM577 406q-15 10 -31.5 -2t-30 -30t-22.5 -35.5t-11 -18.5q17 -5 39.5 4.5t39.5 24.5t23.5 31.5t-7.5 25.5zM572 217q14 9 7.5 25.5t-23.5 31.5t-39.5 24t-39.5 5
q2 -2 11.5 -19.5t23 -35.5t29.5 -29.5t31 -1.5z" />
    <glyph glyph-name="u099E_u09CD_u09A7" horiz-adv-x="659" 
d="M387 304v185q-5 19 -11.5 28t-12.5 11.5t-10 1.5l-4 -1q-41 -14 -61.5 -31t-27.5 -34.5t-3.5 -34.5t10 -32.5t14 -27.5t8.5 -19q-45 33 -61.5 68t-12 65t25 51t48.5 24q44 -8 75.5 -18t51.5 -20q24 -11 40 -23v-171q10 19 27 46.5t39 49t46 30t47 -10.5q19 -15 20 -30.5
t-9 -30t-27 -26.5t-35 -21.5t-33.5 -15t-20.5 -6.5h-1q9 -2 24.5 -8.5t33 -16t33 -21.5t24 -25.5t6.5 -28.5t-20 -30q-22 -18 -45 -11t-43.5 26.5t-38 45t-27.5 45.5v-94q14 -3 39 -13t73 -35q-1 0 -1 -18v-39v-57l36 -26l-7 -13l-92 49l2 111l-50 12v-138q-7 -1 -32 2.5
t-58 11.5t-70 21t-69 32t-53 43t-23 55q3 21 12 38t31.5 29t61 18t99.5 6q-15 6 -30.5 7.5t-30.5 0.5t-28.5 -2t-23.5 0q-72 8 -114.5 27.5t-65 43t-29.5 45.5t-8 34q9 6 28 13.5t38 14t32.5 10.5t12.5 2q-13 -25 -1 -53t37 -52t58 -41.5t62 -20.5q28 1 53 -5.5t41 -17.5v16
h1zM386 253q-54 0 -83.5 -11t-44 -25t-17.5 -26t-3 -13q-3 -15 1.5 -27.5t14.5 -24t23.5 -21t28.5 -16.5q34 -18 80 -30v194zM577 406q-15 10 -31.5 -2t-30 -30t-22.5 -35.5t-11 -18.5q17 -5 39.5 4.5t39.5 24.5t23.5 31.5t-7.5 25.5zM572 217q14 9 7.5 25.5t-23.5 31.5
t-39.5 24t-39.5 5q2 -2 11.5 -19.5t23 -35.5t29.5 -29.5t31 -1.5z" />
    <glyph glyph-name="u099F_u09CD_u099F" horiz-adv-x="438" 
d="M-19 558h320v52q0 25 -19.5 37.5t-47 16.5t-58 1t-51.5 -9q-56 -15 -96 -20.5t-44 -6.5l143 51q89 25 138.5 21t72.5 -20q27 -18 32 -50v-73h93v-50h-320v-347q0 -23 4 -36t11 -20q1 -2 4 -3.5t5 -3.5q3 -3 6 -5q38 19 61 47t36 57.5t18.5 56.5t8.5 44q4 25 3 40.5
t-5.5 23t-11.5 8.5t-15 -2q-19 -7 -46 -32l-16 12l98 61q2 -1 9 -5l18 -9t33 -17q1 -48 -8 -87t-23 -71q8 -5 20.5 -16t18 -27t-0.5 -36t-35.5 -42.5t-87.5 -48t-156 -52.5q46 21 91 38.5t77 36t45 40.5t-4 52q-21 -29 -45 -48.5t-44 -32t-34.5 -17.5t-17.5 -5
q-5 0 -20.5 11t-32.5 24q-19 15 -43 35v376h-84v50z" />
    <glyph glyph-name="u099F_u09CD_u099F_u09F0_u09CD" horiz-adv-x="438" 
d="M313 -95q-18 14 -33 19.5t-27 5.5t-20.5 -3t-14.5 -7t-19 -12.5t-32.5 -12t-44.5 1t-55 27.5q-30 22 -43 50.5t-16.5 53t-1 41.5l2.5 17q31 -77 57.5 -109.5t48 -39.5t38 1.5t27.5 12.5q25 11 45.5 11.5t37.5 -5t29.5 -15t20.5 -18.5v158q-32 -20 -85.5 -41t-134.5 -43
q46 21 91 38.5t77 36t45 40.5t-4 52q-21 -29 -45 -48.5t-44 -32t-34.5 -17.5t-17.5 -5q-5 0 -20.5 11t-32.5 24q-19 15 -43 35v376h-84v50h320v52q0 25 -19.5 37.5t-47 16.5t-58 1t-51.5 -9q-56 -15 -96 -20.5t-44 -6.5l143 51q89 25 138.5 21t72.5 -20q27 -18 32 -50v-73
h93v-50h-320v-347q0 -23 4 -36t11 -20q1 -2 4 -3.5t5 -3.5q3 -3 6 -5q38 19 61 47t36 57.5t18.5 56.5t8.5 44q4 25 3 40.5t-5.5 23t-11.5 8.5t-15 -2q-19 -7 -46 -32l-16 12l98 61q2 -1 9 -5l18 -9t33 -17q1 -48 -8 -87t-23 -71q6 -4 14.5 -11.5t15.5 -17.5t10.5 -22.5
t-2.5 -27.5v-273h48v-15h-145v15h38v37z" />
    <glyph glyph-name="u099F_u09CD_u09AE" horiz-adv-x="622" 
d="M-16 558h305v52q0 25 -19.5 37.5t-47 16.5t-58 1t-51.5 -9q-56 -15 -96 -20.5t-44 -6.5l143 51q89 25 138.5 21t72.5 -20q27 -18 32 -50v-73h93v-50h-320v-249q0 -9 8.5 -17.5t21.5 -18.5q60 40 90 81.5t35 75.5q5 38 -6.5 46.5t-28.5 2.5q-19 -7 -47 -28l-11 7l98 61
l8 -4l18 -9t33 -17q4 -34 -2 -63.5t-19.5 -55t-32 -47t-38.5 -39.5q-48 -41 -111 -71q-5 2 -20.5 13t-32 23t-29.5 22l-13 10v277h-69v50zM333 366q1 1 -0.5 -18.5t-2.5 -44.5q-2 -29 -5 -66q4 -8 8 -17q4 -8 10 -16t16 -16q29 7 60.5 -4t59.5 -37v361h-338v50h527v-50h-116
v-493h48v-15h-159v15h38v56q-3 8 -10.5 21t-19 25t-26.5 20.5t-32 8.5q-31 -1 -48.5 -11t-25 -24.5t-8 -32t2.5 -33t8 -28t8 -17.5q-29 19 -40.5 41.5t-12 43.5t7 38t15.5 27q13 15 28 25q-6 6 -17 17.5t-20 26.5t-14.5 31.5t-1.5 32.5q5 19 14.5 33.5t19.5 25t17.5 16.5
t8.5 8z" />
    <glyph glyph-name="u099F_u09F0_u09CD" horiz-adv-x="438" 
d="M-16 558h340v52q0 25 -19.5 37.5t-47 16.5t-58 1t-51.5 -9q-56 -15 -96 -20.5t-44 -6.5l143 51q89 25 138.5 21t72.5 -20q27 -18 32 -50v-73h64v-50h-289v-289q0 -9 8.5 -17.5t21.5 -18.5q60 40 90 81.5t35 75.5q5 38 -6.5 46.5t-28.5 2.5q-19 -7 -47 -28l-11 7l98 61
l8 -4l18 -9t33 -17q5 -35 -2 -65.5t-21 -56.5v-266h48v-15h-159v15h38v37q-18 14 -33 19.5t-27 5.5t-20.5 -3t-14.5 -7t-18 -14t-29 -16t-39.5 -4.5t-50.5 21.5q-31 22 -44 53t-16.5 59.5t-1 49l2.5 20.5q31 -77 55.5 -110t43.5 -40.5t33.5 0.5t25.5 12q25 11 45.5 11.5
t37.5 -5t29.5 -15t20.5 -18.5v123q-20 -17 -39 -29.5t-34 -20.5q-18 -10 -34 -17q-5 2 -20.5 13t-32 23t-29.5 22l-13 10v317h-106v50z" />
    <glyph glyph-name="u099F_u09AC_u09CD" horiz-adv-x="440" 
d="M-21 558h345v52q0 25 -19.5 37.5t-47 16.5t-58 1t-51.5 -9q-56 -15 -96 -20.5t-44 -6.5l143 51q89 25 138.5 21t72.5 -20q27 -18 32 -50v-73h64v-50h-289v-289q0 -9 8.5 -17.5t21.5 -18.5q60 40 90 81.5t35 75.5q5 38 -6.5 46.5t-28.5 2.5q-19 -7 -47 -28l-11 7l98 61
l8 -4l18 -9t33 -17q4 -33 -2 -62.5t-19 -55t-31 -47t-38 -39.5v-344q-19 7 -39 15q-17 7 -39 16t-42 19q-22 11 -44.5 26.5t-39.5 35t-26 42t-4 47.5q5 28 31 42t57 19t59.5 4.5t37.5 -0.5v41q-14 -9 -26 -15t-20 -11l-18 -9q-5 2 -20.5 13t-32 23t-29.5 22l-13 10v317h-111
v50zM152 89q-24 -11 -32.5 -24.5t-6.5 -27.5t13 -28.5t26 -27.5q35 -31 97 -63v171h-97z" />
    <glyph glyph-name="u09A0_u09F0_u09CD" horiz-adv-x="475" 
d="M340 -86q-18 14 -33 19.5t-27 5.5t-20.5 -3t-14.5 -7t-23.5 -13.5t-42.5 -15t-54.5 -2t-59.5 26.5q-30 22 -44 51.5t-18.5 56t-3 44.5l1.5 18q31 -77 63 -109.5t60 -39.5t50 1.5t33 12.5q25 11 45.5 11.5t37.5 -5t29.5 -15t20.5 -18.5v119q-25 -26 -60 -39t-83 1
q-23 10 -51 21.5t-54 36.5t-46.5 68.5t-27.5 117.5q-2 27 1.5 55t18 45.5t40.5 17.5t69 -28l11 -7.5t28.5 -12.5t37 -2t36.5 24q3 6 5.5 18.5t-5.5 31.5t-31.5 45.5t-71.5 62.5h-176v50h156q-8 10 -21.5 28.5t-27.5 36.5q-16 21 -33 45q21 10 39 18q7 3 14.5 6.5t12.5 5.5
l12 6q3 -21 10.5 -43t16.5 -42t17.5 -36t13.5 -25h303v-50h-252q11 -11 29 -28.5t37 -40.5t38 -50t33.5 -57t22 -61t3.5 -62q0 -10 -3 -25l1 2v-309h48v-15h-149v15h38v37zM234 470q0 -1 9.5 -13.5t21 -29.5t21 -36t10.5 -32q3 -36 -10.5 -57t-37 -29.5t-52.5 -6t-56 13.5
q-28 17 -44.5 15.5t-24.5 -14.5t-8 -34.5t5 -44.5t12.5 -44t16.5 -34q39 -48 72 -68.5t60 -21.5t48 12.5t36.5 32.5t25.5 39.5t16 33.5q13 42 9 82.5t-17.5 76t-32.5 65t-37 51t-30.5 33t-12.5 10.5z" />
    <glyph glyph-name="u09A1_u09CD_u0997" horiz-adv-x="877" 
d="M734 405q-7 16 -19 36q-17 29 -24 37q-18 22 -58 38.5t-73 16.5q-53 0 -91.5 -37.5t-38.5 -80.5q0 -29 31 -37q66 37 117 37q42 0 68 -28t26 -63q0 -101 -201 -240q43 49 86 99q49 63 49 118q0 17 -8 33q-12 20 -32 20q-17 0 -60 -20q-27 -12 -45 -17q-2 -18 -7 -49.5
t-14.5 -67.5t-24.5 -72.5t-37 -64t-51.5 -42t-68.5 -7.5q-48 9 -83 36.5t-59.5 65.5t-39.5 81.5t-22.5 83.5t-9 71.5t1.5 46.5q14 6 27 10t24 7q12 3 25 5q-6 -103 6 -186q5 -35 14.5 -69.5t25.5 -62t39 -46t55 -21.5q20 0 42.5 20t41 54t30.5 79t11 95q-10 -6 -26 -13
t-34.5 -10.5t-37.5 -0.5t-36 18q-12 11 -19.5 18.5t-11.5 17.5t-5.5 25.5t-1.5 42.5v126h-235v50h528q24 8 49 8q69 -1 112 -33t65 -73v98h171v-50h-98v-493h48v-15h-159v15h38v390zM343 281q12 0 20 8.5t13 20t7 22t3 15.5q-9 15 -9 34q0 63 53 121q2 3 5 6h-141v-179
q0 -13 4 -24q4 -9 14 -17t31 -7z" />
    <glyph glyph-name="u09A1_u09CD_u09A1" horiz-adv-x="850" 
d="M133 400q2 -34 9 -76.5t23.5 -80.5t44.5 -65.5t73 -32.5q20 0 43.5 12t44 36.5t33.5 62t12 87.5q-10 -6 -22.5 -21t-30 -26.5t-42.5 -12.5t-60 21q-14 9 -21 19.5t-10 24.5t-3.5 33.5t-0.5 46.5v80h-235v50h882v-50h-240v-179q0 -13 4 -24q4 -9 14 -17t31 -7q14 0 22 11
t13 24q5 15 8 35q1 0 13 -2.5t26 -4.5q17 -4 38 -7q-9 -99 -35 -174q-11 -32 -26 -61.5t-36 -51t-47.5 -32t-60.5 -4.5t-61.5 22.5t-49 39t-38 50t-28.5 56.5q-22 -32 -56.5 -52t-86.5 -15q-56 4 -95.5 32.5t-65 68t-39.5 84t-19 80.5zM474 383q0 -14 -2 -31q-2 -14 -4 -33
t-7 -39q3 -39 11.5 -81t24.5 -77t41 -58.5t63 -27.5q20 0 42.5 20t41 54t30.5 79t11 95q-10 -6 -26 -13t-34.5 -10.5t-37.5 -0.5t-36 18q-12 11 -19.5 18.5t-11.5 17.5t-5.5 25.5t-1.5 42.5v126h-249v-133q0 -13 4 -24q4 -9 14 -17t31 -7q14 0 22 11t13 24q5 15 8 35
q1 0 13 -2.5t26 -4.5q17 -4 38 -7z" />
    <glyph glyph-name="u09A1_u09CD_u09AE" horiz-adv-x="732" 
d="M103 400q2 -34 9 -76.5t23.5 -80.5t44.5 -65.5t73 -32.5q20 0 43.5 12t44 36.5t33.5 62t12 87.5q-10 -6 -22.5 -21t-30 -26.5t-42.5 -12.5t-60 21q-14 9 -21 19.5t-10 24.5t-3.5 33.5t-0.5 46.5v80h-235v50h791v-50h-116v-493h48v-15h-159v15h38v56q-3 8 -10.5 21t-19 25
t-26.5 20.5t-32 8.5q-31 -1 -48.5 -11t-25 -24.5t-8 -32t2.5 -33t8 -28t8 -17.5q-31 22 -43.5 43.5t-13 41t8.5 36t20 28.5q-2 2 -5.5 4.5t-8.5 4.5q-21 -22 -51 -34.5t-72 -8.5q-56 4 -95.5 32.5t-65 68t-39.5 84t-19 80.5zM444 383q-1 -30 -5 -62q-4 -27 -12.5 -60
t-25.5 -62l25 -18q15 3 33 3t36.5 -4t36 -12t31.5 -21v361h-288v-133q0 -13 4 -24q4 -9 14 -17t31 -7q14 0 22 11t13 24q5 15 8 35q1 0 13 -2.5t26 -4.5q17 -4 38 -7z" />
    <glyph glyph-name="u09A1_u09F0_u09CD" horiz-adv-x="507" 
d="M-15 558h543v-50h-229v-179q0 -13 4 -24q4 -9 14 -17t31 -7q14 0 22 11t13 24q5 15 8 35q1 0 13 -2.5t26 -4.5q17 -4 38 -7q-2 -24 -6 -51q-4 -23 -10 -52.5t-15 -59.5v-287h48v-15h-159v15h38v37q-18 14 -33 19.5t-27 5.5t-20.5 -3t-14.5 -7t-23.5 -13.5t-42.5 -15
t-54.5 -2t-59.5 26.5q-30 22 -44 51.5t-18.5 56t-3 44.5l1.5 18q31 -77 63 -109.5t60 -39.5t50 1.5t33 12.5q25 11 45.5 11.5t37.5 -5t29.5 -15t20.5 -18.5v100q-20 -18 -45 -26.5t-56 -2.5q-48 9 -83 36.5t-59.5 65.5t-39.5 81.5t-22.5 83.5t-9 71.5t1.5 46.5q14 6 27 10
t24 7q12 3 25 5q-6 -103 6 -186q5 -35 14.5 -69.5t25.5 -62t39 -46t55 -21.5q20 0 42.5 20t41 54t30.5 79t11 95q-10 -6 -26 -13t-34.5 -10.5t-37.5 -0.5t-36 18q-12 11 -19.5 18.5t-11.5 17.5t-5.5 25.5t-1.5 42.5v126h-235v50z" />
    <glyph glyph-name="u09A1_u09AC_u09CD" horiz-adv-x="507" 
d="M-15 558h543v-50h-229v-179q0 -13 4 -24q4 -9 14 -17t31 -7q14 0 22 11t13 24q5 15 8 35q1 0 13 -2.5t26 -4.5q17 -4 38 -7q-9 -99 -35 -174q-11 -32 -26 -61.5t-36 -51t-47.5 -32t-60.5 -4.5q-48 9 -83 36.5t-59.5 65.5t-39.5 81.5t-22.5 83.5t-9 71.5t1.5 46.5
q14 6 27 10t24 7q12 3 25 5q-6 -103 6 -186q5 -35 14.5 -69.5t25.5 -62t39 -46t55 -21.5q20 0 42.5 20t41 54t30.5 79t11 95q-10 -6 -26 -13t-34.5 -10.5t-37.5 -0.5t-36 18q-12 11 -19.5 18.5t-11.5 17.5t-5.5 25.5t-1.5 42.5v126h-235v50zM384 -232q-19 7 -39 15
q-17 7 -39 16t-42 19q-22 11 -44.5 26.5t-39.5 35t-26 42t-4 47.5q5 28 31 42t57 19t59.5 4.5t37.5 -0.5v36l24 -2q5 -1 9 -1t8 -1t8 -1v-297zM238 6q-24 -11 -32.5 -24.5t-6.5 -27.5t13 -28.5t26 -27.5q35 -31 97 -63v171h-97z" />
    <glyph glyph-name="u09A2_u09F0_u09CD" horiz-adv-x="431" 
d="M-16 558h474v-50h-289v-289q0 -9 8.5 -17.5t21.5 -18.5q60 40 90 81.5t35 75.5q5 38 -6.5 46.5t-28.5 2.5q-19 -7 -47 -28l-11 7l98 61l8 -4l18 -9t33 -17q5 -35 -2 -65.5t-21 -56.5v-266h48v-15h-159v15h38v37q-18 14 -33 19.5t-27 5.5t-20.5 -3t-14.5 -7t-18 -14
t-29 -16t-39.5 -4.5t-50.5 21.5q-31 22 -44 53t-16.5 59.5t-1 49l2.5 20.5q31 -77 55.5 -110t43.5 -40.5t33.5 0.5t25.5 12q25 11 45.5 11.5t37.5 -5t29.5 -15t20.5 -18.5v123q-20 -17 -39 -29.5t-34 -20.5q-18 -10 -34 -17q-5 2 -20.5 13t-32 23t-29.5 22l-13 10v317h-106
v50z" />
    <glyph glyph-name="u09A3_u09CD_u099F" horiz-adv-x="542" 
d="M170 558h236v52q0 25 -19.5 37.5t-47 16.5t-58 1t-51.5 -9q-56 -15 -96 -20.5t-44 -6.5l143 51q89 25 138.5 21t72.5 -20q27 -18 32 -50v-73h93v-50h-320v-397q0 -23 4 -31.5t11 -15.5q1 -2 4 -3.5t5 -3.5q3 -3 6 -5q38 19 61 53.5t36 71.5t18.5 70.5t8.5 50.5
q4 25 3 40.5t-6 23.5t-12.5 9.5t-16.5 -0.5q-20 -5 -48 -30l-11 7l98 61q2 -1 9 -5l18 -9t33 -17q1 -60 -13 -111t-35 -91.5t-47 -71.5t-49 -51.5t-40 -30.5t-20 -10q-5 0 -20.5 11t-32.5 24q-19 15 -43 35v476zM187 391q-23 39 -47 51t-54 -14q-15 -13 -19.5 -33.5
t-1 -43.5t12.5 -47.5t21 -44.5q-25 11 -42 29t-27 38.5t-12.5 40.5t2.5 35q14 28 31.5 41.5t35 17t34.5 0t30 -9.5t21 -11.5l8 -5.5z" />
    <glyph glyph-name="u09A3_u09CD_u099F_u09F0_u09CD" horiz-adv-x="534" 
d="M187 391q-23 39 -47 51t-54 -14q-15 -13 -19.5 -33.5t-1 -43.5t12.5 -47.5t21 -44.5q-25 11 -42 29t-27 38.5t-12.5 40.5t2.5 35q14 28 31.5 41.5t35 17t34.5 0t30 -9.5t21 -11.5l8 -5.5zM170 558h234v52q0 25 -19.5 37.5t-47 16.5t-58 1t-51.5 -9q-56 -15 -96 -20.5
t-44 -6.5l143 51q89 25 138.5 21t72.5 -20q27 -18 32 -50v-73h79v-50h-304v-289q0 -9 8.5 -17.5t21.5 -18.5q60 40 90 81.5t35 75.5q5 38 -6.5 46.5t-28.5 2.5q-19 -7 -47 -28l-11 7l98 61l8 -4l18 -9t33 -17q5 -35 -2 -65.5t-21 -56.5v-266h48v-15h-159v15h38v37
q-18 14 -33 19.5t-27 5.5t-20.5 -3t-14.5 -7t-18 -14t-29 -16t-39.5 -4.5t-50.5 21.5q-31 22 -44 53t-16.5 59.5t-1 49l2.5 20.5q31 -77 55.5 -110t43.5 -40.5t33.5 0.5t25.5 12q25 11 45.5 11.5t37.5 -5t29.5 -15t20.5 -18.5v123q-20 -17 -39 -29.5t-34 -20.5
q-18 -10 -34 -17q-5 2 -20.5 13t-32 23t-29.5 22l-13 10v367z" />
    <glyph glyph-name="u09A3_u09CD_u09A0" horiz-adv-x="464" 
d="M98 325q-35 17 -53 37q-8 9 -13 18.5t-5 20.5t7 23t24 25q25 19 51.5 17.5t52 -14.5t47 -32t36.5 -35q-17 26 -42.5 57t-60.5 66q-19 29 -37.5 58t-33.5 52q-18 27 -33 52q19 9 37 17q15 7 29 12t21 5q3 -21 9.5 -43t13.5 -42t14 -36t12 -25h290v-50h-273
q11 -11 31.5 -29t43.5 -42t47.5 -51.5t44.5 -57.5t33 -60t14 -59q5 -16 2 -42t-13 -54t-28 -55t-43.5 -45.5t-58 -26t-71.5 4.5q-23 10 -47.5 18t-46 28.5t-38.5 61t-24 114.5q2 24 11 44t27.5 28.5t48 2t72.5 -34.5l7.5 -4t20 -5t28.5 5t33 27q4 9 -2 31q-10 22 -26.5 41.5
t-34.5 35.5t-36 28l-30 20q-15 9 -26 9t-17.5 -6t-10.5 -16.5t-5 -22.5q-4 -29 1 -71zM373 145q12 49 1 86.5t-30.5 65t-40.5 46.5t-31 31q20 -29 26 -66t-2.5 -67t-30.5 -47t-58 -6q-42 25 -70.5 21.5t-43 -21.5t-15.5 -43.5t12 -44.5q40 -48 74.5 -67t64 -18.5t54 16
t42.5 36.5t30 43t18 35z" />
    <glyph glyph-name="u09A3_u09CD_u09A0_u09F0_u09CD" horiz-adv-x="494" 
d="M356 -86q-18 14 -33.5 19.5t-29 5.5t-23 -3t-15.5 -7t-23.5 -13.5t-42.5 -15t-54.5 -2t-59.5 26.5q-30 22 -44 51.5t-18.5 56t-3 44.5l1.5 18q31 -77 63 -109.5t60 -39.5t50 1.5t33 12.5q25 11 46.5 11.5t39.5 -5t31.5 -15t21.5 -18.5v74q-25 -16 -55.5 -21.5t-66.5 5.5
q-23 10 -47.5 18t-46 28.5t-38.5 61t-24 114.5q2 24 11 44t27.5 28.5t48 2t72.5 -34.5l7.5 -4t20 -5t28.5 5t33 27q4 9 -2 31q-10 22 -26.5 41.5t-34.5 35.5t-36 28l-30 20q-15 9 -26 9t-17.5 -6t-10.5 -16.5t-5 -22.5q-4 -29 1 -71q-35 17 -53 37q-8 9 -13 18.5t-5 20.5
t7 23t24 25q25 19 51.5 17.5t52 -14.5t47 -32t36.5 -35q-17 26 -42.5 57t-60.5 66q-19 29 -37.5 58t-33.5 52q-18 27 -33 52q19 9 37 17q15 7 29 12t21 5q3 -21 9.5 -43t13.5 -42t14 -36t12 -25h304v-50h-287q11 -11 31.5 -29t43.5 -42t47.5 -51.5t44.5 -57.5t33 -60t14 -59
q6 -21 0 -55t-23 -69v-208h48v-15h-153v15h38v37zM414 145q12 49 1 86.5t-30.5 65t-40.5 46.5t-31 31q20 -29 26 -66t-2.5 -67t-30.5 -47t-58 -6q-42 25 -70.5 21.5t-43 -21.5t-15.5 -43.5t12 -44.5q39 -48 74 -67t64.5 -18.5t54 16t42.5 36.5t30 43t18 35z" />
    <glyph glyph-name="u09A3_u09CD_u09A1" horiz-adv-x="579" 
d="M314 -12q-65 0 -119.5 55t-105.5 152q-58 110 -61 211q21 7 98 16q6 -141 35 -237q50 -160 157 -163q71 0 116 60q37 50 37 107q0 51 -47 54t-89 -37q5 8 62 72q61 68 74 133q-35 -23 -105 -65q10 48 10 53q0 97 -63 97q-27 0 -47 -45q-16 -37 -16 -63q0 -34 35 -98
q-96 96 -96 170q0 38 33.5 66.5t79.5 28.5q51 0 86.5 -30t35.5 -74q0 -8 -2 -17q49 54 59 126q35 -36 47 -54q20 -31 20 -67q0 -46 -27 -82q-19 -25 -51.5 -49.5t-68.5 -53.5q30 18 71 17q72 -9 75.5 -87t-64.5 -136q-72 -60 -169 -60z" />
    <glyph glyph-name="u09A3_u09CD_u09A1_u09F0_u09CD" horiz-adv-x="569" 
d="M388 -91q-18 14 -33 19.5t-27 5.5t-20.5 -3t-14.5 -7t-23.5 -13.5t-42.5 -15t-54.5 -2t-59.5 26.5q-30 22 -44 51.5t-18.5 56t-3 44.5l1.5 18q31 -77 63 -109.5t60 -39.5t50 1.5t33 12.5q25 11 45.5 11.5t37.5 -5t29.5 -15t20.5 -18.5v71q-36 -11 -77 -11
q-65 0 -119.5 55t-105.5 152q-58 110 -61 211q21 7 98 16q6 -141 35 -237q50 -160 157 -163q71 0 116 60q37 50 37 107q0 51 -47 54t-89 -37q5 8 62 72q61 68 74 133q-35 -23 -105 -65q10 48 10 53q0 97 -63 97q-27 0 -47 -45q-16 -37 -16 -63q0 -34 35 -98q-96 96 -96 170
q0 38 33.5 66.5t79.5 28.5q51 0 86.5 -30t35.5 -74q0 -8 -2 -17q49 54 59 126q35 -36 47 -54q20 -31 20 -67q0 -46 -27 -82q-19 -25 -51.5 -49.5t-68.5 -53.5q30 18 71 17q72 -9 75.5 -87t-64.5 -136q-10 -8 -19 -15v-161h48v-15h-159v15h38v37z" />
    <glyph glyph-name="u09A3_u09CD_u09A2" horiz-adv-x="619" 
d="M271 558h399v-50h-320v-397q0 -23 4 -31.5t11 -15.5q1 -2 4 -3.5t5 -3.5q3 -3 6 -5q38 19 61 53.5t36 71.5t18.5 70.5t8.5 50.5q4 25 3 40.5t-6 23.5t-12.5 9.5t-16.5 -0.5q-20 -5 -48 -30l-11 7l98 61q2 -1 9 -5l18 -9t33 -17q1 -60 -13 -111t-35.5 -91.5t-47 -71.5
t-48.5 -51.5t-40 -30.5t-20 -10q-5 0 -20.5 11t-32.5 24q-19 15 -43 35v476zM281 447q0 -2 5.5 -7t-3.5 -17q-11 11 -28 20t-34 14q-20 6 -42 11l-10 -10q-7 -8 -21 -22.5t-38 -42.5q-29 -31 -26 -61t18 -55q18 -29 49 -56q1 0 -6 4q-6 3 -20 9.5t-40 19.5
q-51 24 -66.5 51.5t-9 56t29.5 55.5t49 49t48.5 37.5t29.5 21.5q18 -6 38 -18.5t37 -25.5t28.5 -23t11.5 -11z" />
    <glyph glyph-name="u09A3_u09CD_u09A2_u09F0_u09CD" horiz-adv-x="646" 
d="M285 558h234v52q0 25 -19.5 37.5t-47 16.5t-58 1t-51.5 -9q-56 -15 -96 -20.5t-44 -6.5l143 51q89 25 138.5 21t72.5 -20q27 -18 32 -50v-73h79v-50h-304v-289q0 -9 8.5 -17.5t21.5 -18.5q60 40 90 81.5t35 75.5q5 38 -6.5 46.5t-28.5 2.5q-19 -7 -47 -28l-11 7l98 61
l8 -4l18 -9t33 -17q5 -35 -2 -65.5t-21 -56.5v-266h48v-15h-159v15h38v37q-18 14 -33 19.5t-27 5.5t-20.5 -3t-14.5 -7t-18 -14t-29 -16t-39.5 -4.5t-50.5 21.5q-31 22 -44 53t-16.5 59.5t-1 49l2.5 20.5q31 -77 55.5 -110t43.5 -40.5t33.5 0.5t25.5 12q25 11 45.5 11.5
t37.5 -5t29.5 -15t20.5 -18.5v123q-20 -17 -39 -29.5t-34 -20.5q-18 -10 -34 -17q-5 2 -20.5 13t-32 23t-29.5 22l-13 10v367zM298 456q0 -2 5.5 -7t-3.5 -17q-11 11 -28 20t-34 14q-20 6 -42 11l-10 -10q-7 -8 -21 -22.5t-38 -42.5q-29 -31 -26 -61t18 -55q18 -29 49 -56
q1 0 -6 4q-6 3 -20 9.5t-40 19.5q-51 24 -66.5 51.5t-9 56t29.5 55.5t49 49t48.5 37.5t29.5 21.5q18 -6 38 -18.5t37 -25.5t28.5 -23t11.5 -11z" />
    <glyph glyph-name="u09A3_u09CD_u09A3" horiz-adv-x="451" 
d="M349 -66h24v-17h-119v17h26l1 624h185v-50h-117v-574zM293 445q0 -2 5 -12t-4 -22q-11 11 -27.5 22.5t-32.5 20.5q-18 11 -39 20q-5 3 -15 -2q-8 -5 -23.5 -17.5t-39.5 -40.5q-29 -31 -25.5 -65t19.5 -63q18 -34 52 -67q-2 -3 -9 0q-7 2 -20 9t-37 24q-52 37 -68.5 69.5
t-9.5 61t30 51.5t49.5 41t49.5 30t30 18q18 -6 38 -18.5t37 -25.5t28.5 -23t11.5 -11zM295 52q-14 24 -33.5 46t-41 34t-43.5 10.5t-42 -24.5q-23 -26 -28.5 -48t0 -42.5t19.5 -42t29 -46.5q-31 13 -55.5 34.5t-39.5 45.5t-18.5 47.5t7.5 41.5q29 38 58 52.5t56 13.5t50 -13
t40 -26t27 -25.5l10 -11.5z" />
    <glyph glyph-name="u09A3_u09CD_u09AE" horiz-adv-x="607" 
d="M278 155v268q-12 10 -28.5 19.5t-31.5 17.5q-18 9 -35 17q-1 0 -8 -7q-6 -6 -19 -20.5t-37 -42.5q-15 -15 -21 -32t-6 -34.5t5 -34.5t12 -32q17 -36 47 -73q-3 -5 -11 -3q-7 2 -19.5 9t-35.5 27q-46 39 -59.5 74.5t-6.5 65.5t29 55t47 44t46.5 31.5t28.5 18.5
q13 -4 27.5 -12t28.5 -18t26.5 -19.5t20.5 -16.5v101h185v-50h-117v-323zM320 1q-42 23 -60.5 54.5t-15.5 62.5t26 55t64 32q15 3 33 4.5t36.5 -1t36 -9.5t31.5 -20v329h-168v50h357v-50h-116v-493h48v-15h-159v15h38v76q-3 8 -10.5 21t-19 25t-26.5 20.5t-32 8.5
q-31 -1 -48.5 -12.5t-25 -28t-8 -36.5t2.5 -37.5t8 -31.5t8 -19z" />
    <glyph glyph-name="u09A3_u09F0_u09CD" horiz-adv-x="510" 
d="M354 53q-18 14 -33 19.5t-27 5.5t-20.5 -3t-14.5 -7t-23.5 -13.5t-42.5 -15t-54.5 -2t-59.5 26.5q-30 22 -44 51.5t-18.5 56t-3 44.5l1.5 18q31 -77 63 -109.5t60 -39.5t50 1.5t33 12.5q25 11 45.5 11.5t37.5 -5t29.5 -15t20.5 -18.5v350q-18 14 -44.5 30t-58.5 29
q-58 -56 -76.5 -106t-13 -94t25.5 -82.5t40 -70.5q-65 40 -98 80.5t-42 78t1 72t30 62.5q16 23 36 41t38 31t32 20.5t17 10.5q7 0 22 -8t32 -19t33 -23t26 -20v104h181v-50h-108v-492h48v-15h-159v15h38v37z" />
    <glyph glyph-name="u09A3_u09AC_u09CD" horiz-adv-x="433" 
d="M366 -71q-25 9 -51 19q-22 8 -47 18.5t-45 20.5q-22 11 -44.5 26.5t-39.5 35t-26 42t-4 47.5q5 28 31 42t57 19t59.5 4.5t37.5 -0.5v219q-18 14 -44.5 30t-58.5 29q-43 -34 -66 -60.5t-30.5 -49t-3 -42t15 -38t25.5 -37.5t28 -40q-65 40 -98 69.5t-42 54.5t1.5 47.5
t33.5 48.5q18 21 37 37t34.5 27t27 17t14.5 9q7 0 24 -8t36.5 -19t37.5 -23t28 -20v104h181v-50h-109v-579zM197 175q-24 -11 -32.5 -24.5t-6.5 -27.5t13 -28.5t26 -27.5q35 -31 97 -63v171h-97z" />
    <glyph glyph-name="u09A4_u09CD_u09A4" horiz-adv-x="569" 
d="M-19 558h613v-50h-151q14 -11 23 -22t13 -16q6 -9 10.5 -32t-2.5 -55t-31.5 -69t-76.5 -73q21 6 42.5 12.5t41.5 7.5t36.5 -7.5t27.5 -32.5q10 -24 4.5 -60t-29.5 -71t-68 -62t-111 -33q-33 -2 -72 13t-77.5 56.5t-75 114.5t-65.5 186q-1 0 14.5 3t34.5 6q22 4 49 9
q7 -102 30 -182q10 -34 24 -67t33 -59t44.5 -42t57.5 -17q25 0 50.5 15t45 39t30 55t6.5 63q-5 32 -23.5 37t-39.5 -1q-25 -7 -54 -27q39 68 58 125q8 24 12.5 49t2 46.5t-13.5 39t-33 26.5q-28 11 -50.5 -3.5t-37 -40.5t-20 -55t0.5 -46q19 -50 20 -50l-12 8.5t-27 23.5
t-28 36t-16 45t9 51t47 54l2 2h-268v50z" />
    <glyph glyph-name="u09A4_u09CD_u09A4_u09AC_u09CD" horiz-adv-x="563" 
d="M-19 558h613v-50h-151q14 -11 23 -22t13 -16q6 -9 10.5 -32t-2.5 -55t-31.5 -69t-76.5 -73q21 6 42.5 12.5t41.5 7.5t36.5 -7.5t27.5 -32.5q10 -24 4.5 -60t-29.5 -71t-68 -62t-111 -33q-33 -2 -72 13t-77.5 56.5t-75 114.5t-65.5 186q-1 0 14.5 3t34.5 6q22 4 49 9
q7 -102 30 -182q10 -34 24 -67t33 -59t44.5 -42t57.5 -17q25 0 50.5 15t45 39t30 55t6.5 63q-5 32 -23.5 37t-39.5 -1q-25 -7 -54 -27q39 68 58 125q8 24 12.5 49t2 46.5t-13.5 39t-33 26.5q-28 11 -50.5 -3.5t-37 -40.5t-20 -55t0.5 -46q19 -50 20 -50l-12 8.5t-27 23.5
t-28 36t-16 45t9 51t47 54l2 2h-268v50zM433 -261q-19 7 -39 15q-17 7 -39 16t-42 19q-22 11 -44.5 26.5t-39.5 35t-26 42t-4 47.5q5 28 31 42t57 19t59.5 4.5t37.5 -0.5v36l24 -2q5 -1 9 -1t8 -1t8 -1v-297zM287 -23q-24 -11 -32.5 -24.5t-6.5 -27.5t13 -28.5t26 -27.5
q35 -31 97 -63v171h-97z" />
    <glyph glyph-name="u09A4_u09CD_u09A5" horiz-adv-x="517" 
d="M113 319q-83 74 -83 124q0 33 24 72q28 44 64 43q37 1 61 -65q3 -10 11 -32q15 43 80 94q40 -60 40 -103q0 -69 -44 -114q-34 -33 -94.5 -63.5t-69.5 -58.5q0 -14 54 -59t207 -94v495h173v-50h-97v-496q-151 41 -230 78q-111 52 -175 134q52 27 151 90q82 59 82 127
q0 19 -24 19q-25 0 -35.5 -17.5t-20.5 -35.5q-2 23 -16 42q-17 22 -44 22q-20 0 -31 -29q-8 -21 -8 -45q0 -23 25 -78z" />
    <glyph glyph-name="u09A4_u09CD_u09A8" horiz-adv-x="546" 
d="M-12 558h573v-50h-146q13 -6 27 -16t25.5 -25.5t19.5 -37.5t10 -53q2 -16 0 -49.5t-18.5 -69t-53 -63t-105.5 -31.5t-114 16t-77.5 57t-58 88t-53.5 109q0 1 17 2.5t37 3.5q24 2 54 5q-6 -71 11 -125q7 -23 20 -44t33.5 -36.5t50 -23.5t70.5 -3q18 0 40 7t40.5 25.5
t31 50t10.5 80.5q-5 61 -26 90.5t-64 23.5q-21 -3 -39 -20t-28.5 -42.5t-10.5 -57t14 -63.5l4 -7l3 -3l-9.5 4t-23 13t-27.5 22t-22.5 30t-8.5 38t16 46q14 22 29 36.5t30 22.5h-281v50zM288 -32q0 -1 -12.5 2t-30.5 10.5t-36.5 19t-31.5 27.5t-15.5 37t12.5 47
q10 16 34 25.5t54.5 9.5t64 -10.5t61.5 -33.5v105l70 56v-309h48v-15h-156v15h38v103q-10 13 -22 25.5t-26 20t-29.5 10t-31.5 -3.5q-30 -11 -41 -26t-10 -30t10.5 -30t20.5 -27t20 -19.5t9 -8.5z" />
    <glyph glyph-name="u09A4_u09CD_u09AE" horiz-adv-x="735" 
d="M-12 558h573v-50h-146q13 -6 27 -16t25.5 -25.5t19.5 -37.5t10 -53q2 -16 0 -49.5t-18.5 -69t-53 -63t-105.5 -31.5t-114 16t-77.5 57t-58 88t-53.5 109q0 1 17 2.5t37 3.5q24 2 54 5q-6 -71 11 -125q7 -23 20 -44t33.5 -36.5t50 -23.5t70.5 -3q18 0 40 7t40.5 25.5
t31 50t10.5 80.5q-5 61 -26 90.5t-64 23.5q-21 -3 -39 -20t-28.5 -42.5t-10.5 -57t14 -63.5l4 -7l3 -3l-9.5 4t-23 13t-27.5 22t-22.5 30t-8.5 38t16 46q14 22 29 36.5t30 22.5h-281v50zM397 211q8 -5 19 -12.5t23 -17.5q15 3 33 3t36.5 -4t36 -12t31.5 -21v361h-338v50h527
v-50h-116v-493h48v-15h-159v15h38v56q-3 8 -10.5 21t-19 25t-26.5 20.5t-32 8.5q-31 -1 -48.5 -11t-25 -24.5t-8 -32t2.5 -33t8 -28t8 -17.5q-31 22 -43.5 43.5t-13 41t8.5 36t20 28.5q-9 8 -29 18t-33 25z" />
    <glyph glyph-name="u09A4_u09F0_u09CD" horiz-adv-x="542" 
d="M122 380q-14 -31 -10.5 -77t13.5 -86q7 -27 31 -43t53 -25t57 -12t44 -3q15 1 29 -3.5t27 -11.5t24.5 -15.5t19.5 -15.5v317q-5 24 -12 34.5t-13.5 13.5t-11 2t-4.5 0q-43 -17 -66.5 -38.5t-33 -44.5t-8.5 -46t7.5 -44.5t15.5 -39.5t14 -30q-69 65 -87.5 115t-7 85
t42 54.5t60.5 23.5q47 -9 80 -21.5t55 -24.5q26 -14 42 -29v-400h48v-15h-159v15h38v39q-17 22 -38 32.5t-41.5 14.5t-40 4t-33.5 1q-51 7 -88 24t-62.5 40t-41 49t-24 50t-12 44t-3.5 30q10 7 26.5 14.5t32.5 13t27 8.5t10 1zM-20 558h587v-50h-587v50z" />
    <glyph glyph-name="u09A4_u09F0_u09CD_u09C1" horiz-adv-x="696" 
d="M126 380q-14 -31 -10.5 -77t13.5 -86q7 -27 31 -43t53 -25t57 -12t44 -3q15 1 29 -3.5t27 -11.5t24.5 -15.5t19.5 -15.5v317q-5 24 -12 34.5t-13.5 13.5t-11 2t-4.5 0q-43 -17 -66.5 -38.5t-33 -44.5t-8.5 -46t7.5 -44.5t15.5 -39.5t14 -30q-69 65 -87.5 115t-7 85
t42 54.5t60.5 23.5q47 -9 80 -21.5t55 -24.5q26 -14 42 -29v-400h48v-15h-159v15h38v39q-17 22 -38 32.5t-41.5 14.5t-40 4t-33.5 1q-51 7 -88 24t-62.5 40t-41 49t-24 50t-12 44t-3.5 30q10 7 26.5 14.5t32.5 13t27 8.5t10 1zM-16 558h587v-50h-587v50zM485 558h230v-50
h-230v50zM482 281q49 -7 72 -7q45 0 45 59q0 40 -14 85q76 -75 76 -131q0 -24 -22 -49t-51 -25q-36 0 -106 28v40z" />
    <glyph glyph-name="u09A4_u09F0_u09CD_u09C2" horiz-adv-x="703" 
d="M122 380q-14 -31 -10.5 -77t13.5 -86q7 -27 31 -43t53 -25t57 -12t44 -3q15 1 29 -3.5t27 -11.5t24.5 -15.5t19.5 -15.5v317q-5 24 -12 34.5t-13.5 13.5t-11 2t-4.5 0q-43 -17 -66.5 -38.5t-33 -44.5t-8.5 -46t7.5 -44.5t15.5 -39.5t14 -30q-69 65 -87.5 115t-7 85
t42 54.5t60.5 23.5q47 -9 80 -21.5t55 -24.5q26 -14 42 -29v-400h48v-15h-159v15h38v39q-17 22 -38 32.5t-41.5 14.5t-40 4t-33.5 1q-51 7 -88 24t-62.5 40t-41 49t-24 50t-12 44t-3.5 30q10 7 26.5 14.5t32.5 13t27 8.5t10 1zM-20 558h587v-50h-587v50zM485 558h242v-50
h-242v50zM481 387h91l69 -28v-303l36 -27l-8 -14l-106 59v282h-82v31z" />
    <glyph glyph-name="u09A4_u09CD_u09B2" horiz-adv-x="542" 
d="M-12 558h576v-50h-149q13 -6 27 -16t25.5 -25.5t19.5 -37.5t10 -53q2 -16 0 -49.5t-18.5 -69t-53 -63t-105.5 -31.5t-114 16t-77.5 57t-58 88t-53.5 109q0 1 17 2.5t37 3.5q24 2 54 5q-6 -71 11 -125q7 -23 20 -44t33.5 -36.5t50 -23.5t70.5 -3q18 0 40 7t40.5 25.5
t31 50t10.5 80.5q-5 61 -26 90.5t-64 23.5q-21 -3 -39 -20t-28.5 -42.5t-10.5 -57t14 -63.5l4 -7l3 -3l-9.5 4t-23 13t-27.5 22t-22.5 30t-8.5 38t16 46q14 22 29 36.5t30 22.5h-281v50zM378 24q-18 45 -33 62t-27.5 16t-22.5 -15t-16.5 -30.5t-10 -30l-3.5 -13.5
q-4 13 -15 28.5t-24.5 27t-27.5 15.5t-23 -6q-9 -11 -7.5 -23t8.5 -24.5t19 -26.5t24 -27q-29 3 -52.5 23.5t-35 45.5t-7.5 49.5t31 36.5q26 11 45.5 0t32.5 -29q15 -21 26 -53q-3 17 0 33q2 14 8.5 28.5t22.5 24.5q12 7 25 2t25 -16t22 -25t16 -24v147h70v-240h48v-15h-156
v15h38v44z" />
    <glyph glyph-name="u09A4_u09AC_u09CD" horiz-adv-x="542" 
d="M-12 558h576v-50h-149q13 -6 27 -16t25.5 -25.5t19.5 -37.5t10 -53q1 -13 0.5 -39.5t-9.5 -56t-30.5 -57.5t-60.5 -44v-272q-19 7 -39 15q-17 7 -39 16t-42 19q-22 11 -44.5 26.5t-39.5 35t-26 42t-4 47.5q5 27 28.5 40.5t52.5 19.5q-46 9 -78 33t-57 59.5t-46.5 79.5
t-45.5 93q0 1 17 2.5t37 3.5q24 2 54 5q-6 -71 11 -125q7 -23 20 -44t33.5 -36.5t50 -23.5t70.5 -3q18 0 40 7t40.5 25.5t31 50t10.5 80.5q-5 61 -26 90.5t-64 23.5q-21 -3 -39 -20t-28.5 -42.5t-10.5 -57t14 -63.5l4 -7l3 -3l-9.5 4t-23 13t-27.5 22t-22.5 30t-8.5 38
t16 46q14 22 29 36.5t30 22.5h-281v50zM251 145q-24 -11 -32.5 -24.5t-6.5 -27.5t13 -28.5t26 -27.5q35 -31 97 -63v171h-97z" />
    <glyph glyph-name="u09A5_u09CD_u09F0" horiz-adv-x="500" 
d="M355 -37q-18 14 -33 19.5t-27 5.5t-20.5 -3t-14.5 -7t-23.5 -13.5t-42.5 -15t-54.5 -2t-59.5 26.5q-30 22 -44 51.5t-18.5 56t-3 44.5l1.5 18q31 -77 63 -109.5t60 -39.5t50 1.5t33 12.5q25 11 45.5 11.5t37.5 -5t29.5 -15t20.5 -18.5v48q-38 10 -87 27.5t-94 41.5
t-80 55t-45 70q18 8 46.5 22t57.5 35t51.5 48.5t28.5 63.5q5 35 -0.5 61t-15.5 42.5t-22 24.5t-19 7q-30 -5 -46 -33.5t-21.5 -65t-1.5 -72.5t14 -55q0 -1 -17 12t-35 37t-27.5 58t6.5 75q8 13 20.5 30t32.5 29t49.5 15.5t71.5 -11.5q13 -7 28 -18.5t27.5 -26.5t20.5 -34
t7 -42q0 -7 -4 -27t-22.5 -48t-58 -62t-109.5 -69q0 -3 6 -20t30.5 -41t73.5 -51.5t136 -52.5v503h165v-50h-94v-582h48v-15h-159v15h38v37z" />
    <glyph glyph-name="u09A5_u09F0_u09CD_u09C1" horiz-adv-x="641" 
d="M428 558h230v-50h-230v50zM425 281q49 -7 72 -7q45 0 45 59q0 40 -14 85q76 -75 76 -131q0 -24 -22 -49t-51 -25q-36 0 -106 28v40zM355 -37q-18 14 -33 19.5t-27 5.5t-20.5 -3t-14.5 -7t-23.5 -13.5t-42.5 -15t-54.5 -2t-59.5 26.5q-30 22 -44 51.5t-18.5 56t-3 44.5
l1.5 18q31 -77 63 -109.5t60 -39.5t50 1.5t33 12.5q25 11 45.5 11.5t37.5 -5t29.5 -15t20.5 -18.5v48q-38 10 -87 27.5t-94 41.5t-80 55t-45 70q18 8 46.5 22t57.5 35t51.5 48.5t28.5 63.5q5 35 -0.5 61t-15.5 42.5t-22 24.5t-19 7q-30 -5 -46 -33.5t-21.5 -65t-1.5 -72.5
t14 -55q0 -1 -17 12t-35 37t-27.5 58t6.5 75q8 13 20.5 30t32.5 29t49.5 15.5t71.5 -11.5q13 -7 28 -18.5t27.5 -26.5t20.5 -34t7 -42q0 -7 -4 -27t-22.5 -48t-58 -62t-109.5 -69q0 -3 6 -20t30.5 -41t73.5 -51.5t136 -52.5v503h165v-50h-94v-582h48v-15h-159v15h38v37z" />
    <glyph glyph-name="u09A5_u09F0_u09CD_u09C2" horiz-adv-x="647" 
d="M428 558h242v-50h-242v50zM424 387h91l69 -28v-303l36 -27l-8 -14l-106 59v282h-82v31zM355 -37q-18 14 -33 19.5t-27 5.5t-20.5 -3t-14.5 -7t-23.5 -13.5t-42.5 -15t-54.5 -2t-59.5 26.5q-30 22 -44 51.5t-18.5 56t-3 44.5l1.5 18q31 -77 63 -109.5t60 -39.5t50 1.5
t33 12.5q25 11 45.5 11.5t37.5 -5t29.5 -15t20.5 -18.5v48q-38 10 -87 27.5t-94 41.5t-80 55t-45 70q18 8 46.5 22t57.5 35t51.5 48.5t28.5 63.5q5 35 -0.5 61t-15.5 42.5t-22 24.5t-19 7q-30 -5 -46 -33.5t-21.5 -65t-1.5 -72.5t14 -55q0 -1 -17 12t-35 37t-27.5 58t6.5 75
q8 13 20.5 30t32.5 29t49.5 15.5t71.5 -11.5q13 -7 28 -18.5t27.5 -26.5t20.5 -34t7 -42q0 -7 -4 -27t-22.5 -48t-58 -62t-109.5 -69q0 -3 6 -20t30.5 -41t73.5 -51.5t136 -52.5v503h165v-50h-94v-582h48v-15h-159v15h38v37z" />
    <glyph glyph-name="u09A5_u09AC_u09CD" horiz-adv-x="452" 
d="M95 302q0 -1 -17 12t-35 37t-27.5 58t6.5 75q8 13 20.5 30t32.5 29t49.5 15.5t71.5 -11.5q13 -7 28 -18.5t27.5 -26.5t20.5 -34t7 -42q0 -7 -4 -27t-22.5 -48t-58 -62t-109.5 -69q0 -3 6 -20t30.5 -41t73.5 -51.5t136 -52.5v1v502h162v-50h-91v-495q-96 20 -175 51
q-34 13 -67 29t-61 36t-48.5 44t-27.5 51q18 8 46.5 22t57.5 35t51.5 48.5t28.5 63.5q5 35 -0.5 61t-15.5 42.5t-22 24.5t-19 7q-30 -5 -46 -33.5t-21.5 -65t-1.5 -72.5t14 -55zM402 -213q-19 7 -39 15q-17 7 -39 16t-42 19q-22 11 -44.5 26.5t-39.5 35t-26 42t-4 47.5
q5 28 31 42t57 19t59.5 4.5t37.5 -0.5v36l24 -2q5 -1 9 -1t8 -1t8 -1v-297zM256 25q-24 -11 -32.5 -24.5t-6.5 -27.5t13 -28.5t26 -27.5q35 -31 97 -63v171h-97z" />
    <glyph glyph-name="u09A6_u09CD_u0997" horiz-adv-x="853" 
d="M692 405q-7 16 -19 36q-17 29 -24 37q-18 22 -58 38.5t-73 16.5q-53 0 -91.5 -37.5t-38.5 -80.5q0 -29 31 -37q66 37 117 37q42 0 68 -28t26 -63q0 -101 -201 -240q43 49 86 99q49 63 49 118q0 17 -8 33q-12 20 -32 20q-17 0 -59.5 -19.5t-64.5 -19.5h-3v-300h48v-15
h-159v15h38v337q-48 -47 -83.5 -93t-58.5 -84q-27 -44 -47 -84l-71 45l1 2v370h-82v50h342v-50h-192v-321q7 13 20 29.5t28.5 34.5t33.5 36l35 35q40 40 86 81v-1q8 52 52 100q59 65 127.5 64t111.5 -33t65 -73v98h179v-50h-106v-493h48v-15h-159v15h38v390z" />
    <glyph glyph-name="u09A6_u09CD_u0998" horiz-adv-x="770" 
d="M-22 558h533v-50h-383v-321q7 13 20 29.5t28.5 34.5t33.5 36l35 35q40 40 86 81l61 -49v-339h48v-15h-159v15h38v337q-48 -47 -83.5 -93t-58.5 -84q-27 -44 -47 -84l-71 45l1 2v370h-82v50zM266 558h541v-50h-99v-495q-77 32 -142.5 78t-113.5 88q-56 49 -103 102
q10 9 27 24q14 13 38 34t59 53q-34 -21 -56.5 -25.5t-36.5 -0.5t-22 12.5t-12 13.5q-12 16 -11 33t8 33t17.5 29t18.5 21h-113v50zM433 273q4 -15 15 -31t25.5 -31.5t32 -31t35.5 -29.5q41 -33 90 -64v422h-153q-13 -8 -29 -19.5t-29 -24t-21 -26.5t-5 -27q7 -13 17 -18
t21 -3.5t23 7.5t23 14q26 19 54 53q3 -5 7 -15q4 -8 9.5 -21.5t14.5 -33.5q-32 -24 -48 -38t-27 -25.5t-22.5 -24t-32.5 -33.5z" />
    <glyph glyph-name="u09A6_u09CD_u09A6" horiz-adv-x="739" 
d="M754 508h-617v-222q47 55 99 98l107 84l64 -31q-5 -256 -5 -269q38 57 82.5 97.5t118.5 89.5l45 -51v-290h56v-13h-173v13h46v266q-46 -32 -97.5 -88t-82.5 -114l-74 46l1 277q-148 -131 -180 -207l-82 48v266h-73v50h765v-50z" />
    <glyph glyph-name="u09A6_u09CD_u09A6_u09F0_u09CD" horiz-adv-x="633" 
d="M487 -61v8h32v32q-36 34 -77 34q-14 0 -61.5 -23t-84.5 -24q-85 -1 -169 58q-92 65 -93 176l9 -18q33 -72 97 -117q69 -49 147 -49q15 0 35 10q29 13 33 14q42 13 67.5 16.5t45.5 -7.5l51 -42v273l-91 -94q-45 -50 -73 -108l-68 46v277l-98 -99q-44 -48 -65 -108l-74 48
v266h-68v50h666v-50h-531v-222q44 68 188 182l53 -27l1 -273q46 79 184 187l38 -51v-358h38v-7h-132z" />
    <glyph glyph-name="u09A6_u09CD_u09A6_u09AC_u09CD" horiz-adv-x="538" 
d="M312 -36q-12 20 -12 40q0 56 61 73l81 23v210q-62 -76 -79 -100q-37 -53 -62 -114l-58 46l1 260q-41 -48 -81 -96q-42 -52 -59 -113l-64 49v266h-57v50h574v-50h-459v-222q43 63 161 185l40 -28q1 -33 4 -91q2 -31 2 -155q34 66 74.5 110t82.5 89l35 -52v-513l-102 56
q-61 36 -83 77zM460 43q-50 0 -67 -6q-33 -11 -33 -53q0 -25 19.5 -40.5t41.5 -26.5t39 -17v143z" />
    <glyph glyph-name="u09A6_u09CD_u09A7" horiz-adv-x="537" 
d="M553 508h-412v-181q52 65 166 120l57 -45v-135l40 -3l79 -65v-164l33 -20l-8 -12l-93 53l2 178h-53v-250q-57 30 -166 96q-89 53 -89 121q3 48 79 59l102 4l-1 123q-83 -64 -169 -139q-53 44 -53 69v191h-84l-1 50h571v-50zM240 237q-32 0 -48 -19t-16 -45q0 -31 22 -54
q13 -14 38 -29t54 -35l2 182h-52z" />
    <glyph glyph-name="u09A6_u09CD_u09A7_u09AC_u09CD" horiz-adv-x="500" 
d="M553 508h-412v-181q52 65 166 120l57 -45v-135l40 -3l79 -65v-164l33 -20l-8 -12l-93 53l2 178h-53v-250q-57 30 -166 96q-89 53 -89 121q3 48 79 59l102 4l-1 123q-83 -64 -169 -139q-53 44 -53 69v191h-84l-1 50h571v-50zM240 237q-32 0 -48 -19t-16 -45q0 -31 22 -54
q13 -14 38 -29t54 -35l2 182h-52zM364 -225q-19 7 -39 15q-17 7 -39 16t-42 19q-22 11 -44.5 26.5t-39.5 35t-26 42t-4 47.5q5 28 31 42t57 19t59.5 4.5t37.5 -0.5v36l24 -2q5 -1 9 -1t8 -1t8 -1v-297zM218 13q-24 -11 -32.5 -24.5t-6.5 -27.5t13 -28.5t26 -27.5
q35 -31 97 -63v171h-97z" />
    <glyph glyph-name="u09A6_u09CD_u09A8" horiz-adv-x="459" 
d="M219 -8q0 -1 -12.5 2t-30.5 10.5t-36.5 19t-31.5 27.5t-15.5 37t12.5 47q10 16 34 25.5t54.5 9.5t64 -10.5t61.5 -33.5v274q-48 -47 -82 -87.5t-56 -69.5q-26 -35 -42 -63l-79 50v278h-82v50h498v-50h-348v-251q7 13 20 29.5t28.5 34.5t33.5 36l35 35q40 40 86 81l61 -49
v-446h48v-15h-159v15h38v103q-10 13 -22 25.5t-26 20t-29.5 10t-31.5 -3.5q-30 -11 -41 -26t-10 -30t10.5 -30t20.5 -27t20 -19.5t9 -8.5z" />
    <glyph glyph-name="u09A6_u09CD_u09AD" horiz-adv-x="461" 
d="M327 135v285q-48 -47 -77 -75.5t-45 -43.5q-18 -18 -26 -25l-79 50v182h-120v50h498v-50h-310v-155q17 8 44 30t52 45q29 27 60 59l65 -63l-1 -254zM266 228q-1 2 -2 2.5t-5 4.5q-11 5 -17 -7.5t-8.5 -30t-3 -33l-0.5 -15.5q11 -19 35 -17t50 13.5t49.5 25.5t32.5 19
q19 3 26 -4t15 -18q-1 -3 -5.5 -18.5t-14 -37t-24.5 -45.5t-36.5 -44t-49.5 -32.5t-64 -10.5q-32 1 -59.5 10.5t-50 24.5t-40.5 34t-32 39q-33 47 -53 105l80 34q12 -58 30 -105q8 -20 18 -39.5t23 -35t28 -26t33 -12.5q36 -4 62.5 10.5t44.5 35.5t27.5 42.5t11.5 31.5
q-23 -20 -44.5 -26t-53.5 -11q-41 -2 -63.5 7.5t-33.5 20.5q-13 13 -17 31v19q0 9 -0.5 22t0.5 30q0 16 9 27t20.5 17t23.5 7.5t18 -0.5q22 -8 35 -12.5t19 -8.5q7 -4 9 -7q-6 -5 -11 -9t-8.5 -6.5t-3.5 -1.5z" />
    <glyph glyph-name="u09A6_u09CD_u09AD_u09F0_u09CD" horiz-adv-x="492" 
d="M353 135v285q-48 -47 -81.5 -78t-55.5 -51q-26 -23 -41 -36l-67 71v182h-127v50h535v-50h-340v-155q17 8 44.5 28t53.5 41q30 25 63 54l87 -52l-1 -301zM294 179q-4 -3 -8 -7q-3 -3 -6 -5.5t-4 -3.5v3q0 3 -2 5q-3 12 -9 17t-12.5 6t-13 -1t-9.5 -4t-9.5 -8.5t-10 -18
t-1 -26.5t16.5 -34q9 -13 19 -16.5t19.5 -1.5t19 9.5t17.5 16.5q19 22 37 59l85 -22v-262h47v-15h-159v15h38v39h-1q-16 -5 -37 -9q-18 -3 -43.5 -4.5t-57.5 0.5q-39 3 -68 14.5t-50 29t-34.5 39t-21.5 43.5q-19 51 -19 115q4 1 14 4q8 2 22.5 5t38.5 8q-9 -60 -1 -103
t29 -69.5t52 -38.5t67 -11q38 1 60 6t33 11q13 7 17 15v123q-27 -27 -46 -42.5t-35.5 -22t-33.5 -4.5t-38 11q-22 8 -33 20.5t-16 23.5q-6 13 -7 27v26q0 11 -0.5 22t0.5 19q1 15 9.5 23t27.5 22q9 7 20.5 8t21.5 -1q11 -2 23 -6z" />
    <glyph glyph-name="u09A6_u09CD_u09AE" horiz-adv-x="608" 
d="M293 247v173q-48 -47 -81.5 -78t-55.5 -51q-26 -23 -41 -36l-67 51v202h-67v50h535v-50h-400v-155q17 8 44.5 28t53.5 41q30 25 63 54l87 -52l-1 -189zM128 508v50h527v-50h-116v-485h48v-15h-159v15h38v104q-3 9 -13.5 24.5t-26 30t-35 25t-41.5 9.5q-40 -1 -63 -13
t-33 -29t-10.5 -37.5t4 -39.5t10.5 -34t10 -21q-39 23 -54 49.5t-15.5 51.5t9 45.5t20.5 32.5q25 27 54.5 39t61 10.5t63 -15t59.5 -37.5v290h-338z" />
    <glyph glyph-name="u09A6_u09F0_u09CD" horiz-adv-x="495" 
d="M348 -9q-18 14 -33 19.5t-27 5.5t-20.5 -3t-14.5 -7t-23.5 -13.5t-42.5 -15t-54.5 -2t-59.5 26.5q-30 22 -44 51.5t-18.5 56t-3 44.5l1.5 18q31 -77 63 -109.5t60 -39.5t50 1.5t33 12.5q25 11 45.5 11.5t37.5 -5t29.5 -15t20.5 -18.5l-1 342q-48 -47 -83.5 -93t-58.5 -84
q-27 -44 -47 -84l-71 45l1 2v370h-110v50h550v-50h-372v-321q7 13 20 30t28.5 35.5t33.5 37.5t35 37q40 42 86 87l61 -60v-400h48v-15h-158v15h38v37z" />
    <glyph glyph-name="u09A6_u09F0_u09CD_u09C1" horiz-adv-x="626" 
d="M348 -9q-18 14 -33 19.5t-27 5.5t-20.5 -3t-14.5 -7t-23.5 -13.5t-42.5 -15t-54.5 -2t-59.5 26.5q-30 22 -44 51.5t-18.5 56t-3 44.5l1.5 18q31 -77 63 -109.5t60 -39.5t50 1.5t33 12.5q25 11 45.5 11.5t37.5 -5t29.5 -15t20.5 -18.5l-1 342q-48 -47 -83.5 -93t-58.5 -84
q-27 -44 -47 -84l-71 45l1 2v370h-110v50h550v-50h-372v-321q7 13 20 30t28.5 35.5t33.5 37.5t35 37q40 42 86 87l61 -60v-400h48v-15h-158v15h38v37zM422 558h230v-50h-230v50zM419 281q49 -7 72 -7q45 0 45 59q0 40 -14 85q76 -75 76 -131q0 -24 -22 -49t-51 -25
q-36 0 -106 28v40z" />
    <glyph glyph-name="u09A6_u09F0_u09CD_u09C2" horiz-adv-x="643" 
d="M156 187q7 13 20 30t28.5 35.5t33.5 37.5t35 37q40 42 86 87l61 -60v-47h88l69 -28v-303l36 -27l-8 -14l-106 59v282h-79v-322h48v-15h-158v15h38v37q-18 14 -33 19.5t-27 5.5t-20.5 -3t-14.5 -7t-23.5 -13.5t-42.5 -15t-54.5 -2t-59.5 26.5q-30 22 -44 51.5t-18.5 56
t-3 44.5l1.5 18q31 -77 63 -109.5t60 -39.5t50 1.5t33 12.5q25 11 45.5 11.5t37.5 -5t29.5 -15t20.5 -18.5l-1 342q-48 -47 -83.5 -93t-58.5 -84q-27 -44 -47 -84l-71 45l1 2v370h-110v50h685v-50h-507v-321z" />
    <glyph glyph-name="u09A6_u09AC_u09CD" horiz-adv-x="450" 
d="M-22 558h505v-50h-355v-321q7 13 20 29.5t28.5 34.5t33.5 36l35 35q40 40 86 81l55 -49v-518l-19 14q-1 0 -12.5 4.5t-28.5 11.5t-37.5 16t-40.5 18q-22 11 -44.5 26.5t-39.5 35t-26 42t-4 47.5q5 28 31 42t57 19t59.5 4.5t37.5 -0.5v211q-48 -47 -83.5 -90t-58.5 -75
q-27 -39 -47 -71l-71 45l1 2v370h-82v50zM222 88q-24 -11 -32.5 -24.5t-6.5 -27.5t13 -28.5t26 -27.5q35 -31 97 -63v171h-97z" />
    <glyph glyph-name="u09A7_u09CD_u09A8" horiz-adv-x="425" 
d="M183 -36q0 -1 -12.5 2t-30.5 10.5t-36.5 19t-31.5 27.5t-15.5 37t12.5 47q10 16 34 25.5t54.5 9.5t64 -10.5t61.5 -33.5v45q-41 3 -90.5 13.5t-92 30.5t-68.5 50.5t-20 73.5q4 34 43.5 54.5t126.5 22.5q-54 20 -80.5 39.5t-35.5 37t-6.5 31.5t5.5 24q20 34 45 38.5
t48 -2.5q26 -9 53 -31q-3 -7 -5 -12l-4 -11l-4 2l-9 4.5t-9.5 4.5t-5.5 3t-4 2.5t-8.5 1t-12 -4.5t-13.5 -13q-13 -15 -7.5 -32t19.5 -33t31.5 -29t28.5 -20h35.5t38.5 -1v171h176v-50h-105v-558h48v-15h-156v15h38v103q-10 13 -22 25.5t-26 20t-29.5 10t-31.5 -3.5
q-30 -12 -41 -26.5t-10 -29.5t10.5 -30t20.5 -27t20 -19.5t9 -8.5zM190 368q-26 0 -44 -12t-29 -26t-15.5 -27t-4.5 -14q1 -41 29.5 -64t63.5 -33q40 -12 92 -15v191h-92z" />
    <glyph glyph-name="u09A7_u09CD_u09AE" horiz-adv-x="695" 
d="M202 502l-4 2l-9 4.5t-9.5 4.5t-5.5 3t-4 2.5t-8.5 1t-12 -4.5t-13.5 -13q-13 -15 -7.5 -32t19.5 -33t31.5 -29t28.5 -20h35.5t38.5 -1v171h440v-50h-116v-493h48v-15h-159v15h38v56q-3 8 -10.5 21t-19 25t-26.5 20.5t-32 8.5q-31 -1 -48.5 -11t-25 -24.5t-8 -32t2.5 -33
t8 -28t8 -17.5q-30 21 -43 42.5t-13.5 40.5t7.5 35t19 28q-13 -5 -45 -4.5t-72 6.5t-81.5 18.5t-75 32.5t-53 47.5t-13.5 64.5q4 34 43.5 54.5t126.5 22.5q-54 20 -80.5 39.5t-35.5 37t-6.5 31.5t5.5 24q20 34 45 38.5t48 -2.5q26 -9 53 -31q-3 -7 -5 -12zM353 212
q7 -5 18 -12.5t25 -18.5q15 3 33 3t36.5 -4t36 -12t31.5 -21v361h-180v-296zM190 368q-26 0 -44 -12t-29 -26t-15.5 -27t-4.5 -14q1 -41 29.5 -64t63.5 -33q40 -12 92 -15v191h-92zM354 149q-1 0 -1 1v-3q0 1 1 2z" />
    <glyph glyph-name="u09A7_u09F0_u09CD" horiz-adv-x="467" 
d="M316 5q-18 14 -33 19.5t-27 5.5t-20.5 -3t-14.5 -7t-17 -13t-27.5 -14t-39.5 -1t-53 27q-30 22 -44 51.5t-18.5 56t-3 44.5l1.5 18q31 -77 56.5 -110t45.5 -40.5t35 0.5t26 12q25 11 45.5 11.5t37.5 -5t29.5 -15t20.5 -18.5v54q-38 19 -86 46q-36 20 -71 38.5t-61.5 40
t-41 47.5t-8.5 61q4 40 43.5 57.5t126.5 19.5q-54 20 -80.5 39.5t-35.5 37t-6.5 31.5t5.5 24q20 34 45 38.5t48 -2.5q26 -9 53 -31q-3 -7 -5 -12l-4 -11l-4 2l-9 4.5t-9.5 4.5t-5.5 3t-4 2.5t-8.5 1t-12 -4.5t-13.5 -13q-13 -15 -7.5 -32t19.5 -33t31.5 -29t28.5 -20h35.5
t38.5 -1v171h176v-50h-105v-540h48v-15h-159v15h38v37zM226 368q-26 0 -45 -11t-31 -24t-18 -25t-6 -13q-5 -18 1 -35t19 -32.5t30.5 -29t36.5 -24.5q45 -26 105 -48v242h-92z" />
    <glyph glyph-name="u09A7_u09F0_u09CD_u09C1" horiz-adv-x="598" 
d="M316 5q-18 14 -33 19.5t-27 5.5t-20.5 -3t-14.5 -7t-17 -13t-27.5 -14t-39.5 -1t-53 27q-30 22 -44 51.5t-18.5 56t-3 44.5l1.5 18q31 -77 56.5 -110t45.5 -40.5t35 0.5t26 12q25 11 45.5 11.5t37.5 -5t29.5 -15t20.5 -18.5v54q-38 19 -86 46q-36 20 -71 38.5t-61.5 40
t-41 47.5t-8.5 61q4 40 43.5 57.5t126.5 19.5q-54 20 -80.5 39.5t-35.5 37t-6.5 31.5t5.5 24q20 34 45 38.5t48 -2.5q26 -9 53 -31q-3 -7 -5 -12l-4 -11l-4 2l-9 4.5t-9.5 4.5t-5.5 3t-4 2.5t-8.5 1t-12 -4.5t-13.5 -13q-13 -15 -7.5 -32t19.5 -33t31.5 -29t28.5 -20h35.5
t38.5 -1v171h176v-50h-105v-540h48v-15h-159v15h38v37zM226 368q-26 0 -45 -11t-31 -24t-18 -25t-6 -13q-5 -18 1 -35t19 -32.5t30.5 -29t36.5 -24.5q45 -26 105 -48v242h-92zM388 558h230v-50h-230v50zM385 281q49 -7 72 -7q45 0 45 59q0 40 -14 85q76 -75 76 -131
q0 -24 -22 -49t-51 -25q-36 0 -106 28v40z" />
    <glyph glyph-name="u09A7_u09F0_u09CD_u09C2" horiz-adv-x="611" 
d="M316 5q-18 14 -33 19.5t-27 5.5t-20.5 -3t-14.5 -7t-17 -13t-27.5 -14t-39.5 -1t-53 27q-30 22 -44 51.5t-18.5 56t-3 44.5l1.5 18q31 -77 56.5 -110t45.5 -40.5t35 0.5t26 12q25 11 45.5 11.5t37.5 -5t29.5 -15t20.5 -18.5v54q-38 19 -86 46q-36 20 -71 38.5t-61.5 40
t-41 47.5t-8.5 61q4 40 43.5 57.5t126.5 19.5q-54 20 -80.5 39.5t-35.5 37t-6.5 31.5t5.5 24q20 34 45 38.5t48 -2.5q26 -9 53 -31q-3 -7 -5 -12l-4 -11l-4 2l-9 4.5t-9.5 4.5t-5.5 3t-4 2.5t-8.5 1t-12 -4.5t-13.5 -13q-13 -15 -7.5 -32t19.5 -33t31.5 -29t28.5 -20h35.5
t38.5 -1v171h176v-50h-105v-540h48v-15h-159v15h38v37zM226 368q-26 0 -45 -11t-31 -24t-18 -25t-6 -13q-5 -18 1 -35t19 -32.5t30.5 -29t36.5 -24.5q45 -26 105 -48v242h-92zM390 558h242v-50h-242v50zM386 387h91l69 -28v-303l36 -27l-8 -14l-106 59v282h-82v31z" />
    <glyph glyph-name="u09A7_u09AC_u09CD" horiz-adv-x="684" 
d="M223 502l-4 2l-9 4.5t-9.5 4.5t-5.5 3t-4 2.5t-8.5 1t-12 -4.5t-13.5 -13q-13 -15 -7.5 -32t19.5 -33t31.5 -29t28.5 -20h35.5t38.5 -1v171h176v-50h-105v-493q-22 11 -48 23l-51 25.5t-60 31.5q-36 20 -71 43t-61.5 50t-41 57.5t-8.5 65.5q4 40 43.5 57.5t126.5 19.5
q-54 20 -80.5 39.5t-35.5 37t-6.5 31.5t5.5 24q20 34 45 38.5t48 -2.5q26 -9 53 -31q-3 -7 -5 -12zM211 368q-26 0 -44 -12t-28.5 -26t-15.5 -27t-5 -14q-8 -25 -4.5 -47t15 -41.5t28.5 -36.5t37 -31q46 -33 109 -58v293h-92zM611 20q-13 10 -30 21q-14 10 -34 23t-43 28
q-42 27 -83.5 57.5t-73 65t-47 71t-6.5 75.5q6 35 22 52.5t45 24.5t72.5 7h106.5v63h-252v50h424v-50h-101v-490v2zM452 422q-26 0 -42 -12t-25 -27t-12 -28t-3 -14q-2 -24 4.5 -46t18 -41.5t27 -36t32.5 -29.5q39 -32 88 -57v291h-88z" />
    <glyph glyph-name="u09A8_u09CD_u099F" horiz-adv-x="624" 
d="M-24 558h426v-50h-83v-287h-53v177q-18 23 -37.5 32.5t-37.5 8.5t-35 -10.5t-31 -24.5q-16 -17 -19.5 -35.5t2 -36t18.5 -33t29 -26.5q-33 -4 -59.5 11.5t-38.5 42t-6 58t38 59.5q23 20 48.5 25t49.5 1.5t44.5 -13t34.5 -18.5v69h-290v50zM197 558h305v52
q0 25 -19.5 37.5t-47 16.5t-58 1t-51.5 -9q-56 -15 -96 -20.5t-44 -6.5l143 51q89 25 138.5 21t72.5 -20q27 -18 32 -50v-73h93v-50h-320v-397q0 -23 4 -31.5t11 -15.5q1 -2 4 -3.5t5 -3.5q3 -3 6 -5q38 19 61 53.5t36 71.5t18.5 70.5t8.5 50.5q4 25 3 40.5t-6 23.5
t-12.5 9.5t-16.5 -0.5q-20 -5 -48 -30l-11 7l98 61q2 -1 9 -5l18 -9t33 -17q1 -60 -13 -111t-35.5 -91.5t-47 -71.5t-48.5 -51.5t-40 -30.5t-20 -10q-5 0 -20.5 11t-32.5 24q-19 15 -43 35v426h-69v50z" />
    <glyph glyph-name="u09A8_u09CD_u099F_u09F0_u09CD" horiz-adv-x="608" 
d="M-24 558h426v-50h-83v-287h-53v177q-18 23 -37.5 32.5t-37.5 8.5t-35 -10.5t-31 -24.5q-16 -17 -19.5 -35.5t2 -36t18.5 -33t29 -26.5q-33 -4 -59.5 11.5t-38.5 42t-6 58t38 59.5q23 20 48.5 25t49.5 1.5t44.5 -13t34.5 -18.5v69h-290v50zM159 558h340v52
q0 25 -19.5 37.5t-47 16.5t-58 1t-51.5 -9q-56 -15 -96 -20.5t-44 -6.5l143 51q89 25 138.5 21t72.5 -20q27 -18 32 -50v-73h64v-50h-289v-289q0 -9 8.5 -17.5t21.5 -18.5q60 40 90 81.5t35 75.5q5 38 -6.5 46.5t-28.5 2.5q-19 -7 -47 -28l-11 7l98 61l8 -4l18 -9t33 -17
q5 -35 -2 -65.5t-21 -56.5v-266h48v-15h-159v15h38v37q-18 14 -33 19.5t-27 5.5t-20.5 -3t-14.5 -7t-18 -14t-29 -16t-39.5 -4.5t-50.5 21.5q-31 22 -44 53t-16.5 59.5t-1 49l2.5 20.5q31 -77 55.5 -110t43.5 -40.5t33.5 0.5t25.5 12q25 11 45.5 11.5t37.5 -5t29.5 -15
t20.5 -18.5v123q-20 -17 -39 -29.5t-34 -20.5q-18 -10 -34 -17q-5 2 -20.5 13t-32 23t-29.5 22l-13 10v317h-106v50z" />
    <glyph glyph-name="u09A8_u09CD_u09A0" horiz-adv-x="441" 
d="M-25 558h134q-14 22 -27 42t-23 36q-11 18 -21 34q19 9 37 17q15 7 29 12t21 5q3 -21 9.5 -43t13.5 -42t14 -36t12 -25h290v-50h-273q11 -11 31.5 -29t43.5 -42t47.5 -51.5t44.5 -57.5t33 -60t14 -59q5 -16 2 -42t-13 -54t-28 -55t-43.5 -45.5t-58 -26t-71.5 4.5
q-23 10 -47.5 18t-46 28.5t-38.5 61t-24 114.5q2 24 11 44t27.5 28.5t48 2t72.5 -34.5l7.5 -4t20 -5t28.5 5t33 27q4 9 -2 31q-10 22 -26.5 41.5t-34.5 35.5t-36 28l-30 20q-15 9 -26 9t-17.5 -6t-10.5 -16.5t-5 -22.5q-4 -29 1 -71q-35 17 -53 37q-8 9 -13 18.5t-5 20.5
t7 23t24 25q25 19 51.5 17.5t52 -14.5t47 -32t36.5 -35q-17 26 -42.5 57t-60.5 66h-167v50zM373 145q12 49 1 86.5t-30.5 65t-40.5 46.5t-31 31q20 -29 26 -66t-2.5 -67t-30.5 -47t-58 -6q-42 25 -70.5 21.5t-43 -21.5t-15.5 -43.5t12 -44.5q40 -48 74.5 -67t64 -18.5t54 16
t42.5 36.5t30 43t18 35z" />
    <glyph glyph-name="u09A8_u09CD_u09A1" horiz-adv-x="550" 
d="M-24 558h597v-50h-229v-179q0 -13 4 -24q4 -9 14 -17t31 -7q14 0 22 11t13 24q5 15 8 35q1 0 13 -2.5t26 -4.5q17 -4 38 -7q-9 -99 -35 -174q-11 -32 -26 -61.5t-36 -51t-47.5 -32t-60.5 -4.5q-38 7 -71 26t-61.5 45.5t-52 59t-41.5 65.5l50 50q12 -38 28.5 -76.5
t38.5 -70t50 -52.5t63 -25q20 0 42.5 20t41 54t30.5 79t11 95q-10 -6 -26 -13t-34.5 -10.5t-37.5 -0.5t-36 18q-12 11 -19.5 18.5t-11.5 17.5t-5.5 25.5t-1.5 42.5v17q-18 22 -37.5 31.5t-37.5 8.5t-35 -10.5t-30 -24.5q-16 -17 -19.5 -35.5t2 -36t18.5 -33t29 -26.5
q-33 -4 -59.5 11.5t-38.5 42t-6 58t38 59.5q23 20 48 25t48.5 1t44.5 -13t35 -18v69h-289v50z" />
    <glyph glyph-name="u09A8_u09CD_u09A1_u09F0_u09CD" horiz-adv-x="558" 
d="M380 -61q-18 14 -33 19.5t-27 5.5t-20.5 -3t-14.5 -7t-23.5 -13.5t-42.5 -15t-54.5 -2t-59.5 26.5q-30 22 -44 51.5t-18.5 56t-3 44.5l1.5 18q31 -77 63 -109.5t60 -39.5t50 1.5t33 12.5q25 11 45.5 11.5t37.5 -5t29.5 -15t20.5 -18.5v65q-34 -16 -72 -9t-71 26
t-61.5 45.5t-52 59t-41.5 65.5l50 50q12 -38 28.5 -76.5t38.5 -70t50 -52.5t63 -25q20 0 42.5 20t41 54t30.5 79t11 95q-10 -6 -26 -13t-34.5 -10.5t-37.5 -0.5t-36 18q-12 11 -19.5 18.5t-11.5 17.5t-5.5 25.5t-1.5 42.5v17q-18 22 -37.5 31.5t-37.5 8.5t-35 -10.5
t-30 -24.5q-16 -17 -19.5 -35.5t2 -36t18.5 -33t29 -26.5q-33 -4 -59.5 11.5t-38.5 42t-6 58t38 59.5q23 20 48 25t48.5 1t44.5 -13t35 -18v69h-289v50h597v-50h-229v-179q0 -13 4 -24q4 -9 14 -17t31 -7q14 0 22 11t13 24q5 15 8 35q1 0 13 -2.5t26 -4.5q17 -4 38 -7
q-3 -41 -11 -82q-7 -35 -18.5 -76t-30.5 -77v-200h48v-15h-159v15h38v37z" />
    <glyph glyph-name="u09A8_u09CD_u09A1_u09F0_u09CD_u09C1" horiz-adv-x="510" 
d="M380 -61q-18 14 -33 19.5t-27 5.5t-20.5 -3t-14.5 -7t-23.5 -13.5t-42.5 -15t-54.5 -2t-59.5 26.5q-30 22 -44 51.5t-18.5 56t-3 44.5l1.5 18q31 -77 63 -109.5t60 -39.5t50 1.5t33 12.5q25 11 45.5 11.5t37.5 -5t29.5 -15t20.5 -18.5v65q-34 -16 -72 -9t-71 26
t-61.5 45.5t-52 59t-41.5 65.5l50 50q12 -38 28.5 -76.5t38.5 -70t50 -52.5t63 -25q20 0 42.5 20t41 54t30.5 79t11 95q-10 -6 -26 -13t-34.5 -10.5t-37.5 -0.5t-36 18q-12 11 -19.5 18.5t-11.5 17.5t-5.5 25.5t-1.5 42.5v17q-18 22 -37.5 31.5t-37.5 8.5t-35 -10.5
t-30 -24.5q-16 -17 -19.5 -35.5t2 -36t18.5 -33t29 -26.5q-33 -4 -59.5 11.5t-38.5 42t-6 58t38 59.5q23 20 48 25t48.5 1t44.5 -13t35 -18v69h-289v50h597v-50h-229v-179q0 -13 4 -24q4 -9 14 -17t31 -7q14 0 22 11t13 24q5 15 8 35q1 0 13 -2.5t26 -4.5q17 -4 38 -7
q-3 -41 -11 -82q-7 -35 -18.5 -76t-30.5 -77v-200h48v-15h-159v15h38v37zM439 -226q-78 -89 -174 -89q-49 0 -84 17q-42 20 -42 56q0 48 59 71q46 19 113 19q32 0 71 -9v108h68q-1 -77 0 -130q125 -29 319 -200q-203 117 -330 157zM315 -205q-125 0 -125 -48q0 -27 56 -27
q59 0 136 72q-40 3 -67 3z" />
    <glyph glyph-name="u09A8_u09CD_u09A4" horiz-adv-x="467" 
d="M-24 558h509v-50h-140v-242h-79v132q-18 23 -37.5 32.5t-37.5 8.5t-35 -10.5t-31 -24.5q-16 -17 -19.5 -35.5t2 -36t18.5 -33t29 -26.5q-33 -4 -59.5 11.5t-38.5 42t-6 58t38 59.5q23 20 48.5 25t49.5 1.5t44.5 -13t34.5 -18.5v69h-290v50zM174 233q28 46 75 61.5
t102 -9.5q12 -5 26 -15t26 -25t20.5 -35.5t10.5 -47.5q1 -14 -1.5 -43.5t-18.5 -60.5t-49.5 -55t-93.5 -27t-99 14t-67.5 49.5t-50.5 76.5t-47 95q0 1 15 2.5t32 3.5q20 2 47 4q-5 -62 10 -109q6 -20 17.5 -38.5t29.5 -32t43.5 -20.5t61.5 -3q15 0 34 6.5t35.5 22.5t27 43.5
t9.5 70.5q-5 53 -23 78.5t-55 20.5q-19 -3 -34.5 -17.5t-24.5 -37t-9 -50t12 -55.5l6 -8l-8.5 4t-20.5 12.5t-24.5 21t-20 28t-7.5 34.5t14 41z" />
    <glyph glyph-name="u09A8_u09CD_u09A4_u09C1" horiz-adv-x="509" 
d="M236 147l-9 4t-21 11.5t-23.5 18t-16.5 22.5t0 25.5t26 27.5q23 15 61 25t84 3q14 -2 30.5 -5.5t30.5 -10t23.5 -19t10.5 -32.5q1 -26 -18.5 -44t-65.5 -43q1 1 20 3.5t42 0.5t42 -10.5t20 -30.5t-18.5 -42.5t-48.5 -36t-64 -23.5t-66 -3q-20 3 -39.5 4t-38.5 5.5
t-38 14.5t-40.5 31.5t-45.5 56t-51 88.5l89 14q8 -55 28 -98q9 -18 21 -36t29.5 -31.5t39.5 -21.5t51 -8q24 3 45 9t37 16.5t24.5 25t7.5 33.5q-2 19 -13.5 24t-29 2t-37 -10.5t-37.5 -13.5q14 10 33.5 28.5t33 40t16 43t-17.5 36.5q-19 15 -37.5 15t-34 -6.5t-25.5 -15
t-12 -10.5t-7.5 -7t-8.5 -13t-1 -20.5t16 -29.5zM-15 558h554v-50h-185v-242h-79v132q-18 23 -37.5 32.5t-37.5 8.5t-35 -10.5t-31 -24.5q-16 -17 -19.5 -35.5t2 -36t18.5 -33t29 -26.5q-33 -4 -59.5 11.5t-38.5 42t-6 58t38 59.5q23 20 48.5 25t49.5 1.5t44.5 -13
t34.5 -18.5v69h-290v50z" />
    <glyph glyph-name="u09A8_u09CD_u09A4_u09F0_u09CD" horiz-adv-x="514" 
d="M-15 558h554v-50h-131v-269l-79 27v132q-18 23 -37.5 32.5t-37.5 8.5t-35 -10.5t-31 -24.5q-16 -17 -19.5 -35.5t2 -36t18.5 -33t29 -26.5q-33 -4 -59.5 11.5t-38.5 42t-6 58t38 59.5q23 20 48.5 25t49.5 1.5t44.5 -13t34.5 -18.5v69h-344v50zM107 194q-14 -19 -11 -43.5
t13 -50.5q7 -17 29.5 -27t50 -15.5t54 -7.5t41.5 -2q28 1 54 -10t41 -20v182q-5 15 -11.5 23t-12.5 12t-10.5 5t-4.5 2q-41 -11 -63 -24.5t-31 -28t-8 -29t7.5 -28t14.5 -25t13 -19.5q-44 27 -65.5 51t-26.5 43.5t3.5 34.5t24 26t35.5 17.5t39 8.5q48 5 79.5 -2.5
t50.5 -18.5q22 -13 35 -32v-252h46v-11h-151v11h36v25q-17 13 -36.5 19.5t-39 9t-38 3t-31.5 1.5q-73 6 -116 26.5t-65.5 44.5t-29.5 46t-8 32q9 4 25 8.5t31 8.5t26 5.5t10 0.5z" />
    <glyph glyph-name="u09A8_u09CD_u09A4_u09AC_u09CD" horiz-adv-x="467" 
d="M174 233q34 56 92 65v100q-18 23 -37.5 32.5t-37.5 8.5t-35 -10.5t-31 -24.5q-16 -17 -19.5 -35.5t2 -36t18.5 -33t29 -26.5q-33 -4 -59.5 11.5t-38.5 42t-6 58t38 59.5q23 20 48.5 25t49.5 1.5t44.5 -13t34.5 -18.5v69h-290v50h509v-50h-140v-221l6 -2q12 -5 26 -15
t26 -25t20.5 -35.5t10.5 -47.5q1 -12 -0.5 -34.5t-10 -47.5t-27.5 -49t-52 -39v-279q-19 7 -39 15q-17 7 -39 16t-42 19q-22 11 -44.5 26.5t-39.5 35t-26 42t-4 47.5q3 17 13.5 28.5t26 18.5t33.5 11t36 6q-44 6 -74.5 26t-53.5 51.5t-42.5 71t-41.5 84.5q0 1 15 2.5t32 3.5
q20 2 47 4q-5 -62 10 -109q6 -20 17.5 -38.5t29.5 -32t43.5 -20.5t61.5 -3q15 0 34 6.5t35.5 22.5t27 43.5t9.5 70.5q-5 53 -23 78.5t-55 20.5q-19 -3 -34.5 -17.5t-24.5 -37t-9 -50t12 -55.5l6 -8l-8.5 4t-20.5 12.5t-24.5 21t-20 28t-7.5 34.5t14 41zM198 -49
q-24 -11 -32.5 -24.5t-6.5 -27.5t13 -28.5t26 -27.5q35 -31 97 -63v171h-97z" />
    <glyph glyph-name="u09A8_u09CD_u09A5" horiz-adv-x="483" 
d="M-24 558h539v-50h-170v-242h-79v132q-18 23 -37.5 32.5t-37.5 8.5t-35 -10.5t-31 -24.5q-16 -17 -19.5 -35.5t2 -36t18.5 -33t29 -26.5q-33 -4 -59.5 11.5t-38.5 42t-6 58t38 59.5q23 20 48.5 25t49.5 1.5t44.5 -13t34.5 -18.5v69h-290v50zM374 276q7 -3 17 -7.5t20 -12
t19.5 -18.5t14.5 -26q1 -5 3 -16t-1 -26t-14.5 -33t-36.5 -37t-67.5 -37.5t-108.5 -35.5l8 -20t31.5 -39.5t79 -60t152.5 -81.5q-24 0 -56.5 9.5t-68.5 25.5t-72.5 37.5t-69 45.5t-58 49.5t-38.5 49.5q24 6 65.5 16.5t81.5 27t69 39t29 54.5q0 16 -9 28.5t-22.5 21t-30 13
t-31.5 4.5l-32 -2t-28 -6.5t-19 -18.5t-4 -38q1 -5 4.5 -12.5t7.5 -15.5t9 -15.5t11 -11.5q1 0 -15.5 3.5t-36 14.5t-34 30.5t-9.5 50.5q6 17 23 28t38 22l18.5 4t45.5 6.5t58 1.5t57 -12z" />
    <glyph glyph-name="u09A8_u09CD_u09A5_u09F0_u09CD" horiz-adv-x="464" 
d="M353 -177q-18 14 -33 19.5t-27 5.5t-20.5 -3t-14.5 -7t-23.5 -13.5t-42.5 -15t-54.5 -2t-59.5 26.5q-30 22 -44 51.5t-18.5 56t-3 44.5l1.5 18q31 -77 63 -109.5t60 -39.5t50 1.5t33 12.5q25 11 45.5 11.5t37.5 -5t29.5 -15t20.5 -18.5v26q-35 16 -69.5 37t-65 44t-54 47
t-36.5 47q24 6 65.5 16.5t81.5 27t69 39t29 54.5q0 16 -9 28.5t-22.5 21t-30 13t-31.5 4.5l-32 -2t-28 -6.5t-19 -18.5t-4 -38q1 -5 4.5 -12.5t7.5 -15.5t9 -15.5t11 -11.5q1 0 -15.5 3.5t-36 14.5t-34 30.5t-9.5 50.5q6 17 23 28t38 22q0 -1 21 3.5t50 7.5v111
q-18 23 -37.5 32.5t-37.5 8.5t-35 -10.5t-31 -24.5q-16 -17 -19.5 -35.5t2 -36t18.5 -33t29 -26.5q-33 -4 -59.5 11.5t-38.5 42t-6 58t38 59.5q23 20 48.5 25t49.5 1.5t44.5 -13t34.5 -18.5v69h-290v50h539v-50h-170v-223q13 -3 29 -9q7 -3 17 -7.5t20 -12t19.5 -18.5
t14.5 -26q1 -5 3 -16t-1 -26t-14.5 -33t-36.5 -37t-67.5 -37.5t-108.5 -35.5l8 -20t31.5 -39.5t79 -60t152.5 -81.5q-14 0 -30.5 3.5t-34.5 8.5v-52h48v-15h-159v15h38v37z" />
    <glyph glyph-name="u09A8_u09CD_u09A6" horiz-adv-x="687" 
d="M-24 558h741v-50h-383v-321q7 13 20 29.5t28.5 34.5t33.5 36l35 35q40 40 86 81l61 -49v-339h48v-15h-159v15h38v337q-48 -47 -83.5 -93t-58.5 -84q-27 -44 -47 -84l-71 45l1 2v203q-18 23 -37.5 32.5t-37.5 8.5t-35 -10.5t-31 -24.5q-16 -17 -19.5 -35.5t2 -36t18.5 -33
t29 -26.5q-33 -4 -59.5 11.5t-38.5 42t-6 58t38 59.5q23 20 48.5 25t49.5 1.5t44.5 -13t34.5 -18.5v126h-290v50z" />
    <glyph glyph-name="u09A8_u09CD_u09A6_u09F0_u09CD" horiz-adv-x="684" 
d="M526 -9q-18 14 -33 19.5t-27 5.5t-20.5 -3t-14.5 -7t-23.5 -13.5t-42.5 -15t-54.5 -2t-59.5 26.5q-30 22 -44 51.5t-18.5 56t-3 44.5l1.5 18q31 -77 63 -109.5t60 -39.5t50 1.5t33 12.5q25 11 45.5 11.5t37.5 -5t29.5 -15t20.5 -18.5l-1 342q-48 -47 -83.5 -93t-58.5 -84
q-27 -44 -47 -84l-71 45l1 2v228q-18 23 -37.5 32.5t-37.5 8.5t-35 -10.5t-31 -24.5q-16 -17 -19.5 -35.5t2 -36t18.5 -33t29 -26.5q-33 -4 -59.5 11.5t-38.5 42t-6 58t38 59.5q23 20 48.5 25t49.5 1.5t44.5 -13t34.5 -18.5v101h-290v50h730v-50h-372v-321q7 13 20 30
t28.5 35.5t33.5 37.5t35 37q40 42 86 87l61 -60v-400h48v-15h-158v15h38v37z" />
    <glyph glyph-name="u09A8_u09CD_u09A6_u09AC_u09CD" horiz-adv-x="654" 
d="M-24 558h712v-50h-355v-321q7 13 20 29.5t28.5 34.5t33.5 36l35 35q40 40 86 81l55 -49v-518l-19 14q-1 0 -12.5 4.5t-28.5 11.5t-37.5 16t-40.5 18q-22 11 -44.5 26.5t-39.5 35t-26 42t-4 47.5q5 28 31 42t57 19t59.5 4.5t37.5 -0.5v211q-48 -47 -83.5 -90t-58.5 -75
q-27 -39 -47 -71l-71 45l1 2v229q-18 22 -37.5 31.5t-37.5 8.5t-35 -10.5t-30 -24.5q-16 -17 -19.5 -35.5t2 -36t18.5 -33t29 -26.5q-33 -4 -59.5 11.5t-38.5 42t-6 58t38 59.5q23 20 48 25t48.5 1t44.5 -13t35 -18v101h-289v50zM427 88q-24 -11 -32.5 -24.5t-6.5 -27.5
t13 -28.5t26 -27.5q35 -31 97 -63v171h-97z" />
    <glyph glyph-name="u09A8_u09CD_u09A7" horiz-adv-x="529" 
d="M85 320l-8 7t-18.5 18.5t-20.5 26t-13.5 30t2 31t26.5 27.5q28 16 53.5 17t50 -8.5t49 -27t51.5 -37.5v104h-268v50h561v-50h-222l-1 -200h73l69 -28v-303l36 -27l-8 -14l-106 59v282h-64v-302q-7 -1 -32 6.5t-58 22t-70 36.5t-68.5 48.5t-52.5 58t-23 66.5q3 25 13 45.5
t35.5 34t70 20t115.5 3.5v53q-16 15 -39.5 34t-48.5 31.5t-48.5 12.5t-39.5 -22q-11 -14 -11.5 -32.5t3 -34.5t8 -27zM257 283q-53 0 -82.5 -12.5t-44 -28.5t-17.5 -29.5t-3 -14.5q-3 -17 1.5 -33t14 -31t23 -28.5t28.5 -25.5q34 -27 80 -51v254z" />
    <glyph glyph-name="u09A8_u09CD_u09A7_u09AC_u09CD" horiz-adv-x="510" 
d="M85 320l-8 7t-18.5 18.5t-20.5 26t-13.5 30t2 31t26.5 27.5q28 16 53.5 17t50 -8.5t49 -27t51.5 -37.5v104h-268v50h561v-50h-222l-1 -200h73l69 -28v-303l36 -27l-8 -14l-106 59v282h-64v-302q-7 -1 -32 6.5t-58 22t-70 36.5t-68.5 48.5t-52.5 58t-23 66.5q3 25 13 45.5
t35.5 34t70 20t115.5 3.5v53q-16 15 -39.5 34t-48.5 31.5t-48.5 12.5t-39.5 -22q-11 -14 -11.5 -32.5t3 -34.5t8 -27zM257 283q-53 0 -82.5 -12.5t-44 -28.5t-17.5 -29.5t-3 -14.5q-3 -17 1.5 -33t14 -31t23 -28.5t28.5 -25.5q34 -27 80 -51v254zM327 -244q-19 7 -39 15
q-17 7 -39 16t-42 19q-22 11 -44.5 26.5t-39.5 35t-26 42t-4 47.5q5 28 31 42t57 19t59.5 4.5t37.5 -0.5v36l24 -2q5 -1 9 -1t8 -1t8 -1v-297zM181 -6q-24 -11 -32.5 -24.5t-6.5 -27.5t13 -28.5t26 -27.5q35 -31 97 -63v171h-97z" />
    <glyph glyph-name="u09A8_u09CD_u09A7_u09F0_u09CD" horiz-adv-x="585" 
d="M312 -63q-18 14 -33 19.5t-27 5.5t-20.5 -3t-14.5 -7l-18 -12t-29 -12t-41 1t-54 28q-30 22 -44 51.5t-18.5 56t-3 44.5l1.5 18q21 -51 41.5 -82t39.5 -46.5t36 -19.5t31.5 -1.5t25.5 8t19 8.5q25 11 41.5 9.5t28.5 -9t21 -18.5t17 -20v41q-33 13 -73 35t-74.5 49.5
t-58 61t-25.5 70.5q3 25 13 45.5t35.5 34t70 20t115.5 3.5v53q-16 15 -39.5 34t-48.5 31.5t-48.5 12.5t-39.5 -22q-11 -14 -11.5 -32.5t3 -34.5t8 -27l4.5 -11l-8 7t-18.5 18.5t-20.5 26t-13.5 30t2 31t26.5 27.5q28 16 53.5 17t50 -8.5t49 -27t51.5 -37.5v104h-332v50h625
v-50h-222l-1 -200h73l69 -28v-303l36 -27l-8 -14l-106 59v282h-64v-377h48v-15h-159v15h38v37zM315 283q-53 0 -82.5 -12.5t-44 -28.5t-17.5 -29.5t-3 -14.5q-3 -17 1.5 -33t14 -31t23 -28.5t28.5 -25.5q34 -27 80 -51v254z" />
    <glyph glyph-name="u09A8_u09CD_u09A8" horiz-adv-x="452" 
d="M290 383q-22 24 -44.5 33.5t-44 8.5t-41.5 -11t-36 -25q-19 -18 -23 -37.5t2.5 -37.5t22 -34t34.5 -28q-39 -5 -70 11.5t-45.5 43.5t-7 60.5t44.5 62.5q27 21 56.5 26.5t58 1.5t52.5 -14t41 -19v83h-304v50h500v-50h-123v-493h48v-15h-159v15h38v127q-22 24 -44.5 34
t-44 9t-41.5 -11t-36 -25q-19 -18 -23 -37.5t2.5 -38t22 -34.5t34.5 -28q-39 -4 -70 12.5t-45.5 43.5t-7 60.5t44.5 62.5q27 21 56.5 26t58 1.5t52.5 -13.5t41 -19v198v0z" />
    <glyph glyph-name="u09A8_u09CD_u09AE" horiz-adv-x="639" 
d="M-26 558h686v-50h-116v-493h48v-15h-159v15h38v56q-3 8 -10.5 21t-19 25t-26.5 20.5t-32 8.5q-31 -1 -48.5 -11t-25 -24.5t-8 -32t2.5 -33t8 -28t8 -17.5q-29 19 -40.5 41.5t-12 43.5t7 38t15.5 27q13 15 28 25q-6 6 -16 16.5t-19 24.5t-15 29.5t-4 30.5v122
q-18 23 -37.5 32.5t-37.5 8.5t-35 -10.5t-31 -24.5q-16 -17 -19.5 -35.5t2 -36t18.5 -33t29 -26.5q-33 -4 -59.5 11.5t-38.5 42t-6 58t38 59.5q23 20 48.5 25t49.5 1.5t44.5 -13t34.5 -18.5v69h-290v50zM343 195q2 -3 8 -7q29 7 60.5 -4t59.5 -37v361h-128v-313z" />
    <glyph glyph-name="u09A8_u09F0_u09CD" horiz-adv-x="513" 
d="M358 -4q-18 14 -33 19.5t-27 5.5t-20.5 -3t-14.5 -7t-23.5 -13.5t-42.5 -15t-54.5 -2t-59.5 26.5q-30 22 -44 51.5t-18.5 56t-3 44.5l1.5 18q31 -77 63 -109.5t60 -39.5t50 1.5t33 12.5q25 11 45.5 11.5t37.5 -5t29.5 -15t20.5 -18.5v321q-14 13 -35.5 28.5t-47.5 31.5
q-60 -11 -83.5 -40t-22.5 -70.5t19.5 -92.5t44.5 -105q-44 35 -70 68.5t-38.5 63.5t-15 56t2 47t12.5 35.5t15 22.5q36 39 70.5 48t63.5 2.5t51 -22.5t34 -28v127h-372v50h558v-50h-113v-549h48v-15h-159v15h38v37z" />
    <glyph glyph-name="u09A8_u09AC_u09CD" horiz-adv-x="385" 
d="M-24 558h426v-50h-69v-536l-19 6q-1 0 -12.5 4.5t-28.5 11.5t-37.5 16t-40.5 18q-22 11 -44.5 26.5t-39.5 35t-26 42t-4 47.5q5 28 31 42t57 19t59.5 4.5t37.5 -0.5v154q-18 23 -37.5 32.5t-37.5 8.5t-35 -10.5t-31 -24.5q-16 -17 -19.5 -35.5t2 -36t18.5 -33t29 -26.5
q-33 -4 -59.5 11.5t-38.5 42t-6 58t38 59.5q23 20 48.5 25t49.5 1.5t44.5 -13t34.5 -18.5v69h-290v50zM169 216q-24 -11 -32.5 -24.5t-6.5 -27.5t13 -28.5t26 -27.5q35 -31 97 -63v171h-97z" />
    <glyph glyph-name="u09A8_u09CD_u09B8" horiz-adv-x="569" 
d="M594 508h-94v-490h35v-15h-143v15h37v268l-60 46q-53 -43 -127 -167q-62 -100 -91 -100q-53 0 -110 43l2 34q33 -30 57 -30q34 0 110 128l1 1q-2 33 -16.5 49.5t-48.5 11.5q-20 -3 -34.5 -17.5t-24.5 -36t-15 -46.5t-6 -49q-15 22 -19.5 47t-2 47.5t11.5 40.5t21 28
q33 19 57.5 18t42.5 -12t29.5 -27t17.5 -27q15 35 15 56q0 50 -37 50q-18 0 -43 -12q-36 -18 -41 -20q-34 8 -47 20.5t-13 40.5q0 19 21 54q15 26 31 51h-123v50h607v-50zM427 508h-275q-12 -17 -34 -56q-6 -13 -6 -22q0 -19 28 -19q16 0 45 9.5t44 9.5q42 0 42 -71
q0 -18 -4 -50l93 74l67 -49v174z" />
    <glyph glyph-name="u09AA_u09CD_u099F" horiz-adv-x="749" 
d="M388 320l-32 16l-179 -141l-76 49l8 9l33 -13l61 51q3 11 3 22q-1 9 -5 18t-16 15q-24 11 -49 3.5t-45 -16.5q-10 -5 -25.5 -6.5t-27.5 7.5t-15.5 32t10.5 68q8 28 43 57.5t85 43t109.5 1.5t117.5 -67v89h236v52q0 25 -19.5 37.5t-47 16.5t-58 1t-51.5 -9
q-56 -15 -96 -20.5t-44 -6.5l143 51q89 25 138.5 21t72.5 -20q27 -18 32 -50v-73h93v-50h-320v-397q0 -23 4 -31.5t11 -15.5q1 -2 4 -3.5t5 -3.5q3 -3 6 -5q38 19 61 53.5t36 71.5t18.5 70.5t8.5 50.5q4 25 3 40.5t-6 23.5t-12.5 9.5t-16.5 -0.5q-20 -5 -48 -30l-11 7l98 61
q2 -1 9 -5l18 -9t33 -17q1 -60 -12.5 -111t-35.5 -91.5t-47.5 -71.5t-48.5 -51.5t-40 -30.5t-20 -10q-5 0 -20.5 11t-32.5 24q-19 15 -43 35v238zM328 384q10 -6 21 -11q9 -5 19.5 -10.5t19.5 -9.5v76q-12 11 -29 25t-39.5 26t-49 20t-56.5 7q-66 -8 -97.5 -25t-42.5 -34
q-13 -20 -8 -43q4 -7 11 -11q6 -4 16.5 -4.5t26.5 5.5q25 10 43 9t29.5 -8.5t17.5 -19t9 -23.5q1 -15 5.5 -22.5t9.5 -10.5q6 -4 14 -3q22 18 40 33z" />
    <glyph glyph-name="u09AA_u09CD_u09A4" horiz-adv-x="554" 
d="M356 336l-179 -141l-76 49l8 9l33 -13l61 51q3 11 3 22q-1 9 -5 18t-16 15q-24 11 -49 3.5t-45 -16.5q-10 -5 -25.5 -6.5t-27.5 7.5t-15.5 32t10.5 68q8 28 43 57.5t85 43t109.5 1.5t117.5 -67v89h201v-50h-122v-302q21 -14 40 -41.5t22 -69.5q1 -14 -1.5 -43.5
t-18.5 -60.5t-49.5 -55t-93.5 -27t-99 14t-67.5 49.5t-50.5 76.5t-47 95q0 1 15 2.5t32 3.5q20 2 47 4q-5 -62 10 -109q6 -20 17.5 -38.5t29.5 -32t43.5 -20.5t61.5 -3q15 0 34 6.5t35.5 22.5t27 43.5t9.5 70.5q-5 53 -23 78.5t-55 20.5q-19 -3 -34.5 -17.5t-24.5 -37
t-9 -50t12 -55.5l6 -8l-8.5 4t-20.5 12.5t-24.5 21t-20 28t-7.5 34.5t14 41q20 33 50.5 50.5t68.5 15.5v88zM328 384q10 -6 21 -11q9 -5 19.5 -10.5t19.5 -9.5v76q-12 11 -29 25t-39.5 26t-49 20t-56.5 7q-66 -8 -97.5 -25t-42.5 -34q-13 -20 -8 -43q4 -7 11 -11
q6 -4 16.5 -4.5t26.5 5.5q25 10 43 9t29.5 -8.5t17.5 -19t9 -23.5q1 -15 5.5 -22.5t9.5 -10.5q6 -4 14 -3q22 18 40 33z" />
    <glyph glyph-name="u09AA_u09CD_u09A4_u09C1" horiz-adv-x="551" 
d="M248 208q22 14 58.5 24t81.5 4v84l-32 16l-179 -141l-76 49l8 9l33 -13l61 51q3 11 3 22q-1 9 -5 18t-16 15q-24 11 -49 3.5t-45 -16.5q-10 -5 -25.5 -6.5t-27.5 7.5t-15.5 32t10.5 68q8 28 43 57.5t85 43t109.5 1.5t117.5 -67v89h186v-50h-107v-296q8 -8 14 -18t7 -25
q1 -26 -18 -44t-64 -43q6 2 25.5 4t40.5 -0.5t38 -11.5t18 -29q1 -22 -18.5 -43.5t-48.5 -38t-64 -25.5t-66 -4q-31 4 -59 7t-57 20.5t-62.5 58t-74.5 120.5l89 14q8 -55 28 -98q9 -18 21 -36t29.5 -31.5t39.5 -21.5t51 -8q24 3 45 9t37 16.5t24.5 25t7.5 33.5
q-2 19 -13.5 24t-29 2t-37 -10.5t-37.5 -13.5q14 10 33.5 28.5t33 40t16 43t-17.5 36.5q-19 15 -37.5 15t-34 -6.5t-25.5 -15t-12 -10.5t-7.5 -7t-8.5 -13t-1 -20.5t16 -29.5l4 -7l-9 4t-21 11.5t-23.5 18t-16.5 22.5t0 25.5t26 27.5zM328 384q10 -6 21 -11q9 -5 19.5 -10.5
t19.5 -9.5v76q-12 11 -29 25t-39.5 26t-49 20t-56.5 7q-66 -8 -97.5 -25t-42.5 -34q-13 -20 -8 -43q4 -7 11 -11q6 -4 16.5 -4.5t26.5 5.5q25 10 43 9t29.5 -8.5t17.5 -19t9 -23.5q1 -15 5.5 -22.5t9.5 -10.5q6 -4 14 -3q22 18 40 33z" />
    <glyph glyph-name="u09AA_u09CD_u09A4_u09F0_u09CD" horiz-adv-x="530" 
d="M513 -77v-11h-151v11h36v25q-17 13 -36.5 19.5t-39 9t-38 3t-31.5 1.5q-73 6 -116 26.5t-65.5 44.5t-29.5 46t-8 32q9 4 25 8.5t31 8.5t26 5.5t10 0.5q-14 -19 -11 -43.5t13 -50.5q7 -17 29.5 -27t50 -15.5t54 -7.5t41.5 -2q28 1 54 -10t41 -20v182q-5 15 -11.5 23
t-12.5 12t-10.5 5t-4.5 2q-41 -11 -63 -24.5t-31 -28t-8 -29t7.5 -28t14.5 -25t13 -19.5q-44 27 -65.5 51t-26.5 43.5t3.5 34.5t24 26t35.5 17.5t39 8.5q26 3 47.5 2t38.5 -6v96l-32 16l-179 -141l-76 49l8 9l33 -13l61 51q3 11 3 22q-1 9 -5 18t-16 15q-24 11 -49 3.5
t-45 -16.5q-10 -5 -25.5 -6.5t-27.5 7.5t-15.5 32t10.5 68q8 28 43 57.5t85 43t109.5 1.5t117.5 -67v89h186v-50h-107v-585h46zM328 384q10 -6 21 -11q9 -5 19.5 -10.5t19.5 -9.5v76q-12 11 -29 25t-39.5 26t-49 20t-56.5 7q-66 -8 -97.5 -25t-42.5 -34q-13 -20 -8 -43
q4 -7 11 -11q6 -4 16.5 -4.5t26.5 5.5q25 10 43 9t29.5 -8.5t17.5 -19t9 -23.5q1 -15 5.5 -22.5t9.5 -10.5q6 -4 14 -3q22 18 40 33z" />
    <glyph glyph-name="u09AA_u09CD_u09A8" horiz-adv-x="543" 
d="M515 9v-15h-165v15h38v103q-10 13 -22 25.5t-26 20t-29.5 10t-31.5 -3.5q-30 -11 -41 -26t-10 -30t10.5 -30t20.5 -27t20 -19.5t9 -8.5t-12.5 2t-30.5 10.5t-36.5 19t-31.5 27.5t-15.5 37t12.5 47q10 16 34 25.5t54.5 9.5t64 -10.5t61.5 -33.5v163l-32 16l-179 -141
l-76 49l8 9l33 -13l61 51q3 11 3 22q-1 9 -5 18t-16 15q-24 11 -49 3.5t-45 -16.5q-10 -5 -25.5 -6.5t-27.5 7.5t-15.5 32t10.5 68q8 28 43 57.5t85 43t109.5 1.5t117.5 -67v89h186v-50h-107v-499h48zM328 384q10 -6 21 -11q9 -5 19.5 -10.5t19.5 -9.5v76q-12 11 -29 25
t-39.5 26t-49 20t-56.5 7q-66 -8 -97.5 -25t-42.5 -34q-13 -20 -8 -43q4 -7 11 -11q6 -4 16.5 -4.5t26.5 5.5q25 10 43 9t29.5 -8.5t17.5 -19t9 -23.5q1 -15 5.5 -22.5t9.5 -10.5q6 -4 14 -3q22 18 40 33z" />
    <glyph glyph-name="u09AA_u09CD_u09AA" horiz-adv-x="508" 
d="M293 13h43v131l-21 10l-152 -112l-65 39l7 7l28 -10l52 40q3 8 3 17q0 7 -4 14.5t-14 12.5q-21 9 -42 3t-38 -13q-9 -4 -22.5 -4.5t-23.5 7t-13 26.5t9 55q5 22 33 48t70 38l-1 1l43 33q3 8 3 17q0 7 -4 14.5t-14 12.5q-21 9 -42 3t-38 -13q-9 -4 -22.5 -4.5t-23.5 7
t-13 26.5t9 55q5 22 33 47.5t69 38t92 3t102 -57.5v53h195v-50h-121v-495h70v-13h-187v13zM292 430q6 -4 14 -8l14 -7t16 -7v65q-11 9 -25.5 20.5t-32.5 21.5t-39 16t-44 5q-56 -6 -82.5 -21t-36.5 -30q-11 -18 -8 -38q4 -5 10 -9q5 -3 13.5 -3.5t22.5 4.5q22 8 37 7.5
t25 -6.5t15.5 -15.5t7.5 -18.5q1 -12 4.5 -18.5t8.5 -8.5q5 -3 12 -2l34 26q14 10 23 18q5 4 11 9zM292 192q6 -4 14 -8l14 -7t16 -7v65q-11 9 -25.5 20.5t-32.5 21.5t-39 16t-44 5q-56 -6 -82.5 -21t-36.5 -30q-11 -18 -8 -38q4 -5 10 -9q5 -3 13.5 -3.5t22.5 4.5
q22 8 37 7.5t25 -6.5t15.5 -15.5t7.5 -18.5q1 -12 4.5 -18.5t8.5 -8.5q5 -3 12 -2l34 26q14 10 23 18q5 4 11 9zM226 326q26 -5 54 -19t56 -40v115l-21 10z" />
    <glyph glyph-name="u09AA_u09CD_u09AE" horiz-adv-x="740" 
d="M388 321l-29 15l-179 -141l-76 49l8 9l33 -13l61 51q3 11 3 22q-1 9 -5 18t-16 15q-24 11 -49 3.5t-45 -16.5q-10 -5 -25.5 -6.5t-27.5 7.5t-15.5 32t10.5 68q6 18 23.5 38t43.5 36t59.5 25.5t70.5 7.5t76.5 -18t78.5 -52v87h386v-50h-116v-491h48v-15h-159v15h38v104
q-3 9 -13.5 24.5t-26 30t-35 25t-41.5 9.5q-40 -1 -63 -13t-33 -29t-10.5 -37.5t4 -39.5t10.5 -34t10 -21q-39 23 -54 49.5t-15.5 51.5t9 45.5t20.5 32.5q18 20 41 32v74zM331 384q10 -6 20 -11q8 -5 18 -10t19 -9v78q-12 11 -29.5 24.5t-39 25t-47.5 19t-55 6.5
q-66 -8 -97.5 -25t-42.5 -34q-13 -20 -8 -43q4 -7 11 -11q6 -4 16.5 -4.5t26.5 5.5q25 10 43 9t29.5 -8.5t17.5 -19t9 -23.5q1 -15 5.5 -22.5t9.5 -10.5q6 -4 14 -3q22 18 40 33zM467 508v-244q63 -5 118 -52v296h-118z" />
    <glyph glyph-name="u09AA_u09F0_u09CD" horiz-adv-x="548" 
d="M515 13v-15h-159v15h37v37q-18 13 -32.5 18.5t-26.5 6t-20.5 -2.5t-14.5 -7t-23.5 -13.5t-42.5 -15t-54.5 -2t-59.5 26.5q-30 22 -44 51.5t-18.5 56t-3 44.5l1.5 18q31 -77 63 -109.5t60 -39.5t50 1.5t33 12.5q24 10 44.5 11t37 -4.5t29 -14.5t21.5 -18v250l-32 16
l-179 -141l-76 49l8 9l33 -13l61 51q3 11 3 22q-1 9 -5 18t-16 15q-24 11 -49 3.5t-45 -16.5q-10 -5 -25.5 -6.5t-27.5 7.5t-15.5 32t10.5 68q8 28 43 57.5t85 43t109.5 1.5t117.5 -67v89h186v-50h-112v-495h48zM333 384q10 -6 21 -11q9 -5 19.5 -10.5t19.5 -9.5v76
q-12 11 -29 25t-39.5 26t-49 20t-56.5 7q-66 -8 -97.5 -25t-42.5 -34q-13 -20 -8 -43q4 -7 11 -11q6 -4 16.5 -4.5t26.5 5.5q25 10 43 9t29.5 -8.5t17.5 -19t9 -23.5q1 -15 5.5 -22.5t9.5 -10.5q6 -4 14 -3q22 18 40 33z" />
    <glyph glyph-name="u09AA_u09F0_u09CD_u09C1" horiz-adv-x="684" 
d="M515 13v-15h-159v15h37v37q-18 13 -32.5 18.5t-26.5 6t-20.5 -2.5t-14.5 -7t-23.5 -13.5t-42.5 -15t-54.5 -2t-59.5 26.5q-30 22 -44 51.5t-18.5 56t-3 44.5l1.5 18q31 -77 63 -109.5t60 -39.5t50 1.5t33 12.5q24 10 44.5 11t37 -4.5t29 -14.5t21.5 -18v250l-32 16
l-179 -141l-76 49l8 9l33 -13l61 51q3 11 3 22q-1 9 -5 18t-16 15q-24 11 -49 3.5t-45 -16.5q-10 -5 -25.5 -6.5t-27.5 7.5t-15.5 32t10.5 68q8 28 43 57.5t85 43t109.5 1.5t117.5 -67v89h186v-50h-112v-495h48zM333 384q10 -6 21 -11q9 -5 19.5 -10.5t19.5 -9.5v76
q-12 11 -29 25t-39.5 26t-49 20t-56.5 7q-66 -8 -97.5 -25t-42.5 -34q-13 -20 -8 -43q4 -7 11 -11q6 -4 16.5 -4.5t26.5 5.5q25 10 43 9t29.5 -8.5t17.5 -19t9 -23.5q1 -15 5.5 -22.5t9.5 -10.5q6 -4 14 -3q22 18 40 33zM467 558h230v-50h-230v50zM464 281q49 -7 72 -7
q45 0 45 59q0 40 -14 85q76 -75 76 -131q0 -24 -22 -49t-51 -25q-36 0 -106 28v40z" />
    <glyph glyph-name="u09AA_u09F0_u09CD_u09C2" horiz-adv-x="689" 
d="M515 13v-15h-159v15h37v37q-18 13 -32.5 18.5t-26.5 6t-20.5 -2.5t-14.5 -7t-23.5 -13.5t-42.5 -15t-54.5 -2t-59.5 26.5q-30 22 -44 51.5t-18.5 56t-3 44.5l1.5 18q31 -77 63 -109.5t60 -39.5t50 1.5t33 12.5q24 10 44.5 11t37 -4.5t29 -14.5t21.5 -18v250l-32 16
l-179 -141l-76 49l8 9l33 -13l61 51q3 11 3 22q-1 9 -5 18t-16 15q-24 11 -49 3.5t-45 -16.5q-10 -5 -25.5 -6.5t-27.5 7.5t-15.5 32t10.5 68q8 28 43 57.5t85 43t109.5 1.5t117.5 -67v89h186v-50h-112v-495h48zM333 384q10 -6 21 -11q9 -5 19.5 -10.5t19.5 -9.5v76
q-12 11 -29 25t-39.5 26t-49 20t-56.5 7q-66 -8 -97.5 -25t-42.5 -34q-13 -20 -8 -43q4 -7 11 -11q6 -4 16.5 -4.5t26.5 5.5q25 10 43 9t29.5 -8.5t17.5 -19t9 -23.5q1 -15 5.5 -22.5t9.5 -10.5q6 -4 14 -3q22 18 40 33zM468 558h242v-50h-242v50zM464 387h91l69 -28v-303
l36 -27l-8 -14l-106 59v282h-82v31z" />
    <glyph glyph-name="u09AA_u09CD_u09B2" horiz-adv-x="546" 
d="M562 508h-95v-495h48v-15h-159v15h37v49q-22 48 -40.5 66t-34 16.5t-27 -16.5t-20 -33t-12.5 -32.5l-4 -14.5q-5 14 -19 31t-31 29.5t-34 16.5t-28 -7t-9 -24t11 -27t23.5 -28.5l29.5 -29.5q-36 4 -65 25.5t-43 49t-9 54t38 39.5q30 11 52.5 1t38.5 -27.5t25 -36
t11 -24.5q0 3 -0.5 14t2.5 25t11.5 28t26.5 24q14 8 29.5 2.5t30 -17t27 -26.5t20.5 -26v87h-2v119l-32 16l-179 -141l-76 49l8 9l33 -13l61 51q3 11 3 22q-1 9 -5 18t-16 15q-24 11 -49 3.5t-45 -16.5q-10 -5 -25.5 -6.5t-27.5 7.5t-15.5 32t10.5 68q8 28 43 57.5t85 43
t109.5 1.5t117.5 -67v89h171v-50zM331 384q10 -6 21 -11q9 -5 19.5 -10.5t19.5 -9.5v76q-12 11 -29 25t-39.5 26t-49 20t-56.5 7q-66 -8 -97.5 -25t-42.5 -34q-13 -20 -8 -43q4 -7 11 -11q6 -4 16.5 -4.5t26.5 5.5q25 10 43 9t29.5 -8.5t17.5 -19t9 -23.5q1 -15 5.5 -22.5
t9.5 -10.5q6 -4 14 -3q22 18 40 33z" />
    <glyph glyph-name="u09AA_u09CD_u09B8" horiz-adv-x="627" 
d="M481 285l-57 45q-24 -22 -51 -56q-23 -29 -54.5 -75t-67.5 -110q-11 -19 -23 -29t-25.5 -13.5t-27 -2t-25.5 6.5q-29 11 -58 38l3 35q42 -45 85 -17t88 125l-18 4l-126 -96l-47 28l5 4l21 -7l38 29q2 6 2 12q0 12 -13 19q-16 6 -31.5 2t-28.5 -10q-6 -2 -16 -2.5
t-17.5 4.5t-9.5 18t7 38q5 15 27 32t53.5 24.5t69.5 1t75 -37.5l28 -19v1q8 20 6 42.5t-7 33.5q-9 19 -28 20t-38 -6q-23 -8 -48 -24l-5 1q-4 1 -11 3t-19 5q-22 11 -24 32.5t6.5 45t21.5 45t21 33.5h-180v50h666v-50h-94v-490h35v-15h-143v15h35v267zM207 508
q-34 -42 -40 -63t5 -28.5t33 -4t44 10.5q19 7 33 5.5t23 -8t13.5 -17.5t6.5 -23q4 -29 -3 -70l92 73l67 -50v175h-274zM220 247q6 5 12 9q5 3 11 4.5t12 -0.5l-4 14q-14 13 -39.5 28t-63.5 14q-42 -4 -61 -13t-27 -19q-9 -11 -6 -25q3 -3 7 -6q4 -2 10.5 -3t17.5 3
q16 6 27 5.5t18.5 -4.5t11.5 -11t6 -14q0 -8 3 -12t6 -6q4 -2 9 -1l26 18q10 7 17.5 13t6.5 6z" />
    <glyph glyph-name="u09AB_u09CD_u099F" horiz-adv-x="738" 
d="M182 508q32 -38 49 -63t30 -57q-45 -29 -140 -82q10 -66 41.5 -107.5t68 -65t98.5 -59.5l1 398q101 8 159 -33t58 -132.5t-79 -200.5q32 118 32 169t-18 80q-22 34 -85 53l-1 -368q0 -14 5.5 -27.5t14.5 -23t21 -13.5t26 2q38 19 70.5 52t57 68t39.5 67t18 49
q4 25 3 40.5t-6 23.5t-12.5 9.5t-16.5 -0.5q-20 -5 -48 -30l-11 7l98 61q2 -1 9 -5l18 -9t33 -17q1 -60 -19 -110t-51 -89.5t-68 -68.5t-69.5 -48t-56 -28t-26.5 -9q-5 0 -20.5 11t-32.5 24q-19 15 -43 35l2 33q-66 31 -135 85q-108 85 -140 161q3 2 155 98q-37 65 -117 120
h-108v50h611v52q0 25 -19.5 37.5t-47 16.5t-58 1t-51.5 -9q-56 -15 -96 -20.5t-44 -6.5l143 51q89 25 138.5 21t72.5 -20q27 -18 32 -50v-73h93v-50h-578v0z" />
    <glyph glyph-name="u09AB_u09F0_u09CD" horiz-adv-x="630" 
d="M200 508q35 -39 53.5 -64t33.5 -57q-50 -29 -154 -83q11 -66 45.5 -108t74.5 -65.5t108 -60.5l1 401q110 8 173.5 -33t63.5 -133.5t-86 -201.5q35 119 35 170t-20 80q-24 35 -93 54l1 -392q-106 29 -220 111q-118 85 -153 162q3 2 169 99q-41 65 -128 121q1 0 -118 0v50
h662v-50q10 0 -448 0zM363 -19q-18 14 -33 19.5t-27 5.5t-20.5 -3t-14.5 -7t-23.5 -13.5t-42.5 -15t-54.5 -2t-59.5 26.5q-30 22 -44 51.5t-18.5 56t-3 44.5l1.5 18q31 -77 63 -109.5t60 -39.5t50 1.5t33 12.5q25 11 45.5 11.5t37.5 -5t29.5 -15t20.5 -18.5v72h73v-128h48
v-15h-159v15h38v37z" />
    <glyph glyph-name="u09AB_u09CD_u09B2" horiz-adv-x="627" 
d="M200 508q35 -39 53.5 -64t33.5 -57q-50 -29 -154 -83q11 -66 45.5 -108t74.5 -65.5t108 -60.5l1 401q110 8 173.5 -33t63.5 -133.5t-86 -201.5q35 119 35 170t-20 80q-24 35 -93 54l1 -521h48v-15h-159v15h37v49q-22 48 -40.5 66t-34 16.5t-27 -16.5t-20 -33t-12.5 -32.5
l-4 -14.5q-5 14 -19 31t-31 29.5t-34 16.5t-28 -7t-9 -24t11 -27t23.5 -28.5l29.5 -29.5q-36 4 -65 25.5t-43 49t-9 54t38 39.5q30 11 52.5 1t38.5 -27.5t25 -36t11 -24.5q0 3 -0.5 14t2.5 25t11.5 28t26.5 24q14 8 29.5 2.5t30 -17t27 -26.5t20.5 -26v54q-71 31 -146 85
q-118 85 -153 162q3 2 169 99q-41 65 -128 121h-118v50h662v-50h-448v0z" />
    <glyph glyph-name="u09AC.001_u099C" horiz-adv-x="760" 
d="M121 314q-3 -40 10 -88.5t39.5 -92.5t66 -75.5t90.5 -36.5q36 3 64 24t45.5 54t24 74t-0.5 84q-30 -28 -56 -40.5t-47.5 -13t-40.5 9t-36 24.5q-12 9 -20 19q-17 7 -39 15t-44 19q-21 9 -42.5 23t-38 31t-25 37.5t-4.5 42.5q5 25 28.5 37t52.5 16.5t56 4.5h38v26h-262v50
h798v-50h-457v-27q18 -9 61.5 -27.5t97 -34t110 -20.5t100.5 14q15 -26 23 -39.5t12 -19.5l5 -8q-52 -26 -85 -74q-14 -20 -24.5 -47t-14 -61.5t2 -76.5t23.5 -93q1 0 -8 14t-19.5 39.5t-19.5 60.5t-9.5 75.5t10.5 84.5t42 88q-20 4 -47 7t-64.5 12t-86 28t-109.5 55v-151
q0 -18 12.5 -33.5t30 -24t36.5 -8.5t33 14q4 4 9 10.5t9.5 13.5t8 12.5t3.5 7.5q0 6 -0.5 14.5t-0.5 16.5v20q1 0 11.5 -1t24.5 -3q15 -2 35 -3q4 -112 -19 -193q-10 -35 -27 -66.5t-43.5 -53t-64 -30t-88.5 3.5q-47 10 -93.5 44t-84 78t-61.5 90.5t-24 82.5zM247 279
q-3 11 -4 27t-1 41v110h-84q-27 -10 -34.5 -26t-1.5 -34.5t21.5 -37.5t34.5 -35q21 -18 41 -29t28 -16z" />
    <glyph glyph-name="u09AC.001_u099D" horiz-adv-x="598" 
d="M350 -10q-30 9 -69 24t-79 35.5t-77.5 44.5t-65 51t-40 56t-3.5 59q2 11 5.5 21t8.5 18q-11 19 -15 38t1 37q6 35 24.5 53t50.5 25.5t78 8t109 0.5v47h-293v50h365v-288l96 -82v370h174v-50h-101v-493h48v-15h-159v15h38v129l-96 85v-239zM191 324q-26 0 -42 -12t-25 -27
t-12 -28t-3 -14q-3 -21 3 -40t17 -37t26.5 -34t32.5 -29q39 -32 91 -58l-1 279h-87zM109 357q-1 -5 -1 -9v-8q29 5 72 6t98 1v91h-87q-26 0 -42 -12t-25 -27t-12 -28t-3 -14z" />
    <glyph glyph-name="u09AC.001_u09A1" horiz-adv-x="579" 
d="M121 314q-3 -40 10 -88.5t39.5 -92.5t66 -75.5t90.5 -36.5q36 3 64 24t45.5 54t24 74t-0.5 84q-30 -28 -56 -40.5t-47.5 -13t-40.5 9t-36 24.5q-12 9 -20 19q-17 7 -39 15t-44 19q-21 9 -42.5 23t-38 31t-25 37.5t-4.5 42.5q5 25 28.5 37t52.5 16.5t56 4.5h38v26h-262v50
h627v-50h-286v-201q0 -18 12.5 -33.5t30 -24t36.5 -8.5t33 14q4 4 9 10.5t9.5 13.5t8 12.5t3.5 7.5q0 6 -0.5 14.5t-0.5 16.5v20q1 0 11.5 -1t24.5 -3q15 -2 35 -3q4 -112 -19 -193q-10 -35 -27 -66.5t-43.5 -53t-64 -30t-88.5 3.5q-47 10 -93.5 44t-84 78t-61.5 90.5
t-24 82.5zM247 279q-3 11 -4 27t-1 41v110h-84q-27 -10 -34.5 -26t-1.5 -34.5t21.5 -37.5t34.5 -35q21 -18 41 -29t28 -16z" />
    <glyph glyph-name="u09AC.001_u09A2" horiz-adv-x="540" 
d="M-20 558h580v-50h-283v-397q0 -23 9.5 -36t16.5 -20q1 -2 4 -3.5t5 -3.5q3 -3 6 -5q38 19 61 55t36 75t18.5 73.5t8.5 51.5q4 25 3 40.5t-6 23.5t-12.5 9.5t-16.5 -0.5q-20 -5 -48 -30l-11 7l98 61q2 -1 9 -5l18 -9t33 -17q1 -60 -13 -111t-35.5 -91.5t-47 -71.5
t-48.5 -51.5t-40 -30.5t-20 -10q-5 0 -22.5 11t-36.5 24q-22 15 -48 35v163q-15 5 -31.5 12t-33.5 15q-21 9 -42.5 23t-38 31t-25 37.5t-4.5 42.5q5 25 28.5 37t52.5 16.5t56 4.5h38v44h-218v50zM134 306q18 -16 35.5 -27t28.5 -16v176h-84q-27 -10 -34.5 -26t-1.5 -34.5
t21.5 -37.5t34.5 -35z" />
    <glyph glyph-name="u09AC.001_u09A6" horiz-adv-x="615" 
d="M-20 558h669v-50h-383v-321q7 13 20 29.5t28.5 34.5t33.5 36l35 35q40 40 86 81l61 -49v-339h48v-15h-159v15h38v337q-48 -47 -83.5 -93t-58.5 -84q-27 -44 -47 -84l-71 45l1 2v107q-15 5 -31.5 12t-33.5 15q-21 9 -42.5 23t-38 31t-25 37.5t-4.5 42.5q5 25 28.5 37
t52.5 16.5t56 4.5h38v44h-218v50zM134 306q18 -16 35.5 -27t28.5 -16v176h-84q-27 -10 -34.5 -26t-1.5 -34.5t21.5 -37.5t34.5 -35z" />
    <glyph glyph-name="u09AC.001_u09A6_u09F0_u09CD" horiz-adv-x="612" 
d="M457 7q-18 14 -33 19.5t-27 5.5t-20.5 -3t-14.5 -7t-27 -15t-50 -18t-62 -5t-63 25q-30 22 -44 51.5t-18.5 56t-3 44.5l1.5 18q31 -77 63 -109.5t60 -39.5t50 1.5t33 12.5q25 11 49 13t45 -2t37 -12t24 -17v326q-48 -47 -83.5 -93t-58.5 -84q-27 -44 -47 -84l-71 45l1 2
v107q-15 5 -31.5 12t-33.5 15q-21 9 -42.5 23t-38 31t-25 37.5t-4.5 42.5q5 25 28.5 37t52.5 16.5t56 4.5h38v44h-218v50h669v-50h-383v-321q7 13 20 29.5t28.5 34.5t33.5 36l35 35q40 40 86 81l61 -49v-384h48v-15h-159v15h38v37zM134 306q18 -16 35.5 -27t28.5 -16v176
h-84q-27 -10 -34.5 -26t-1.5 -34.5t21.5 -37.5t34.5 -35z" />
    <glyph glyph-name="u09AC.001_u09A7" horiz-adv-x="551" 
d="M350 -10q-30 9 -69 24t-79 35.5t-77.5 44.5t-65 51t-40 56t-3.5 59q2 11 5.5 21t8.5 18q-11 19 -15 38t1 37q6 35 24.5 53t50.5 25.5t78 8t109 0.5v47h-293v50h590v-50h-225v-518zM191 324q-26 0 -42 -12t-25 -27t-12 -28t-3 -14q-3 -21 3 -40t17 -37t26.5 -34t32.5 -29
q39 -32 91 -58l-1 249v30h-87zM109 357q-1 -5 -1 -9v-8q29 5 72 6t98 1v91h-87q-26 0 -42 -12t-25 -27t-12 -28t-3 -14zM343 347h73l69 -28v-303l36 -27l-8 -14l-106 59v282h-64v31z" />
    <glyph glyph-name="u09AC_u09AC_u09CD" horiz-adv-x="697" 
d="M365 20q-13 10 -30 21q-14 10 -34 23t-43 28q-42 27 -83.5 57.5t-73 65t-47 71t-6.5 75.5q6 35 22 52.5t45 24.5t72.5 7h106.5v63h-309v50h481v-50h-101v-490v2zM206 422q-26 0 -42 -12t-25 -27t-12 -28t-3 -14q-2 -24 4.5 -46t18 -41.5t27 -36t32.5 -29.5q39 -32 88 -57
v291h-88zM636 20q-13 10 -30 21q-14 10 -34 23t-43 28q-42 27 -83.5 57.5t-73 65t-47 71t-6.5 75.5q6 35 22 52.5t45 24.5t72.5 7h106.5v63h-309v50h481v-50h-101v-490v2zM477 422q-26 0 -42 -12t-25 -27t-12 -28t-3 -14q-2 -24 4.5 -46t18 -41.5t27 -36t32.5 -29.5
q39 -32 88 -57v291h-88z" />
    <glyph glyph-name="u09AC.001_u09AD" horiz-adv-x="515" 
d="M365 212q-1 2 -2.5 2.5t-5.5 3.5q-11 4 -17 -6.5t-8.5 -24.5t-3 -26.5l-0.5 -12.5q11 -15 29.5 -15t38.5 7.5t38 17.5t27 14q17 2 24.5 -3.5t15.5 -13.5q-1 -4 -10.5 -28t-32 -50.5t-58.5 -47.5t-89 -19q-32 0 -58.5 8t-49 20.5t-40 28t-31.5 31.5q-33 38 -52 85l79 29
q12 -48 30 -86q16 -33 40.5 -61t59.5 -31t61 7t43.5 25.5t26.5 31.5t10 24q-11 -8 -19 -12.5t-15 -6t-13.5 -2t-15.5 -0.5q-40 -2 -62 5.5t-33 17.5q-13 11 -17 26v15q0 8 -0.5 18.5t0.5 24.5q0 17 14.5 27t30.5 13q-46 17 -92 31.5t-82.5 30t-58 36t-16.5 49.5
q6 35 22 52.5t45 24.5t72.5 7h106.5v29h-309v50h544v-50h-164l-2 -272q7 -3 11 -4.5t6 -3.5q3 -2 4 -2q-7 -3 -11 -7q-4 -3 -7.5 -5.5t-3.5 -1.5zM209 456q-34 0 -52 -11.5t-26.5 -26t-10 -27t-1.5 -13.5q2 -14 10.5 -25.5t21.5 -21.5t29 -17.5t32 -13.5q38 -14 85 -22v178
h-88z" />
    <glyph glyph-name="u09AC_u09F0_u09CD" horiz-adv-x="459" 
d="M320 -1q-18 14 -33 19.5t-27 5.5t-20.5 -3t-14.5 -7t-17.5 -13.5t-28 -14.5t-40 -1t-53.5 27q-30 22 -44 51.5t-18.5 56t-3 44.5l1.5 18q21 -51 41 -81.5t38 -46t34 -19t30 -0.5t24.5 8.5t18.5 8.5q25 11 42.5 10.5t30 -7.5t22 -17.5t17.5 -19.5v52l-34 22
q-42 27 -83.5 57.5t-73 65t-47 71t-6.5 75.5q6 35 22 52.5t45 24.5t72.5 7h106.5v63h-337v50h489v-50h-81v-546h48v-15h-159v15h38v37zM234 422q-26 0 -42 -12t-25 -27t-12 -28t-3 -14q-2 -24 4.5 -46t18 -41.5t27 -36t32.5 -29.5q39 -32 88 -57v291h-88z" />
    <glyph glyph-name="u09AC_u09F0_u09CD_u09C1" horiz-adv-x="606" 
d="M320 -1q-18 14 -33 19.5t-27 5.5t-20.5 -3t-14.5 -7t-17.5 -13.5t-28 -14.5t-40 -1t-53.5 27q-30 22 -44 51.5t-18.5 56t-3 44.5l1.5 18q21 -51 41 -81.5t38 -46t34 -19t30 -0.5t24.5 8.5t18.5 8.5q25 11 42.5 10.5t30 -7.5t22 -17.5t17.5 -19.5v52l-34 22
q-42 27 -83.5 57.5t-73 65t-47 71t-6.5 75.5q6 35 22 52.5t45 24.5t72.5 7h106.5v63h-337v50h489v-50h-81v-546h48v-15h-159v15h38v37zM234 422q-26 0 -42 -12t-25 -27t-12 -28t-3 -14q-2 -24 4.5 -46t18 -41.5t27 -36t32.5 -29.5q39 -32 88 -57v291h-88zM393 558h230v-50
h-230v50zM390 281q49 -7 72 -7q45 0 45 59q0 40 -14 85q76 -75 76 -131q0 -24 -22 -49t-51 -25q-36 0 -106 28v40z" />
    <glyph glyph-name="u09AC_u09F0_u09CD_u09C2" horiz-adv-x="611" 
d="M320 -1q-18 14 -33 19.5t-27 5.5t-20.5 -3t-14.5 -7t-17.5 -13.5t-28 -14.5t-40 -1t-53.5 27q-30 22 -44 51.5t-18.5 56t-3 44.5l1.5 18q21 -51 41 -81.5t38 -46t34 -19t30 -0.5t24.5 8.5t18.5 8.5q25 11 42.5 10.5t30 -7.5t22 -17.5t17.5 -19.5v52l-34 22
q-42 27 -83.5 57.5t-73 65t-47 71t-6.5 75.5q6 35 22 52.5t45 24.5t72.5 7h106.5v63h-337v50h489v-50h-81v-546h48v-15h-159v15h38v37zM234 422q-26 0 -42 -12t-25 -27t-12 -28t-3 -14q-2 -24 4.5 -46t18 -41.5t27 -36t32.5 -29.5q39 -32 88 -57v291h-88zM394 558h242v-50
h-242v50zM390 387h91l69 -28v-303l36 -27l-8 -14l-106 59v282h-82v31z" />
    <glyph glyph-name="u09AC_u09CD_u09B2" horiz-adv-x="435" 
d="M290 43q-18 45 -33 62t-27.5 16t-22.5 -15t-16.5 -30.5t-10 -30l-3.5 -13.5q-4 13 -15 28.5t-24.5 27t-27.5 15.5t-23 -6q-9 -11 -7.5 -23t8.5 -24.5t19 -26.5t24 -27q-29 3 -52.5 23.5t-35 45.5t-7.5 49.5t31 36.5q26 11 45.5 0t32.5 -29q15 -21 26 -53q-3 17 0 33
q2 14 8.5 28.5t22.5 24.5q12 7 25 2t25 -16t22 -25t16 -24v56l-37 24q-42 27 -83.5 48.5t-73 45t-47 51t-6.5 66.5q6 35 22 52.5t45 24.5t72.5 7h106.5v41h-309v50h481v-50h-101v-509h48v-15h-156v15h38v44zM201 444q-26 0 -42 -12t-25 -27t-12 -28t-3 -14q-2 -24 4.5 -44.5
t18 -37t27 -29t31.5 -22.5q38 -23 88 -36l1 250h-88z" />
    <glyph glyph-name="u09AD_u09F0_u09CD" horiz-adv-x="556" 
d="M36 241q1 -1 11.5 3.5t22.5 10.5l32 16q5 -56 21 -97q7 -18 16.5 -34.5t23 -28.5t30.5 -18t39 -2q22 6 44.5 16.5t45 17t44.5 5.5t44 -16v234q-27 -27 -55 -42.5t-55 -22t-52.5 -4.5t-46.5 11q-22 8 -33 20.5t-16 23.5q-6 13 -7 27v26q0 11 -0.5 22t0.5 19q1 15 9.5 23
t27.5 22q9 7 20.5 8t21.5 -1q11 -2 23 -6l56 -37l-22 -28v3q0 3 -2 5q-3 12 -9 17t-12.5 6t-13 -1t-9.5 -4t-9.5 -8.5t-10 -18t-1 -26.5t16.5 -34q9 -13 21.5 -16.5t26 -1.5t27.5 9.5t28 16.5q32 22 65 59l85 -22v-382h47v-15h-215v15h94v67l-52 12q-46 -21 -91 -29
q-38 -7 -82 -1t-80 39q-22 20 -35.5 44.5t-21 46.5t-10 36.5zM-31 558h619v-50h-619v50z" />
    <glyph glyph-name="u09AD_u09F0_u09CD_u09C1" horiz-adv-x="691" 
d="M36 241q1 -1 11.5 3.5t22.5 10.5l32 16q5 -56 21 -97q7 -18 16.5 -34.5t23 -28.5t30.5 -18t39 -2q22 6 44.5 16.5t45 17t44.5 5.5t44 -16v234q-27 -27 -55 -42.5t-55 -22t-52.5 -4.5t-46.5 11q-22 8 -33 20.5t-16 23.5q-6 13 -7 27v26q0 11 -0.5 22t0.5 19q1 15 9.5 23
t27.5 22q9 7 20.5 8t21.5 -1q11 -2 23 -6l56 -37l-22 -28v3q0 3 -2 5q-3 12 -9 17t-12.5 6t-13 -1t-9.5 -4t-9.5 -8.5t-10 -18t-1 -26.5t16.5 -34q9 -13 21.5 -16.5t26 -1.5t27.5 9.5t28 16.5q32 22 65 59l85 -22v-382h47v-15h-215v15h94v67l-52 12q-46 -21 -91 -29
q-38 -7 -82 -1t-80 39q-22 20 -35.5 44.5t-21 46.5t-10 36.5zM-31 558h619v-50h-619v50zM484 558h230v-50h-230v50zM481 281q49 -7 72 -7q45 0 45 59q0 40 -14 85q76 -75 76 -131q0 -24 -22 -49t-51 -25q-36 0 -106 28v40z" />
    <glyph glyph-name="u09AD_u09F0_u09CD_u09C2" horiz-adv-x="721" 
d="M36 241q1 -1 11.5 3.5t22.5 10.5l32 16q5 -56 21 -97q7 -18 16.5 -34.5t23 -28.5t30.5 -18t39 -2q22 6 44.5 16.5t45 17t44.5 5.5t44 -16v234q-27 -27 -55 -42.5t-55 -22t-52.5 -4.5t-46.5 11q-22 8 -33 20.5t-16 23.5q-6 13 -7 27v26q0 11 -0.5 22t0.5 19q1 15 9.5 23
t27.5 22q9 7 20.5 8t21.5 -1q11 -2 23 -6l56 -37l-22 -28v3q0 3 -2 5q-3 12 -9 17t-12.5 6t-13 -1t-9.5 -4t-9.5 -8.5t-10 -18t-1 -26.5t16.5 -34q9 -13 21.5 -16.5t26 -1.5t27.5 9.5t28 16.5q32 22 65 59l85 -22v-23h95l69 -28v-303l36 -27l-8 -14l-106 59v282h-86v-328h47
v-15h-215v15h94v67l-52 12q-46 -21 -91 -29q-38 -7 -82 -1t-80 39q-22 20 -35.5 44.5t-21 46.5t-10 36.5zM-31 558h774v-50h-774v50z" />
    <glyph glyph-name="u09AD_u09CD_u09B2" horiz-adv-x="512" 
d="M328 56q-18 45 -33 62t-27.5 16t-22.5 -15t-16.5 -30.5t-10 -30l-3.5 -13.5q-4 13 -15 28.5t-24.5 27t-27.5 15.5t-23 -6q-9 -11 -7.5 -23t8.5 -24.5t19 -26.5t24 -27q-29 3 -52.5 23.5t-35 45.5t-7.5 49.5t31 36.5q26 11 45.5 0t32.5 -29q15 -21 26 -53q-3 17 0 33
q2 14 8.5 28.5t22.5 24.5q12 7 25 2t25 -16t22 -25t16 -24v99q-24 -6 -49 -5q-34 1 -62.5 10t-52 23.5t-42 33t-33.5 37.5q-34 45 -55 101l84 33q12 -56 31 -101q8 -19 18.5 -38t24 -34t29 -25t34.5 -12q37 -4 65 9.5t47 34t29 41t12 30.5q-24 -20 -47 -25t-56 -10
q-42 -2 -65.5 7t-35.5 20q-14 13 -18 30v18q0 9 -0.5 21.5t0.5 28.5q0 16 9.5 26t21.5 16t24.5 7.5t19.5 -0.5q23 -7 37.5 -12.5t22.5 -9.5q10 -5 15 -9q-7 -5 -12 -9q-5 -3 -8.5 -5.5t-3.5 -1.5q-8 5 -10.5 6t-6.5 5q-12 5 -18 -7.5t-8.5 -29t-3 -31.5l-0.5 -15
q11 -18 36 -16t52.5 12.5t51.5 24t34 18.5q20 3 27.5 -4t15.5 -17q-1 -3 -5.5 -18.5t-14.5 -36t-26 -43.5t-38 -42v-228h48v-15h-156v15h38v44zM-26 558h560v-50h-560v50z" />
    <glyph glyph-name="u09AE_u09CD_u09A4" horiz-adv-x="474" 
d="M-23 558h529v-50h-95v-281l-73 52v37q-19 29 -47.5 43.5t-57 18t-52 -0.5t-33.5 -12q-21 -17 -24 -52.5t9 -79.5q-34 20 -47 42.5t-12.5 44t10.5 39t22 27.5q-23 19 -30 37.5t-4.5 34.5t11 28.5t16.5 21.5h-122v50zM169 508q-27 -19 -39.5 -35.5t-15 -30.5t1.5 -25
t10 -18q33 14 67.5 12t64 -12t51 -24.5t29.5 -24.5v158h-169zM186 233q28 46 75 61.5t102 -9.5q12 -5 26 -15t26 -25t20.5 -35.5t10.5 -47.5q1 -14 -1.5 -43.5t-18.5 -60.5t-49.5 -55t-93.5 -27t-99 14t-67.5 49.5t-50.5 76.5t-47 95q0 1 15 2.5t32 3.5q20 2 47 4
q-5 -62 10 -109q6 -20 17.5 -38.5t29.5 -32t43.5 -20.5t61.5 -3q15 0 34 6.5t35.5 22.5t27 43.5t9.5 70.5q-5 53 -23 78.5t-55 20.5q-19 -3 -34.5 -17.5t-24.5 -37t-9 -50t12 -55.5l6 -8l-8.5 4t-20.5 12.5t-24.5 21t-20 28t-7.5 34.5t14 41z" />
    <glyph glyph-name="u09AE_u09CD_u09A6" horiz-adv-x="706" 
d="M-23 558h746v-50h-358v-321q7 13 20 29.5t28.5 34.5t33.5 36l35 35q40 40 86 81l61 -49v-339h48v-15h-159v15h38v337q-48 -47 -83.5 -93t-58.5 -84q-27 -44 -47 -84l-71 45l1 2v195q-19 28 -42.5 40t-47 12.5t-42.5 -6t-29 -14.5q-21 -17 -30 -44t3 -71q-34 20 -45 40
t-8.5 38t14.5 33t24 25q-23 19 -30 37.5t-4.5 34.5t11 28.5t16.5 21.5h-110v50zM157 508q-27 -19 -39.5 -35.5t-15 -30.5t1.5 -25t10 -18q33 13 62.5 14t53.5 -6t41.5 -18.5t25.5 -21.5v141h-140z" />
    <glyph glyph-name="u09AE_u09CD_u09A8" horiz-adv-x="431" 
d="M191 31q0 -1 -12.5 2t-30.5 10.5t-36.5 19t-31.5 27.5t-15.5 37t12.5 47q10 16 34 25.5t54.5 9.5t64 -10.5t61.5 -33.5v151q-19 29 -47.5 43.5t-57 18t-52 -0.5t-33.5 -12q-21 -17 -24 -52.5t9 -79.5q-34 20 -47 42.5t-12.5 44t10.5 39t22 27.5q-23 19 -30 37.5
t-4.5 34.5t11 28.5t16.5 21.5h-75v50h476v-50h-92v-491h48v-15h-156v15h38v103q-10 13 -22 25.5t-26 20t-29.5 10t-31.5 -3.5q-30 -11 -41 -26t-10 -30t10.5 -30t20.5 -27t20 -19.5t9 -8.5zM122 508q-27 -19 -39.5 -35.5t-15 -30.5t1.5 -25t10 -18q33 14 67.5 12t64 -12
t51 -24.5t29.5 -24.5v158h-169z" />
    </font>
</defs>
</svg>
