<?xml version="1.0" standalone="no"?>
<!DOCTYPE svg PUBLIC "-//W3C//DTD SVG 1.1//EN" "http://www.w3.org/Graphics/SVG/1.1/DTD/svg11.dtd" >
<svg>
<metadata>
Created by FontForge 20110222 at Tue Feb 10 09:35:43 2015
 By deploy user
Developer: Al Mamun Sumon
Developed under "Ekushey Font Development Project."
http://www.ekushey.org

This Font Software is licensed under the SIL Open Font License, Version 1.0.
No modification of the license is permitted, only verbatim copy is allowed.
This license and a FAQ is also available at: http://scripts.sil.org/OFLved.ed.
</metadata>
<defs>
<font id="EkusheyGhorautra" horiz-adv-x="0" >
  <font-face 
    font-family="Ekushey Ghorautra"
    font-weight="400"
    font-stretch="normal"
    units-per-em="1000"
    panose-1="2 0 5 3 0 0 0 2 0 4"
    ascent="800"
    descent="-200"
    bbox="-682 -486 1401 1115"
    underline-thickness="20"
    underline-position="-297"
    unicode-range="U+0020-25CC"
  />
<missing-glyph horiz-adv-x="549" 
d="M465 633h-381v-567h381v567zM507 676v-652h-465v651zM235 89q-35 -2 -37 33q-1 36 35 37q38 2 39 -34q2 -35 -37 -36zM342 360q-20 -17 -35.5 -30.5t-23.5 -25.5q-25 -35 -23 -81l1 -26l-52 14q-1 11 0 28t3 40q9 36 56 82l61 57q36 38 35 67q-2 35 -28.5 53.5
t-61.5 16.5q-79 -4 -76 -57q0 -18 33 -39l-35 -33q-25 8 -40.5 30t-17.5 49q-2 46 42 73q38 26 85 27q65 3 105 -30q46 -34 49 -95q2 -39 -23 -70q-14 -19 -54 -50z" />
    <glyph glyph-name=".notdef" horiz-adv-x="549" 
d="M465 633h-381v-567h381v567zM507 676v-652h-465v651zM235 89q-35 -2 -37 33q-1 36 35 37q38 2 39 -34q2 -35 -37 -36zM342 360q-20 -17 -35.5 -30.5t-23.5 -25.5q-25 -35 -23 -81l1 -26l-52 14q-1 11 0 28t3 40q9 36 56 82l61 57q36 38 35 67q-2 35 -28.5 53.5
t-61.5 16.5q-79 -4 -76 -57q0 -18 33 -39l-35 -33q-25 8 -40.5 30t-17.5 49q-2 46 42 73q38 26 85 27q65 3 105 -30q46 -34 49 -95q2 -39 -23 -70q-14 -19 -54 -50z" />
    <glyph glyph-name="NULL" 
 />
    <glyph glyph-name="nonmarkingreturn" 
 />
    <glyph glyph-name="space" unicode=" " horiz-adv-x="364" 
 />
    <glyph glyph-name="exclam" unicode="!" horiz-adv-x="242" 
d="M116 188q-46 0 -46 42q0 20 13.5 33t32.5 13q20 0 33 -13t13 -33q0 -18 -13.5 -30t-32.5 -12zM134 324h-39l-15 308h68z" />
    <glyph glyph-name="quotedbl" unicode="&#x22;" horiz-adv-x="428" 
d="M186 651q0 -57 -50 -110l-7 5q9 11 16.5 25.5t7.5 31.5q0 5 -1.5 10.5t-3.5 4.5q-4 -2 -11 -2.5t-14 2.5t-12 10.5t-5 22.5q0 17 10.5 28t29.5 11q40 0 40 -39zM297 651q0 -57 -50 -110l-7 5q9 11 16.5 25.5t7.5 31.5q0 5 -1.5 10.5t-3.5 4.5q-4 -2 -11 -2.5t-14 2.5
t-12 10.5t-5 22.5q0 17 10.5 28t29.5 11q40 0 40 -39z" />
    <glyph glyph-name="numbersign" unicode="#" horiz-adv-x="596" 
d="M405 468h-163l-40 -191h164zM566 218h-147l-38 -206h-71l42 206h-159l-45 -206h-70l45 206h-93v59h103l38 191h-141v59h150l34 172h71l-34 -172h158l40 172h74l-43 -172h86v-59h-96l-38 -191h134v-59z" />
    <glyph glyph-name="percent" unicode="%" horiz-adv-x="743" 
d="M277 571q0 36 -14 62q-17 35 -49 35q-46 0 -80 -75q-28 -62 -28 -115q0 -62 49 -62t87 53q35 50 35 102zM676 184q0 34 -14 62q-16 34 -49 34q-49 0 -82 -69q-27 -56 -27 -111q0 -64 48 -64q50 0 88 50q36 46 36 98zM639 738l-438 -769h-67l378 661q-46 -34 -105 -34
q-46 0 -103 23q8 -14 8 -51q0 -78 -48 -139q-51 -65 -127 -65q-46 0 -76 54q-26 47 -26 97q0 79 45 138q49 64 126 64q8 0 82 -36q75 -35 125 -35q44 0 96 28q50 27 78 64h52zM711 181q0 -76 -45 -131q-48 -61 -121 -61q-52 0 -83 45q-28 40 -28 94q0 79 46 137
q49 64 126 64q51 0 80 -51q25 -40 25 -97z" />
    <glyph glyph-name="quotesingle" unicode="'" horiz-adv-x="239" 
d="M186 651q0 -57 -50 -110l-7 5q9 11 16.5 25.5t7.5 31.5q0 5 -1.5 10.5t-3.5 4.5q-4 -2 -11 -2.5t-14 2.5t-12 10.5t-5 22.5q0 17 10.5 28t29.5 11q40 0 40 -39z" />
    <glyph glyph-name="parenleft" unicode="(" horiz-adv-x="365" 
d="M338 55q0 -15 -7.5 -27t-18.5 -20.5t-25.5 -13t-29.5 -4.5q-116 4 -174 159q-44 118 -38 254q7 206 86 325q64 96 133 93q83 -3 80 -76q-2 -32 -23 -52t-53 -19t-60 32q-115 -77 -124 -300q-9 -233 133 -312q26 41 62 40q27 -2 43.5 -26.5t15.5 -52.5z" />
    <glyph glyph-name="parenright" unicode=")" horiz-adv-x="358" 
d="M49 55q-1 14 3 27.5t12 25t19 18.5t25 8q36 1 62 -40q142 79 133 312q-9 223 -124 300q-28 -31 -60 -32t-53 19t-23 52q-3 73 80 76q69 3 133 -93q79 -119 86 -325q6 -136 -38 -254q-58 -155 -174 -159q-15 0 -29.5 4.5t-25.5 13t-18.5 20.5t-7.5 27z" />
    <glyph glyph-name="asterisk" unicode="*" horiz-adv-x="524" 
d="M488 651q0 -52 -68 -52q-28 0 -140 -42q74 -38 167 -57q33 -8 33 -45q0 -18 -14 -31.5t-32 -13.5q-42 0 -58 39q-11 22 -108 96q0 -31 14 -96q13 -61 13 -95q0 -16 -11.5 -29t-27.5 -13q-51 0 -51 53q0 24 19 87q13 44 19 67t7 26q-7 -4 -29.5 -22.5t-61.5 -50.5
q-68 -56 -79 -56q-44 0 -44 45q0 54 71 54q33 0 132 44q-64 40 -166 63q-33 7 -33 45q0 19 13.5 32t32.5 13q40 0 57 -42q9 -20 107 -97q0 37 -16 102q-8 34 -12.5 58t-4.5 40q0 18 14 31t31 13q49 0 49 -55q0 -20 -20 -88t-20 -101q21 10 94 69q67 54 78 54q45 0 45 -45z
" />
    <glyph glyph-name="plus" unicode="+" horiz-adv-x="378" 
d="M339 375h-123v-158h-48v158h-130v57h130v160h48v-160h123v-57z" />
    <glyph glyph-name="comma" unicode="," horiz-adv-x="239" 
d="M184 169q0 -57 -50 -110l-7 5q9 11 16.5 25.5t7.5 31.5q0 5 -1.5 10.5t-3.5 4.5q-4 -2 -11 -2.5t-14 2.5t-12 10.5t-5 22.5q0 17 10.5 28t29.5 11q40 0 40 -39z" />
    <glyph glyph-name="hyphen" unicode="-" horiz-adv-x="297" 
d="M265 315h-230v53h230v-53z" />
    <glyph glyph-name="period" unicode="." horiz-adv-x="202" 
d="M104 9q-29 0 -49.5 20t-20.5 49q0 30 19.5 50t50.5 20q13 0 26 -6t23.5 -15.5t16.5 -22.5t6 -26q0 -29 -22 -49t-50 -20z" />
    <glyph glyph-name="slash" unicode="/" horiz-adv-x="476" 
d="M152 77q-36 0 -67 31t-31 67q0 14 8 32q16 30 48 30q18 0 38 -9l179 338q-31 31 -31 66q0 16 7 30q16 28 50 28q28 0 53 -19q42 -29 42 -73q0 -25 -14.5 -44t-39.5 -19q-19 0 -43 11l-176 -335q33 -30 33 -67q0 -27 -15 -47t-41 -20z" />
    <glyph glyph-name="colon" unicode=":" horiz-adv-x="229" 
d="M172 246q1 -22 -16 -37t-39 -15q-21 -1 -40.5 11.5t-20.5 32.5q-2 23 14.5 38t39.5 15q53 0 62 -45zM172 462q1 -22 -16 -37t-39 -15q-21 -1 -40.5 11.5t-20.5 32.5q-2 23 14.5 38t39.5 15q53 0 62 -45z" />
    <glyph glyph-name="semicolon" unicode=";" horiz-adv-x="252" 
d="M155 297q0 -57 -50 -110l-7 5q9 11 16.5 25.5t7.5 31.5q0 5 -1.5 10.5t-3.5 4.5q-4 -2 -11 -2.5t-14 2.5t-12 10.5t-5 22.5q0 17 10.5 28t29.5 11q40 0 40 -39zM159 527q2 -17 -12 -30t-32 -13q-44 0 -49 35q-2 44 43 44t50 -36z" />
    <glyph glyph-name="less" unicode="&#x3c;" horiz-adv-x="684" 
d="M553 62l-420 211v29l420 235v-73l-314 -174v-2l314 -153v-73z" />
    <glyph glyph-name="equal" unicode="=" horiz-adv-x="378" 
d="M331 320l-14 -53h-268l16 53h266zM331 432l-14 -53h-268l16 53h266z" />
    <glyph glyph-name="greater" unicode="&#x3e;" horiz-adv-x="684" 
d="M553 273l-420 -211v73l314 152v3l-314 174v73l420 -235v-29z" />
    <glyph glyph-name="question" unicode="?" horiz-adv-x="433" 
d="M227 79q0 -33 -24.5 -56t-57.5 -23t-61 17q-29 19 -31 51q-1 18 5 33t17 26.5t26 18t33 6.5q84 0 93 -73zM386 534q0 -102 -111 -168q-8 -5 -23.5 -14t-38.5 -22q-69 -44 -63 -124h-29q-6 19 -6 43q0 92 81 139q13 7 36 20t56 32q62 42 62 94q0 103 -124 103
q-19 0 -35 -3q-2 -107 -86 -107q-29 0 -48.5 17.5t-19.5 45.5q0 52 53 78q44 23 100 23q78 0 133 -40q63 -44 63 -117z" />
    <glyph glyph-name="bracketleft" unicode="[" horiz-adv-x="285" 
d="M159 723h-71v-646h71v-36h-111v718h111v-36z" />
    <glyph glyph-name="backslash" unicode="\" horiz-adv-x="469" 
d="M59 647l60 52l260 -643l-66 -50z" />
    <glyph glyph-name="bracketright" unicode="]" horiz-adv-x="288" 
d="M112 759h111v-718h-111v36h71v646h-71v36z" />
    <glyph glyph-name="underscore" unicode="_" horiz-adv-x="469" 
d="M438 -76q-2 -11 -6 -23t-8 -21h-382l-12 13q5 21 15 43h382z" />
    <glyph glyph-name="braceleft" unicode="{" horiz-adv-x="336" 
d="M59 365q-3 12 39 63q47 58 54 70q18 34 18 96q0 24 -16 60q-8 20 -12 34t-5 24q-1 6 -1.5 12t-0.5 11q0 53 22 93q27 48 75 48q28 0 45 -30q13 -23 13 -55q0 -12 -4 -24.5t-10.5 -22.5t-16 -16.5t-21.5 -6.5q-35 0 -58 50q-4 -19 -4 -42q0 -16 20 -64t20 -71
q0 -118 -31 -161q-5 -15 -18 -33l-28 -35q19 -19 27 -32q15 -21 18 -36q32 -21 32 -142q2 -13 -19 -59q-21 -47 -21 -61q0 -11 1 -21t3 -20q23 50 58 50q23 0 39 -25q13 -20 13 -46q0 -32 -13 -55q-17 -29 -45 -29q-50 0 -74 60q-17 45 -17 103q0 9 14 46q15 36 15 48
q-8 66 -18 87q-5 10 -54 69q-42 51 -39 63z" />
    <glyph glyph-name="bar" unicode="|" horiz-adv-x="229" 
d="M96 -164v945l52 -1l-2 -946z" />
    <glyph glyph-name="braceright" unicode="}" horiz-adv-x="336" 
d="M319 365q3 -12 -39 -63q-50 -59 -54 -69q-11 -21 -18 -87q0 -12 15 -48q14 -37 14 -46q0 -58 -17 -103q-24 -60 -74 -60q-28 0 -45 29q-13 23 -13 55q0 26 13 46q16 25 39 25q35 0 58 -50q2 10 3 20t1 21q0 14 -21 61q-21 46 -19 59q0 121 32 142q3 15 18 36q8 13 27 32
l-28 35q-14 18 -18 33q-31 43 -31 161q0 23 20 71t20 64q0 23 -4 42q-23 -50 -58 -50q-12 0 -21.5 6.5t-16 16.5t-10.5 22.5t-4 24.5q0 32 13 55q16 30 45 30q48 0 75 -48q22 -40 22 -93q0 -5 -0.5 -11t-1.5 -12q-1 -10 -5 -24t-12 -34q-16 -36 -16 -60q0 -62 18 -96
q7 -12 54 -70q42 -51 39 -63z" />
    <glyph glyph-name="multiply" unicode="&#xd7;" horiz-adv-x="584" 
d="M438 566l49 -50l-146 -146l147 -147l-50 -50l-147 147l-146 -146l-50 49l147 147l-146 146l49 49l146 -145z" />
    <glyph glyph-name="divide" unicode="&#xf7;" horiz-adv-x="584" 
d="M534 414v-70h-484v70h484zM344 247v-104h-104v104h104zM344 615v-104h-104v104h104z" />
    <glyph glyph-name="u0981" unicode="&#x981;" 
d="M-47 916q0 -51 -35 -94q-53 -63 -162 -63q-62 0 -126 46q-68 50 -68 108q0 46 47 46q41 0 41 -38q0 -40 -51 -44q46 -66 153 -66q136 0 167 70q-59 2 -59 41q0 37 46 37q47 0 47 -43zM-183 937q0 -47 -56 -47q-21 0 -39 12.5t-18 34.5q0 47 56 47q57 0 57 -47z" />
    <glyph glyph-name="u0982" unicode="&#x982;" horiz-adv-x="453" 
d="M278 545q0 37 -40 58q-32 18 -73 18q-39 0 -72 -15q-43 -19 -43 -53q0 -37 41 -58q34 -17 74 -17q33 0 69 17q44 20 44 50zM413 152q6 -8 6 -25q0 -31 -16 -50q-16 -22 -47 -22h-8t-9 1q-54 12 -54 67q0 13 3 27q-43 32 -108 78.5t-153 109.5l27 35l151 -106
q16 -11 45.5 -32.5t74.5 -52.5q12 5 23 5q36 0 65 -35zM297 547q0 -56 -37 -93q-36 -37 -89 -37q-64 0 -102 35t-38 98q0 60 37 95t97 35q56 0 94 -39q38 -40 38 -94z" />
    <glyph glyph-name="u0983" unicode="&#x983;" horiz-adv-x="359" 
d="M294 171q0 74 -118 74q-36 0 -70 -19q-42 -21 -42 -53q0 -33 42 -55q34 -18 72 -18q36 0 72 17q44 21 44 54zM297 508q0 75 -118 75q-37 0 -73 -17q-42 -20 -42 -55q0 -72 120 -72q33 0 69 18q44 23 44 51zM313 171q0 -29 -10 -52.5t-28 -40t-42.5 -26t-52.5 -9.5
q-60 0 -97.5 34.5t-37.5 94.5q0 58 37.5 94t95.5 36q56 0 96 -38q39 -38 39 -93zM313 510q0 -29 -9.5 -53t-26.5 -42t-41 -28t-52 -10q-63 0 -101 35.5t-38 98.5q0 28 10.5 52t28.5 41t42.5 26.5t53.5 9.5q57 0 95 -37q38 -38 38 -93z" />
    <glyph glyph-name="u0985" unicode="&#x985;" horiz-adv-x="738" 
d="M613 244v390h-303l51 -55q145 -31 145 -169q0 -35 -9 -66zM748 634h-103v-391q48 -26 48 -74q0 -29 -25 -46.5t-55 -17.5q-34 0 -58.5 19t-24.5 52q0 29 30 53l-79 66q-59 -114 -170 -114q-78 0 -151 66q-61 55 -101 136q-36 73 -36 114q0 81 60 81q59 0 59 -65
q0 -47 -70 -66q53 -182 236 -182q68 0 114 34q53 38 53 103q0 124 -96 126q18 -18 18 -52q0 -14 -7 -25.5t-18 -20t-25 -13t-29 -4.5q-32 0 -55.5 23.5t-23.5 55.5q0 59 83 82l-45 60h-280v56h751v-56z" />
    <glyph glyph-name="u0986" unicode="&#x986;" horiz-adv-x="947" 
d="M613 244v390h-303l51 -55q145 -31 145 -169q0 -35 -9 -66zM748 634h-103v-391q48 -26 48 -74q0 -29 -25 -46.5t-55 -17.5q-34 0 -58.5 19t-24.5 52q0 29 30 53l-79 66q-59 -114 -170 -114q-78 0 -151 66q-61 55 -101 136q-36 73 -36 114q0 81 60 81q59 0 59 -65
q0 -47 -70 -66q53 -182 236 -182q68 0 114 34q53 38 53 103q0 124 -96 126q18 -18 18 -52q0 -14 -7 -25.5t-18 -20t-25 -13t-29 -4.5q-32 0 -55.5 23.5t-23.5 55.5q0 59 83 82l-45 60h-280v56h751v-56zM966 634h-106v-389q55 -22 55 -75q0 -31 -24.5 -48.5t-55.5 -17.5
q-33 0 -56 19.5t-23 50.5q0 28 20 46.5t49 22.5v277l-78 113l-46 1v56h47l77 -108v197l9 1l17 -90h115v-56z" />
    <glyph glyph-name="u0987" unicode="&#x987;" horiz-adv-x="606" 
d="M537 690q1 4 1 13q0 34 -65 57q-54 20 -92 20q-37 0 -117 -20t-117 -20q-88 0 -124 66q-22 40 -22 93q0 13 28 41q35 34 75 34q65 0 65 -58q0 -23 -17 -38t-40 -15q-53 0 -85 38q4 -105 111 -105q42 0 123 25q83 26 123 26q94 0 141 -56q36 -44 36 -90v-11h70v-56h-487
l37 -46h45q80 0 140 -28q78 -36 78 -107q0 -142 -173 -150q179 -51 237 -100q34 -28 47 -46q20 -28 20 -59q0 -22 -10 -41q-15 -31 -48 -31q-23 0 -41 14.5t-18 37.5q0 47 36 64q-34 29 -69 52.5t-70 43.5q-47 26 -187 30q-34 -31 -65 -31q-70 0 -70 62q0 24 24 39
q22 15 47 15q24 0 69 -27q244 7 244 116q0 95 -166 95q-43 0 -82 -19q25 -25 25 -61q0 -29 -27 -45q-23 -14 -53 -14q-34 0 -57.5 21.5t-23.5 53.5q0 77 94 99l-42 62h-84v56h536z" />
    <glyph glyph-name="u0988" unicode="&#x988;" horiz-adv-x="664" 
d="M680 634h-550q7 -7 20 -27q2 -4 5 -9t5 -13q63 4 115 -63q36 -47 38 -130q23 31 92 82q88 67 155 67q28 0 28 -32q0 -17 -50 -99t-50 -118q0 -93 20 -113q27 24 51 24q67 -1 67 -72q0 -64 -77 -64q-101 0 -101 219q0 85 64 176q-17 -7 -41.5 -21t-56.5 -34
q-32 -28 -87 -104q-51 -70 -88 -97q-56 -39 -99 -39q-49 0 -81 23q-35 26 -35 73q0 74 66 74q59 0 59 -61q0 -57 -70 -56q18 -22 60 -22t92 54q56 62 56 136q0 72 -52 112q-40 31 -81 31q-80 0 -80 -73q18 38 53 38q62 0 62 -63q0 -64 -70 -64q-34 0 -57 32q-20 29 -20 65
q0 74 82 114q-1 8 -6 22q-11 20 -26 32h-98v56h541q1 5 1 18q0 84 -127 84q-38 0 -109 -25q-71 -24 -112 -22q-71 5 -116 32q-58 34 -58 98q0 13 5 26.5t13.5 24t20 17t24.5 6.5q72 0 72 -65q0 -33 -57 -57q37 -33 96 -33q29 0 105 29q75 30 115 30q170 0 170 -163h102v-56z
" />
    <glyph glyph-name="u0989" unicode="&#x989;" horiz-adv-x="633" 
d="M109 340q-42 106 -42 178q0 22 15.5 41t36.5 19q59 0 59 -51q0 -39 -46 -55q-7 -169 104 -237q58 -34 124 -34q202 0 202 190q0 26 -19 79q-40 -130 -134 -130q-51 0 -81 42q-21 31 -21 60v192h-342v56h554q1 4 1 15q0 104 -139 104q-30 0 -111 -32q-82 -32 -115 -32
q-103 0 -147 47q-24 27 -24 60q0 76 70 76q54 0 54 -57q0 -32 -42 -57q24 -30 86 -30q26 0 106 37q78 37 122 37q170 0 170 -168h106v-56h-314v-162q0 -28 16.5 -46.5t44.5 -18.5q43 0 63 36q2 4 7 20.5t14 47.5q10 37 34 37q40 0 58 -63q12 -42 12 -95q0 -103 -53 -182
q-60 -87 -160 -87q-99 0 -163 73q-87 98 -106 146z" />
    <glyph glyph-name="u098A" unicode="&#x98a;" horiz-adv-x="730" 
d="M746 634h-304v-162q0 -28 16.5 -46.5t44.5 -18.5q43 0 63 36q2 4 7 20.5t14 47.5q10 37 34 37q40 0 58 -63q12 -42 12 -95q0 -112 -62 -188q-68 -80 -177 -79q-199 2 -339 200q-76 109 -76 182q0 24 13.5 42.5t36.5 18.5q50 0 50 -55q0 -33 -30 -52q5 -19 14.5 -47
t25.5 -66q58 -102 169 -145q-88 88 -107 138q-42 108 -42 179q0 21 15.5 40.5t36.5 19.5q59 0 59 -51q0 -39 -46 -55q-7 -169 104 -237q58 -34 124 -34q202 0 202 190q0 26 -19 79q-40 -130 -134 -130q-51 0 -81 42q-21 31 -21 60v192h-431v56h643q1 4 1 15q0 104 -139 104
q-30 0 -111 -32q-80 -31 -115 -31q-104 0 -147 46q-24 27 -24 61q0 75 70 75q54 0 54 -56q0 -33 -42 -57q24 -30 86 -30q25 0 106 36q78 37 122 37q170 0 170 -168h96v-56z" />
    <glyph glyph-name="u098B" unicode="&#x98b;" horiz-adv-x="766" 
d="M710 129q0 -61 -75 -61q-30 0 -52 16q-25 18 -25 48q0 37 33 61q-15 19 -45 51q-55 57 -104 76v-115q58 -27 58 -70q0 -67 -80 -67q-32 0 -56.5 18.5t-24.5 50.5q0 25 29 52q-27 37 -96 48q-20 2 -49.5 6.5t-67.5 9.5q-89 14 -94 44q-6 42 71 68l105 34q94 43 168 96
l-43 24q-4 2 -41 30q-43 -133 -156 -133q-60 0 -94.5 37.5t-34.5 97.5q0 24 7 46t20.5 38t33 25.5t43.5 9.5q32 0 55.5 -17t23.5 -48q0 -26 -16 -44t-42 -18q-44 0 -51 55q0 1 -2 1q-4 0 -26 -14q-26 -17 -26 -35q0 -32 40 -51q31 -16 68 -16q54 0 86.5 34.5t32.5 88.5
q0 20 -8 46q3 -5 17.5 -23t40.5 -49q25 -22 76 -49v159h33v-308q39 -24 116 -88q17 -19 35 -40.5t36 -47.5l-1 484h156v-56h-123l1 -434q48 -24 48 -71zM409 422q-45 -29 -125 -66q-37 -18 -125 -45q39 -3 137 -31q68 -26 113 -74v216zM275 652v2v-2z" />
    <glyph glyph-name="u098C" unicode="&#x98c;" horiz-adv-x="504" 
d="M465 301q0 -184 -223 -215q60 43 60 146q0 44 -45 73q-37 25 -86 25q-48 0 -80 -19q-40 -22 -40 -66q0 -68 84 -86q-18 18 -18 44q0 53 58 53q27 0 42 -20.5t15 -48.5q0 -36 -25 -58.5t-62 -22.5q-50 0 -85 44q-30 40 -30 94q0 30 10.5 56t29 45t44 30t55.5 11
q68 0 114 -40q47 -41 47 -107q0 -82 -17 -91q122 33 122 155q0 75 -102 131l-187 79q-102 43 -102 100q0 34 22 57t56 23q27 0 47 -17t20 -44q0 -21 -17 -38t-38 -17q-36 0 -46 12q8 -30 59 -49l133 -53q185 -74 185 -186z" />
    <glyph glyph-name="u098F" unicode="&#x98f;" horiz-adv-x="648" 
d="M612 173q0 -69 -68 -69q-73 0 -70 85q-37 22 -68 22q-23 0 -80 -28q-56 -28 -89 -28q-48 0 -86.5 15.5t-65.5 44t-41 68.5t-14 88q0 39 11 72q16 48 48 48q54 0 54 -55q0 -70 -67 -70h-18q-1 -5 -1 -10v-11q0 -120 179 -120q26 0 89 23q61 24 93 24q68 0 116 -52v348
q0 33 -43 51q-33 15 -70 15q-75 -2 -145 -46q-80 -51 -80 -120q0 -90 115 -89q10 100 72 100q29 0 48 -17.5t19 -45.5q0 -94 -132 -94q-67 0 -106.5 41t-39.5 107q0 100 75 162q70 55 174 58q53 2 94 -30q46 -34 46 -85v-332q51 -21 51 -70z" />
    <glyph glyph-name="u0990" unicode="&#x990;" horiz-adv-x="726" 
d="M694 625q0 -125 -136 -159v-224q51 -21 51 -70q0 -31 -19 -50t-50 -19q-26 0 -45 15q-23 17 -23 41q0 18 10 41q-10 16 -62 16q-25 0 -94 -29q-66 -28 -101 -28q-98 0 -150 57q-48 55 -48 154q0 38 18 71q22 42 56 42q61 0 61 -61q0 -63 -58 -63q-19 0 -43 18
q-1 -5 -1 -11v-14q0 -126 167 -126q29 0 89 25q62 25 96 25q84 0 119 -34v297q0 45 -39 71q-35 23 -81 23q-73 -1 -131 -38q-68 -42 -68 -112q0 -90 116 -95q6 91 74 91q72 0 72 -63q0 -86 -114 -86q-70 0 -119 42q-53 44 -53 111q0 101 63 155q60 49 162 51q54 0 100 -38
q45 -38 45 -91v-24q108 24 108 84q0 81 -107 120q-121 43 -143 53q-92 45 -92 98q0 78 71 78q69 0 69 -61q0 -47 -72 -57q36 -29 191 -76q111 -33 111 -150z" />
    <glyph glyph-name="u0993" unicode="&#x993;" horiz-adv-x="580" 
d="M550 280q0 -71 -60 -116q-53 -39 -128 -41q-185 -5 -270 207q-38 93 -49 131q-16 54 -16 121q0 26 18 46.5t44 20.5q43 0 43 -56q0 -33 -44 -62q-6 -18 -6 -47q0 -54 22 -111q49 -132 145 -175q40 -18 110 -18q64 0 109 20q60 25 60 82q0 51 -39 77q-25 -31 -61 -31
q-26 0 -48 14q-24 16 -24 41q0 60 74 60q29 0 59 -27q33 31 33 79q0 139 -181 139q-123 0 -133 -85q26 29 58 29q57 0 57 -59q0 -29 -21.5 -45.5t-51.5 -16.5q-31 0 -53 31q-20 29 -20 62q0 69 52 106q46 34 118 34q88 -2 143 -52q56 -51 56 -138q0 -54 -33 -106
q37 -43 37 -114z" />
    <glyph glyph-name="u0994" unicode="&#x994;" horiz-adv-x="754" 
d="M726 594q0 -184 -197 -234q22 -31 22 -80q0 -71 -60 -116q-53 -39 -128 -41q-185 -5 -270 207q-38 93 -49 131q-16 54 -16 121q0 26 18 46.5t44 20.5q43 0 43 -56q0 -33 -44 -62q-6 -18 -6 -47q0 -54 22 -111q49 -132 145 -175q40 -18 110 -18q64 0 109 20q60 25 60 82
q0 51 -39 77q-25 -31 -61 -31q-26 0 -48 15q-25 16 -25 42q0 58 75 58q29 0 59 -27q33 31 33 79q0 139 -181 139q-123 0 -135 -80q12 11 58 21q26 2 42.5 -14t16.5 -42q0 -62 -73 -62q-30 0 -53 32q-20 29 -20 61q0 69 52 106q46 34 118 34q88 -2 143 -52q56 -51 56 -137
q0 -30 -18 -85q164 59 164 180q0 95 -89 133q-16 7 -44 13t-69 13q-76 12 -107 28q-47 24 -47 73q0 64 72 64q61 0 61 -53q0 -26 -33 -53q163 -27 225 -85q36 -32 49 -59q15 -29 15 -76z" />
    <glyph glyph-name="u0995" unicode="&#x995;" horiz-adv-x="752" 
d="M439 506q-34 -8 -75 -21t-91 -32q-1 -1 -139 -61q119 -20 179 -48q78 -40 126 -97v259zM765 634h-294v-53q94 -15 156 -54q80 -51 80 -134q0 -64 -29 -108q-35 -50 -97 -50q-24 0 -43.5 18t-19.5 42t16.5 44.5t40.5 20.5q39 0 56 -35q54 3 54 69q0 104 -214 116v-268
q60 -24 60 -73q0 -30 -25 -47.5t-56 -17.5q-83 0 -83 69q0 36 25 52q-22 21 -98 68q-50 22 -162 33q-95 11 -95 49q0 37 70 77q13 7 39 19.5t66 30.5q102 46 227 77v55h-460v56h786v-56z" />
    <glyph glyph-name="u0996" unicode="&#x996;" horiz-adv-x="628" 
d="M649 634h-122v-391q49 -24 49 -73q0 -29 -23.5 -47.5t-53.5 -18.5q-34 0 -58.5 18t-24.5 51q0 27 27 56q-16 33 -89 66q-81 37 -174 38q-28 -34 -74 -34q-14 0 -27 6t-23.5 15.5t-16.5 22.5t-6 28q0 31 21.5 53.5t53.5 22.5q50 0 71 -47q206 35 206 141q0 49 -39 75
q-51 -113 -167 -113q-44 0 -87 29q-45 31 -51 75v17q0 43 21.5 72t63.5 29q28 0 47 -19.5t19 -47.5q0 -13 -6 -24.5t-16 -20.5t-23 -14t-26 -5q-31 0 -59 40q0 -79 113 -79q109 0 154 119q73 -30 73 -133q0 -124 -121 -176q26 -8 55 -18t61 -21q51 -27 100 -82v512h30v-66
h122v-56z" />
    <glyph glyph-name="u0997" unicode="&#x997;" horiz-adv-x="622" 
d="M636 634h-119v-389q57 -18 57 -73q0 -31 -23.5 -49t-55.5 -18t-56 19t-24 51q0 58 72 70v286q-137 114 -275 114q-57 0 -101 -23q-54 -29 -54 -79q0 -73 46 -76q67 82 148 82q114 0 114 -107q0 -64 -39 -110q-40 -49 -103 -49q-27 0 -48.5 20t-21.5 48q0 30 20.5 49
t50.5 19q49 0 68 -52q51 31 51 74q0 46 -86 46q-69 -1 -148 -85q-78 52 -78 144q0 66 59 116q55 48 125 48q162 0 272 -99v145h30v-66h119v-56z" />
    <glyph glyph-name="u0998" unicode="&#x998;" horiz-adv-x="578" 
d="M450 634h-280q-88 -22 -88 -81q0 -83 135 -81l73 44l34 -62l-175 -102q86 0 146 -20q88 -30 155 -89v391zM590 634h-110v-391q28 -11 39.5 -27.5t12.5 -42.5q0 -11 -5 -24t-19 -23q-27 -18 -51 -18q-30 0 -55 14q-28 16 -28 45q0 39 35 65q-34 43 -143 61q-39 7 -78 10.5
t-79 2.5q-18 -5 -31 -5q-43 0 -43 33q0 25 34 44l80 58q-88 51 -88 117q0 62 31 81h-105v56h603v-56z" />
    <glyph glyph-name="u0999" unicode="&#x999;" horiz-adv-x="600" 
d="M436 574q0 32 -14 46t-42 14q-38 0 -54 -14t-17 -46v-64h38q89 0 89 64zM572 379q0 -103 -62 -176q-65 -75 -167 -75q-143 0 -259 206q-63 115 -63 237q0 61 50 61q51 0 51 -49q0 -51 -55 -61q8 -188 127 -281q68 -53 150 -53q81 0 142 55q62 56 62 136q0 40 -13 56
q-63 -141 -173 -141q-69 0 -79 97v75q-57 4 -101 52q-43 46 -43 104q0 19 15 37.5t34 18.5q62 -2 62 -56q0 -44 -52 -53q9 -12 31 -33q15 -8 28.5 -14.5t25.5 -11.5v81q0 99 94 99q42 0 66 -34q22 -28 22 -73q0 -57 -30.5 -89.5t-87.5 -32.5h-38v-70q16 -46 49 -46
q82 0 116 64q7 10 18 71q6 36 32 36q25 0 39 -59q9 -38 9 -78z" />
    <glyph glyph-name="u099A" unicode="&#x99a;" horiz-adv-x="481" 
d="M409 394q0 61 -118 61q-18 0 -47 -7q-28 -7 -45 -7q-92 -2 -133 96v-156q0 -44 60 -83q53 -34 101 -34q85 0 123 18q59 29 59 112zM494 634h-428v-51q36 -73 126 -73q12 0 34 5t34 5q69 0 114 -22q61 -28 61 -89q0 -108 -56 -169.5t-162 -61.5q-70 0 -128 57
q-52 52 -52 99v300h-52v56h509v-56z" />
    <glyph glyph-name="u099B" unicode="&#x99b;" horiz-adv-x="660" 
d="M302 511q-70 -14 -93 -14q-87 0 -142 46v-52q0 -83 98 -83q131 0 137 103zM675 634h-608v-49q73 -43 140 -43q11 0 25.5 1.5t33.5 5.5t33.5 5.5t24.5 1.5q61 0 96 -31q40 -33 40 -92q0 -112 -144 -158q85 -23 144 -44t93 -38q62 -33 62 -77q0 -27 -20 -44.5t-47 -17.5
q-22 0 -41 16t-19 38q0 34 26 57q-167 81 -292 81q-14 0 -36.5 -1.5t-51.5 -3.5q-48 -5 -54 21q-6 30 46 34q20 2 55.5 5t89.5 8q53 10 100 39q61 37 61 81q0 76 -100 77q-31 -157 -168 -157q-54 0 -90 30t-36 84v171h-55v56h692v-56z" />
    <glyph glyph-name="u099C" unicode="&#x99c;" horiz-adv-x="766" 
d="M777 634h-336q34 -102 147 -102q12 0 33 7t35 7q32 0 32 -32q0 -25 -44 -42q-68 -95 -68 -159q0 -56 27 -101q22 27 44 27q60 0 60 -59q0 -23 -17.5 -40t-40.5 -17q-32 -3 -57 21q-48 46 -48 175q0 76 59 162q-33 2 -63 14t-55 32t-44 47t-29 60h-52q-169 -67 -169 -151
q0 -56 96 -56q37 0 68 40q30 39 38 41q26 5 41 -41q11 -33 11 -65q0 -81 -46 -137q-49 -61 -127 -61q-146 0 -213 177q-19 48 -24 73q-2 14 -3.5 33t-1.5 44q0 13 4 26t11.5 23.5t17.5 17t22 6.5q56 0 56 -54q0 -45 -73 -52q-4 -8 -4 -26q0 -54 28.5 -102.5t74.5 -74.5
q49 -27 105 -27q71 0 114 49q35 38 35 77q0 35 -6 41q-40 -73 -124 -73q-26 0 -48 9.5t-37.5 26t-24.5 38.5t-9 48q0 95 88 150h-280v56h797v-56z" />
    <glyph glyph-name="u099D" unicode="&#x99d;" horiz-adv-x="746" 
d="M438 516q-40 -12 -86 -27t-99 -34q-19 -7 -51.5 -22t-80.5 -40q23 -4 42.5 -7t35.5 -7q22 -5 41 -10t35 -12q107 -43 163 -113v272zM764 634h-119v-391q56 -35 56 -70q0 -31 -21.5 -50t-53.5 -19q-35 -1 -59 17.5t-24 53.5q0 40 42 57q-53 72 -119 73v-61q57 -20 57 -74
q0 -31 -23.5 -48.5t-55.5 -17.5q-82 0 -82 69q0 39 35 57q-22 36 -121 79q-9 4 -44 9.5t-98 12.5q-96 11 -103 48q-9 49 162 126q48 21 108.5 40.5t136.5 36.5v52h-459v56h487v-327q98 -41 147 -119v512h32v-66h119v-56z" />
    <glyph glyph-name="u099E" unicode="&#x99e;" horiz-adv-x="860" 
d="M539 568q0 33 -43 51q-33 15 -70 15q-75 -2 -145 -46q-80 -51 -80 -120q0 -90 115 -89q10 100 72 100q29 0 48 -17.5t19 -45.5q0 -94 -132 -94q-67 0 -106.5 41t-39.5 107q0 100 75 162q70 55 174 58q53 2 94 -30q46 -34 46 -85v-49q76 105 146 108q50 2 83 -36
q34 -37 34 -88q0 -44 -41 -73q44 -23 44 -81q0 -54 -29.5 -86t-83.5 -32q-65 0 -153 133v-128q51 -21 51 -70q0 -69 -68 -69q-73 0 -70 85q-37 22 -68 22q-23 0 -79 -28q-57 -28 -90 -28q-48 0 -86.5 15.5t-65.5 44t-41 68.5t-14 88q0 38 11 73q17 47 48 47q54 0 54 -55
q0 -70 -67 -70h-18q-1 -5 -1 -10v-11q0 -120 179 -120q26 0 89 23q61 24 93 24q68 0 116 -52v348zM566 411q88 -118 152 -118q90 0 90 67q0 40 -49 58q-15 -22 -44 -22q-17 0 -29.5 13t-12.5 30q0 42 46 42q27 0 41 -20q48 18 48 47q0 27 -25 51q-24 24 -52 24
q-100 0 -165 -92v-80z" />
    <glyph glyph-name="u099F" unicode="&#x99f;" horiz-adv-x="467" 
d="M485 634h-404v-345q11 -50 85 -50q68 0 152 54q92 60 92 129q0 90 -88 89q12 -20 12 -45q0 -67 -70 -67q-30 0 -51 22t-21 53q0 101 107 101q63 0 99 -42q33 -38 33 -103q0 -122 -91 -195q-78 -63 -178 -63q-21 0 -40.5 7t-34 19.5t-23.5 30t-9 38.5v367h-73v56h402
q5 17 5 31q0 69 -101 69q-34 0 -106 -23q-69 -22 -107 -22q-32 0 -57.5 10.5t-43.5 29t-27.5 44.5t-9.5 57q0 19 5.5 37.5t16 32t25.5 22t33 8.5q61 0 61 -63q0 -58 -63 -58q-41 0 -50 35q-6 -95 106 -95q37 0 108 21q70 21 108 21q128 0 128 -114q0 -22 -6 -43h76v-56z" />
    <glyph glyph-name="u09A0" unicode="&#x9a0;" horiz-adv-x="566" 
d="M502 371q0 148 -211 235q11 -41 11 -58q0 -91 -49.5 -141t-142.5 -50q-18 0 -37 12q34 -159 222 -159q75 0 137 42q70 46 70 119zM582 634h-251q195 -95 195 -255q0 -108 -55 -167q-58 -64 -163 -64q-149 0 -226 113q-52 75 -50 141q0 10 4 21.5t11 20.5t16.5 15t19.5 6
q46 0 56 -31q135 25 135 107q0 67 -47 93h-245v56h209q-62 53 -62 104q0 50 47 76q37 22 91 22q16 0 30.5 -5.5t26 -15t18 -23t6.5 -28.5q0 -31 -22 -47.5t-54 -16.5q-31 0 -52 20.5t-26 51.5q-12 1 -19.5 -3t-12.5 -10t-7 -12t-2 -9q0 -51 107 -104h322v-56z" />
    <glyph glyph-name="u09A1" unicode="&#x9a1;" horiz-adv-x="584" 
d="M605 634h-312v-139q7 -61 75 -61q44 0 64 32q3 4 21 60q10 33 35 33q26 0 41 -67q10 -43 10 -86q0 -108 -61 -179q-65 -77 -168 -77q-79 0 -150 62q-63 55 -96 134.5t-33 178.5q0 28 18.5 50t46.5 22q52 0 52 -56q0 -40 -62 -57q0 -83 12 -128q19 -69 80 -108
q56 -35 131 -35q90 0 156 71q57 61 57 119q0 64 -22 89q-38 -125 -126 -125q-96 0 -111 121v146h-282v56h624v-56z" />
    <glyph glyph-name="u09A2" unicode="&#x9a2;" horiz-adv-x="504" 
d="M521 634h-441v-320q0 -33 30 -54q26 -19 62 -19q85 0 167 46q101 56 101 142q0 65 -89 79q8 -21 8 -36t-6.5 -28.5t-18 -24t-25.5 -16.5t-29 -6q-33 0 -57 23.5t-24 56.5q0 48 38 74q33 24 84 24q66 0 104.5 -42.5t38.5 -109.5q0 -119 -111 -191q-89 -58 -191 -58
q-25 0 -46 9.5t-36 26t-23.5 39t-8.5 47.5v338h-70v56h543v-56z" />
    <glyph glyph-name="u09A3" unicode="&#x9a3;" horiz-adv-x="580" 
d="M601 634h-131v-390q55 -19 55 -72q0 -31 -23.5 -49t-55.5 -18q-79 0 -79 72q0 57 75 68v269q-109 117 -227 120q-60 1 -108 -28q-52 -34 -52 -93q0 -78 63 -102q24 96 91 96q108 0 108 -89q0 -56 -40 -86q-34 -25 -92 -25q-69 0 -112 69q-38 61 -38 132q0 80 53 141
q52 61 133 61q142 0 221 -112v164h22v-72h137v-56z" />
    <glyph glyph-name="u09A4" unicode="&#x9a4;" horiz-adv-x="636" 
d="M597 384q0 -103 -62 -167q-62 -62 -165 -62q-81 0 -153 48q-66 43 -111 117q-73 118 -73 198q0 12 5.5 24.5t14.5 22t20.5 15.5t23.5 6q58 0 58 -65q0 -50 -75 -69q23 -74 49 -106q49 -63 101 -91q56 -29 134 -29q85 0 141 37q68 44 68 123q0 93 -135 119q14 -33 14 -44
q0 -29 -24.5 -46t-54.5 -17q-32 0 -55.5 21t-23.5 52q0 48 40 73q34 22 86 22q75 0 126 -53t51 -129zM655 634h-670v56h670v-56z" />
    <glyph glyph-name="u09A5" unicode="&#x9a5;" horiz-adv-x="606" 
d="M631 634h-113v-388q54 -23 54 -74q0 -29 -23.5 -48.5t-53.5 -19.5q-34 0 -58.5 21t-24.5 54q0 25 28 50q-25 28 -127 54q-21 5 -39 8.5t-32 5.5q-17 2 -47 0h-52q-85 0 -85 35q0 33 28 43l73 18q172 57 172 141q0 60 -46 94q-43 29 -105 29q-43 0 -75 -19
q-42 -23 -42 -60q0 -62 74 -73q-23 21 -23 50q0 26 18.5 43t44.5 17q27 0 48.5 -20t21.5 -47q0 -91 -104 -91q-47 0 -78 37t-31 86q0 58 47 97q46 37 105 37q87 0 134.5 -45.5t47.5 -132.5q0 -130 -188 -190q71 7 144 -16q105 -34 162 -85v511h32v-66h113v-56z" />
    <glyph glyph-name="u09A6" unicode="&#x9a6;" horiz-adv-x="590" 
d="M611 634h-492v-259q55 41 102.5 72t89.5 53q62 32 119 32q49 0 72 -29q3 -5 3 -11q0 -7 -51 -83q-51 -75 -51 -113q0 -93 32 -123q19 37 62 37q58 0 58 -68q0 -66 -69 -66q-65 0 -95 89q-21 61 -21 131q0 100 74 180q-22 -4 -37.5 -6.5t-25.5 -4.5q-17 -5 -32 -10
t-26 -12q-42 -26 -82 -53t-78 -55q8 -18 8 -36q-2 -62 -75 -63q-29 -1 -48 19.5t-19 49.5q0 58 57 69v260h-104v56h629v-56z" />
    <glyph glyph-name="u09A7" unicode="&#x9a7;" horiz-adv-x="574" 
d="M429 493q-29 -8 -70 -20.5t-95 -31.5q-44 -17 -129 -60q54 -7 90 -14.5t53 -17.5q88 -46 151 -106v250zM591 634h-125v-386q55 -22 55 -80q0 -31 -24.5 -47.5t-55.5 -16.5q-33 0 -56.5 19.5t-23.5 51.5q0 26 23 52q-6 25 -104 73q-19 9 -88 18q-78 10 -105 18
q-50 14 -50 41q0 45 123 92q-114 70 -114 165q0 48 29 79t77 31q93 0 93 -86q0 -16 -7 -30t-18.5 -24t-26.5 -15.5t-31 -5.5q-54 0 -76 42q34 -113 148 -127l195 64v128h162v-56z" />
    <glyph glyph-name="u09A8" unicode="&#x9a8;" horiz-adv-x="578" 
d="M592 634h-122v-389q56 -20 56 -69q0 -32 -24 -52t-57 -20t-56.5 20.5t-23.5 52.5q0 34 38 58q-23 42 -37.5 67t-20.5 35q-85 130 -180 130q-118 0 -118 -78q0 -32 40 -54q18 72 66 72q28 0 50.5 -19t22.5 -46q0 -78 -85 -78q-46 0 -80 39q-34 38 -34 85q0 141 138 141
q104 0 210 -172q11 -17 18.5 -30.5t13.5 -25t11 -22t11 -22.5v377h-454v56h617v-56z" />
    <glyph glyph-name="u09AA" unicode="&#x9aa;" horiz-adv-x="636" 
d="M400 566l-150 68q-68 5 -110 -40q118 4 118 -101v-31zM667 634h-122v-391q54 -20 54 -67q0 -32 -23.5 -52t-56.5 -20q-80 0 -80 71q0 56 74 68v236q-28 31 -70 57l-156 -112q21 -23 21 -52q0 -59 -77 -59q-64 0 -64 63q0 16 31 56q14 40 14 65q0 59 -59 59q-14 0 -43 -23
q-28 -22 -34 -22q-37 0 -37 45q0 37 56 82q64 50 148 52q130 1 270 -147v213h32v-66h122v-56z" />
    <glyph glyph-name="u09AB" unicode="&#x9ab;" horiz-adv-x="740" 
d="M758 634h-602q71 -36 143 -192q-36 -29 -75 -57l-72 -53q12 2 25.5 3.5t28.5 1.5q124 0 210 -85v309q9 1 19.5 1.5t22.5 0.5q96 0 158 -32q78 -41 78 -130q0 -51 -30 -88q-32 -41 -82 -41q-34 0 -65 23q-29 24 -29 58q0 27 19.5 46t46.5 19q70 0 69 -75q49 19 49 59
q0 114 -224 106v-263q55 -24 55 -70q0 -70 -83 -70q-76 0 -77 64q-2 46 41 62q-12 26 -82 42q-40 10 -95 10q-47 0 -93 -8q-14 -3 -30 -3q-43 0 -43 28q0 26 90 92l112 80q-6 10 -15 22.5t-22 28.5q-9 12 -36 31q-26 -39 -69 -39q-32 0 -52.5 18t-20.5 49q0 28 29 52l-79 -2
v56l780 2v-56z" />
    <glyph glyph-name="u09AC" unicode="&#x9ac;" horiz-adv-x="554" 
d="M412 517q-215 -66 -264 -117q163 -56 264 -162v279zM573 634h-130v-388q54 -23 54 -73q0 -31 -25.5 -50t-56.5 -19q-26 0 -52 19q-26 20 -26 44q0 35 27 61q-71 88 -257 122q-69 13 -69 39q2 50 157 117q32 14 86.5 33t130.5 44v51h-434v56h595v-56z" />
    <glyph glyph-name="u09AD" unicode="&#x9ad;" horiz-adv-x="642" 
d="M593 401q0 -121 -60 -199q-65 -86 -183 -86q-77 0 -150 54q-67 49 -107 122q-66 120 -66 218q0 28 18 49.5t45 21.5q24 0 39.5 -17t15.5 -41q0 -55 -76 -74q8 -28 21.5 -63t31.5 -80q16 -25 39.5 -45t51.5 -34t58.5 -21.5t61.5 -7.5q83 0 155 54q79 58 79 139
q0 53 -14 81q-96 -143 -224 -143q-63 0 -102.5 36t-39.5 97q0 57 41 95t99 38q102 0 102 -77q0 -13 -6 -25t-15.5 -21t-22 -14t-25.5 -5q-68 0 -80 69q-69 -17 -69 -64q0 -32 41 -49q30 -13 70 -13q77 0 147 73q45 46 71 97q53 -109 53 -165zM657 634h-687v56h687v-56z" />
    <glyph glyph-name="u09AE" unicode="&#x9ae;" horiz-adv-x="580" 
d="M433 634h-313q146 -12 146 -172q0 -15 -3 -22q119 -63 170 -201v395zM592 634h-127v-395q57 -9 57 -70q0 -33 -34 -52q-23 -13 -48 -13q-34 0 -56 16q-25 18 -25 50q0 29 35 61q-46 102 -140 150q-29 -81 -110 -81q-40 0 -66.5 27t-26.5 67q0 18 7.5 34t20.5 27.5
t30 18.5t36 7q52 0 92 -32q5 15 5 32q0 47 -45 74q-37 23 -86 23q-3 0 -9 -2.5t-13 -5l-14 -5t-13 -2.5q-39 0 -39 39q0 14 24 32h-69v56h614v-56z" />
    <glyph glyph-name="u09AF" unicode="&#x9af;" horiz-adv-x="586" 
d="M439 634h-319q30 -11 113 -72q21 -16 45 -41.5t51 -62.5q-19 -11 -42 -24.5t-51 -30.5l-94 -57q183 0 297 -108v396zM602 634h-130v-393q56 -21 56 -68q0 -15 -7 -28t-19 -22t-27 -14t-31 -5q-26 0 -51 18q-28 19 -28 43q0 34 21 55q-32 39 -132 60q-37 8 -74 12t-74 4
q-51 0 -64 25q-3 7 -3 13q0 26 45 52q28 16 69 39.5t96 55.5q-11 13 -36 36q-11 8 -24.5 15t-30.5 14q-21 -37 -67 -37q-25 0 -46 16t-21 40q0 49 39 69h-87v56h626v-56z" />
    <glyph glyph-name="u09B0" unicode="&#x9b0;" horiz-adv-x="562" 
d="M255 185q0 -25 -17 -41t-42 -16q-24 0 -41 16.5t-17 40.5t17 41t41 17q25 0 42 -16.5t17 -41.5zM412 517q-215 -66 -264 -117q163 -56 264 -162v279zM577 634h-134v-388q54 -23 54 -73q0 -32 -25 -50.5t-57 -18.5q-26 0 -52 19q-26 20 -26 44q0 35 27 61q-71 88 -257 122
q-69 13 -69 39q2 50 157 117q32 14 86.5 33t130.5 44v51h-430v56h595v-56z" />
    <glyph glyph-name="u09B2" unicode="&#x9b2;" horiz-adv-x="652" 
d="M668 634h-138v-391q56 -23 56 -66q0 -32 -23.5 -52.5t-56.5 -20.5q-35 0 -58.5 20t-23.5 53q0 56 70 66v186q-32 68 -97 68q-23 0 -48 -19q27 -17 27 -41q0 -31 -24 -48t-55 -17q-30 0 -53 18t-23 47q0 27 30 48q-28 26 -60 26q-58 0 -92 -32.5t-34 -90.5q0 -83 66 -108
q13 78 80 78q88 0 88 -78q0 -36 -26 -59t-63 -23q-80 0 -126 57q-43 52 -43 135q0 74 36 124q40 57 112 57q75 0 113 -53q37 46 99 46q59 0 93 -46v116h-515v56h689v-56z" />
    <glyph glyph-name="u09B6" unicode="&#x9b6;" horiz-adv-x="528" 
d="M544 634h-114v-392q54 -27 54 -70q0 -31 -23 -50t-55 -19q-34 0 -58 20.5t-24 52.5q0 28 21 45.5t50 20.5v262q-86 129 -143 129q-42 0 -76 -43q96 -77 96 -132q0 -22 -16.5 -37t-38.5 -15t-38 13.5t-16 34.5q0 27 27 44q-2 6 -6 15t-10 22q-5 7 -13 14.5t-19 17.5
q-11 -8 -28 -28q-13 -24 -14 -37q23 -17 23 -45q0 -50 -55 -50q-47 0 -47 59q0 49 86 124q-7 8 -15 16.5t-23 18.5q-13 7 -37 8t-41 1v56q45 1 84.5 -16t66.5 -54q67 69 111 69q49 4 142 -108v175h35v-66h114v-56z" />
    <glyph glyph-name="u09B7" unicode="&#x9b7;" horiz-adv-x="566" 
d="M426 330l-129 117l-86 -50q-22 -13 -42.5 -27t-39.5 -30q60 -6 142 -18q99 -34 155 -87v95zM426 634h-298q35 -14 122 -77q38 -28 176 -181v258zM583 634h-125v-399q55 -16 55 -68q0 -29 -24 -45.5t-54 -16.5q-32 0 -57 16q-28 18 -28 49q0 21 38 50q-37 35 -131 59
q-19 5 -45.5 7t-60.5 1q-19 -1 -33.5 -1h-25.5q-59 0 -59 34q0 36 120 107q19 11 43 25.5t53 33.5q-16 18 -58 52l-31 19q-4 -52 -66 -52q-28 0 -47 17.5t-19 45.5q0 57 51 66h-100v56h604v-56z" />
    <glyph glyph-name="u09B8" unicode="&#x9b8;" horiz-adv-x="601" 
d="M481 634h-289q100 -37 100 -144q0 -10 -0.5 -25t-1.5 -35q63 89 110 89q35 0 81 -52v167zM620 634h-107v-390q53 -20 53 -71q0 -30 -23 -49t-54 -19q-81 0 -81 69q0 63 73 70v152q-50 59 -75 59q-24 0 -59 -50q-17 -26 -63 -90q-55 -76 -146 -76q-21 0 -39.5 7t-33 19
t-23 29t-8.5 38q0 30 19 52t49 22q28 0 50 -16t22 -44q0 -53 -36 -75q130 33 130 173q0 141 -117 141q-8 0 -31 -16q-24 -15 -40 -15q-46 0 -46 41q0 16 23 39h-75v56h638v-56z" />
    <glyph glyph-name="u09B9" unicode="&#x9b9;" horiz-adv-x="603" 
d="M570 98q0 -22 -10 -41q-15 -31 -48 -31q-23 0 -41 14.5t-18 37.5q0 48 37 64q-68 56 -140 96q-47 26 -187 30q-34 -31 -65 -31q-70 0 -70 62q0 24 24 39q22 15 47 15q24 0 69 -27q244 7 244 116q0 95 -166 95q-42 0 -81 -19q24 -26 24 -61q0 -29 -27 -45q-23 -14 -53 -14
q-34 0 -57.5 21.5t-23.5 53.5q0 77 94 99l-41 62h-102v56h645v-56h-485l37 -46h45q80 0 140 -28q78 -36 78 -107q0 -143 -172 -150q179 -51 236 -100q34 -28 47 -46q20 -28 20 -59z" />
    <glyph glyph-name="u09BC" unicode="&#x9bc;" 
d="M131 -133q0 -25 -17 -41t-42 -16q-24 0 -41 16.5t-17 40.5t17 41t41 17q25 0 42 -16.5t17 -41.5z" />
    <glyph glyph-name="u09BD" unicode="&#x9bd;" horiz-adv-x="550" 
d="M244 477q71 0 123 -34q61 -39 61 -107q0 -146 -147 -150l97 -43q94 -46 134 -103q20 -28 20 -59q0 -29 -14 -49q-15 -24 -43 -24q-23 0 -41.5 15t-18.5 38q0 47 38 64q-38 56 -112 96q-46 25 -165 29q-35 -30 -64 -30q-71 0 -71 61q0 23 24 40q22 15 48 15q24 0 69 -27
q219 7 219 116q0 95 -124 95q-43 0 -82 -19q24 -27 24 -62q0 -28 -27 -44q-24 -15 -52 -15q-35 0 -57 21t-21 55q0 64 63 96q46 25 119 25z" />
    <glyph glyph-name="u09BE" unicode="&#x9be;" horiz-adv-x="233" 
d="M247 634h-106v-389q55 -22 55 -75q0 -31 -24.5 -48.5t-55.5 -17.5q-33 0 -56 19.5t-23 50.5q0 28 20 46.5t49 22.5v277l-78 113l-46 1v56h47l77 -108v197l9 1l17 -90h115v-56z" />
    <glyph glyph-name="u09BF" unicode="&#x9bf;" horiz-adv-x="220" 
d="M-18 634v56h108q-15 0 -34 33q-20 35 -20 49q0 40 95 96q89 53 136 53q91 0 192 -33q135 -44 135 -117q0 -56 -52 -56q-25 0 -41 13q-20 14 -20 37q0 45 51 53q-76 52 -259 52q-44 0 -115 -47q-65 -44 -65 -60q0 -29 47 -73h99v-56h-116v-391q60 -32 60 -64t-23 -53.5
t-55 -21.5q-84 0 -84 73q0 54 69 66v391h-108z" />
    <glyph glyph-name="u09C0" unicode="&#x9c0;" horiz-adv-x="220" 
d="M-41 849q-69 33 -164 33q-211 0 -211 -60q0 -25 91 -25q25 0 69 10t70 10q77 0 77 -63q0 -23 -18.5 -36.5t-42.5 -13.5q-62 0 -62 41q0 23 6 26q-58 -13 -104 -12q-64 2 -86 11q-40 16 -40 58q0 91 246 91q133 0 203 -47l35 -23q85 -57 97 -159h111v-56h-111v-389
q57 -23 57 -71q0 -32 -22.5 -50.5t-54.5 -18.5q-33 0 -57.5 20t-24.5 52q0 50 66 67v390h-97v56h97q-7 24 -23 51q-35 64 -66 83z" />
    <glyph glyph-name="u09C1" unicode="&#x9c1;" 
d="M115 -222q0 -22 -17.5 -38t-39.5 -16q-25 0 -45 15t-20 39q0 50 49 57q1 21 -26 53q-28 31 -49 32q-31 -64 -87 -64q-80 0 -80 74q0 33 25 51q23 17 56 17q44 0 70 -23q18 52 18 93l31 -2q0 -37 -16 -114q48 -30 89 -80q42 -50 42 -94z" />
    <glyph glyph-name="u09C2" unicode="&#x9c2;" 
d="M129 -203q0 -25 -18 -39t-44 -14q-21 0 -39 15.5t-18 36.5q0 37 36 60q-12 12 -39 33q-8 4 -19 6.5t-27 4.5q-57 -48 -111 -48q-49 0 -80 24q-34 27 -34 74q0 111 178 102v63h30v-111q-5 -1 -12 -1h-15q-157 0 -157 -53q0 -45 85 -45q41 0 102 40q14 -4 34.5 -13.5
t48.5 -23.5q16 -10 32.5 -20.5t34.5 -23.5q32 -29 32 -67z" />
    <glyph glyph-name="u09C3" unicode="&#x9c3;" 
d="M33 -250q0 -46 -49 -46t-49 42q0 27 17 39q-23 57 -95 57q-19 0 -49 -10q-32 -9 -49 -9q-60 0 -60 40q0 11 15.5 29.5t40 40.5t55 45.5t60.5 45.5t56 40t43 29v-65l-193 -142q12 2 23.5 3t22.5 1q61 0 108 -21q103 -45 103 -119z" />
    <glyph glyph-name="u09C4" unicode="&#x9c4;" 
d="M8 -440q0 -46 -49 -46t-49 42q0 27 17 39q-23 57 -95 57q-19 0 -49 -10q-32 -9 -49 -9q-60 0 -60 40q0 15 18 36t45 44.5t59 46.5t59 42h-11q-19 0 -49 -10q-32 -9 -49 -9q-60 0 -60 40q0 11 15.5 29.5t40 40.5t55 45.5t60.5 45.5t56 40t43 29v-65l-193 -142q12 2 23.5 3
t22.5 1q61 0 108 -21q103 -45 103 -119q0 -46 -49 -46t-49 42q0 27 17 39q-8 22 -22 33l-166 -122q12 2 23.5 3t22.5 1q61 0 108 -21q103 -45 103 -119z" />
    <glyph glyph-name="u09C7" unicode="&#x9c7;" horiz-adv-x="335" 
d="M355 634h-143q-149 -140 -149 -291q0 -120 127 -166q-32 18 -32 61q0 13 6.5 25t17 21t24 14.5t27.5 5.5q13 0 27 -5.5t24.5 -15.5t17.5 -22.5t7 -25.5q0 -114 -120 -112q-68 0 -115 77q-40 67 -40 140q0 159 99 294h-156v56h378v-56z" />
    <glyph glyph-name="u09C8" unicode="&#x9c8;" horiz-adv-x="350" 
d="M368 634h-146q-158 -140 -158 -288q0 -131 114 -156q-17 32 -17 52q0 59 78 59q34 0 58.5 -22.5t24.5 -55.5q0 -103 -131 -100q-70 1 -116 80q-39 67 -39 142q0 168 106 289h-159v56h239q5 0 5 16q0 64 -66 64q-15 0 -46 -6q-32 -6 -46 -6q-51 0 -88 23q-41 29 -41 77
q0 26 13 47t40 21q54 0 54 -49q0 -15 -15 -26t-32 -11q-19 0 -32 13q-3 -58 94 -58q20 0 51 10q33 10 51 10q82 0 82 -88v-37h122v-56z" />
    <glyph glyph-name="u09CB" unicode="&#x9cb;" horiz-adv-x="987" 
d="M733 532q0 -26 -25 -26q-27 0 -27 26q0 27 27 27q25 0 25 -27zM662 580q0 -26 -26 -26q-27 0 -27 26t27 26q26 0 26 -26zM781 461q0 -27 -26 -27t-26 27q0 25 27 25q25 0 25 -25zM799 376q0 -25 -25 -25q-28 0 -28 25q0 26 28 26q25 0 25 -26zM578 597q0 -26 -27 -26
q-26 0 -26 26t26 26q27 0 27 -26zM493 580q0 -26 -26 -26q-25 0 -25 26t25 26q26 0 26 -26zM781 292q0 -26 -26 -26t-26 26q0 27 26 27t26 -27zM422 532q0 -26 -26 -26q-27 0 -27 25q0 28 27 28q26 0 26 -27zM733 220q0 -26 -25 -26q-27 0 -27 26q0 27 27 27q25 0 25 -27z
M662 172q0 -25 -26 -25q-27 0 -27 25q0 27 27 27q26 0 26 -27zM374 461q0 -27 -25 -27q-27 0 -27 27q0 25 26 25t26 -25zM357 376q0 -25 -25 -25q-28 0 -28 25q0 26 28 26q25 0 25 -26zM578 156q0 -26 -27 -26q-26 0 -26 26t26 26q27 0 27 -26zM374 292q0 -26 -26 -26
t-26 26q0 27 26 27t26 -27zM493 174q0 -27 -26 -27q-25 0 -25 25q0 27 25 27q26 0 26 -25zM422 220q0 -26 -26 -26q-27 0 -27 26q0 27 27 27q26 0 26 -27zM355 634h-143q-149 -140 -149 -291q0 -120 127 -166q-32 18 -32 61q0 13 6.5 25t17 21t24 14.5t27.5 5.5
q13 0 27 -5.5t24.5 -15.5t17.5 -22.5t7 -25.5q0 -114 -120 -112q-68 0 -115 77q-40 67 -40 140q0 159 99 294h-156v56h378v-56zM1007 634h-115v-389q55 -22 55 -75q0 -31 -24.5 -48.5t-55.5 -17.5q-33 0 -56 19.5t-23 50.5q0 28 20 46.5t49 22.5v277l-78 113l-46 1v56h47
l77 -108v197l9 1l17 -90h124v-56z" />
    <glyph glyph-name="u09CC" unicode="&#x9cc;" horiz-adv-x="985" 
d="M733 532q0 -26 -25 -26q-27 0 -27 26q0 27 27 27q25 0 25 -27zM662 580q0 -26 -26 -26q-27 0 -27 26t27 26q26 0 26 -26zM781 461q0 -27 -26 -27t-26 27q0 25 27 25q25 0 25 -25zM799 376q0 -25 -25 -25q-28 0 -28 25q0 26 28 26q25 0 25 -26zM578 597q0 -26 -27 -26
q-26 0 -26 26t26 26q27 0 27 -26zM493 580q0 -26 -26 -26q-25 0 -25 26t25 26q26 0 26 -26zM781 292q0 -26 -26 -26t-26 26q0 27 26 27t26 -27zM422 532q0 -26 -26 -26q-27 0 -27 25q0 28 27 28q26 0 26 -27zM733 220q0 -26 -25 -26q-27 0 -27 26q0 27 27 27q25 0 25 -27z
M662 172q0 -25 -26 -25q-27 0 -27 25q0 27 27 27q26 0 26 -27zM374 461q0 -27 -25 -27q-27 0 -27 27q0 25 26 25t26 -25zM357 376q0 -25 -25 -25q-28 0 -28 25q0 26 28 26q25 0 25 -26zM578 156q0 -26 -27 -26q-26 0 -26 26t26 26q27 0 27 -26zM374 292q0 -26 -26 -26
t-26 26q0 27 26 27t26 -27zM493 174q0 -27 -26 -27q-25 0 -25 25q0 27 25 27q26 0 26 -25zM422 220q0 -26 -26 -26q-27 0 -27 26q0 27 27 27q26 0 26 -27zM355 634h-143q-149 -140 -149 -291q0 -120 127 -166q-32 18 -32 61q0 13 6.5 25t17 21t24 14.5t27.5 5.5
q13 0 27 -5.5t24.5 -15.5t17.5 -22.5t7 -25.5q0 -114 -120 -112q-68 0 -115 77q-40 67 -40 140q0 159 99 294h-156v56h378v-56zM875 690h125v-56h-114v-389q55 -22 55 -75q0 -31 -24.5 -48.5t-55.5 -17.5q-33 0 -56 19.5t-23 50.5q0 28 20 46.5t49 22.5v277l-78 113l-40 1
v56h41l77 -108v139q0 54 -50 72q-32 12 -95 12q-41 0 -123 -21q-81 -21 -122 -21q-144 0 -144 141q0 97 98 97q53 0 53 -69q0 -51 -51 -51q-54 0 -76 43q4 -105 112 -105q40 0 121 25t125 25q95 0 141 -55q35 -41 35 -90v-34z" />
    <glyph glyph-name="u09CD" unicode="&#x9cd;" 
d="M-9 -97q0 -24 -17.5 -40.5t-41.5 -16.5q-25 0 -41.5 16t-16.5 41q0 8 5 25l-162 114l47 43l134 -134q21 10 34 10q24 0 41.5 -17t17.5 -41z" />
    <glyph glyph-name="u09D7" unicode="&#x9d7;" horiz-adv-x="236" 
d="M130 690h127v-56h-116v-389q55 -22 55 -75q0 -31 -24.5 -48.5t-55.5 -17.5q-33 0 -56 19.5t-23 50.5q0 28 20 46.5t49 22.5v277l-78 113l-40 1v56h41l77 -108v139q0 54 -50 72q-32 12 -95 12q-41 0 -123 -21q-81 -21 -122 -21q-144 0 -144 141q0 97 98 97q53 0 53 -69
q0 -51 -51 -51q-54 0 -76 43q4 -105 112 -105q40 0 121 25t125 25q95 0 141 -55q35 -41 35 -90v-34z" />
    <glyph glyph-name="u09DC" unicode="&#x9dc;" horiz-adv-x="585" 
d="M366 44q0 -25 -17 -41.5t-42 -16.5q-24 0 -41 17t-17 41t17 41t41 17q25 0 42 -16.5t17 -41.5zM608 634h-311v-139q7 -61 75 -61q44 0 64 32q3 4 21 60q10 33 35 33q26 0 41 -67q10 -43 10 -86q0 -108 -61 -179q-65 -77 -168 -77q-79 0 -150 62q-63 55 -96 134.5
t-33 178.5q0 28 18.5 50t46.5 22q52 0 52 -56q0 -40 -62 -57q-2 -81 12 -128q21 -69 81 -106q58 -37 130 -37q90 0 152 71q52 59 52 119q0 64 -22 89q-33 -125 -122 -125q-49 0 -80 37q-29 34 -34 84v146h-277v56h626v-56z" />
    <glyph glyph-name="u09DD" unicode="&#x9dd;" horiz-adv-x="496" 
d="M254 44q0 -25 -17 -41.5t-42 -16.5q-24 0 -41 17t-17 41t17 41t41 17q25 0 42 -16.5t17 -41.5zM520 634h-443v-320q0 -33 30 -54q26 -19 62 -19q85 0 167 46q101 56 101 142q0 65 -89 79q8 -21 8 -36t-6.5 -28.5t-18 -24t-25.5 -16.5t-29 -6q-33 0 -57 23.5t-24 56.5
q0 48 38 74q33 24 84 24q66 0 104.5 -42.5t38.5 -109.5q0 -119 -111 -191q-89 -58 -191 -58q-25 0 -46 9.5t-36 26t-23.5 39t-8.5 47.5v338h-66v56h541v-56z" />
    <glyph glyph-name="u09DF" unicode="&#x9df;" horiz-adv-x="590" 
d="M451 634h-319q30 -11 113 -72q21 -16 45 -41.5t51 -62.5q-19 -11 -42 -24.5t-51 -30.5l-94 -57q184 0 297 -109v397zM617 634h-133v-393q56 -21 56 -68q0 -15 -7 -28t-19 -22t-27 -14t-31 -5q-26 0 -51 18q-28 19 -28 43q0 34 21 55q-32 39 -132 60q-37 8 -74 12t-74 4
q-51 0 -64 25q-3 7 -3 13q0 26 45 52q28 16 69 39.5t96 55.5q-11 13 -36 36q-11 8 -24.5 15t-30.5 14q-21 -37 -67 -37q-25 0 -46 16t-21 40q0 49 39 69h-99v56h641v-56zM308 179q0 -25 -17 -41t-42 -16q-24 0 -41 16.5t-17 40.5t17 41t41 17q25 0 42 -16.5t17 -41.5z" />
    <glyph glyph-name="u09E0" unicode="&#x9e0;" horiz-adv-x="764" 
d="M710 129q0 -61 -75 -61q-30 0 -52 16q-25 18 -25 48q0 37 33 61q-15 19 -45 51q-55 57 -104 76v-115q58 -27 58 -70q0 -67 -80 -67q-32 0 -56.5 18.5t-24.5 50.5q0 25 29 52q-27 37 -96 48q-20 2 -49.5 6.5t-67.5 9.5q-89 14 -94 44q-6 42 71 68l105 34q94 43 168 96
l-43 24q-4 2 -41 30q-43 -133 -156 -133q-60 0 -94.5 37.5t-34.5 97.5q0 24 7 46t20.5 38t33 25.5t43.5 9.5q32 0 55.5 -17t23.5 -48q0 -26 -16 -44t-42 -18q-44 0 -51 55q0 1 -2 1q-4 0 -26 -14q-26 -17 -26 -35q0 -32 40 -51q31 -16 68 -16q54 0 86.5 34.5t32.5 88.5
q0 20 -8 46q3 -5 17.5 -23t40.5 -49q25 -22 76 -49v159h33v-308q39 -24 116 -88q17 -19 35 -40.5t36 -47.5l-1 484h156v-56h-123l1 -434q48 -24 48 -71zM409 422q-45 -29 -125 -66q-37 -18 -125 -45q39 -3 137 -31q68 -26 113 -74v216zM275 652v2v-2zM492 -174
q0 -46 -49 -46t-49 42q0 27 17 39q-23 57 -95 57q-19 0 -49 -10q-32 -9 -49 -9q-60 0 -60 40q0 11 15.5 29.5t40 40.5t55 45.5t60.5 45.5t56 40t43 29v-65l-193 -142q12 2 23.5 3t22.5 1q61 0 108 -21q103 -45 103 -119z" />
    <glyph glyph-name="u09E1" unicode="&#x9e1;" horiz-adv-x="518" 
d="M446 -54q0 -89 -110 -106l-4 8q28 22 28 66q0 18 -19 30q-17 11 -38 11q-19 0 -35 -8q-16 -9 -16 -27q0 -24 23 -32q-1 2 -1 6v6q0 30 31 30q15 0 23.5 -11t8.5 -26q0 -19 -13 -31t-32 -12q-27 0 -44 23q-15 19 -15 47q0 30 19.5 50.5t49.5 20.5q17 0 31 -5.5t26 -14.5
q24 -21 24 -54q0 -11 -0.5 -20t-2.5 -14q42 16 42 64q0 33 -44 57v-1q-23 9 -44.5 18.5t-43.5 18.5q-50 22 -50 52q0 17 11 29.5t30 12.5q5 0 11 -2q28 44 28 112q0 44 -45 73q-37 25 -86 25q-48 0 -80 -19q-40 -22 -40 -66q0 -68 84 -86q-18 18 -18 44q0 53 58 53
q27 0 42 -20.5t15 -48.5q0 -36 -25 -58.5t-62 -22.5q-50 0 -85 44q-30 40 -30 94q0 30 10.5 56t29 45t44 30t55.5 11q68 0 114 -40q47 -41 47 -107q0 -82 -17 -91q122 33 122 155q0 75 -102 131l-187 79q-102 43 -102 100q0 34 22 57t56 23q27 0 47 -17t20 -44
q0 -21 -17 -38t-38 -17q-36 0 -46 12q8 -30 59 -49l133 -53q185 -74 185 -186q0 -159 -167 -204q1 -2 1 -8q0 -12 -9.5 -21.5t-20.5 -9.5q-5 0 -6.5 -0.5t-2.5 -0.5q3 -2 7.5 -3t9.5 -3l61 -25q90 -36 90 -92z" />
    <glyph glyph-name="u09E2" unicode="&#x9e2;" horiz-adv-x="271" 
d="M239 -51q0 -89 -110 -106l-4 8q28 22 28 66q0 18 -19 30q-17 11 -38 11q-19 0 -35 -8q-16 -9 -16 -27q0 -24 23 -32q-1 2 -1 6v6q0 30 31 30q15 0 23.5 -11t8.5 -26q0 -19 -13 -31t-32 -12q-27 0 -44 23q-15 19 -15 47q0 30 19.5 50.5t49.5 20.5q17 0 31 -5.5t26 -14.5
q24 -21 24 -54q0 -11 -0.5 -20t-2.5 -14q42 16 42 64q0 33 -44 57v-1q-23 9 -44.5 18.5t-43.5 18.5q-50 22 -50 52q0 17 11 29.5t30 12.5q14 0 25 -9.5t11 -23.5q0 -12 -9.5 -21.5t-20.5 -9.5q-5 0 -6.5 -0.5t-2.5 -0.5q3 -2 7.5 -3t9.5 -3l61 -25q90 -36 90 -92z" />
    <glyph glyph-name="u09E3" unicode="&#x9e3;" horiz-adv-x="424" 
d="M394 -310q0 -105 -130 -125l-5 9q33 25 33 78q0 23 -22 36q-10 6 -20.5 9.5t-24.5 3.5q-11 0 -22 -2.5t-20 -6.5q-18 -11 -18 -32q0 -14 6 -23.5t21 -14.5q-1 2 -1 6.5v7.5q0 35 36 35q18 0 28 -13t10 -30q0 -23 -15.5 -37t-37.5 -14q-33 0 -52 27q-18 22 -18 56
q0 35 23 59.5t59 24.5q20 0 36.5 -6.5t30.5 -17.5q29 -24 29 -64q0 -13 -1 -23.5t-3 -16.5q50 19 50 76q0 38 -52 67v-1q-27 11 -52.5 22t-51.5 22q-60 25 -60 61q0 17 9.5 30.5t26.5 18.5q17 23 17 61q0 23 -22 36q-10 6 -20.5 9.5t-24.5 3.5q-11 0 -22 -2.5t-20 -6.5
q-18 -11 -18 -32q0 -14 6 -23.5t21 -14.5q-1 2 -1 6.5v7.5q0 35 36 35q18 0 28 -13t10 -30q0 -23 -15.5 -37t-37.5 -14q-33 0 -52 27q-18 22 -18 56q0 35 23 59.5t59 24.5q20 0 36.5 -6.5t30.5 -17.5q29 -24 29 -64q0 -13 -1 -23.5t-3 -16.5q50 19 50 76q0 38 -52 67v-1
q-27 11 -52.5 22t-51.5 22q-60 25 -60 61q0 20 13 35t36 15q17 0 29.5 -11t12.5 -28q0 -14 -11 -25.5t-24 -11.5q-6 0 -8 -0.5t-3 -0.5q4 -3 9 -4t11 -3l73 -30q106 -42 106 -109q0 -79 -75 -110q11 -11 11 -27q0 -14 -11 -25.5t-24 -11.5q-6 0 -8 -0.5t-3 -0.5q4 -3 9 -4
t11 -3l73 -30q106 -42 106 -109z" />
    <glyph glyph-name="u09E6" unicode="&#x9e6;" horiz-adv-x="544" 
d="M478 374q0 73 -66 129q-61 52 -137 52t-140 -55q-63 -56 -63 -129q0 -75 63 -130q64 -54 140 -54q78 0 140 55q63 55 63 132zM499 373q0 -103 -61 -173q-65 -74 -164 -74q-97 0 -161 75q-60 70 -60 170q0 103 60 172t161 69q98 0 161 -70q64 -70 64 -169z" />
    <glyph glyph-name="u09E7" unicode="&#x9e7;" horiz-adv-x="520" 
d="M486 250q0 -96 -71 -149q-62 -49 -162 -49q-84 0 -149 46q-73 49 -73 130q0 57 40 96q40 40 97 40q97 0 100 -79q1 -27 -19 -44.5t-46 -17.5q-57 0 -75 68q-71 -17 -71 -62q0 -55 73 -85q57 -23 120 -23q71 0 134 31q76 39 76 100q0 58 -87 118q-20 14 -55 34t-86 46
q-127 66 -127 147q0 51 20.5 71.5t71.5 20.5q13 0 24 -6.5t19.5 -16.5t12.5 -22.5t4 -24.5q-3 -42 -67 -46q-22 -2 -43 4q30 -41 171 -114q168 -89 168 -213z" />
    <glyph glyph-name="u09E8" unicode="&#x9e8;" horiz-adv-x="528" 
d="M488 102q0 -25 -17 -43.5t-41 -18.5q-10 0 -22 5q-33 18 -33 53q0 20 24 46q-14 20 -83 80q-64 46 -110 54q-42 -16 -71 -16q-25 0 -51 17q-29 20 -29 44q0 27 18.5 43t45.5 13q21 -2 49 -21q30 -18 42 -18q55 0 97 16q61 22 61 65q0 101 -160 101q-62 0 -107 19
q-63 25 -63 77q0 12 4.5 25t13 23.5t19 17t22.5 6.5q32 0 45 -5q24 -9 24 -40q0 -38 -56 -55l66 -7q36 -4 63 -9t44 -10q112 -39 112 -136q0 -109 -143 -138q42 -11 110 -51q126 -74 126 -137z" />
    <glyph glyph-name="u09E9" unicode="&#x9e9;" horiz-adv-x="547" 
d="M506 407q0 -109 -41 -182q-50 -89 -152 -89q-78 0 -142 72q-23 27 -42.5 59.5t-33.5 70.5q-56 151 -56 270q0 27 15.5 50t41.5 23q61 0 61 -56q0 -43 -80 -72q5 -43 14 -85t21 -84q28 -98 99 -150q50 -35 102 -35q78 0 124 67q41 59 41 140q0 73 -37 141q-44 81 -110 81
q-49 0 -85 -27q-40 -28 -40 -76q0 -35 24 -66q23 -31 57 -29t35 30q-66 7 -66 61q0 25 18 41.5t44 16.5q71 0 71 -94q0 -42 -23 -79q-26 -41 -66 -41q-58 0 -91 53q-27 46 -27 107q0 71 35 115q38 48 108 50q91 1 141 -100q40 -80 40 -183z" />
    <glyph glyph-name="u09EA" unicode="&#x9ea;" horiz-adv-x="528" 
d="M463 268q0 89 -200 109q-198 -41 -198 -124q0 -55 76 -83q56 -22 122 -20q60 1 122 30q78 36 78 88zM425 537q0 49 -58 76q-44 21 -100 21q-61 0 -106 -17q-63 -23 -63 -75q0 -48 74 -80q55 -24 89 -24q40 0 96 28q68 35 68 71zM487 269q0 -87 -72 -136q-62 -44 -153 -44
q-85 0 -150 40q-76 48 -76 128q0 104 131 154q-91 55 -91 135q0 68 64 108q55 36 126 36q72 0 125 -39q58 -43 58 -113q0 -103 -108 -128q146 -33 146 -141z" />
    <glyph glyph-name="u09EB" unicode="&#x9eb;" horiz-adv-x="504" 
d="M406 536q-21 13 -49 39q-15 24 -15 46q0 15 4 23q-280 -78 -280 -281q0 -78 55 -140q55 -63 131 -63q88 0 137 76q-125 33 -125 134q0 141 142 166zM449 241q0 -40 -39 -82q-53 -56 -148 -56q-98 0 -164 85q-61 79 -61 181q0 252 269 326q18 5 32 5q27 0 34 -19l8 -31
q-1 -9 1 -22.5t6 -30.5q17 -26 57 -47q22 -10 22 -26t-20 -22q-152 -45 -152 -132q0 -30 38 -53q34 -21 66 -21q51 0 51 -55z" />
    <glyph glyph-name="u09EC" unicode="&#x9ec;" horiz-adv-x="574" 
d="M532 352q0 -103 -42 -169q-50 -78 -147 -77q-72 0 -148 90q-26 32 -50 70t-44 84q-62 139 -62 216q0 29 11 53q15 28 43 28q54 0 54 -48q0 -42 -52 -57q-6 -74 40 -191q22 -59 82 -114q65 -59 125 -59q74 0 123 61q43 52 43 104q0 21 -15 47q-46 -73 -97 -73
q-68 0 -79 95v181q-21 -37 -61 -37q-26 0 -45 17t-19 43q0 33 21 53.5t54 20.5q68 0 79 -80v-167q0 -17 6 -33q13 -31 42 -31q34 0 34 19q0 7 -4.5 22t-4.5 23q0 13 14 28t27 15q37 0 56 -52q16 -39 16 -82z" />
    <glyph glyph-name="u09ED" unicode="&#x9ed;" horiz-adv-x="574" 
d="M387 506q0 59 -51 97q-48 32 -109 31q-66 -1 -109 -29q-52 -33 -52 -96q0 -64 53 -99q43 -27 113 -27q64 0 107 28q48 33 48 95zM545 178q0 -57 -65 -55q-42 0 -67 46q-22 38 -22 83v130q-65 -69 -162 -69q-84 0 -139 55t-55 140q0 84 54 134q52 48 138 48q88 0 144 -63
q47 -53 47 -109v-261q0 -56 28 -66q29 50 45 50q54 0 54 -63z" />
    <glyph glyph-name="u09EE" unicode="&#x9ee;" horiz-adv-x="563" 
d="M404 352q0 90 -117 90q-44 0 -118 -71v-127q0 -35 27 -60q28 -25 61 -25q147 0 147 193zM529 562q0 -124 -114 -140q13 -30 13 -64q-1 -48 -8.5 -88.5t-23.5 -74.5q-44 -95 -134 -95q-52 -1 -87 44q-30 40 -30 95v372q-2 -3 -14 -14q-17 -16 -41 -16q-25 0 -40 16t-15 40
q0 53 59 53q31 0 51.5 -24t23.5 -55v-177q45 67 116 67q21 0 56 -19q37 -19 57 -19q26 0 46 15.5t24 40.5q-54 7 -54 45q0 58 63 58q23 0 37.5 -18t14.5 -42z" />
    <glyph glyph-name="u09EF" unicode="&#x9ef;" horiz-adv-x="504" 
d="M466 298q0 -184 -223 -215q60 43 60 146q0 44 -45 73q-37 25 -86 25q-48 0 -80 -19q-40 -22 -40 -66q0 -68 84 -86q-18 18 -18 44q0 53 58 53q27 0 42 -20.5t15 -48.5q0 -36 -25 -58.5t-62 -22.5q-50 0 -85 44q-30 40 -30 94q0 30 10.5 56t29 45t44 30t55.5 11
q68 0 114 -40q47 -41 47 -107q0 -82 -17 -91q122 33 122 155q0 75 -102 131l-187 79q-102 43 -102 100q0 34 22 57t56 23q27 0 47 -17t20 -44q0 -21 -17 -38t-38 -17q-36 0 -46 12q8 -30 59 -49l133 -53q185 -74 185 -186z" />
    <glyph glyph-name="u09F0" unicode="&#x9f0;" horiz-adv-x="563" 
d="M587 634h-144v-388q54 -23 54 -73q0 -31 -25.5 -50t-56.5 -19q-26 0 -52 19q-26 20 -26 44q0 35 27 61q-71 88 -257 122q-69 13 -69 39q2 50 157 117q32 14 86.5 33t130.5 44v51h-434v56h609v-56zM412 323q-28 31 -56 53t-53 36.5t-46 22.5t-36 12q-52 -26 -73 -47
q163 -56 264 -162v85zM412 517q-91 -28 -154 -54q27 -7 50.5 -19t43.5 -26t35.5 -27.5t24.5 -22.5v149z" />
    <glyph glyph-name="u09F1" unicode="&#x9f1;" horiz-adv-x="558" 
d="M412 517q-215 -66 -264 -117q163 -56 264 -162v279zM573 634h-130v-388q54 -23 54 -73q0 -31 -25.5 -50t-56.5 -19q-26 0 -52 19q-26 20 -26 44q0 35 27 61q-71 88 -257 122q-69 13 -69 39q2 50 157 117q32 14 86.5 33t130.5 44v51h-434v56h595v-56zM75 320
q30 -12 65.5 -22t69.5 -22.5t63 -29t46 -41.5l-27 -32q-18 20 -47 35.5t-65 27.5t-75 22t-76 18z" />
    <glyph glyph-name="u09F2" unicode="&#x9f2;" horiz-adv-x="470" 
d="M373 11q9 24 8 49l-6 138q-6 103 -116 179q-43 32 -113 38q-20 2 -50.5 1.5t-72.5 -2.5l-3 62q128 6 204 -19q51 -16 90.5 -46.5t72.5 -76.5q46 -64 49 -126l7 -154q1 -11 -0.5 -21.5t-3.5 -21.5h-66z" />
    <glyph glyph-name="u09F3" unicode="&#x9f3;" horiz-adv-x="468" 
d="M418 337q0 -66 -52 -131q-54 -69 -118 -69q-82 0 -103 38q-17 29 -15 131v163h-42l-45 54h87v39q0 81 -38 81h-13l-13 29q14 8 33 8q63 0 77 -54q7 -24 8 -103h26l45 -54h-71v-226q0 -46 48 -46q43 0 77 37q35 38 35 81l-1 2h-8q-64 0 -64 64q0 78 62 78q85 0 85 -122z
" />
    <glyph glyph-name="u09F4" unicode="&#x9f4;" horiz-adv-x="478" 
d="M439 480q2 -11 3.5 -21.5t0.5 -21.5l-7 -154q-3 -62 -49 -126q-33 -46 -72.5 -76.5t-90.5 -46.5q-76 -25 -204 -19l3 62q42 -2 72.5 -2.5t50.5 1.5q70 6 113 38q110 76 116 179l6 138q1 25 -8 49h66z" />
    <glyph glyph-name="u09F5" unicode="&#x9f5;" horiz-adv-x="557" 
d="M51 157q2 30 19.5 61t37.5 49q19 15 42 24t47 9q28 0 54 -12.5t46 -38.5v1q19 -22 26 -46.5t5 -51.5q-2 -10 -4 -19t-7 -18l6 4t5 4q110 76 116 179l6 138q1 25 -8 49h66q2 -11 3.5 -21.5t0.5 -21.5l-7 -154q-3 -62 -49 -126q-33 -46 -72.5 -76.5t-90.5 -46.5
q-76 -25 -204 -19l3 62q37 -3 66 -3l5 5q39 -8 72 18q16 14 25 29t9 32q0 22 -17 44q-21 24 -52 29q-28 4 -56 -17q-10 -8 -16 -17.5t-11 -21.5q-5 -16 -4 -27h-62z" />
    <glyph glyph-name="u09F6" unicode="&#x9f6;" horiz-adv-x="570" 
d="M56 208q2 30 19.5 61t37.5 49q19 15 42 24t47 9q28 0 54 -21t46 -47v1q19 -22 26 -46.5t5 -51.5q-2 -10 -4 -19t-7 -18l6 4t5 4q110 76 116 179l6 138q1 25 -8 49h66q2 -11 3.5 -21.5t0.5 -21.5l-7 -154q-3 -62 -49 -126q-33 -46 -72.5 -76.5t-90.5 -46.5
q-76 -25 -204 -19l3 62q37 -3 66 -3l5 5q39 -8 72 18q16 14 25 29t9 32q0 22 -17 44q-11 13 -24.5 28.5t-27.5 17.5q-28 4 -56 -17q-10 -8 -16 -17.5t-11 -21.5q-5 -16 -4 -27h-62z" />
    <glyph glyph-name="u09F7" unicode="&#x9f7;" horiz-adv-x="176" 
d="M81 566q0 20 18 20q19 0 19 -20v-404q0 -19 -19 -19q-18 0 -18 19v404z" />
    <glyph glyph-name="u09F8" unicode="&#x9f8;" horiz-adv-x="445" 
d="M241 460v1q39 0 69 -14t50 -39t30.5 -60t10.5 -76v-228h-66v213q0 39 -3 64.5t-12 40.5t-26 21.5t-45 8.5v-205h-66q-36 3 -63.5 18.5t-45.5 41t-27 58.5t-9 71v271h66v-256q0 -37 3 -61.5t11.5 -40t24 -23t40.5 -10.5v204h58z" />
    <glyph glyph-name="u09F9" unicode="&#x9f9;" horiz-adv-x="333" 
d="M225 194q0 -25 -17 -41t-42 -16q-24 0 -41 16.5t-17 40.5t17 41t41 17q25 0 42 -16.5t17 -41.5z" />
    <glyph glyph-name="u09FA" unicode="&#x9fa;" horiz-adv-x="483" 
d="M307 739q0 -23 -16.5 -37.5t-40.5 -14.5q-22 0 -36 17.5t-14 40.5q0 22 14 38t37 16q56 0 56 -60zM79 771q0 -15 2.5 -29.5t8.5 -29.5q29 -68 103 -105q18 -9 32.5 -14t29.5 -6.5t31 1.5t36 9q41 12 70 37t46 60l153 309l56 -29l-158 -319q-22 -44 -60 -76t-94 -47
q-53 -15 -91 -8.5t-81 28.5q-54 27 -95 75t-55 108z" />
    <glyph glyph-name="endash" unicode="&#x2013;" horiz-adv-x="469" 
d="M439 266q-2 -11 -5.5 -23.5t-8.5 -20.5h-383l-12 12q2 11 6 22.5t9 21.5h383z" />
    <glyph glyph-name="emdash" unicode="&#x2014;" horiz-adv-x="766" 
d="M736 266q-2 -11 -6 -23.5t-8 -20.5h-680l-12 12q2 11 6 22.5t9 21.5h680z" />
    <glyph glyph-name="quoteleft" unicode="&#x2018;" horiz-adv-x="191" 
d="M82 631q0 57 50 110l7 -5q-9 -11 -16.5 -25.5t-7.5 -31.5q0 -5 1.5 -10.5t3.5 -4.5q4 2 11 2.5t14 -2.5t12 -10.5t5 -22.5q0 -17 -10.5 -28t-29.5 -11q-40 0 -40 39z" />
    <glyph glyph-name="quoteright" unicode="&#x2019;" horiz-adv-x="186" 
d="M160 651q0 -57 -50 -110l-7 5q9 11 16.5 25.5t7.5 31.5q0 5 -1.5 10.5t-3.5 4.5q-4 -2 -11 -2.5t-14 2.5t-12 10.5t-5 22.5q0 17 10.5 28t29.5 11q40 0 40 -39z" />
    <glyph glyph-name="quotedblleft" unicode="&#x201c;" horiz-adv-x="436" 
d="M217 631q0 57 50 110l7 -5q-9 -11 -16.5 -25.5t-7.5 -31.5q0 -5 1.5 -10.5t3.5 -4.5q4 2 11 2.5t14 -2.5t12 -10.5t5 -22.5q0 -17 -10.5 -28t-29.5 -11q-40 0 -40 39zM106 631q0 57 50 110l7 -5q-9 -11 -16.5 -25.5t-7.5 -31.5q0 -5 1.5 -10.5t3.5 -4.5q4 2 11 2.5
t14 -2.5t12 -10.5t5 -22.5q0 -17 -10.5 -28t-29.5 -11q-40 0 -40 39z" />
    <glyph glyph-name="quotedblright" unicode="&#x201d;" horiz-adv-x="436" 
d="M237 657q0 -57 -50 -110l-7 5q9 11 16.5 25.5t7.5 31.5q0 5 -1.5 10.5t-3.5 4.5q-4 -2 -11 -2.5t-14 2.5t-12 10.5t-5 22.5q0 17 10.5 28t29.5 11q40 0 40 -39zM348 657q0 -57 -50 -110l-7 5q9 11 16.5 25.5t7.5 31.5q0 5 -1.5 10.5t-3.5 4.5q-4 -2 -11 -2.5t-14 2.5
t-12 10.5t-5 22.5q0 17 10.5 28t29.5 11q40 0 40 -39z" />
    <glyph glyph-name="minus" unicode="&#x2212;" horiz-adv-x="410" 
d="M380 290q-2 -10 -6.5 -22.5t-8.5 -20.5h-323l-12 12q5 21 15 43h323z" />
    <glyph glyph-name="uni25CC" unicode="&#x25cc;" horiz-adv-x="560" 
d="M458 563q0 -26 -25 -26q-27 0 -27 26q0 27 27 27q25 0 25 -27zM387 611q0 -26 -26 -26q-27 0 -27 26t27 26q26 0 26 -26zM506 492q0 -27 -26 -27t-26 27q0 25 27 25q25 0 25 -25zM524 407q0 -25 -25 -25q-28 0 -28 25q0 26 28 26q25 0 25 -26zM303 628q0 -26 -27 -26
q-26 0 -26 26t26 26q27 0 27 -26zM218 611q0 -26 -26 -26q-25 0 -25 26t25 26q26 0 26 -26zM506 323q0 -26 -26 -26t-26 26q0 27 26 27t26 -27zM147 563q0 -26 -26 -26q-27 0 -27 25q0 28 27 28q26 0 26 -27zM458 251q0 -26 -25 -26q-27 0 -27 26q0 27 27 27q25 0 25 -27z
M387 203q0 -25 -26 -25q-27 0 -27 25q0 27 27 27q26 0 26 -27zM99 492q0 -27 -25 -27q-27 0 -27 27q0 25 26 25t26 -25zM82 407q0 -25 -25 -25q-28 0 -28 25q0 26 28 26q25 0 25 -26zM303 187q0 -26 -27 -26q-26 0 -26 26t26 26q27 0 27 -26zM99 323q0 -26 -26 -26t-26 26
q0 27 26 27t26 -27zM218 205q0 -27 -26 -27q-25 0 -25 25q0 27 25 27q26 0 26 -25zM147 251q0 -26 -26 -26q-27 0 -27 26q0 27 27 27q26 0 26 -27z" />
    <glyph glyph-name="u09CD_u09F1" horiz-adv-x="287" 
d="M306 634h-69q-78 -44 -78 -116q0 -22 41 -106t41 -124q0 -66 -29 -118q-34 -61 -97 -61q-34 0 -58.5 19t-24.5 52q0 29 21.5 50.5t51.5 21.5q58 0 68 -40q38 33 38 80q0 42 -44 119q-43 77 -43 112q0 62 41 111h-189v56h330v-56z" />
    <glyph glyph-name="u09A4_u09CD" unicode="&#x9ce;" horiz-adv-x="536" 
d="M504 122q0 -56 -67 -56q-29 0 -49 17t-20 46q0 19 15 39q-51 23 -94 46.5t-81 48.5q-175 117 -175 228q0 96 66 150q61 51 159 49q76 -1 135 -47q66 -50 66 -122q0 -60 -35 -104q-37 -46 -96 -46q-52 0 -89 36q-38 36 -38 86q0 34 23.5 59.5t57.5 25.5q62 0 62 -62
q0 -9 -6.5 -17.5t-16 -15t-20.5 -10t-20 -3.5q-30 0 -52 30q31 -67 92 -67q112 0 112 86q0 52 -67 83q-54 26 -111 26q-196 0 -196 -134q0 -81 96 -147q54 -38 210 -106q14 -7 36.5 -16t52.5 -22q50 -30 50 -81z" />
    <glyph glyph-name="u0995_u09CD_u0995" horiz-adv-x="644" 
d="M328 343q-29 -5 -57 -10t-56 -12q-14 -2 -38.5 -10t-61.5 -22q141 0 213 -51v105zM328 543q-66 -7 -115 -20q-10 -2 -38 -11.5t-76 -25.5q72 0 122 -18q74 -25 107 -61v136zM574 444q0 103 -219 102v-141h53q-15 12 -15 36t18 38.5t43 14.5q62 0 62 -60q0 -37 -31 -46
q75 -15 89 56zM660 634h-305v-32q239 -27 239 -166q0 -61 -43 -80q51 -33 51 -101q0 -24 -7.5 -45t-21.5 -36.5t-33.5 -24.5t-43.5 -9q-15 0 -28.5 5.5t-24 14.5t-16.5 21t-6 26q0 19 15 42q16 22 35 22q23 0 42 -10q23 -14 23 -32q0 -26 -7 -32q51 24 51 55q0 75 -136 93
q-40 6 -89 1v-111q55 -19 55 -67q0 -65 -75 -65q-71 0 -71 65q0 33 30 50q-9 4 -31.5 10.5t-57.5 14.5q-8 1 -16.5 1.5t-17.5 0.5q-7 0 -16.5 -0.5t-22.5 -1.5t-22.5 -1.5t-16.5 -0.5q-51 0 -51 37q0 41 98 79q36 13 140 36q5 14 -79 40q-34 2 -58.5 4t-41.5 4q-72 7 -72 42
q0 41 130 80q38 11 80.5 20.5t88.5 16.5v34h-347v56h679v-56z" />
    <glyph glyph-name="u0995_u09CD_u099F" horiz-adv-x="703" 
d="M389 530q-28 -5 -66.5 -14t-87.5 -21q-29 -11 -61 -24t-67 -29q45 -3 83 -26q52 -32 71 -66q14 10 33.5 26.5t43.5 41.5q39 57 51 112zM729 634h-311v-43q241 -31 241 -149q0 -47 -46 -80q-41 -29 -90 -29q-15 0 -29 4.5t-25 13t-17.5 20t-6.5 25.5q0 26 20 44t46 18
q59 0 64 -62q68 23 68 49q0 32 -35 50q-8 4 -23.5 9.5t-40.5 13.5q-39 13 -127 13q-41 -124 -64 -151q-21 -24 -87 -71q-52 -37 -52 -65q0 -58 149 -58q20 0 41.5 2.5t43.5 7.5q-38 18 -38 58q0 26 25 42q22 16 48 16q22 0 41 -15.5t19 -36.5q0 -65 -60 -104
q-53 -35 -120 -33q-72 0 -122 46q-44 38 -44 75q0 57 41 86q-23 29 -67 51q-14 7 -53 10t-52 9q-26 10 -30 39q-9 54 164 110q104 33 196 42v43h-417v56h559q3 10 3 22q0 73 -102 73q-35 0 -96 -19q-62 -18 -95 -18q-70 0 -110 36q-44 39 -44 107q0 21 8.5 39t22.5 30.5
t32.5 20t39.5 7.5q32 0 53.5 -17.5t21.5 -48.5q0 -30 -20 -48t-50 -18q-53 0 -77 53q-1 -5 -1 -9.5v-9.5q0 -75 111 -75q31 0 86 16q60 17 87 17q160 0 160 -127q0 -18 -3 -31h164v-56z" />
    <glyph glyph-name="u0995_u09CD_u09A4" horiz-adv-x="810" 
d="M777 398q0 -63 -27 -108q-32 -53 -92 -53q-41 0 -69 21q-31 22 -31 63q0 31 18 53.5t49 22.5q75 0 75 -58q0 -29 -27 -51q80 21 80 109q0 45 -40 70q-35 24 -80 24q-54 0 -116 -68q-8 -31 -26 -51q22 -16 22 -51q0 -80 -63 -125q-56 -41 -138 -41q-95 0 -168 75
q-62 63 -96 165q-21 58 -21 117q0 21 15 40.5t35 19.5q50 0 50 -36q0 -57 -58 -69q4 -32 15 -66q58 -183 226 -183q60 0 109 20q64 27 64 81q0 17 -21 34q-30 -35 -65 -35q-26 0 -44 12q-21 13 -21 39q0 48 69 48q33 0 60 -27q24 13 31 37v30q-13 49 -71 73q-47 21 -104 21
q-124 0 -137 -70q19 31 61 31q54 0 54 -48q0 -26 -18.5 -42t-45.5 -16q-29 0 -51 27q-22 28 -22 56q0 62 52 92q43 24 108 24q66 0 118 -29q57 -31 77 -91q59 59 124 59q66 0 103 -39.5t37 -106.5zM826 634h-848v56h848v-56z" />
    <glyph glyph-name="u0995_u09CD_u09A4_u09F0_u09CD" horiz-adv-x="810" 
d="M777 398q0 -63 -27 -108q-32 -53 -92 -53q-41 0 -69 21q-31 22 -31 63q0 31 18 53.5t49 22.5q75 0 75 -58q0 -29 -27 -51q80 21 80 109q0 45 -40 70q-35 24 -80 24q-54 0 -116 -68q-8 -31 -26 -51q22 -16 22 -51q0 -80 -63 -125q-56 -41 -138 -41q-95 0 -168 75
q-62 63 -96 165q-21 58 -21 117q0 21 15 40.5t35 19.5q50 0 50 -36q0 -57 -58 -69q4 -32 15 -66q58 -183 226 -183q60 0 109 20q64 27 64 81q0 17 -21 34q-30 -35 -65 -35q-26 0 -44 12q-21 13 -21 39q0 48 69 48q33 0 60 -27q24 13 31 37v30q-13 49 -71 73q-47 21 -104 21
q-124 0 -137 -70q19 31 61 31q54 0 54 -48q0 -26 -18.5 -42t-45.5 -16q-29 0 -51 27q-22 28 -22 56q0 62 52 92q43 24 108 24q66 0 118 -29q57 -31 77 -91q59 59 124 59q66 0 103 -39.5t37 -106.5zM826 634h-848v56h848v-56zM448.794 -21.4932q0 -33.2236 -20.0703 -52.7676
t-50.8164 -19.5439q-23.9141 0 -46.9736 17.5898q-22.2061 17.5889 -22.2061 43.9727q0 39.0869 13.665 48.8584q-24.7676 20.5205 -70.0332 20.5205q-17.9355 0 -60.6387 -18.5664t-67.4707 -18.5664q-49.5361 0 -81.1367 26.3838q-36.7246 30.293 -36.7246 84.0371
q0 29.3154 17.9355 47.8818t43.5566 18.5664q20.498 0 35.8711 -18.0781t15.373 -41.5293q0 -41.042 -36.7246 -67.4258q17.0811 -4.88574 29.8926 -4.88574q17.9355 0 67.4707 22.4756q49.5361 23.4521 71.7412 23.4521q86.2607 0 117.861 -36.1553v127.032h29.8926
v-135.827q49.5352 -15.6348 49.5352 -67.4248z" />
    <glyph glyph-name="u0995_u09CD_u09A4_u09AC_u09CD" horiz-adv-x="812" 
d="M777 398q0 -63 -27 -108q-32 -53 -92 -53q-41 0 -69 21q-31 22 -31 63q0 31 18 53.5t49 22.5q75 0 75 -58q0 -29 -27 -51q80 21 80 109q0 45 -40 70q-35 24 -80 24q-54 0 -116 -68q-8 -31 -26 -51q22 -16 22 -51q0 -80 -63 -125q-56 -41 -138 -41q-95 0 -168 75
q-62 63 -96 165q-21 58 -21 117q0 21 15 40.5t35 19.5q50 0 50 -36q0 -57 -58 -69q4 -32 15 -66q58 -183 226 -183q60 0 109 20q64 27 64 81q0 17 -21 34q-30 -35 -65 -35q-26 0 -44 12q-21 13 -21 39q0 48 69 48q33 0 60 -27q24 13 31 37v30q-13 49 -71 73q-47 21 -104 21
q-124 0 -137 -70q19 31 61 31q54 0 54 -48q0 -26 -18.5 -42t-45.5 -16q-29 0 -51 27q-22 28 -22 56q0 62 52 92q43 24 108 24q66 0 118 -29q57 -31 77 -91q59 59 124 59q66 0 103 -39.5t37 -106.5zM826 634h-848v56h848v-56zM461 218v-249q7 -9 7 -20.5t-7 -16.5
q-14 -14 -41 -10.5t-43 31.5q-9 5 -26 11t-43 11q-29 3 -48.5 -0.5t-31 -7t-23.5 -6.5t-33 -0.5t-22 39.5q0 54 112 117q45 25 86.5 50t80.5 50zM430 144q-31 -10 -104 -49q-18 -11 -42 -32t-55 -50q29 10 62 10q21 0 41 -6q68 -19 98 -49v176z" />
    <glyph glyph-name="u0995_u09CD_u09A8" horiz-adv-x="746" 
d="M516 -61q0 -32 -24 -49.5t-57 -17.5q-34 0 -58.5 19.5t-24.5 52.5q0 32 44 59q-70 67 -163 67q-110 0 -108 -74q22 40 68 40q27 0 45 -17.5t18 -44.5q0 -13 -6.5 -25t-16.5 -21t-23 -14.5t-26 -5.5q-18 0 -33 7.5t-26.5 20.5t-17.5 30.5t-6 36.5q0 52 39 87q37 32 91 32
q108 0 197 -113v95q-71 5 -71 69q0 36 25 52q-22 21 -98 68q-50 22 -162 33q-95 11 -95 49q0 37 70 77q13 7 39 19.5t66 30.5q102 46 227 77v55h-451v56h779v-56h-296v-53q94 -15 156 -54q80 -51 80 -134q0 -64 -29 -108q-35 -50 -97 -50q-24 0 -43.5 18t-19.5 42t16.5 44.5
t40.5 20.5q39 0 56 -35q54 3 54 69q0 104 -214 116v-268q60 -24 60 -73q0 -30 -25 -48q-17 -11 -35 -15v-93q55 -22 55 -74zM429 506q-34 -8 -75 -21t-91 -32q-1 -1 -139 -61q119 -20 179 -48q78 -40 126 -97v259z" />
    <glyph glyph-name="u0995_u09CD_u09AE" horiz-adv-x="762" 
d="M328 543q-25 -5 -55 -12.5t-65 -18.5q-24 -7 -104 -44q43 -8 107 -27q63 -29 117 -84v186zM634 634h-280v-37q12 -3 27 -3q67 0 117 -31q62 -36 62 -98q0 -42 -29 -70t-71 -28q-31 0 -49 20.5t-18 51.5q0 21 23 38t46 17q33 0 65 -36q-10 85 -143 85h-30v-218
q174 -8 280 -80v389zM778 634h-116v-390q25 -2 42 -27q16 -22 16 -49q0 -30 -22.5 -49t-53.5 -19q-34 0 -57.5 21t-23.5 54q0 23 28 50q-8 10 -63 32q-48 14 -106 14q-19 0 -35.5 -1t-32.5 -3q13 -22 13 -41q0 -29 -24 -46.5t-54 -17.5q-15 0 -30 5.5t-26.5 14.5t-19 21.5
t-7.5 27.5q0 85 130 92q-79 55 -134 75q-23 7 -105 18q-65 8 -65 50t127 88q31 11 73 21t96 20v39h-358v56h808v-56z" />
    <glyph glyph-name="u0995_u09F0_u09CD" horiz-adv-x="875" 
d="M822 398q0 -63 -27 -108q-32 -53 -92 -53q-41 0 -69 21q-31 22 -31 63q0 31 18 53.5t49 22.5q75 0 75 -58q0 -29 -27 -51q80 21 80 109q0 45 -40 70q-35 24 -80 24q-57 0 -118 -69v-179q51 -21 51 -70q0 -69 -68 -69q-73 0 -70 85q-37 22 -68 22q-23 0 -80 -28
q-56 -28 -89 -28q-48 0 -86.5 15.5t-65.5 44t-41 68.5t-14 88q0 38 11 73q17 47 48 47q54 0 54 -55q0 -70 -67 -70h-18q-1 -5 -1 -10v-11q0 -120 179 -120q26 0 89 23q61 24 93 24q68 0 116 -52v348q0 30 -41 50q-31 16 -67 16h-5q-75 0 -145 -45q-80 -51 -80 -121
q0 -90 115 -89q10 100 72 100q29 0 48 -17.5t19 -45.5q0 -94 -132 -94q-67 0 -106.5 41t-39.5 107q0 103 79 164h-273v56h921v-56h-359q21 -29 21 -59v-88q57 57 122 57q66 0 103 -39.5t37 -106.5z" />
    <glyph glyph-name="u0995_u09CD_u09B2" horiz-adv-x="759" 
d="M540 -70q0 -30 -23.5 -49t-54.5 -19q-35 0 -58 20.5t-23 55.5q0 54 71 64q-51 36 -70 36q-9 0 -44 -47q1 -46 -43 -46q-42 0 -42 49q-51 39 -85 39q-43 0 -74 -15q-40 -18 -40 -56q0 -32 39 -56q4 75 67 75q70 0 70 -62q0 -33 -25.5 -53t-59.5 -20q-51 0 -82 32t-31 83
q0 60 37.5 94.5t98.5 34.5q69 0 123 -57q57 61 77 61q24 0 86 -61v71q-76 3 -76 69q0 36 25 52q-22 21 -98 68q-50 22 -162 33q-95 11 -95 49q0 37 70 77q13 7 39 19.5t66 30.5q102 46 227 77v55h-482v56h815v-56h-301v-53q94 -15 156 -54q80 -51 80 -134q0 -64 -29 -108
q-35 -50 -97 -50q-24 0 -43.5 18t-19.5 42t16.5 44.5t40.5 20.5q39 0 56 -35q54 3 54 69q0 104 -214 116v-268q60 -24 60 -73q0 -24 -16 -40t-39 -22v-104q53 -20 53 -73zM450 506q-34 -8 -75 -21t-91 -32q-1 -1 -139 -61q119 -20 179 -48q78 -40 126 -97v259z" />
    <glyph glyph-name="u0995_u09AC_u09CD" horiz-adv-x="743" 
d="M439 506q-34 -8 -75 -21t-91 -32q-1 -1 -139 -61q119 -20 179 -48q78 -40 126 -97v259zM765 634h-294v-53q94 -15 156 -54q80 -51 80 -134q0 -64 -29 -108q-35 -50 -97 -50q-24 0 -43.5 18t-19.5 42t16.5 44.5t40.5 20.5q39 0 56 -35q54 3 54 69q0 104 -214 116v-268
q60 -24 60 -73q0 -30 -25 -47.5t-56 -17.5q-83 0 -83 69q0 36 25 52q-22 21 -98 68q-50 22 -162 33q-95 11 -95 49q0 37 70 77q13 7 39 19.5t66 30.5q102 46 227 77v55h-460v56h786v-56zM470 223v-249q7 -9 7 -20.5t-7 -16.5q-14 -14 -41 -10.5t-43 31.5q-9 5 -26 11t-43 11
q-29 3 -48.5 -0.5t-31 -7t-23.5 -6.5t-33 -0.5t-22 39.5q0 54 112 117q45 25 86.5 50t80.5 50zM439 149q-31 -10 -104 -49q-18 -11 -42 -32t-55 -50q29 10 62 10q21 0 41 -6q68 -19 98 -49v176z" />
    <glyph glyph-name="u0995_u09CD_u09B7" horiz-adv-x="844" 
d="M525 436q-178 19 -178 132q0 35 17 66h-165q9 -17 20 -49q3 -21 3 -41q0 -8 -0.5 -16t-1.5 -16q20 -21 52 -64q11 -21 19 -42.5t13 -43.5q25 -10 56 -24t68 -31q23 -14 47 -30t50 -35v194zM525 578q0 24 -27 41q-23 15 -49 15q-31 0 -54 -17q-24 -18 -24 -49
q0 -79 154 -72v82zM861 634h-341q6 -6 22 -33q10 -21 10 -42v-65q67 0 121 -14q122 -35 122 -135q0 -49 -25 -80q-28 -37 -73 -37q-43 0 -71 18q-34 22 -34 62q0 23 19.5 40t43.5 17q22 0 41 -13t19 -34q0 -20 -12 -39q72 7 72 65q0 94 -171 94q-28 0 -52 -3v-193
q25 -1 40.5 -24.5t15.5 -50.5q0 -31 -23.5 -47t-55.5 -16q-16 0 -31 6t-26 15.5t-18 23t-7 28.5q0 29 30 52q-91 68 -173 80v-16q0 -101 -100 -101q-32 0 -56 22.5t-24 54.5q0 46 31.5 73t77.5 27h33q1 58 -55 110q-24 -78 -90 -78q-35 0 -62 21t-27 56q0 38 27 60t66 22
q34 0 63 -24q2 48 -1 58q-6 20 -20 40h-194v56h888v-56z" />
    <glyph glyph-name="u0995_u09CD_u09B7_u09CD_u09A3" horiz-adv-x="839" 
d="M861 634h-341q6 -6 22 -33q10 -21 10 -42v-65q67 0 121 -14q122 -35 122 -135q0 -49 -25 -80q-28 -37 -73 -37q-43 0 -71 18q-34 22 -34 62q0 23 19.5 40t43.5 17q22 0 41 -13t19 -34q0 -20 -12 -39q72 7 72 65q0 94 -171 94q-28 0 -52 -3v-193q25 -1 40.5 -24.5
t15.5 -50.5q0 -25 -15.5 -40.5t-38.5 -20.5v-93q55 -22 55 -74q0 -32 -24 -49.5t-57 -17.5q-34 0 -58.5 19.5t-24.5 52.5q0 32 44 59q-70 67 -163 67q-110 0 -108 -74q22 40 68 40q27 0 45 -17.5t18 -44.5q0 -13 -6.5 -25t-16.5 -21t-23 -14.5t-26 -5.5q-18 0 -33 7.5
t-26.5 20.5t-17.5 30.5t-6 36.5q0 52 39 87q37 32 91 32q108 0 197 -113v95q-30 2 -52 23t-22 50t30 52q-91 68 -173 80v-16q0 -101 -100 -101q-32 0 -56 22.5t-24 54.5q0 46 31.5 73t77.5 27h33q1 58 -55 110q-24 -78 -90 -78q-35 0 -62 21t-27 56q0 38 27 60t66 22
q34 0 63 -24q2 48 -1 58q-6 20 -20 40h-194v56h888v-56zM525 436q-178 19 -178 132q0 35 17 66h-165q9 -17 20 -49q3 -21 3 -41q0 -8 -0.5 -16t-1.5 -16q20 -21 52 -64q11 -21 19 -42.5t13 -43.5q25 -10 56 -24t68 -31q23 -14 47 -30t50 -35v194zM525 578q0 24 -27 41
q-23 15 -49 15q-31 0 -54 -17q-24 -18 -24 -49q0 -79 154 -72v82z" />
    <glyph glyph-name="u0995_u09CD_u09B7_u09CD_u09AE" horiz-adv-x="882" 
d="M480 453q-172 1 -172 115q0 36 18 66h-118q10 -16 16.5 -34.5t6.5 -40.5l-4 -38q21 -13 62 -63q18 -28 26 -67q13 -4 32.5 -13.5t47.5 -23.5q48 -32 85 -92v191zM480 568q0 30 -21 48t-51 18q-71 -2 -71 -62q-2 -66 103 -66q20 0 40 3v59zM753 634h-271q10 -8 27 -33
q5 -17 5 -43v-52q52 -4 94 -23q94 -43 94 -138q0 -42 -23 -65.5t-62 -23.5q-13 0 -26.5 4.5t-24 12.5t-17 19t-6.5 23q0 27 17 48.5t43 21.5q31 0 50 -16q-3 32 -27 49q-41 26 -112 29v-240q108 0 239 -108v535zM908 634h-120v-534q11 -1 21 -8t18 -17.5t12.5 -22.5t4.5 -24
q0 -33 -30 -52q-26 -17 -60 -17q-23 0 -48 19q-24 19 -24 43q0 33 22 55q-5 19 -73 47q-50 28 -111 24q1 -7 1.5 -13.5t0.5 -14.5q0 -88 -81 -88q-35 0 -60.5 22t-25.5 57q0 86 125 94q-10 14 -29 38t-48 56q-30 25 -83 39q10 -10 10 -32q0 -39 -25 -62.5t-64 -23.5
q-37 0 -62 23.5t-25 60.5q0 41 33 67q31 25 73 25h27q-4 13 -25 53q-7 10 -18.5 19.5t-28.5 17.5q-38 -65 -99 -65q-32 0 -55.5 20.5t-23.5 51.5q0 81 82 81q52 0 68 -31q17 24 6.5 47.5t-28.5 44.5h-183v56h926v-56z" />
    <glyph glyph-name="u0995_u09CD_u09B7_u09F0_u09CD" horiz-adv-x="839" 
d="M525 436q-178 19 -178 132q0 35 17 66h-165q9 -17 20 -49q3 -21 3 -41q0 -8 -0.5 -16t-1.5 -16q20 -21 52 -64q11 -21 19 -42.5t13 -43.5q25 -10 56 -24t68 -31q23 -14 47 -30t50 -35v194zM525 578q0 24 -27 41q-23 15 -49 15q-31 0 -54 -17q-24 -18 -24 -49
q0 -79 154 -72v82zM861 634h-341q6 -6 22 -33q10 -21 10 -42v-65q67 0 121 -14q122 -35 122 -135q0 -49 -25 -80q-28 -37 -73 -37q-43 0 -71 18q-34 22 -34 62q0 23 19.5 40t43.5 17q22 0 41 -13t19 -34q0 -20 -12 -39q72 7 72 65q0 94 -171 94q-28 0 -52 -3v-193
q25 -1 40.5 -24.5t15.5 -50.5q0 -31 -23.5 -47t-55.5 -16q-16 0 -31 6t-26 15.5t-18 23t-7 28.5q0 29 30 52q-91 68 -173 80v-16q0 -101 -100 -101q-32 0 -56 22.5t-24 54.5q0 46 31.5 73t77.5 27h33q1 58 -55 110q-24 -78 -90 -78q-35 0 -62 21t-27 56q0 38 27 60t66 22
q34 0 63 -24q2 48 -1 58q-6 20 -20 40h-194v56h888v-56zM604 -69q0 -34 -23.5 -54t-59.5 -20q-28 0 -55 18q-26 18 -26 45q0 40 16 50q-29 21 -82 21q-21 0 -71 -19t-79 -19q-58 0 -95 27q-43 31 -43 86q0 30 21 49t51 19q24 0 42 -18.5t18 -42.5q0 -42 -43 -69q20 -5 35 -5
q21 0 79 23q58 24 84 24q101 0 138 -37v130h35v-139q58 -16 58 -69z" />
    <glyph glyph-name="u0995_u09CD_u09B7_u09AC_u09CD" horiz-adv-x="834" 
d="M525 436q-178 19 -178 132q0 35 17 66h-165q9 -17 20 -49q3 -21 3 -41q0 -8 -0.5 -16t-1.5 -16q20 -21 52 -64q11 -21 19 -42.5t13 -43.5q25 -10 56 -24t68 -31q23 -14 47 -30t50 -35v194zM525 578q0 24 -27 41q-23 15 -49 15q-31 0 -54 -17q-24 -18 -24 -49
q0 -79 154 -72v82zM861 634h-341q6 -6 22 -33q10 -21 10 -42v-65q67 0 121 -14q122 -35 122 -135q0 -49 -25 -80q-28 -37 -73 -37q-43 0 -71 18q-34 22 -34 62q0 23 19.5 40t43.5 17q22 0 41 -13t19 -34q0 -20 -12 -39q72 7 72 65q0 94 -171 94q-28 0 -52 -3v-193
q25 -1 40.5 -24.5t15.5 -50.5q0 -31 -23.5 -47t-55.5 -16q-16 0 -31 6t-26 15.5t-18 23t-7 28.5q0 29 30 52q-91 68 -173 80v-16q0 -101 -100 -101q-32 0 -56 22.5t-24 54.5q0 46 31.5 73t77.5 27h33q1 58 -55 110q-24 -78 -90 -78q-35 0 -62 21t-27 56q0 38 27 60t66 22
q34 0 63 -24q2 48 -1 58q-6 20 -20 40h-194v56h888v-56zM551 188v-249q7 -9 7 -20.5t-7 -16.5q-14 -14 -41 -10.5t-43 31.5q-9 5 -26 11t-43 11q-29 3 -48.5 -0.5t-31 -7t-23.5 -6.5t-33 -0.5t-22 39.5q0 54 112 117q45 25 86.5 50t80.5 50zM520 114q-31 -10 -104 -49
q-18 -11 -42 -32t-55 -50q29 10 62 10q21 0 41 -6q68 -19 98 -49v176z" />
    <glyph glyph-name="u0995_u09CD_u09B8" horiz-adv-x="877" 
d="M778 130q57 -17 57 -70q0 -34 -23.5 -54t-59.5 -20q-27 0 -53 17q-27 19 -27 46q0 40 16 50q-28 22 -82 22q-28 0 -69.5 -4.5t-97.5 -14.5q-55 -10 -96.5 -14.5t-69.5 -4.5q-56 0 -95 27q-43 31 -43 85q0 29 21 48.5t51 19.5q24 0 42 -19t18 -43q0 -40 -43 -67
q20 -5 35 -5q8 0 35.5 3.5t76.5 10.5q-6 13 -6 30q0 35 26 52q-11 11 -36 28t-63 40q-50 22 -162 33q-95 11 -95 49q0 37 70 77q13 7 39 19.5t66 30.5q102 46 227 77v55h-459v56h921v-56h-121v-504zM528 166q61 9 78 9q100 0 137 -37v496h-273v-53q93 -15 155 -54
q80 -51 80 -134q0 -64 -29 -108q-35 -50 -96 -50q-24 0 -43.5 18t-19.5 42t16.5 44.5t39.5 20.5q39 0 56 -35q54 3 54 69q0 104 -213 116v-268q58 -24 58 -73v-3zM437 506q-34 -8 -75 -21t-91 -32q-1 -1 -139 -61q120 -19 179 -48q76 -40 126 -97v259z" />
    <glyph glyph-name="u0996_u09F0_u09CD" horiz-adv-x="625" 
d="M649 634h-122v-391q49 -24 49 -73q0 -29 -23.5 -47.5t-53.5 -18.5q-34 0 -58.5 18t-24.5 51q0 27 27 56q-16 33 -89 66q-81 37 -174 38q-28 -34 -74 -34q-14 0 -27 6t-23.5 15.5t-16.5 22.5t-6 28q0 31 21.5 53.5t53.5 22.5q50 0 71 -47q206 35 206 141q0 49 -39 75
q-51 -113 -167 -113q-44 0 -87 29q-45 31 -51 75v17q0 43 21.5 72t63.5 29q28 0 47 -19.5t19 -47.5q0 -13 -6 -24.5t-16 -20.5t-23 -14t-26 -5q-31 0 -59 40q0 -79 113 -79q109 0 154 119q73 -30 73 -133q0 -124 -121 -176q26 -8 55 -18t61 -21q51 -27 100 -82v512h30v-66
h122v-56zM575 -39q0 -34 -23.5 -54t-59.5 -20q-28 0 -55 18q-26 18 -26 45q0 40 16 50q-29 21 -82 21q-21 0 -71 -19t-79 -19q-58 0 -95 27q-43 31 -43 86q0 30 21 49t51 19q24 0 42 -18.5t18 -42.5q0 -42 -43 -69q20 -5 35 -5q21 0 79 23q58 24 84 24q101 0 138 -37v130h35
v-139q58 -16 58 -69z" />
    <glyph glyph-name="u0996_u09AC_u09CD" horiz-adv-x="615" 
d="M649 634h-122v-391q49 -24 49 -73q0 -29 -23.5 -47.5t-53.5 -18.5q-34 0 -58.5 18t-24.5 51q0 27 27 56q-16 33 -89 66q-81 37 -174 38q-28 -34 -74 -34q-14 0 -27 6t-23.5 15.5t-16.5 22.5t-6 28q0 31 21.5 53.5t53.5 22.5q50 0 71 -47q206 35 206 141q0 49 -39 75
q-51 -113 -167 -113q-44 0 -87 29q-45 31 -51 75v17q0 43 21.5 72t63.5 29q28 0 47 -19.5t19 -47.5q0 -13 -6 -24.5t-16 -20.5t-23 -14t-26 -5q-31 0 -59 40q0 -79 113 -79q109 0 154 119q73 -30 73 -133q0 -124 -121 -176q26 -8 55 -18t61 -21q51 -27 100 -82v512h30v-66
h122v-56zM525 212v-249q7 -9 7 -20.5t-7 -16.5q-14 -14 -41 -10.5t-43 31.5q-9 5 -26 11t-43 11q-29 3 -48.5 -0.5t-31 -7t-23.5 -6.5t-33 -0.5t-22 39.5q0 54 112 117q45 25 86.5 50t80.5 50zM494 138q-31 -10 -104 -49q-18 -11 -42 -32t-55 -50q29 10 62 10q21 0 41 -6
q68 -19 98 -49v176z" />
    <glyph glyph-name="u0997_afii61664_u09C1" horiz-adv-x="673" 
d="M623 287q0 -78 -63 -126q-58 -44 -137 -44q-160 0 -281 189q-106 164 -106 294q0 27 19 48t46 21q59 0 59 -52q0 -60 -55 -66q-1 -7 -1 -14.5v-15.5q0 -82 40 -159q41 -79 107 -126q79 -56 172 -56q62 0 112 24q64 30 64 83q0 91 -100 88q25 -16 25 -56q0 -27 -21.5 -42
t-49.5 -15q-30 0 -50.5 20.5t-20.5 51.5q0 51 41 78q35 23 89 23q7 0 32 -5q33 40 33 95q0 82 -75 103q-12 -4 -26.5 -16.5t-24.5 -22.5q-25 -25 -38 -45q-58 82 -139 84q-28 0 -49 -10q-27 -14 -27 -37q0 -29 18 -45q37 27 74 27t60 -25.5t23 -63.5q0 -136 -90 -136
q-27 0 -45.5 18t-18.5 45q0 26 20 44t46 18q23 0 43 -12q13 19 13 35q0 33 -35 33q-34 0 -77 -35q-52 40 -52 97q0 101 102 103q57 0 128 -65q15 15 49 42q11 7 24 17t36 12q16 2 31 -14t38 -57q24 -39 24 -83q0 -54 -34 -128q48 -38 48 -121z" />
    <glyph glyph-name="u0997_u09CD_u0997" horiz-adv-x="638" 
d="M531 634v-637q57 -18 57 -73q0 -31 -23.5 -49t-55.5 -18t-56 19t-24 51q0 58 72 70v168q-137 114 -275 114q-57 0 -101 -23q-54 -29 -54 -79q0 -73 46 -76q67 82 148 82q114 0 114 -107q0 -64 -39 -110q-40 -49 -103 -49q-27 0 -48.5 20t-21.5 48q0 30 20.5 49t50.5 19
q49 0 68 -52q51 31 51 74q0 46 -86 46q-69 -1 -148 -85q-78 52 -78 144q0 66 59 116q30 26 65 38q-2 8 -2 17q0 30 20.5 49t50.5 19q49 0 68 -52q51 31 51 74q0 46 -86 46q-69 -1 -148 -85q-78 52 -78 144q0 66 59 116q55 48 125 48q162 0 272 -99v169h14l16 -90h149v-56
h-149zM501 531q-137 114 -275 114q-57 0 -101 -23q-54 -29 -54 -79q0 -73 46 -76q67 82 148 82q114 0 114 -107q0 -64 -39 -110l-1 -1q92 -23 162 -86v286z" />
    <glyph glyph-name="u0997_u09CD_u09A6" horiz-adv-x="928" 
d="M952 634h-496v-259q48 37 96 68t97 57q62 32 118 32q49 0 72 -29q2 -6 2 -11q0 -7 -51 -83q-51 -75 -51 -113q0 -93 32 -123q19 37 62 37q58 0 58 -68q0 -66 -69 -66q-64 0 -96 89q-20 60 -20 131q0 100 74 180q-20 -3 -35.5 -6t-26.5 -5q-38 -11 -57 -22
q-40 -25 -79.5 -52t-81.5 -56q8 -21 8 -36q-2 -62 -75 -63q-29 -1 -48.5 19.5t-19.5 49.5q0 59 58 69v117q-21 43 -57 77q-65 60 -151 60q-65 0 -108 -22q-58 -28 -58 -85q0 -35 24 -54q31 102 148 102q48 0 82 -28q36 -29 36 -74q0 -61 -39 -106q-40 -46 -100 -46
q-12 0 -24 5.5t-21 14.5t-15 20.5t-6 23.5q0 28 18.5 47.5t46.5 19.5q62 0 69 -52q53 23 53 74q0 47 -70 47q-154 0 -161 -108q-62 32 -62 124q0 68 57 115q55 44 124 44q73 -1 130 -36v36h613v-56zM423 634h-54q32 -24 54 -58v58z" />
    <glyph glyph-name="u0997_u09CD_u09A7" horiz-adv-x="786" 
d="M462 340q-54 -26 -99 -49t-81 -45q85 2 180 -32v126zM462 531q-98 134 -237 134q-155 0 -155 -89q0 -72 46 -76q67 82 148 82q114 0 114 -106q0 -63 -47 -110q-46 -46 -109 -46q-55 0 -55 64q0 30 20.5 49.5t49.5 19.5q49 0 68 -52q51 31 51 73q0 46 -86 46
q-70 -1 -148 -84q-78 52 -78 144q0 65 58 102q50 32 119 32q163 0 241 -103v169h13l15 -90h324v-56h-315v-160q44 35 84 35q33 0 58 -19t30 -51v-165q55 -19 55 -70q0 -70 -83 -70q-32 0 -53.5 19t-21.5 51q0 59 71 70v152q-20 21 -30 21q-81 0 -110 -50v-199q63 -12 63 -70
q0 -31 -25 -50t-56 -19t-56 19t-25 49q0 31 35 57q-84 22 -93 22q-39 0 -84 -12q-5 -1 -11 -1.5t-12 -0.5q-44 0 -44 41q0 28 57 63l79 44q67 37 135 87v104z" />
    <glyph glyph-name="u0997_u09CD_u09A7_u09AC_u09CD" horiz-adv-x="783" 
d="M462 340q-54 -26 -99 -49t-81 -45q85 2 180 -32v126zM462 531q-98 134 -237 134q-155 0 -155 -89q0 -72 46 -76q67 82 148 82q114 0 114 -106q0 -63 -47 -110q-46 -46 -109 -46q-55 0 -55 64q0 30 20.5 49.5t49.5 19.5q49 0 68 -52q51 31 51 73q0 46 -86 46
q-70 -1 -148 -84q-78 52 -78 144q0 65 58 102q50 32 119 32q163 0 241 -103v169h13l15 -90h324v-56h-315v-160q44 35 84 35q33 0 58 -19t30 -51v-165q55 -19 55 -70q0 -70 -83 -70q-32 0 -53.5 19t-21.5 51q0 59 71 70v152q-20 21 -30 21q-81 0 -110 -50v-199q63 -12 63 -70
q0 -31 -25 -50t-56 -19t-56 19t-25 49q0 31 35 57q-84 22 -93 22q-39 0 -84 -12q-5 -1 -11 -1.5t-12 -0.5q-44 0 -44 41q0 28 57 63l79 44q67 37 135 87v104zM502 165v-249q7 -9 7 -20.5t-7 -16.5q-14 -14 -41 -10.5t-43 31.5q-9 5 -26 11t-43 11q-29 3 -48.5 -0.5t-31 -7
t-23.5 -6.5t-33 -0.5t-22 39.5q0 54 112 117q45 25 86.5 50t80.5 50zM471 91q-31 -10 -104 -49q-18 -11 -42 -32t-55 -50q29 10 62 10q21 0 41 -6q68 -19 98 -49v176z" />
    <glyph glyph-name="u0997_u09CD_u09A7_u09F0_u09CD" horiz-adv-x="780" 
d="M462 340q-54 -26 -99 -49t-81 -45q85 2 180 -32v126zM462 531q-98 134 -237 134q-155 0 -155 -89q0 -72 46 -76q67 82 148 82q114 0 114 -106q0 -63 -47 -110q-46 -46 -109 -46q-55 0 -55 64q0 30 20.5 49.5t49.5 19.5q49 0 68 -52q51 31 51 73q0 46 -86 46
q-70 -1 -148 -84q-78 52 -78 144q0 65 58 102q50 32 119 32q163 0 241 -103v169h13l15 -90h324v-56h-315v-160q44 35 84 35q33 0 58 -19t30 -51v-165q55 -19 55 -70q0 -70 -83 -70q-32 0 -53.5 19t-21.5 51q0 59 71 70v152q-20 21 -30 21q-81 0 -110 -50v-199q63 -12 63 -70
q0 -31 -25 -50t-56 -19t-56 19t-25 49q0 31 35 57q-84 22 -93 22q-39 0 -84 -12q-5 -1 -11 -1.5t-12 -0.5q-44 0 -44 41q0 28 57 63l79 44q67 37 135 87v104zM540.794 -65.4932q0 -33.2236 -20.0703 -52.7676t-50.8164 -19.5439q-23.9141 0 -46.9736 17.5898
q-22.2061 17.5889 -22.2061 43.9727q0 39.0869 13.665 48.8584q-24.7676 20.5205 -70.0332 20.5205q-17.9355 0 -60.6387 -18.5664t-67.4707 -18.5664q-49.5361 0 -81.1367 26.3838q-36.7246 30.293 -36.7246 84.0371q0 29.3154 17.9355 47.8818t43.5566 18.5664
q20.498 0 35.8711 -18.0781t15.373 -41.5293q0 -41.042 -36.7246 -67.4258q17.0811 -4.88574 29.8926 -4.88574q17.9355 0 67.4707 22.4756q49.5361 23.4521 71.7412 23.4521q86.2607 0 117.861 -36.1553v127.032h29.8926v-135.827q49.5352 -15.6348 49.5352 -67.4248z" />
    <glyph glyph-name="u0997_u09CD_u09A8" horiz-adv-x="636" 
d="M582 2q0 -32 -24.5 -49.5t-57.5 -17.5t-57.5 19.5t-24.5 52.5q0 32 44 59q-70 67 -163 67q-110 0 -108 -74q22 40 68 40q27 0 45 -17.5t18 -44.5q0 -13 -6.5 -25t-16.5 -21t-23 -14.5t-26 -5.5q-18 0 -33 7.5t-26.5 20.5t-17.5 30.5t-6 36.5q0 52 39 87q37 32 91 32
q107 0 194 -113v116q-29 4 -48.5 22.5t-19.5 47.5q0 58 72 70v203q-137 114 -275 114q-57 0 -101 -23q-54 -29 -54 -79q0 -73 46 -76q67 82 148 82q114 0 114 -107q0 -64 -39 -110q-40 -49 -103 -49q-27 0 -48.5 20t-21.5 48q0 30 20.5 49t50.5 19q49 0 68 -52q51 31 51 74
q0 46 -86 46q-69 -1 -148 -85q-78 52 -78 144q0 66 59 116q55 48 125 48q162 0 272 -99v169h14l16 -90h140v-56h-140v-306q57 -18 57 -73q0 -25 -16 -41.5t-39 -22.5v-115q55 -22 55 -74z" />
    <glyph glyph-name="u0997_u09CD_u09AE" horiz-adv-x="809" 
d="M834 634h-129v-465q54 -17 54 -70q0 -70 -79 -70q-80 0 -80 65q0 45 35 62q-6 13 -39 38q-35 17 -59 13q11 -24 11 -62q0 -29 -29 -46q-23 -13 -55 -13q-28 0 -50.5 21.5t-22.5 49.5q0 16 5.5 31.5t15 28t23 20.5t28.5 10l30 7q-2 6 -5 11t-11 22v244q-137 114 -275 114
q-57 0 -101 -23q-54 -29 -54 -79q0 -73 46 -76q67 82 148 82q114 0 114 -107q0 -64 -39 -110q-40 -49 -103 -49q-27 0 -48.5 20t-21.5 48q0 30 20.5 49t50.5 19q49 0 68 -52q51 31 51 74q0 46 -86 46q-69 -1 -148 -85q-78 52 -78 144q0 66 59 116q55 48 125 48
q162 0 272 -99v169h14l16 -90h327v-56zM506 296q5 -10 9.5 -20.5t7.5 -19.5q109 -9 151 -88v466h-167v-338h-1z" />
    <glyph glyph-name="u0997_u09F0_u09CD" horiz-adv-x="640" 
d="M656 634h-124v-389q57 -18 57 -73q0 -31 -23.5 -49t-55.5 -18q-31 0 -54.5 17.5t-25.5 46.5q-36 14 -40 14q-31 0 -115 -48t-110 -48q-133 0 -133 95q0 30 18.5 50t48.5 20q23 0 41 -18.5t18 -41.5q0 -46 -43 -53q24 -8 50 -8q22 0 105 51q82 51 122 51q26 0 56 -11
q19 17 54 23v286q-137 114 -275 114q-57 0 -101 -23q-54 -29 -54 -79q0 -73 46 -76q67 82 148 82q114 0 114 -107q0 -64 -39 -110q-40 -49 -103 -49q-27 0 -48.5 20t-21.5 48q0 30 20.5 49t50.5 19q49 0 68 -52q51 31 51 74q0 46 -86 46q-69 -1 -148 -85q-78 52 -78 144
q0 66 59 116q55 48 125 48q162 0 272 -99v169h14l16 -90h124v-56z" />
    <glyph glyph-name="u0997_u09F0_u09CD_u09C1" horiz-adv-x="862" 
d="M505 407l16 16q73 -73 142 -73q46 0 81 21q43 25 43 67q0 32 -22.5 54.5t-54.5 25.5q20 -18 20 -53q0 -25 -17 -40.5t-43 -15.5q-31 0 -49 22t-18 54q0 40 28 62q25 21 67 21q27 0 48.5 -10t36.5 -28t23 -42t8 -51q0 -32 -11 -58.5t-31 -45.5t-47 -29.5t-58 -10.5
q-16 0 -37 6t-43 16t-44 22.5t-40 25.5zM879 634h-361v56h361v-56zM656 634h-124v-389q57 -18 57 -73q0 -31 -23.5 -49t-55.5 -18q-31 0 -54.5 17.5t-25.5 46.5q-36 14 -40 14q-31 0 -115 -48t-110 -48q-133 0 -133 95q0 30 18.5 50t48.5 20q23 0 41 -18.5t18 -41.5
q0 -46 -43 -53q24 -8 50 -8q22 0 105 51q82 51 122 51q26 0 56 -11q19 17 54 23v286q-137 114 -275 114q-57 0 -101 -23q-54 -29 -54 -79q0 -73 46 -76q67 82 148 82q114 0 114 -107q0 -64 -39 -110q-40 -49 -103 -49q-27 0 -48.5 20t-21.5 48q0 30 20.5 49t50.5 19
q49 0 68 -52q51 31 51 74q0 46 -86 46q-69 -1 -148 -85q-78 52 -78 144q0 66 59 116q55 48 125 48q162 0 272 -99v169h14l16 -90h124v-56z" />
    <glyph glyph-name="u0997_u09F0_u09CD_u09C2" horiz-adv-x="838" 
d="M773 170q0 -70 -83 -70q-32 0 -53.5 19t-21.5 51q0 61 70 71v150q-19 22 -30 22q-44 0 -79 -7.5t-45 -21.5v72l7 4t19.5 9t30 9.5t37.5 4.5q33 0 60 -23t32 -54v-165q56 -20 56 -71zM856 634h-327v56h327v-56zM656 634h-124v-389q57 -18 57 -73q0 -31 -23.5 -49
t-55.5 -18q-31 0 -54.5 17.5t-25.5 46.5q-36 14 -40 14q-31 0 -115 -48t-110 -48q-133 0 -133 95q0 30 18.5 50t48.5 20q23 0 41 -18.5t18 -41.5q0 -46 -43 -53q24 -8 50 -8q22 0 105 51q82 51 122 51q26 0 56 -11q19 17 54 23v286q-137 114 -275 114q-57 0 -101 -23
q-54 -29 -54 -79q0 -73 46 -76q67 82 148 82q114 0 114 -107q0 -64 -39 -110q-40 -49 -103 -49q-27 0 -48.5 20t-21.5 48q0 30 20.5 49t50.5 19q49 0 68 -52q51 31 51 74q0 46 -86 46q-69 -1 -148 -85q-78 52 -78 144q0 66 59 116q55 48 125 48q162 0 272 -99v169h14l16 -90
h124v-56z" />
    <glyph glyph-name="u0997_u09CD_u09B2" horiz-adv-x="599" 
d="M622 634h-105v-545q57 -18 57 -73q0 -31 -23.5 -49t-55.5 -18t-56 19t-24 51q0 58 72 70v73l-1 1q-53 36 -72 36q-8 0 -44 -46q1 -46 -43 -46q-42 0 -42 49q-50 39 -84 39q-113 0 -113 -72q0 -31 38 -55q4 75 67 75q69 0 69 -62q0 -33 -25.5 -53t-59.5 -20q-51 0 -82 32
t-31 83q0 60 37.5 94.5t98.5 34.5q69 0 123 -57q57 60 77 60q23 0 86 -60l1 -1v337q-137 114 -275 114q-57 0 -101 -23q-54 -29 -54 -79q0 -73 46 -76q67 82 148 82q114 0 114 -107q0 -64 -39 -110q-40 -49 -103 -49q-27 0 -48.5 20t-21.5 48q0 30 20.5 49t50.5 19
q49 0 68 -52q51 31 51 74q0 46 -86 46q-69 -1 -148 -85q-78 52 -78 144q0 66 59 116q55 48 125 48q162 0 272 -99v169h14l16 -90h105v-56z" />
    <glyph glyph-name="u0997_u09AC_u09CD" horiz-adv-x="603" 
d="M636 634h-119v-389q57 -18 57 -73q0 -31 -23.5 -49t-55.5 -18t-56 19t-24 51q0 58 72 70v286q-137 114 -275 114q-57 0 -101 -23q-54 -29 -54 -79q0 -73 46 -76q67 82 148 82q114 0 114 -107q0 -64 -39 -110q-40 -49 -103 -49q-27 0 -48.5 20t-21.5 48q0 30 20.5 49
t50.5 19q49 0 68 -52q51 31 51 74q0 46 -86 46q-69 -1 -148 -85q-78 52 -78 144q0 66 59 116q55 48 125 48q162 0 272 -99v145h30v-66h119v-56zM519 243v-249q7 -9 7 -20.5t-7 -16.5q-14 -14 -41 -10.5t-43 31.5q-9 5 -26 11t-43 11q-29 3 -48.5 -0.5t-31 -7t-23.5 -6.5
t-33 -0.5t-22 39.5q0 54 112 117q45 25 86.5 50t80.5 50zM488 169q-31 -10 -104 -49q-18 -11 -42 -32t-55 -50q29 10 62 10q21 0 41 -6q68 -19 98 -49v176z" />
    <glyph glyph-name="u0998_u09CD_u09A8" horiz-adv-x="614" 
d="M541 -54q0 -32 -24.5 -49.5t-57.5 -17.5t-57.5 19.5t-24.5 52.5q0 32 44 59q-70 67 -163 67q-110 0 -108 -74q22 40 68 40q27 0 45 -17.5t18 -44.5q0 -13 -6.5 -25t-16.5 -21t-23 -14.5t-26 -5.5q-18 0 -33 7.5t-26.5 20.5t-17.5 30.5t-6 36.5q0 52 39 87q37 32 91 32
q107 0 194 -113v92q-26 3 -44 14q-28 16 -28 45q0 39 35 65q-34 43 -143 61q-39 7 -78 10.5t-79 2.5q-18 -5 -31 -5q-43 0 -43 33q0 25 34 44l80 58q-88 51 -88 117q0 62 31 81h-119v56h653v-56h-146v-391q56 -21 56 -75q0 -23 -28 -42q-15 -10 -26 -14v-92q55 -22 55 -74z
M454 634h-280q-88 -22 -88 -81q0 -83 135 -81l73 44l34 -62l-175 -102q86 0 146 -20q88 -30 155 -89v391z" />
    <glyph glyph-name="u0998_u09F0_u09CD" horiz-adv-x="569" 
d="M450 634h-280q-88 -22 -88 -81q0 -83 135 -81l73 44l34 -62l-175 -102q86 0 146 -20q88 -30 155 -89v391zM590 634h-110v-391q28 -11 39.5 -27.5t12.5 -42.5q0 -11 -5 -24t-19 -23q-27 -18 -51 -18q-30 0 -55 14q-28 16 -28 45q0 39 35 65q-34 43 -143 61q-39 7 -78 10.5
t-79 2.5q-18 -5 -31 -5q-43 0 -43 33q0 25 34 44l80 58q-88 51 -88 117q0 62 31 81h-105v56h603v-56zM450 634h-280q-88 -22 -88 -81q0 -83 135 -81l73 44l34 -62l-175 -102q86 0 146 -20q88 -30 155 -89v391zM590 634h-110v-391q28 -11 39.5 -27.5t12.5 -42.5q0 -11 -5 -24
t-19 -23q-27 -18 -51 -18q-30 0 -55 14q-28 16 -28 45q0 39 35 65q-34 43 -143 61q-39 7 -78 10.5t-79 2.5q-18 -5 -31 -5q-43 0 -43 33q0 25 34 44l80 58q-88 51 -88 117q0 62 31 81h-105v56h603v-56zM526 -27q0 -34 -23.5 -54t-59.5 -20q-28 0 -55 18q-26 18 -26 45
q0 40 16 50q-29 21 -82 21q-21 0 -71 -19t-79 -19q-58 0 -95 27q-43 31 -43 86q0 30 21 49t51 19q24 0 42 -18.5t18 -42.5q0 -42 -43 -69q20 -5 35 -5q21 0 79 23q58 24 84 24q101 0 138 -37v130h35v-139q58 -16 58 -69z" />
    <glyph glyph-name="u0998_u09AC_u09CD" horiz-adv-x="563" 
d="M450 634h-280q-88 -22 -88 -81q0 -83 135 -81l73 44l34 -62l-175 -102q86 0 146 -20q88 -30 155 -89v391zM590 634h-110v-391q28 -11 39.5 -27.5t12.5 -42.5q0 -11 -5 -24t-19 -23q-27 -18 -51 -18q-30 0 -55 14q-28 16 -28 45q0 39 35 65q-34 43 -143 61q-39 7 -78 10.5
t-79 2.5q-18 -5 -31 -5q-43 0 -43 33q0 25 34 44l80 58q-88 51 -88 117q0 62 31 81h-105v56h603v-56zM472 224v-249q7 -9 7 -20.5t-7 -16.5q-14 -14 -41 -10.5t-43 31.5q-9 5 -26 11t-43 11q-29 3 -48.5 -0.5t-31 -7t-23.5 -6.5t-33 -0.5t-22 39.5q0 54 112 117
q45 25 86.5 50t80.5 50zM441 150q-31 -10 -104 -49q-18 -11 -42 -32t-55 -50q29 10 62 10q21 0 41 -6q68 -19 98 -49v176z" />
    <glyph glyph-name="u0999_u09CD_u0995" horiz-adv-x="680" 
d="M359 385q-75 -19 -133.5 -42.5t-102.5 -52.5q34 9 76 9q101 0 160 -50v136zM339 634q35 -83 136 -83q100 0 114 83h-250zM696 634h-84q-17 -137 -138 -137q-120 0 -159 137h-141q19 -12 26 -46q52 -3 103 -48q44 -40 69 -94h40q71 0 134 -31q89 -44 89 -120
q0 -44 -27 -80q-28 -40 -71 -40q-88 0 -88 72q0 29 17.5 47.5t46.5 18.5q22 0 42 -12.5t20 -33.5q0 -42 -16 -49q48 4 48 69q0 52 -73 80q-57 23 -117 23h-28v-147q55 -24 55 -73q0 -31 -24.5 -48.5t-56.5 -17.5q-80 0 -80 69q0 52 43 62q0 5 -76 21q-14 3 -39 3
q-50 0 -99 -16q-4 -1 -8.5 -1.5t-10.5 -0.5q-37 0 -45 29q-8 33 50 74q78 56 248 100q-5 15 -35 48q-51 41 -103 48q-6 -93 -84 -93q-28 0 -46.5 20t-18.5 48q0 81 109 78q-1 3 -4.5 9t-8.5 15q-9 12 -17 17h-162v56l720 -1v-55z" />
    <glyph glyph-name="u0999_u09CD_u0995_u09F0_u09CD" horiz-adv-x="690" 
d="M359 385q-75 -19 -133.5 -42.5t-102.5 -52.5q34 9 76 9q101 0 160 -50v136zM339 634q35 -83 136 -83q100 0 114 83h-250zM696 634h-84q-17 -137 -138 -137q-120 0 -159 137h-141q19 -12 26 -46q52 -3 103 -48q44 -40 69 -94h40q71 0 134 -31q89 -44 89 -120
q0 -44 -27 -80q-28 -40 -71 -40q-88 0 -88 72q0 29 17.5 47.5t46.5 18.5q22 0 42 -12.5t20 -33.5q0 -42 -16 -49q48 4 48 69q0 52 -73 80q-57 23 -117 23h-28v-147q55 -24 55 -73q0 -31 -24.5 -48.5t-56.5 -17.5q-80 0 -80 69q0 52 43 62q0 5 -76 21q-14 3 -39 3
q-50 0 -99 -16q-4 -1 -8.5 -1.5t-10.5 -0.5q-37 0 -45 29q-8 33 50 74q78 56 248 100q-5 15 -35 48q-51 41 -103 48q-6 -93 -84 -93q-28 0 -46.5 20t-18.5 48q0 81 109 78q-1 3 -4.5 9t-8.5 15q-9 12 -17 17h-162v56l720 -1v-55zM472 -44q0 -34 -23.5 -54t-59.5 -20
q-28 0 -55 18q-26 18 -26 45q0 40 16 50q-17 11 -32.5 14.5t-32 1.5t-35 -8.5t-41.5 -15.5q-33 -13 -69.5 -10t-69.5 27q-43 31 -43 86q0 30 21 49t51 19q24 0 42 -18.5t18 -42.5q0 -42 -43 -69q20 -5 35 -5q21 0 79 23t100.5 18t75.5 -39l-1 139h35v-139q58 -16 58 -69z
" />
    <glyph glyph-name="u0999_u09CD_u0995_u09CD_u09B7" horiz-adv-x="1179" 
d="M209 634q8 19 23 33t33 20t38 4q4 -1 8 -1h900v-56h-341q6 -6 22 -33q10 -21 10 -42v-65q67 0 121 -14q122 -35 122 -135q0 -49 -25 -80q-28 -37 -73 -37q-43 0 -71 18q-34 22 -34 62q0 23 19.5 40t43.5 17q22 0 41 -13t19 -34q0 -20 -12 -39q72 7 72 65q0 94 -171 94
q-28 0 -52 -3v-193q25 -1 40.5 -24.5t15.5 -50.5q0 -31 -23.5 -47t-55.5 -16q-16 0 -31 6t-26 15.5t-18 23t-7 28.5q0 29 30 52q-91 68 -173 80v-16q0 -101 -100 -101q-32 0 -56 22.5t-24 54.5q0 46 31.5 73t77.5 27h33q1 58 -55 110q-24 -78 -90 -78h-1q-2 -8 -5 -17
l-26 -44q-59 -56 -138 -56q-119 0 -203 84q-75 75 -75 159q0 28 19 49.5t47 21.5q26 0 44.5 -19t18.5 -45q0 -52 -80 -70q10 -24 40 -66q52 -57 177 -57q117 0 149 65q-16 5 -29 16q-4 2 -7 5q-38 -30 -81 -30q-56 0 -96 40t-40 97q0 28 6 48q-40 8 -70 41q-34 36 -34 81
q0 15 12 30t28 15q49 -2 49 -45q0 -34 -41 -42q3 -13 9.5 -20.5t15.5 -12t19.5 -8t21.5 -7.5zM875 436q-178 19 -178 132q0 35 17 66h-165q9 -17 20 -49q3 -21 3 -41q0 -8 -0.5 -16t-1.5 -16q20 -21 52 -64q11 -21 19 -42.5t13 -43.5q25 -10 56 -24t68 -31q23 -14 47 -30
t50 -35v194zM475 560q34 0 63 -24q2 48 -1 58q-6 20 -20 40h-143q1 -6 1 -12q0 -87 -86 -85q-37 0 -64 38q-2 -10 -3 -20t-1 -20q0 -87 94 -81q37 2 57 29q22 45 25 48q19 31 37 31q9 0 17 -4q11 2 24 2zM875 578q0 24 -27 41q-23 15 -49 15q-31 0 -54 -17q-24 -18 -24 -49
q0 -79 154 -72v82z" />
    <glyph glyph-name="bn_uo_k_shh_ra" horiz-adv-x="1164" 
d="M189 634q8 19 23 33t33 20t38 4q4 -1 8 -1h900v-56h-341q6 -6 22 -33q10 -21 10 -42v-65q67 0 121 -14q122 -35 122 -135q0 -49 -25 -80q-28 -37 -73 -37q-43 0 -71 18q-34 22 -34 62q0 23 19.5 40t43.5 17q22 0 41 -13t19 -34q0 -20 -12 -39q72 7 72 65q0 94 -171 94
q-28 0 -52 -3v-193q25 -1 40.5 -24.5t15.5 -50.5q0 -31 -23.5 -47t-55.5 -16q-16 0 -31 6t-26 15.5t-18 23t-7 28.5q0 29 30 52q-91 68 -173 80v-16q0 -101 -100 -101q-32 0 -56 22.5t-24 54.5q0 46 31.5 73t77.5 27h33q1 58 -55 110q-24 -78 -90 -78h-1q-2 -8 -5 -17
l-26 -44q-59 -56 -138 -56q-119 0 -203 84q-75 75 -75 159q0 28 19 49.5t47 21.5q26 0 44.5 -19t18.5 -45q0 -52 -80 -70q10 -24 40 -66q52 -57 177 -57q117 0 149 65q-16 5 -29 16q-4 2 -7 5q-38 -30 -81 -30q-56 0 -96 40t-40 97q0 28 6 48q-40 8 -70 41q-34 36 -34 81
q0 15 12 30t28 15q49 -2 49 -45q0 -34 -41 -42q3 -13 9.5 -20.5t15.5 -12t19.5 -8t21.5 -7.5zM855 436q-178 19 -178 132q0 35 17 66h-165q9 -17 20 -49q3 -21 3 -41q0 -8 -0.5 -16t-1.5 -16q20 -21 52 -64q11 -21 19 -42.5t13 -43.5q25 -10 56 -24t68 -31q23 -14 47 -30
t50 -35v194zM455 560q34 0 63 -24q2 48 -1 58q-6 20 -20 40h-143q1 -6 1 -12q0 -87 -86 -85q-37 0 -64 38q-2 -10 -3 -20t-1 -20q0 -87 94 -81q37 2 57 29q22 45 25 48q19 31 37 31q9 0 17 -4q11 2 24 2zM855 578q0 24 -27 41q-23 15 -49 15q-31 0 -54 -17q-24 -18 -24 -49
q0 -79 154 -72v82zM929 -55q0 -34 -23.5 -54t-59.5 -20q-28 0 -55 18q-26 18 -26 45q0 40 16 50q-29 21 -82 21q-21 0 -71 -19t-79 -19q-58 0 -95 27q-43 31 -43 86q0 30 21 49t51 19q24 0 42 -18.5t18 -42.5q0 -42 -43 -69q20 -5 35 -5q21 0 79 23q58 24 84 24
q101 0 138 -37v130h35v-139q58 -16 58 -69z" />
    <glyph glyph-name="u0999_u09CD_u0996" horiz-adv-x="1019" 
d="M1045 634h-122v-391q49 -24 49 -73q0 -29 -23.5 -47.5t-53.5 -18.5q-34 0 -58.5 18t-24.5 51q0 27 27 56q-16 33 -89 66q-81 37 -174 38q-28 -34 -74 -34q-14 0 -27 6t-23.5 15.5t-16.5 22.5t-6 28q0 31 21.5 53.5t53.5 22.5q50 0 71 -47q206 35 206 141q0 49 -39 75
q-51 -113 -167 -113q-44 0 -87 29q-45 31 -51 75v17q0 43 21.5 72t63.5 29q28 0 47 -19.5t19 -47.5q0 -13 -6 -24.5t-16 -20.5t-23 -14t-26 -5q-31 0 -59 40q0 -79 113 -79q109 0 154 119q73 -30 73 -133q0 -124 -121 -176q26 -8 55 -18t61 -21q51 -27 100 -82v512h30v-66
h122v-56zM209 634q8 19 23 33t33 20t38.5 4t40.5 -15q31 -19 31 -54q0 -87 -86 -85q-37 0 -64 38q-2 -10 -3 -20t-1 -20q0 -87 94 -81q37 2 57 29q22 45 25 48q19 31 37 31q48 0 48 -98q0 -26 -17 -80l-26 -44q-59 -56 -138 -56q-119 0 -203 84q-75 75 -75 159q0 28 19 49.5
t47 21.5q26 0 44.5 -19t18.5 -45q0 -52 -80 -70q10 -24 40 -66q52 -57 177 -57q128 0 154 77q6 22 5 58q-58 -79 -127 -79q-56 0 -96 40t-40 97q0 28 6 48q-40 8 -70 41q-34 36 -34 81q0 15 12 30t28 15q49 -2 49 -45q0 -34 -41 -42q3 -13 9.5 -20.5t15.5 -12t19.5 -8
t21.5 -7.5l4 10z" />
    <glyph glyph-name="u0999_u09CD_u0997" horiz-adv-x="631" 
d="M273 634q17 -65 104 -65q91 0 105 65h-209zM652 634h-144q-18 -126 -126 -126q-107 0 -132 126h-120q9 -6 25 -27q3 -4 7.5 -11t9.5 -18q96 -23 125 -88q22 -48 22 -100q32 40 81 68q71 41 112 41q8 0 11 -3q23 -20 23 -39q0 -13 -45 -77q-45 -65 -45 -108q0 -31 17 -73
q16 19 55 19q25 0 44.5 -19.5t19.5 -44.5q0 -27 -18.5 -45.5t-45.5 -18.5q-56 0 -82 65q-19 48 -19 114q0 91 59 176q-12 -5 -30 -14t-41 -23q-57 -42 -107 -96q-76 -136 -163 -136q-46 0 -77 19q-35 23 -35 66q0 15 5.5 28.5t14.5 24t21 16.5t26 6q71 0 71 -59
q0 -33 -22 -40q139 21 139 153q0 139 -128 139q-68 0 -90 -43q40 13 51 13q26 0 45.5 -19.5t19.5 -45.5q0 -27 -19 -45.5t-46 -18.5q-82 0 -82 100q0 86 103 108l-17 28q-14 18 -29 28h-115v56h671v-56z" />
    <glyph glyph-name="u0999_u09CD_u0998" horiz-adv-x="931" 
d="M209 634q13 31 40.5 46.5t59.5 9.5h645l-1 -56h-115v-391q28 -11 39.5 -27.5t12.5 -42.5q0 -11 -5 -24t-19 -23q-27 -18 -51 -18q-30 0 -55 14q-28 16 -28 45q0 39 35 65q-34 43 -143 61q-39 7 -78 10.5t-79 2.5q-18 -5 -31 -5q-25 0 -35 10q-45 -27 -100 -27
q-119 0 -203 84q-75 75 -75 159q0 28 19 49.5t47 21.5q26 0 44.5 -19t18.5 -45q0 -52 -80 -70q10 -24 40 -66q52 -57 177 -57q128 0 154 77q6 22 5 58q-58 -79 -127 -79q-56 0 -96 40t-40 97q0 28 6 48q-40 8 -70 41q-34 36 -34 81q0 15 12 30t28 15q49 -2 49 -45
q0 -34 -41 -42q3 -13 9.5 -20.5t15.5 -12t19.5 -8t21.5 -7.5l4 10zM808 634h-280q-82 -21 -88 -73q36 -5 41 -74q33 -16 94 -15l73 44l34 -62l-175 -102q86 0 146 -20q88 -30 155 -89v391zM374 634q0 -3 0.5 -6t0.5 -6q0 -87 -86 -85q-37 0 -64 38q-2 -10 -3 -20t-1 -20
q0 -87 94 -81q37 2 57 29q22 45 25 48q10 18 22 26q0 58 31 77h-76zM507 436q-7 4 -13.5 7.5t-12.5 8.5q-1 -8 -3 -18.5t-5 -22.5z" />
    <glyph glyph-name="u0999_u09CD_u0998_u09F0_u09CD" horiz-adv-x="935" 
d="M209 634q13 31 40.5 46.5t59.5 9.5h645l-1 -56h-115v-391q28 -11 39.5 -27.5t12.5 -42.5q0 -11 -5 -24t-19 -23q-27 -18 -51 -18q-30 0 -55 14q-28 16 -28 45q0 39 35 65q-34 43 -143 61q-39 7 -78 10.5t-79 2.5q-18 -5 -31 -5q-25 0 -35 10q-45 -27 -100 -27
q-119 0 -203 84q-75 75 -75 159q0 28 19 49.5t47 21.5q26 0 44.5 -19t18.5 -45q0 -52 -80 -70q10 -24 40 -66q52 -57 177 -57q128 0 154 77q6 22 5 58q-58 -79 -127 -79q-56 0 -96 40t-40 97q0 28 6 48q-40 8 -70 41q-34 36 -34 81q0 15 12 30t28 15q49 -2 49 -45
q0 -34 -41 -42q3 -13 9.5 -20.5t15.5 -12t19.5 -8t21.5 -7.5l4 10zM808 634h-280q-82 -21 -88 -73q36 -5 41 -74q33 -16 94 -15l73 44l34 -62l-175 -102q86 0 146 -20q88 -30 155 -89v391zM374 634q0 -3 0.5 -6t0.5 -6q0 -87 -86 -85q-37 0 -64 38q-2 -10 -3 -20t-1 -20
q0 -87 94 -81q37 2 57 29q22 45 25 48q10 18 22 26q0 58 31 77h-76zM507 436q-7 4 -13.5 7.5t-12.5 8.5q-1 -8 -3 -18.5t-5 -22.5zM898 -27q0 -34 -23.5 -54t-59.5 -20q-28 0 -55 18q-26 18 -26 45q0 40 16 50q-29 21 -82 21q-21 0 -71 -19t-79 -19q-58 0 -95 27
q-43 31 -43 86q0 30 21 49t51 19q24 0 42 -18.5t18 -42.5q0 -42 -43 -69q20 -5 35 -5q21 0 79 23q58 24 84 24q101 0 138 -37v130h35v-139q58 -16 58 -69z" />
    <glyph glyph-name="u0999_u09CD_u09AE" horiz-adv-x="959" 
d="M979 634h-127v-395q57 -9 57 -70q0 -33 -34 -52q-23 -13 -48 -13q-34 0 -56 16q-25 18 -25 50q0 29 35 61q-46 102 -140 150q-29 -81 -110 -81q-29 0 -51.5 14.5t-33.5 38.5l-7 -13q-59 -56 -138 -56q-119 0 -203 84q-75 75 -75 159q0 28 19 49.5t47 21.5q26 0 44.5 -19
t18.5 -45q0 -52 -80 -70q10 -24 40 -66q52 -57 177 -57q120 0 150 68l6 19q4 18 3 48q-58 -79 -127 -79q-56 0 -96 40t-40 97q0 28 6 48q-40 8 -70 41q-34 36 -34 81q0 15 12 30t28 15q49 -2 49 -45q0 -34 -41 -42q3 -13 9.5 -20.5t15.5 -12t19.5 -8t21.5 -7.5l4 10l4 10
q13 31 40.5 46.5t59.5 9.5h670v-56zM820 634h-313q146 -12 146 -172q0 -15 -3 -22q119 -63 170 -201v395zM434 562q46 0 48 -95q22 14 50 14q52 0 92 -32q5 15 5 32q0 47 -45 74q-37 23 -86 23q-3 0 -9 -2.5t-13 -5l-14 -5t-13 -2.5q-39 0 -39 39q0 14 24 32h-60
q0 -3 0.5 -6t0.5 -6q0 -87 -86 -85q-37 0 -64 38q-2 -10 -3 -20t-1 -20q0 -87 94 -81q37 2 57 29q22 45 25 48q19 31 37 31z" />
    <glyph glyph-name="u0999_u09F0_u09CD" horiz-adv-x="621" 
d="M448 575q0 32 -14 46t-42 14q-38 0 -54 -14t-17 -46v-64h38q89 0 89 64zM584 380q0 -103 -62 -176q-65 -75 -167 -75q-143 0 -259 206q-63 115 -63 237q0 61 50 61q51 0 51 -49q0 -51 -55 -61q8 -188 127 -281q68 -53 150 -53q81 0 142 55q62 56 62 136q0 40 -13 56
q-63 -141 -173 -141q-69 0 -79 97v75q-57 4 -101 52q-43 46 -43 104q0 19 15 37.5t34 18.5q62 -2 62 -56q0 -44 -52 -53q9 -12 31 -33q15 -8 28.5 -14.5t25.5 -11.5v81q0 99 94 99q42 0 66 -34q22 -28 22 -73q0 -57 -30.5 -89.5t-87.5 -32.5h-38v-70q16 -46 49 -46
q82 0 116 64q7 10 18 71q6 36 32 36q25 0 39 -59q9 -38 9 -78zM526 -44q0 -34 -23.5 -54t-59.5 -20q-28 0 -55 18q-26 18 -26 45q0 40 16 50q-29 21 -82 21q-21 0 -71 -19t-79 -19q-58 0 -95 27q-43 31 -43 86q0 30 21 49t51 19q24 0 42 -18.5t18 -42.5q0 -42 -43 -69
q20 -5 35 -5q21 0 79 23q58 24 84 24q101 0 138 -37v130h35v-139q58 -16 58 -69z" />
    <glyph glyph-name="u099A_u09CD_u099A" horiz-adv-x="786" 
d="M359 465q0 48 -57 50q-21 0 -60 -9q-20 -4 -34 -6t-24 -2q-42 0 -112 48v-156q0 -36 33 -54q28 -14 66 -14q54 0 118 44q70 46 70 99zM377 468q0 -88 -78 -149q-66 -51 -129 -51q-46 0 -82 24q-40 25 -40 70v272h-67v56h356v-56h-265v-44q58 -46 117 -46q13 0 42 6
q27 7 44 7q102 1 102 -89zM726 394q0 61 -118 61q-18 0 -47 -7q-28 -7 -45 -7q-92 -2 -133 96v-156q0 -44 60 -83q53 -34 101 -34q85 0 123 18q59 29 59 112zM811 634h-428v-51q36 -73 126 -73q12 0 34 5t34 5q69 0 114 -22q61 -28 61 -89q0 -108 -56 -169.5t-162 -61.5
q-70 0 -128 57q-52 52 -52 99v300h-52v56h509v-56z" />
    </font>
</defs>
</svg>
